<?xml version="1.0" encoding="UTF-8"?>
<svg version="1.1" xmlns="http://www.w3.org/2000/svg" width="512" height="512">
<path d="M0 0 C1.13771896 -0.00384115 2.27543792 -0.00768229 3.44763321 -0.01163983 C4.70821031 -0.01077335 5.96878741 -0.00990687 7.26756382 -0.00901413 C8.61183764 -0.01159641 9.95611069 -0.01460919 11.30038267 -0.01801753 C15.00698904 -0.02610672 18.71357607 -0.02787816 22.42019022 -0.028615 C26.41275675 -0.03046219 30.40531317 -0.03800776 34.39787388 -0.04475021 C43.13321409 -0.05834701 51.86854973 -0.06436016 60.60389876 -0.06876087 C66.05436504 -0.07152065 71.50482954 -0.07575748 76.95529461 -0.08026505 C92.03526638 -0.09245876 107.11523672 -0.10275833 122.19521332 -0.10614014 C123.16082966 -0.1063597 124.126446 -0.10657927 125.12132344 -0.10680549 C126.08929391 -0.10702377 127.05726437 -0.10724204 128.05456728 -0.10746694 C130.01615552 -0.10791041 131.97774377 -0.10835697 133.93933201 -0.10880661 C134.91235449 -0.10902804 135.88537697 -0.10924947 136.88788498 -0.10947761 C152.66407701 -0.11342795 168.4402229 -0.13088871 184.2163971 -0.15416613 C200.39938434 -0.17785184 216.5823484 -0.19034069 232.76535326 -0.19150805 C241.85729137 -0.19242631 250.94916937 -0.19821642 260.04109097 -0.21632767 C267.78104798 -0.2316911 275.52092631 -0.23687139 283.26089566 -0.22858956 C287.2126355 -0.22466985 291.16421669 -0.22567662 295.11593723 -0.23964691 C298.72998365 -0.25230709 302.34375093 -0.25125855 305.95779652 -0.2390562 C307.89209745 -0.2361482 309.82640284 -0.24809438 311.76066631 -0.26047826 C313.47115637 -0.25059349 313.47115637 -0.25059349 315.21620178 -0.24050903 C316.2042891 -0.24110612 317.19237641 -0.24170321 318.21040577 -0.24231839 C321.08647305 0.19453125 321.93178706 0.85090599 323.67102146 3.13142776 C324.93143418 5.65225319 324.79968586 7.38211591 324.80473423 10.20439529 C324.80899921 11.2783757 324.8132642 12.35235611 324.81765842 13.45888138 C324.81720524 14.64230118 324.81675205 15.82572098 324.81628513 17.04500198 C324.82132305 18.90848785 324.82132305 18.90848785 324.82646275 20.8096199 C324.8343512 24.22290296 324.83764128 27.6361252 324.83827853 31.0494132 C324.8392271 33.8973254 324.84290485 36.74523173 324.84645063 39.59314167 C324.8545991 46.31212416 324.85703453 53.03109325 324.8563242 59.75008011 C324.85572351 66.68353721 324.86627266 73.61691648 324.88206786 80.55035388 C324.8951401 86.50030505 324.90050822 92.45023077 324.89986879 98.40019619 C324.89961368 101.95501191 324.90247194 105.50975851 324.91304684 109.06455994 C324.92451903 113.02942576 324.91998292 116.99418475 324.91394138 120.95906448 C324.91956089 122.13843582 324.9251804 123.31780716 324.93097019 124.53291702 C324.92467846 126.15234711 324.92467846 126.15234711 324.91825962 127.80449295 C324.91880439 128.74212416 324.91934916 129.67975536 324.91991043 130.64579964 C324.65521483 133.28928697 324.10007047 134.90382135 322.67102146 137.13142776 C320.37448446 138.27969626 319.08788979 138.24703951 316.53820896 138.22908401 C315.7325449 138.22586136 314.92688084 138.2226387 314.09680271 138.21931839 C313.2550449 138.21093948 312.41328709 138.20256058 311.54602146 138.19392776 C310.69652927 138.18941605 309.84703709 138.18490433 308.97180271 138.18025589 C306.87151237 138.16845651 304.77125816 138.15052083 302.67102146 138.13142776 C302.6727302 139.18664587 302.6727302 139.18664587 302.67447346 140.26318151 C302.74155525 181.92375131 302.79305458 223.58431487 302.82421745 265.24492778 C302.82796973 270.24314597 302.83185268 275.24136404 302.83581638 280.23958206 C302.83660331 281.23466985 302.83739025 282.22975764 302.83820102 283.2549996 C302.85126776 299.38374013 302.87492856 315.5124487 302.90247985 331.64117024 C302.93049881 348.18117424 302.94719027 364.72116145 302.95328695 381.26118821 C302.95741069 391.47365157 302.9704519 401.6860246 302.99477086 411.89846017 C303.01058477 418.89413827 303.01543172 425.88976942 303.01152559 432.88546411 C303.00959724 436.92630449 303.01262757 440.96698664 303.02863789 445.00779915 C303.04317385 448.70333519 303.04401528 452.39860572 303.03371815 456.09415367 C303.0318386 458.07229735 303.04483386 460.05043764 303.05826539 462.02853662 C303.05229224 463.19448049 303.0463191 464.36042436 303.04016495 465.56169987 C303.04187369 467.07735357 303.04187369 467.07735357 303.04361695 468.62362653 C302.67102146 471.13142776 302.67102146 471.13142776 301.44770604 472.95594054 C299.12484372 474.49278901 297.6541397 474.50737712 294.87492466 474.50895119 C293.88151727 474.51677443 292.88810987 474.52459767 291.86459923 474.53265798 C290.7703548 474.52596582 289.67611036 474.51927365 288.54870701 474.51237869 C287.38853156 474.51705866 286.22835611 474.52173864 285.03302383 474.52656043 C281.80743175 474.5364781 278.58217651 474.53287897 275.35659266 474.52360177 C271.88005436 474.51683075 268.40356257 474.5272828 264.92703342 474.53554153 C258.11443951 474.54890196 251.30194458 474.54599089 244.48934674 474.53730361 C238.95406133 474.53053653 233.41880372 474.52960611 227.88351536 474.53287506 C227.0965854 474.53333476 226.30965545 474.53379446 225.49887913 474.53426809 C223.90039292 474.53522724 222.30190672 474.53619988 220.70342052 474.53718586 C205.70405628 474.54574652 190.70474699 474.53589505 175.70539176 474.51978476 C162.82704549 474.50638096 149.94878033 474.50870887 137.07043552 474.52254105 C122.12582182 474.53858495 107.18125632 474.54492248 92.23663521 474.53570426 C90.64393267 474.53474858 89.05123012 474.53380547 87.45852757 474.53287506 C86.28297724 474.53218082 86.28297724 474.53218082 85.08367842 474.53147256 C79.55315986 474.52887909 74.02267178 474.53326132 68.49215794 474.54031372 C61.75498807 474.54871573 55.0179231 474.54647608 48.2807653 474.53047149 C44.84141149 474.52257115 41.40223276 474.51952692 37.96288013 474.52941895 C34.23952164 474.53756381 30.51666223 474.52739803 26.79333591 474.51237869 C25.15196927 474.52241694 25.15196927 474.52241694 23.4774437 474.53265798 C22.4840363 474.52483474 21.49062891 474.5170115 20.46711826 474.50895119 C19.60715905 474.50846413 18.74719984 474.50797707 17.86118126 474.50747526 C15.67102146 474.13142776 15.67102146 474.13142776 13.89433688 472.95594054 C12.18984151 470.41377232 12.29843775 468.61318232 12.30187798 465.56169987 C12.29590483 464.39575599 12.28993168 463.22981212 12.28377753 462.02853662 C12.29251606 460.74158936 12.30125458 459.4546421 12.31025791 458.12869644 C12.30895035 456.75254694 12.30632485 455.37639816 12.30249041 454.00025338 C12.29576364 450.21021227 12.307808 446.42042418 12.3228246 442.63041532 C12.33574927 438.54658525 12.33139804 434.46277008 12.32911777 430.37892532 C12.32754277 423.30058077 12.33697562 416.22231901 12.35383129 409.14399529 C12.37818607 398.90987159 12.38602295 388.67578803 12.38979527 378.44163849 C12.39636529 361.83845635 12.41634138 345.23531835 12.4447031 328.63216019 C12.47222943 312.50130306 12.49346999 296.37045792 12.50622654 280.23958206 C12.50701471 279.2457007 12.50780288 278.25181935 12.50861493 277.22782037 C12.51252998 272.24193663 12.51632112 267.25605279 12.52005064 262.2701689 C12.5511637 220.8905578 12.60401448 179.51099531 12.67102146 138.13142776 C11.40645115 138.16623245 10.14188084 138.20103714 8.83899021 138.23689651 C7.17884723 138.26503453 5.51868991 138.29233468 3.85852146 138.31892776 C3.02514256 138.34406448 2.19176365 138.3692012 1.33313084 138.39509964 C0.12946873 138.40960159 0.12946873 138.40960159 -1.09850979 138.42439651 C-2.20609646 138.44796219 -2.20609646 138.44796219 -3.33605862 138.47200394 C-5.88915554 138.03569741 -6.72355473 137.11850583 -8.32897854 135.13142776 C-9.58939125 132.61060234 -9.45764294 130.88073962 -9.46269131 128.05846024 C-9.46695629 126.98447983 -9.47122128 125.91049942 -9.4756155 124.80397415 C-9.47516232 123.62055435 -9.47470913 122.43713455 -9.47424221 121.21785355 C-9.47760082 119.97552963 -9.48095943 118.73320572 -9.48441982 117.45323563 C-9.49230828 114.03995257 -9.49559836 110.62673033 -9.49623561 107.21344233 C-9.49718417 104.36553013 -9.50086192 101.5176238 -9.5044077 98.66971385 C-9.51255618 91.95073137 -9.51499161 85.23176228 -9.51428127 78.51277542 C-9.51368058 71.57931832 -9.52422973 64.64593905 -9.54002494 57.71250165 C-9.55309717 51.76255048 -9.55846529 45.81262475 -9.55782586 39.86265934 C-9.55757075 36.30784362 -9.56042901 32.75309702 -9.57100391 29.19829559 C-9.58247611 25.23342977 -9.57793999 21.26867078 -9.57189846 17.30379105 C-9.57751797 16.12441971 -9.58313747 14.94504837 -9.58892727 13.72993851 C-9.58473278 12.65031845 -9.58053829 11.57069839 -9.5762167 10.45836258 C-9.57676147 9.52073137 -9.57730623 8.58310017 -9.57786751 7.61705589 C-9.3131719 4.97356856 -8.75802754 3.35903418 -7.32897854 1.13142776 C-4.74559577 -0.16026362 -2.89425367 0.00365178 0 0 Z M5.67102146 14.13142776 C5.67102146 50.43142776 5.67102146 86.73142776 5.67102146 124.13142776 C105.99102146 124.13142776 206.31102146 124.13142776 309.67102146 124.13142776 C309.67102146 87.83142776 309.67102146 51.53142776 309.67102146 14.13142776 C209.35102146 14.13142776 109.03102146 14.13142776 5.67102146 14.13142776 Z M26.67102146 138.13142776 C26.67102146 244.39142776 26.67102146 350.65142776 26.67102146 460.13142776 C113.13102146 460.13142776 199.59102146 460.13142776 288.67102146 460.13142776 C288.67102146 353.87142776 288.67102146 247.61142776 288.67102146 138.13142776 C202.21102146 138.13142776 115.75102146 138.13142776 26.67102146 138.13142776 Z " fill="#000000" transform="translate(98.32897853851318,18.868572235107422)"/>
<path d="M0 0 C0.86615968 -0.00467997 1.73231936 -0.00935994 2.6247263 -0.01418173 C5.53830159 -0.02618468 8.45141112 -0.01665385 11.36499023 -0.00723267 C13.44921138 -0.01129601 15.53343037 -0.01663655 17.61764526 -0.02316284 C23.28696318 -0.03687041 28.95611782 -0.03152358 34.62543869 -0.02202559 C40.54977621 -0.0144468 46.47409945 -0.02146963 52.3984375 -0.02618408 C62.34857705 -0.03164683 72.29864987 -0.02443638 82.2487793 -0.01016235 C93.76351933 0.00616512 105.27810002 0.00087698 116.79283619 -0.01564157 C126.6671857 -0.02924163 136.54148716 -0.03118335 146.41584301 -0.02332556 C152.31860657 -0.0186409 158.22129517 -0.01804594 164.12405396 -0.02793503 C169.67262379 -0.03658088 175.22098756 -0.03062639 180.76953506 -0.01325226 C182.80977155 -0.00927466 184.85002528 -0.01044308 186.89025497 -0.01704025 C189.66779597 -0.02519564 192.44466988 -0.01500718 195.22216797 0 C196.4433122 -0.01003825 196.4433122 -0.01003825 197.68912601 -0.02027929 C203.05995469 0.03630182 203.05995469 0.03630182 205.6115818 1.63196373 C206.86169126 3.81947815 206.98835893 5.22689798 206.99203491 7.74569702 C207.00049438 8.63738586 207.00895386 9.52907471 207.01766968 10.44778442 C207.00856064 11.91130341 207.00856064 11.91130341 206.99926758 13.40438843 C207.00715302 14.94863495 207.00715302 14.94863495 207.01519775 16.52407837 C207.02842618 19.93485585 207.01964938 23.34516851 207.00952148 26.75595093 C207.0115414 29.12102346 207.01445214 31.48609538 207.01821899 33.85116577 C207.02264621 38.81102419 207.01619836 43.77072068 207.00219727 48.7305603 C206.98510535 55.09648528 206.99494438 61.46203085 207.01291466 67.82794189 C207.02374165 72.7126045 207.0203111 77.59717676 207.01253128 82.48184204 C207.01052628 84.82945805 207.01299901 87.1770822 207.01996994 89.52468872 C207.02756642 92.80251881 207.01600503 96.07972961 206.99926758 99.35751343 C207.00534027 100.33319275 207.01141296 101.30887207 207.01766968 102.31411743 C207.00498047 103.6516507 207.00498047 103.6516507 206.99203491 105.01620483 C206.99090384 105.79122345 206.98977276 106.56624207 206.98860741 107.36474609 C206.61108398 109.38095093 206.61108398 109.38095093 205.6115818 111.12993813 C202.37749085 113.15237931 198.92091602 112.7923069 195.22216797 112.76190186 C194.35600829 112.76658183 193.48984861 112.7712618 192.59744167 112.77608359 C189.68386638 112.78808654 186.77075684 112.77855571 183.85717773 112.76913452 C181.77295659 112.77319787 179.68873759 112.77853841 177.60452271 112.7850647 C171.93520478 112.79877226 166.26605015 112.79342544 160.59672928 112.78392744 C154.67239176 112.77634865 148.74806852 112.78337149 142.82373047 112.78808594 C132.87359092 112.79354869 122.9235181 112.78633824 112.97338867 112.77206421 C101.45864864 112.75573674 89.94406795 112.76102488 78.42933178 112.77754343 C68.55498227 112.79114349 58.68068081 112.7930852 48.80632496 112.78522742 C42.9035614 112.78054276 37.0008728 112.7799478 31.09811401 112.78983688 C25.54954418 112.79848274 20.0011804 112.79252825 14.4526329 112.77515411 C12.41239642 112.77117652 10.37214269 112.77234494 8.33191299 112.77894211 C5.554372 112.7870975 2.77749809 112.77690903 0 112.76190186 C-0.81409616 112.76859402 -1.62819231 112.77528619 -2.46695805 112.78218114 C-7.83778673 112.72560004 -7.83778673 112.72560004 -10.38941383 111.12993813 C-11.63952329 108.94242371 -11.76619096 107.53500387 -11.76986694 105.01620483 C-11.77832642 104.12451599 -11.78678589 103.23282715 -11.79550171 102.31411743 C-11.78942902 101.33843811 -11.78335632 100.36275879 -11.77709961 99.35751343 C-11.78235657 98.32801575 -11.78761353 97.29851807 -11.79302979 96.23782349 C-11.80625821 92.827046 -11.79748141 89.41673335 -11.78735352 86.00595093 C-11.78937343 83.6408784 -11.79228417 81.27580648 -11.79605103 78.91073608 C-11.80047824 73.95087766 -11.79403039 68.99118118 -11.7800293 64.03134155 C-11.76293738 57.66541657 -11.77277641 51.29987101 -11.79074669 44.93395996 C-11.80157368 40.04929736 -11.79814314 35.1647251 -11.79036331 30.28005981 C-11.78835831 27.9324438 -11.79083104 25.58481965 -11.79780197 23.23721313 C-11.80539845 19.95938304 -11.79383707 16.68217225 -11.77709961 13.40438843 C-11.7831723 12.42870911 -11.789245 11.45302979 -11.79550171 10.44778442 C-11.78704224 9.55609558 -11.77858276 8.66440674 -11.76986694 7.74569702 C-11.76873587 6.97067841 -11.76760479 6.19565979 -11.76643944 5.39715576 C-11.38891602 3.38095093 -11.38891602 3.38095093 -10.38941383 1.63196373 C-7.15532288 -0.39047746 -3.69874805 -0.03040505 0 0 Z M2.61108398 14.38095093 C2.61108398 42.10095093 2.61108398 69.82095093 2.61108398 98.38095093 C65.31108398 98.38095093 128.01108398 98.38095093 192.61108398 98.38095093 C192.61108398 70.66095093 192.61108398 42.94095093 192.61108398 14.38095093 C129.91108398 14.38095093 67.21108398 14.38095093 2.61108398 14.38095093 Z " fill="#000000" transform="translate(158.388916015625,178.61904907226563)"/>
<path d="M0 0 C3.96 0 7.92 0 12 0 C14.28393108 4.2330172 16.56244505 8.46888671 18.8359375 12.70751953 C19.61048702 14.14972814 20.38652377 15.59113904 21.1640625 17.03173828 C22.27994335 19.09981848 23.39048444 21.17068697 24.5 23.2421875 C24.84998047 23.88807831 25.19996094 24.53396912 25.56054688 25.19943237 C28 29.77225659 28 29.77225659 28 32 C28.66 32 29.32 32 30 32 C30.26280762 31.13938965 30.52561523 30.2787793 30.79638672 29.39208984 C32.01773146 25.95002823 33.51221834 22.93210813 35.2578125 19.7265625 C35.88300781 18.57285156 36.50820313 17.41914062 37.15234375 16.23046875 C37.80979094 15.02858845 38.46734434 13.82676624 39.125 12.625 C39.79080699 11.39997993 40.45617585 10.17472163 41.12109375 8.94921875 C42.74310571 5.96377644 44.3695313 2.98082961 46 0 C49.96 0 53.92 0 58 0 C58 18.48 58 36.96 58 56 C54.37 56 50.74 56 47 56 C46.67 45.11 46.34 34.22 46 23 C41.19032084 32.1204025 41.19032084 32.1204025 36.3972168 41.24951172 C35.79562744 42.38146973 35.19403809 43.51342773 34.57421875 44.6796875 C33.96151123 45.84226074 33.34880371 47.00483398 32.7175293 48.20263672 C31 51 31 51 28 53 C27.65743164 52.33991943 27.31486328 51.67983887 26.96191406 50.99975586 C25.39274792 47.97823691 23.82139213 44.95786184 22.25 41.9375 C21.71117187 40.89916016 21.17234375 39.86082031 20.6171875 38.79101562 C20.08867187 37.77587891 19.56015625 36.76074219 19.015625 35.71484375 C18.53383789 34.78792725 18.05205078 33.86101074 17.55566406 32.90600586 C15.76890564 29.56831197 13.87831061 26.28704356 12 23 C11.67 33.89 11.34 44.78 11 56 C7.37 56 3.74 56 0 56 C0 37.52 0 19.04 0 0 Z " fill="#000000" transform="translate(282,55)"/>
<path d="M0 0 C4.29 0 8.58 0 13 0 C15.31578383 5.40169504 17.62673426 10.80542517 19.93359375 16.2109375 C20.71585873 18.04220699 21.49934837 19.87295391 22.28417969 21.703125 C27.1437593 33.03800122 31.79897761 44.40361998 36 56 C31.71 56 27.42 56 23 56 C22.01 52.7 21.02 49.4 20 46 C11.42 46.33 2.84 46.66 -6 47 C-7.32 49.97 -8.64 52.94 -10 56 C-13.96 56 -17.92 56 -22 56 C-21.40423754 50.10762271 -19.13535914 45.12607022 -16.81640625 39.74609375 C-16.40083969 38.76761978 -15.98527313 37.78914581 -15.55711365 36.78102112 C-14.23169238 33.66386666 -12.89732129 30.55063918 -11.5625 27.4375 C-10.66800895 25.33945303 -9.77412213 23.24114834 -8.88085938 21.14257812 C-7.62202514 18.18528748 -6.36232895 15.22840197 -5.09779358 12.27354431 C-4.72077805 11.39235428 -4.34376251 10.51116425 -3.95532227 9.60327148 C-3.62524673 8.83305161 -3.2951712 8.06283173 -2.95509338 7.26927185 C-1.9404214 4.85844311 -0.97143012 2.4285753 0 0 Z M6 16 C4.66379191 19.14462004 3.33151712 22.29089113 2 25.4375 C1.42765625 26.78424805 1.42765625 26.78424805 0.84375 28.15820312 C0.4828125 29.01220703 0.121875 29.86621094 -0.25 30.74609375 C-0.75273437 31.93223267 -0.75273437 31.93223267 -1.265625 33.14233398 C-2.06127279 34.82206892 -2.06127279 34.82206892 -2 36 C3.61 36 9.22 36 15 36 C12.83836487 29.06001352 10.1063786 22.56882431 7 16 C6.67 16 6.34 16 6 16 Z " fill="#000000" transform="translate(186,55)"/>
<path d="M0 0 C0.85393341 -0.00525696 1.70786682 -0.01051392 2.587677 -0.01593018 C5.41410542 -0.0291483 8.23997197 -0.02038573 11.06640625 -0.01025391 C13.02791451 -0.01227412 14.98942205 -0.01518512 16.95092773 -0.01895142 C21.06338649 -0.02337723 25.17564987 -0.01693542 29.28808594 -0.00292969 C34.56442312 0.0141623 39.84030254 0.0043225 45.11662292 -0.01364708 C49.16747498 -0.02447796 53.21821818 -0.02104177 57.26907349 -0.0132637 C59.21477309 -0.01125977 61.16048252 -0.01372772 63.10617065 -0.02070236 C65.82365165 -0.02830538 68.54038715 -0.01672893 71.2578125 0 C72.06517853 -0.00607269 72.87254456 -0.01214539 73.70437622 -0.0184021 C79.13831383 0.04369751 79.13831383 0.04369751 81.62719727 1.79135132 C82.87545165 3.78120358 83.03050802 5.04722768 83.00390625 7.38818359 C83.01550781 8.40912109 83.01550781 8.40912109 83.02734375 9.45068359 C82.4755726 12.13380603 81.89312071 12.79828872 79.62890625 14.38818359 C76.76633477 14.68440251 74.12129461 14.79790518 71.2578125 14.77636719 C69.97691238 14.78425262 69.97691238 14.78425262 68.6701355 14.79229736 C65.84370708 14.80551549 63.01784053 14.79675292 60.19140625 14.78662109 C58.22989799 14.78864131 56.26839045 14.79155231 54.30688477 14.7953186 C50.19442601 14.79974441 46.08216263 14.79330261 41.96972656 14.77929688 C36.69338938 14.76220489 31.41750996 14.77204469 26.14118958 14.79001427 C22.09033752 14.80084514 18.03959432 14.79740896 13.98873901 14.78963089 C12.04303941 14.78762696 10.09732998 14.79009491 8.15164185 14.79706955 C5.43416085 14.80467256 2.71742535 14.79309612 0 14.77636719 C-0.80736603 14.78243988 -1.61473206 14.78851257 -2.44656372 14.79476929 C-7.88050133 14.73266968 -7.88050133 14.73266968 -10.36938477 12.98501587 C-11.61763915 10.99516361 -11.77269552 9.72913951 -11.74609375 7.38818359 C-11.75382813 6.70755859 -11.7615625 6.02693359 -11.76953125 5.32568359 C-10.51452405 -0.77709654 -5.15023274 -0.03873805 0 0 Z " fill="#000000" transform="translate(158.37109375,337.61181640625)"/>
<path d="M0 0 C15.18 0 30.36 0 46 0 C46 3.3 46 6.6 46 10 C40.06 10 34.12 10 28 10 C28 25.18 28 40.36 28 56 C24.7 56 21.4 56 18 56 C18 40.82 18 25.64 18 10 C12.06 10 6.12 10 0 10 C0 6.7 0 3.4 0 0 Z " fill="#000000" transform="translate(224,55)"/>
<path d="M0 0 C0.91974609 -0.020625 1.83949219 -0.04125 2.78710938 -0.0625 C3.67076172 -0.06765625 4.55441406 -0.0728125 5.46484375 -0.078125 C6.27429443 -0.0874707 7.08374512 -0.09681641 7.91772461 -0.10644531 C10.57021846 0.33437894 11.43766624 1.14851842 13.0625 3.25 C13.4609375 5.1875 13.4609375 5.1875 13.4375 7.25 C13.44523437 7.930625 13.45296875 8.61125 13.4609375 9.3125 C12.93780327 11.85636841 12.08156545 12.6397883 10.0625 14.25 C7.93359375 14.63818359 7.93359375 14.63818359 5.5 14.6484375 C4.62085938 14.65230469 3.74171875 14.65617187 2.8359375 14.66015625 C1.92070312 14.64855469 1.00546875 14.63695312 0.0625 14.625 C-1.31035156 14.64240234 -1.31035156 14.64240234 -2.7109375 14.66015625 C-3.59007812 14.65628906 -4.46921875 14.65242188 -5.375 14.6484375 C-6.57962891 14.64336182 -6.57962891 14.64336182 -7.80859375 14.63818359 C-10.45656732 14.15535355 -11.32043213 13.36928224 -12.9375 11.25 C-13.81862708 8.06438673 -14.22974053 6.08176152 -13.125 2.9375 C-10.19972779 -1.21946577 -4.57217918 0.02552508 0 0 Z " fill="#000000" transform="translate(316.9375,381.75)"/>
<path d="M0 0 C0.85464844 -0.01546875 1.70929688 -0.0309375 2.58984375 -0.046875 C8.79374216 -0.00816113 8.79374216 -0.00816113 12.0625 2.34375 C14.03449588 5.30174382 14.08088505 7.01468971 13.5 10.5 C12.0625 12.65625 12.0625 12.65625 9.5 14.5 C6.32356094 15.09463425 3.22291055 15.05833322 0 15 C-1.28197266 15.02320313 -1.28197266 15.02320313 -2.58984375 15.046875 C-8.79374216 15.00816113 -8.79374216 15.00816113 -12.0625 12.65625 C-14.03449588 9.69825618 -14.08088505 7.98531029 -13.5 4.5 C-10.05615965 -0.66576053 -5.64804542 -0.10222707 0 0 Z " fill="#000000" transform="translate(281.5,381.5)"/>
<path d="M0 0 C0.91974609 -0.020625 1.83949219 -0.04125 2.78710938 -0.0625 C3.67076172 -0.06765625 4.55441406 -0.0728125 5.46484375 -0.078125 C6.27429443 -0.0874707 7.08374512 -0.09681641 7.91772461 -0.10644531 C10.57021846 0.33437894 11.43766624 1.14851842 13.0625 3.25 C13.4609375 5.1875 13.4609375 5.1875 13.4375 7.25 C13.44523437 7.930625 13.45296875 8.61125 13.4609375 9.3125 C12.93780327 11.85636841 12.08156545 12.6397883 10.0625 14.25 C7.93359375 14.63818359 7.93359375 14.63818359 5.5 14.6484375 C4.62085938 14.65230469 3.74171875 14.65617187 2.8359375 14.66015625 C1.92070312 14.64855469 1.00546875 14.63695312 0.0625 14.625 C-1.31035156 14.64240234 -1.31035156 14.64240234 -2.7109375 14.66015625 C-3.59007812 14.65628906 -4.46921875 14.65242188 -5.375 14.6484375 C-6.57962891 14.64336182 -6.57962891 14.64336182 -7.80859375 14.63818359 C-10.45656732 14.15535355 -11.32043213 13.36928224 -12.9375 11.25 C-13.81862708 8.06438673 -14.22974053 6.08176152 -13.125 2.9375 C-10.19972779 -1.21946577 -4.57217918 0.02552508 0 0 Z " fill="#000000" transform="translate(316.9375,359.75)"/>
<path d="M0 0 C0.85464844 -0.01546875 1.70929688 -0.0309375 2.58984375 -0.046875 C8.79374216 -0.00816113 8.79374216 -0.00816113 12.0625 2.34375 C14.03449588 5.30174382 14.08088505 7.01468971 13.5 10.5 C12.0625 12.65625 12.0625 12.65625 9.5 14.5 C6.32356094 15.09463425 3.22291055 15.05833322 0 15 C-1.28197266 15.02320313 -1.28197266 15.02320313 -2.58984375 15.046875 C-8.79374216 15.00816113 -8.79374216 15.00816113 -12.0625 12.65625 C-14.03449588 9.69825618 -14.08088505 7.98531029 -13.5 4.5 C-10.05615965 -0.66576053 -5.64804542 -0.10222707 0 0 Z " fill="#000000" transform="translate(281.5,359.5)"/>
<path d="M0 0 C0.91974609 -0.020625 1.83949219 -0.04125 2.78710938 -0.0625 C3.67076172 -0.06765625 4.55441406 -0.0728125 5.46484375 -0.078125 C6.27429443 -0.0874707 7.08374512 -0.09681641 7.91772461 -0.10644531 C10.57021846 0.33437894 11.43766624 1.14851842 13.0625 3.25 C13.4609375 5.1875 13.4609375 5.1875 13.4375 7.25 C13.44523437 7.930625 13.45296875 8.61125 13.4609375 9.3125 C12.93780327 11.85636841 12.08156545 12.6397883 10.0625 14.25 C7.93359375 14.63818359 7.93359375 14.63818359 5.5 14.6484375 C4.62085938 14.65230469 3.74171875 14.65617187 2.8359375 14.66015625 C1.92070312 14.64855469 1.00546875 14.63695312 0.0625 14.625 C-1.31035156 14.64240234 -1.31035156 14.64240234 -2.7109375 14.66015625 C-3.59007812 14.65628906 -4.46921875 14.65242188 -5.375 14.6484375 C-6.57962891 14.64336182 -6.57962891 14.64336182 -7.80859375 14.63818359 C-10.45656732 14.15535355 -11.32043213 13.36928224 -12.9375 11.25 C-13.81862708 8.06438673 -14.22974053 6.08176152 -13.125 2.9375 C-10.19972779 -1.21946577 -4.57217918 0.02552508 0 0 Z " fill="#000000" transform="translate(316.9375,337.75)"/>
<path d="M0 0 C0.85464844 -0.01546875 1.70929688 -0.0309375 2.58984375 -0.046875 C8.79374216 -0.00816113 8.79374216 -0.00816113 12.0625 2.34375 C14.03449588 5.30174382 14.08088505 7.01468971 13.5 10.5 C12.0625 12.65625 12.0625 12.65625 9.5 14.5 C6.32356094 15.09463425 3.22291055 15.05833322 0 15 C-1.28197266 15.02320313 -1.28197266 15.02320313 -2.58984375 15.046875 C-8.79374216 15.00816113 -8.79374216 15.00816113 -12.0625 12.65625 C-14.03449588 9.69825618 -14.08088505 7.98531029 -13.5 4.5 C-10.05615965 -0.66576053 -5.64804542 -0.10222707 0 0 Z " fill="#000000" transform="translate(281.5,337.5)"/>
<path d="M0 0 C1.31871094 -0.00580078 1.31871094 -0.00580078 2.6640625 -0.01171875 C3.57929688 -0.00011719 4.49453125 0.01148438 5.4375 0.0234375 C6.81035156 0.00603516 6.81035156 0.00603516 8.2109375 -0.01171875 C9.09007812 -0.00785156 9.96921875 -0.00398438 10.875 0 C12.07962891 0.00507568 12.07962891 0.00507568 13.30859375 0.01025391 C15.93292255 0.48877257 16.81994566 1.3158124 18.4375 3.3984375 C18.8359375 5.3359375 18.8359375 5.3359375 18.8125 7.3984375 C18.82023437 8.0790625 18.82796875 8.7596875 18.8359375 9.4609375 C18.31280327 12.00480591 17.45656545 12.7882258 15.4375 14.3984375 C13.30859375 14.78662109 13.30859375 14.78662109 10.875 14.796875 C9.99585938 14.80074219 9.11671875 14.80460937 8.2109375 14.80859375 C7.29570312 14.79699219 6.38046875 14.78539062 5.4375 14.7734375 C4.06464844 14.79083984 4.06464844 14.79083984 2.6640625 14.80859375 C1.78492188 14.80472656 0.90578125 14.80085938 0 14.796875 C-1.20462891 14.79179932 -1.20462891 14.79179932 -2.43359375 14.78662109 C-5.05792255 14.30810243 -5.94494566 13.4810626 -7.5625 11.3984375 C-7.9609375 9.4609375 -7.9609375 9.4609375 -7.9375 7.3984375 C-7.94523437 6.7178125 -7.95296875 6.0371875 -7.9609375 5.3359375 C-7.04980083 0.90531212 -4.15278758 0.0174977 0 0 Z " fill="#000000" transform="translate(346.5625,381.6015625)"/>
<path d="M0 0 C1.31871094 -0.00580078 1.31871094 -0.00580078 2.6640625 -0.01171875 C3.57929688 -0.00011719 4.49453125 0.01148438 5.4375 0.0234375 C6.81035156 0.00603516 6.81035156 0.00603516 8.2109375 -0.01171875 C9.09007812 -0.00785156 9.96921875 -0.00398438 10.875 0 C12.07962891 0.00507568 12.07962891 0.00507568 13.30859375 0.01025391 C15.93292255 0.48877257 16.81994566 1.3158124 18.4375 3.3984375 C18.8359375 5.3359375 18.8359375 5.3359375 18.8125 7.3984375 C18.82023437 8.0790625 18.82796875 8.7596875 18.8359375 9.4609375 C18.31280327 12.00480591 17.45656545 12.7882258 15.4375 14.3984375 C13.30859375 14.78662109 13.30859375 14.78662109 10.875 14.796875 C9.99585938 14.80074219 9.11671875 14.80460937 8.2109375 14.80859375 C7.29570312 14.79699219 6.38046875 14.78539062 5.4375 14.7734375 C4.06464844 14.79083984 4.06464844 14.79083984 2.6640625 14.80859375 C1.78492188 14.80472656 0.90578125 14.80085938 0 14.796875 C-1.20462891 14.79179932 -1.20462891 14.79179932 -2.43359375 14.78662109 C-5.05792255 14.30810243 -5.94494566 13.4810626 -7.5625 11.3984375 C-7.9609375 9.4609375 -7.9609375 9.4609375 -7.9375 7.3984375 C-7.94523437 6.7178125 -7.95296875 6.0371875 -7.9609375 5.3359375 C-7.04980083 0.90531212 -4.15278758 0.0174977 0 0 Z " fill="#000000" transform="translate(346.5625,359.6015625)"/>
<path d="M0 0 C1.31871094 -0.00580078 1.31871094 -0.00580078 2.6640625 -0.01171875 C3.57929688 -0.00011719 4.49453125 0.01148438 5.4375 0.0234375 C6.81035156 0.00603516 6.81035156 0.00603516 8.2109375 -0.01171875 C9.09007812 -0.00785156 9.96921875 -0.00398438 10.875 0 C12.07962891 0.00507568 12.07962891 0.00507568 13.30859375 0.01025391 C15.93292255 0.48877257 16.81994566 1.3158124 18.4375 3.3984375 C18.8359375 5.3359375 18.8359375 5.3359375 18.8125 7.3984375 C18.82023437 8.0790625 18.82796875 8.7596875 18.8359375 9.4609375 C18.31280327 12.00480591 17.45656545 12.7882258 15.4375 14.3984375 C13.30859375 14.78662109 13.30859375 14.78662109 10.875 14.796875 C9.99585938 14.80074219 9.11671875 14.80460937 8.2109375 14.80859375 C7.29570312 14.79699219 6.38046875 14.78539062 5.4375 14.7734375 C4.06464844 14.79083984 4.06464844 14.79083984 2.6640625 14.80859375 C1.78492188 14.80472656 0.90578125 14.80085938 0 14.796875 C-1.20462891 14.79179932 -1.20462891 14.79179932 -2.43359375 14.78662109 C-5.05792255 14.30810243 -5.94494566 13.4810626 -7.5625 11.3984375 C-7.9609375 9.4609375 -7.9609375 9.4609375 -7.9375 7.3984375 C-7.94523437 6.7178125 -7.95296875 6.0371875 -7.9609375 5.3359375 C-7.04980083 0.90531212 -4.15278758 0.0174977 0 0 Z " fill="#000000" transform="translate(346.5625,337.6015625)"/>
</svg>
