<?xml version="1.0" encoding="UTF-8"?>
<svg version="1.1" xmlns="http://www.w3.org/2000/svg" width="512" height="512">
<path d="M0 0 C0.80888672 0.19867676 1.61777344 0.39735352 2.45117188 0.60205078 C14.40383198 3.64028407 25.27202142 7.93475523 36 14 C36.9590625 14.53109375 37.918125 15.0621875 38.90625 15.609375 C55.68816472 25.57980668 69.82284184 40.44708082 80 57 C80 57.66 80 58.32 80 59 C80.66 59 81.32 59 82 59 C82.37318359 57.93458984 82.37318359 57.93458984 82.75390625 56.84765625 C92.63238205 34.27270685 118.22484785 16.04740579 140.25 6.75 C145.94158636 4.60448053 151.69210277 2.83857151 157.5625 1.25 C158.65836426 0.95174316 158.65836426 0.95174316 159.77636719 0.64746094 C171.77648635 -2.41964536 183.74521702 -3.35205556 196.07592773 -3.31567383 C198.30046876 -3.31251707 200.52366894 -3.33607618 202.74804688 -3.36132812 C235.07301173 -3.50376807 265.33839521 8.28425198 290 29 C290.7115625 29.5878125 291.423125 30.175625 292.15625 30.78125 C319.14393438 53.61698294 333.54159014 89.50352459 337 124 C337.23621106 129.6225389 337.24567307 135.24801364 337.25 140.875 C337.25101212 142.05351028 337.25101212 142.05351028 337.25204468 143.25582886 C337.23628588 154.7920083 336.78536139 165.75665099 334 177 C333.76651855 178.02891357 333.76651855 178.02891357 333.52832031 179.07861328 C325.76722423 213.08956426 306.98529976 243.5665017 285.27587891 270.41992188 C284.08611803 271.89334943 282.90783038 273.37602093 281.73046875 274.859375 C276.67699355 281.16028462 271.29892233 287.09401037 265.7890625 292.9921875 C263.55491626 295.38773026 261.3844446 297.8271878 259.25 300.3125 C246.89703011 314.49887904 246.89703011 314.49887904 238.984375 315.30859375 C232.0791194 315.56872324 227.46933019 315.3298864 222 311 C216.31808302 305.43994719 214.81623967 300.51613251 214.5390625 292.79296875 C215.78594219 285.23772315 220.41349455 279.99001455 225.625 274.6875 C226.88200311 273.3741693 228.13851065 272.06036411 229.39453125 270.74609375 C230.00893066 270.10913574 230.62333008 269.47217773 231.25634766 268.81591797 C257.44538282 241.54147894 281.66088775 208.85589426 292 172 C292.31839844 170.94167969 292.63679688 169.88335937 292.96484375 168.79296875 C299.99980361 140.94490182 295.15901835 108.8460874 281.3125 83.8125 C267.88232685 61.39483455 246.87428686 46.5745864 221.5625 40.1875 C194.83299101 35.35284869 166.3791644 38.7246261 142.98828125 52.9140625 C137.49224834 56.750509 132.73079804 61.26920196 128 66 C127.40445312 66.59554687 126.80890625 67.19109375 126.1953125 67.8046875 C113.07483658 82.05990728 105.98807183 101.72986609 102.58496094 120.49414062 C99.90710004 135.08308133 99.90710004 135.08308133 93 140 C87.53102902 143.30202021 82.24219003 143.86234336 76 143 C69.85751781 141.17356282 65.35534958 137.41506329 62 132 C60.59766947 127.9279592 59.80407736 123.7880148 59 119.5625 C53.40937644 93.13476601 42.12743473 68.17793112 18.84375 52.69140625 C-4.72629832 38.67240773 -36.04727605 34.2499907 -62.765625 40.9609375 C-88.80289624 49.32556812 -109.35354578 64.44449414 -122 89 C-134.10624062 113.99101761 -137.42876898 145.17727265 -130 172 C-129.70609375 173.12535156 -129.4121875 174.25070313 -129.109375 175.41015625 C-126.63781422 183.73784052 -123.06474368 191.52713314 -119.375 199.375 C-118.91488525 200.3662085 -118.45477051 201.35741699 -117.98071289 202.37866211 C-116.98537592 204.44120575 -115.94242102 206.48126807 -114.85961914 208.49926758 C-113.86474356 210.37212054 -112.88588091 212.25687063 -112.02487183 214.19491577 C-109.54466676 219.76791848 -106.95297006 225.23707241 -102 229 C-94.45423142 231.67388045 -86.14827011 230.60040696 -78.3125 230.0625 C-76.14678178 229.97711558 -73.98073959 229.89956803 -71.81445312 229.83007812 C-66.53583763 229.64378194 -61.26943722 229.36045668 -56 229 C-53.05894015 223.14761569 -50.12169184 217.29333076 -47.1875 211.4375 C-46.75337799 210.57119965 -46.31925598 209.70489929 -45.87197876 208.81234741 C-40.29103765 197.66793596 -34.75226789 186.51102142 -29.4753418 175.21850586 C-27.39263357 170.7876159 -25.22015247 166.4137096 -22.9375 162.08203125 C-22.22980469 160.73782104 -22.22980469 160.73782104 -21.5078125 159.36645508 C-18.68401689 154.93461395 -14.97483534 152.65827845 -10 151 C-4.16677094 150.52493061 1.15976623 150.11274443 6.5 152.6875 C7.325 153.450625 8.15 154.21375 9 155 C9.795271 155.70576172 10.59054199 156.41152344 11.40991211 157.13867188 C14.50813205 160.56134486 16.11521688 163.89621109 17.94140625 168.09375 C18.48257835 169.29944389 18.48257835 169.29944389 19.03468323 170.52949524 C20.22174561 173.18152573 21.39226879 175.84050483 22.5625 178.5 C23.38885696 180.35678891 24.21618491 182.21314595 25.04443359 184.0690918 C26.79341108 187.99307492 28.53543913 191.92004755 30.27294922 195.84912109 C33.04601356 202.11407189 35.85200577 208.36399891 38.66015625 214.61328125 C40.03610544 217.68238763 41.41107184 220.75193126 42.78536987 223.82177734 C43.67600609 225.81012164 44.5678657 227.79791842 45.46096802 229.78515625 C46.71087801 232.56935673 47.95398896 235.35649401 49.1953125 238.14453125 C49.56733292 238.96979813 49.93935333 239.795065 50.32264709 240.64533997 C51.99193044 244.41179922 53.44479907 247.87838263 54 252 C54.66 252 55.32 252 56 252 C56.38260986 250.74014282 56.38260986 250.74014282 56.77294922 249.45483398 C58.10518478 245.70384604 59.79403205 242.24139411 61.6328125 238.72265625 C61.98834198 238.03425156 62.34387146 237.34584686 62.71017456 236.63658142 C63.84441604 234.4431046 64.98470089 232.25283261 66.125 230.0625 C66.86756345 228.62714755 67.60975393 227.19160209 68.3515625 225.75585938 C70.18953471 222.20270088 72.04128455 218.65693561 73.8977356 215.11340332 C75.0089955 212.98275267 76.10747925 210.84584749 77.20483398 208.70800781 C77.90834994 207.35333824 78.61219338 205.99883867 79.31640625 204.64453125 C79.63171295 204.02328873 79.94701965 203.4020462 80.2718811 202.76197815 C83.36627779 196.85854834 86.65955775 194.11348075 93 192 C101.06760597 191.39463851 106.91602637 191.53948032 113.27734375 196.9296875 C117.20475591 200.92269014 119.53673796 206.02883846 122.125 210.9375 C122.91197266 212.40219727 122.91197266 212.40219727 123.71484375 213.89648438 C125.1576574 216.5903453 126.5832639 219.2923528 128 222 C128.3412793 222.64598145 128.68255859 223.29196289 129.03417969 223.95751953 C131 227.7543413 131 227.7543413 131 230 C131.62116699 229.99111755 132.24233398 229.98223511 132.88232422 229.9730835 C139.37148804 229.88430657 145.86047816 229.82414 152.35009766 229.78027344 C154.7691143 229.76020935 157.18808276 229.73295157 159.60693359 229.69824219 C163.09224368 229.64949659 166.57691016 229.62697836 170.0625 229.609375 C171.13677246 229.58872986 172.21104492 229.56808472 173.31787109 229.54681396 C180.63483545 229.54464764 186.4030558 230.44887674 191.83984375 235.81640625 C192.20207031 236.39261719 192.56429688 236.96882812 192.9375 237.5625 C193.31777344 238.14128906 193.69804687 238.72007812 194.08984375 239.31640625 C197.12760477 244.93561227 196.99566692 252.32922797 195.3515625 258.390625 C193.11589464 263.39699234 189.79093455 266.41000522 185 269 C181.60745756 270.13084748 178.99809952 270.1407944 175.4206543 270.16113281 C174.42495926 270.16858017 174.42495926 270.16858017 173.40914917 270.17617798 C171.21416179 270.19077671 169.0192467 270.19759816 166.82421875 270.203125 C165.29588316 270.20887885 163.76754759 270.21463656 162.23921204 270.22039795 C159.03390161 270.23090178 155.82861622 270.23674831 152.62329102 270.24023438 C148.52431503 270.24571429 144.42567203 270.2697339 140.32680035 270.29820633 C137.16885932 270.31686945 134.01099787 270.32204028 130.85300636 270.32357025 C129.34238683 270.32658962 127.83176845 270.33459394 126.32120323 270.34775543 C124.20305754 270.36489163 122.08571699 270.36291769 119.9675293 270.35644531 C118.76412399 270.36009094 117.56071869 270.36373657 116.32084656 270.36749268 C109.93865489 269.66122436 106.25045879 266.59509058 102 262 C101.00355658 260.99645603 100.00433207 259.99564908 99 259 C98.40574219 260.16345947 97.81148438 261.32691895 97.19921875 262.52563477 C94.95657805 266.91547917 92.71217453 271.3044204 90.46728516 275.69311523 C89.50295013 277.57894378 88.53906924 279.46500464 87.57568359 281.35131836 C84.82092327 286.74474349 82.05781511 292.13371978 79.28060913 297.515625 C78.45108132 299.12490461 77.62380693 300.7353486 76.79922485 302.34716797 C75.72439924 304.44533364 74.63932202 306.53783139 73.55078125 308.62890625 C72.95177002 309.78849854 72.35275879 310.94809082 71.7355957 312.14282227 C68.75979789 317.04164936 65.42998575 319.19000475 60 321 C54.16677094 321.47506939 48.84023377 321.88725557 43.5 319.3125 C42.675 318.549375 41.85 317.78625 41 317 C40.204729 316.29423828 39.40945801 315.58847656 38.59008789 314.86132812 C35.49187854 311.43866684 33.88474545 308.10379528 32.05859375 303.90625 C31.69785767 303.10240875 31.33712158 302.2985675 30.9654541 301.47036743 C29.77853694 298.81830401 28.60804117 296.15932682 27.4375 293.5 C26.61047689 291.64391344 25.78241536 289.78828926 24.95336914 287.93310547 C22.74892926 282.99262842 20.55853627 278.0460443 18.37109375 273.09802246 C16.04663089 267.84583736 13.71035398 262.59891173 11.375 257.3515625 C8.68707498 251.31112065 6.00055169 245.27008979 3.32397461 239.22460938 C2.91465698 238.30070404 2.50533936 237.37679871 2.08361816 236.42489624 C1.31849744 234.69740514 0.55412623 232.96958179 -0.20935059 231.24136353 C-0.54897827 230.47480438 -0.88860596 229.70824524 -1.23852539 228.91845703 C-1.53207413 228.25459991 -1.82562286 227.5907428 -2.12806702 226.9067688 C-3.03971676 224.91314621 -4.00869506 222.9550741 -5 221 C-5.32162109 221.64324219 -5.64324219 222.28648437 -5.97460938 222.94921875 C-6.42642578 223.85285156 -6.87824219 224.75648438 -7.34375 225.6875 C-8.09495117 227.19026489 -8.09495117 227.19026489 -8.86132812 228.72338867 C-9.95820402 230.9166502 -11.05586668 233.10951843 -12.15429688 235.30200195 C-14.6001477 240.18614135 -17.04243261 245.07119159 -19.4375 249.98046875 C-19.79134766 250.70169922 -20.14519531 251.42292969 -20.50976562 252.16601562 C-21.14894072 253.47084052 -21.78340922 254.77798646 -22.41210938 256.08789062 C-25.57721586 262.52479257 -29.1140933 267.39150882 -36 270 C-40.04988608 270.57589145 -44.05708372 270.54682201 -48.14233398 270.51757812 C-49.95338623 270.52809204 -49.95338623 270.52809204 -51.80102539 270.53881836 C-55.09671666 270.55336177 -58.39176058 270.55001647 -61.68744159 270.53730202 C-65.14703337 270.52713152 -68.60658378 270.53657909 -72.06617737 270.54284668 C-77.87565808 270.55011236 -83.68493503 270.54056499 -89.49438477 270.52148438 C-96.19567318 270.49972773 -102.89647451 270.50676217 -109.59775108 270.52879 C-115.36616456 270.54698728 -121.13443206 270.54948099 -126.90286499 270.53903532 C-130.34153311 270.5328227 -133.77997289 270.53190244 -137.21862602 270.54518127 C-141.05550717 270.55536303 -144.89145934 270.53982014 -148.72827148 270.51757812 C-149.85735428 270.52567505 -150.98643707 270.53377197 -152.1497345 270.54211426 C-159.50921074 270.46325644 -165.37004144 269.58371705 -170.83984375 264.18359375 C-171.20207031 263.60738281 -171.56429687 263.03117187 -171.9375 262.4375 C-172.31777344 261.85871094 -172.69804687 261.27992188 -173.08984375 260.68359375 C-176.12760477 255.06438773 -175.99566692 247.67077203 -174.3515625 241.609375 C-172.11589464 236.60300766 -168.79093455 233.58999478 -164 231 C-160.98509443 229.99503148 -158.95818308 229.89664697 -155.8125 229.9375 C-154.91144531 229.94652344 -154.01039063 229.95554687 -153.08203125 229.96484375 C-152.05142578 229.98224609 -152.05142578 229.98224609 -151 230 C-151.70962891 228.77603516 -151.70962891 228.77603516 -152.43359375 227.52734375 C-167.34040709 201.12556835 -175.22310539 172.45342745 -175.25 142.1875 C-175.25100708 141.40443481 -175.25201416 140.62136963 -175.25305176 139.8145752 C-175.24274006 127.96886253 -174.73559811 116.57279455 -172 105 C-171.85014648 104.33709961 -171.70029297 103.67419922 -171.54589844 102.99121094 C-165.01222842 74.59540938 -150.03420999 46.39021604 -127 28 C-126.25266602 27.40082764 -126.25266602 27.40082764 -125.49023438 26.78955078 C-90.84295733 -0.66159675 -43.09394707 -10.75416213 0 0 Z " fill="#000000" transform="translate(175,27)"/>
<path d="M0 0 C1.01707031 -0.02578125 2.03414062 -0.0515625 3.08203125 -0.078125 C9.27051302 0.57575232 13.15577531 3.83881129 17.5625 8 C18.51769531 8.89074219 19.47289062 9.78148437 20.45703125 10.69921875 C21.35808594 11.54097656 22.25914062 12.38273437 23.1875 13.25 C24.53514528 14.44489573 25.88857188 15.63333204 27.25 16.8125 C30.25823528 19.42701942 33.22880249 22.07951656 36.1875 24.75 C39.16812721 27.43983431 42.15995233 30.11310364 45.1875 32.75 C49.08262811 36.14253093 52.91532763 39.60194201 56.75 43.0625 C58.88167481 44.97554149 61.0276911 46.86887612 63.1875 48.75 C67.08540485 52.14494939 70.92097057 55.60665884 74.7578125 59.0703125 C76.8435618 60.94145094 78.94567628 62.78924831 81.0625 64.625 C85.98494823 68.91611218 90.77942573 73.34591217 95.58007812 77.77197266 C97.17911403 79.24228908 98.78414257 80.7057958 100.390625 82.16796875 C108.21570426 89.31080704 115.75113295 96.70409563 123.1875 104.25 C126.6409417 102.76891127 128.83671326 100.82178301 131.453125 98.14453125 C132.26136719 97.32533203 133.06960938 96.50613281 133.90234375 95.66210938 C134.73894531 94.80423828 135.57554687 93.94636719 136.4375 93.0625 C141.57270432 87.81846482 146.70552715 82.67897901 152.28027344 77.90112305 C155.50298273 75.11116107 158.586091 72.17323692 161.6875 69.25 C166.1631487 65.05177436 170.64969747 60.88678594 175.3046875 56.88671875 C177.61380383 54.87941638 179.8653114 52.81274326 182.125 50.75 C198.03409612 36.47323074 198.03409612 36.47323074 206.6640625 36.16015625 C213.43415163 36.55899836 218.20306919 38.18616083 222.94921875 43.05859375 C227.26806453 48.54523932 227.81719968 53.26839725 227.69140625 60.13671875 C225.75513764 72.09955658 213.33560741 80.19302309 204.59130859 87.60253906 C195.45117246 95.28193487 195.45117246 95.28193487 186.87011719 103.56884766 C185.16869962 105.26878401 183.39790233 106.82058407 181.56640625 108.37890625 C176.82676493 112.4992243 172.41488347 116.91200799 168 121.375 C167.21947266 122.16003906 166.43894531 122.94507813 165.63476562 123.75390625 C164.13757957 125.25998146 162.64127406 126.76693271 161.14599609 128.27490234 C155.03923864 134.43342488 155.03923864 134.43342488 152.484375 136.8828125 C148.88792899 140.35211142 145.76962005 144.00098273 142.6875 147.9375 C138.0539896 153.58774384 135.29444045 156.69876615 127.95703125 157.68359375 C121.01957397 158.04794038 115.82053482 157.63511724 110.26953125 153.2890625 C106.9839717 150.07131 104.1434939 146.55847998 101.3203125 142.93359375 C98.52607126 139.41776273 95.42257391 136.35151581 92.1875 133.25 C88.83692252 129.90905574 85.5011434 126.55360599 82.16796875 123.1953125 C80.72915542 121.74911726 79.28985519 120.30340855 77.8503418 118.85791016 C76.87124233 117.873788 75.89304305 116.88876938 74.91577148 115.90283203 C69.74599307 110.68862924 64.55035497 105.56040452 58.96850586 100.78369141 C56.19485129 98.39519271 53.54401518 95.87893882 50.875 93.375 C46.959253 89.72657041 42.99684906 86.21749045 38.8125 82.875 C32.79576035 78.04751343 27.24219097 72.76729536 21.6328125 67.48046875 C18.50974078 64.53967421 15.32477908 61.68600823 12.07421875 58.88671875 C9.75091213 56.87126228 7.47001535 54.81151538 5.1875 52.75 C2.1849269 50.04080809 -0.82809045 47.3467312 -3.875 44.6875 C-4.50921875 44.130625 -5.1434375 43.57375 -5.796875 43 C-7.25322369 41.73557323 -8.72386812 40.48754824 -10.203125 39.25 C-19.4478827 31.37704505 -19.4478827 31.37704505 -20.08203125 24.19921875 C-20.42474906 12.9910769 -20.42474906 12.9910769 -16.8125 8.25 C-11.41061242 2.85936636 -7.81145441 0.11790875 0 0 Z " fill="#000000" transform="translate(131.8125,330.75)"/>
</svg>
