<?xml version="1.0" encoding="UTF-8"?>
<svg version="1.1" xmlns="http://www.w3.org/2000/svg" width="512" height="512">
<path d="M0 0 C1.13538208 -0.0098568 1.13538208 -0.0098568 2.29370117 -0.01991272 C4.79166789 -0.03957155 7.28957442 -0.05129712 9.78759766 -0.0612793 C10.64689503 -0.06535482 11.5061924 -0.06943035 12.39152908 -0.07362938 C16.94754034 -0.09446727 21.50352177 -0.10877396 26.05957031 -0.11816406 C30.72714357 -0.12917154 35.39423261 -0.1635118 40.06163597 -0.20333576 C43.68230976 -0.2297059 47.30287224 -0.23787422 50.92363358 -0.24144554 C52.64174258 -0.24626588 54.35984819 -0.2577468 56.07786179 -0.27648354 C70.14076662 -0.42021518 82.99329418 1.22341562 95.63916016 7.92700195 C96.30375244 8.26989258 96.96834473 8.6127832 97.65307617 8.96606445 C103.45283312 12.05513436 108.42221573 15.80790181 113.32666016 20.17700195 C114.05884766 20.76739258 114.79103516 21.3577832 115.54541016 21.96606445 C125.77082809 30.42723774 133.67384047 41.78774858 140.32666016 53.17700195 C141.26058594 54.72967773 141.26058594 54.72967773 142.21337891 56.3137207 C150.90129762 71.28317668 156.51640712 88.14996532 160.26416016 104.98950195 C160.45131592 105.8215918 160.63847168 106.65368164 160.83129883 107.51098633 C162.11904902 113.81921802 162.7688921 120.15787925 163.38745117 126.55859375 C163.47845345 127.48495384 163.56945572 128.41131393 163.66321564 129.36574554 C163.88600217 131.63600935 164.10710504 133.90642375 164.32666016 136.17700195 C164.98797219 136.17239299 165.64928423 136.16778402 166.33063602 136.16303539 C182.4838053 136.05221248 198.63685286 135.96967951 214.79031467 135.91794109 C222.60229277 135.89225037 230.4140158 135.85727675 238.22583008 135.79980469 C245.04122715 135.7496876 251.85643935 135.71764472 258.67201561 135.70655948 C262.27492465 135.70008805 265.87730519 135.68507446 269.48004341 135.64835167 C288.84312377 135.45880868 304.667318 135.45022751 320.32666016 148.17700195 C321.15939453 148.80348633 321.99212891 149.4299707 322.85009766 150.07543945 C333.15641949 158.82118259 337.98173882 171.27362259 340.32666016 184.17700195 C341.39625977 184.15605469 342.46585937 184.13510742 343.56787109 184.11352539 C347.54104189 184.0410557 351.51415441 183.99517732 355.48779297 183.95727539 C357.20664295 183.93717567 358.92542468 183.90989107 360.64404297 183.87524414 C363.11654505 183.82665161 365.58814226 183.8040176 368.06103516 183.78637695 C369.21125153 183.75540924 369.21125153 183.75540924 370.38470459 183.72381592 C373.61302176 183.7224621 375.95705314 183.97570203 378.81005859 185.52954102 C381.26093855 189.80792838 380.89648949 194.08251302 380.85791016 198.92700195 C380.86173706 199.97726562 380.86556396 201.0275293 380.86950684 202.10961914 C380.87222711 204.32870442 380.86485792 206.5478217 380.84814453 208.7668457 C380.82673761 212.16470791 380.84794341 215.56045556 380.87353516 218.95825195 C380.8708919 221.11450662 380.86576698 223.27075998 380.85791016 225.42700195 C380.86600708 226.44375 380.874104 227.46049805 380.88244629 228.50805664 C380.86353333 229.92973145 380.86353333 229.92973145 380.84423828 231.38012695 C380.84105591 232.21189453 380.83787354 233.04366211 380.83459473 233.90063477 C380.09178169 237.2296368 379.17174982 238.26322421 376.32666016 240.17700195 C373.1139084 240.74975403 369.94826503 240.68195235 366.69287109 240.63110352 C365.71692993 240.63168762 364.74098877 240.63227173 363.73547363 240.63287354 C360.51029875 240.63008726 357.28604855 240.59896882 354.06103516 240.56762695 C351.82473251 240.56016652 349.58842333 240.55447265 347.35211182 240.55047607 C341.46649116 240.53520433 335.58126542 240.49590877 329.69580078 240.45166016 C322.63404501 240.40354647 315.57215719 240.38518083 308.51028442 240.36184692 C297.78213502 240.3230592 287.05485209 240.24641513 276.32666016 240.17700195 C276.32666016 256.01700195 276.32666016 271.85700195 276.32666016 288.17700195 C310.64666016 288.17700195 344.96666016 288.17700195 380.32666016 288.17700195 C380.32666016 293.45700195 380.32666016 298.73700195 380.32666016 304.17700195 C221.92666016 304.17700195 63.52666016 304.17700195 -99.67333984 304.17700195 C-99.67333984 298.89700195 -99.67333984 293.61700195 -99.67333984 288.17700195 C-72.44833984 287.68200195 -72.44833984 287.68200195 -44.67333984 287.17700195 C-47.31333984 284.86700195 -49.95333984 282.55700195 -52.67333984 280.17700195 C-71.33921516 263.21055707 -82.72784854 240.82024447 -90.67333984 217.17700195 C-90.9245459 216.43015137 -91.17575195 215.68330078 -91.43457031 214.91381836 C-93.12816827 209.72724808 -94.48743412 204.50149809 -95.67333984 199.17700195 C-95.96748779 197.87255127 -95.96748779 197.87255127 -96.26757812 196.54174805 C-102.09635894 169.30423183 -102.72296872 137.43010368 -96.67333984 110.17700195 C-96.50705078 109.37891113 -96.34076172 108.58082031 -96.16943359 107.75854492 C-90.325357 80.145283 -79.4913596 55.11038425 -61.67333984 33.17700195 C-60.99787109 32.31719727 -60.32240234 31.45739258 -59.62646484 30.5715332 C-45.28882089 13.26219809 -22.72070448 0.08647179 0 0 Z M-42.67333984 38.17700195 C-43.35138672 38.7802832 -44.02943359 39.38356445 -44.72802734 40.00512695 C-69.57059503 62.95207702 -81.52443115 104.5781246 -82.96020508 137.3269043 C-83.08255378 141.60504164 -83.09606655 145.87961394 -83.06445312 150.15917969 C-83.04831719 152.74312889 -83.06445552 155.32552007 -83.08349609 157.90942383 C-83.10572574 174.03326533 -80.8800172 189.43563427 -76.36083984 204.92700195 C-76.09078125 205.90797852 -75.82072266 206.88895508 -75.54248047 207.8996582 C-73.14028169 216.33744983 -69.97821165 223.91482245 -66.67333984 232.17700195 C-54.13333984 232.17700195 -41.59333984 232.17700195 -28.67333984 232.17700195 C-29.66333984 229.20700195 -30.65333984 226.23700195 -31.67333984 223.17700195 C-37.86252337 204.30464641 -42.7264477 184.86144246 -42.91162109 164.90356445 C-42.92141495 164.03054688 -42.9312088 163.1575293 -42.94129944 162.25805664 C-43.39566353 111.21999153 -33.18524388 62.53065975 3.56884766 24.88012695 C5.47589605 22.96609303 7.39659267 21.06776943 9.32666016 19.17700195 C10.32779202 18.1781351 11.32819272 17.17853217 12.32666016 16.17700195 C-9.71234283 15.27745081 -27.0017736 23.17781314 -42.67333984 38.17700195 Z M12.32666016 39.17700195 C11.68212891 39.7493457 11.03759766 40.32168945 10.37353516 40.91137695 C-13.5924783 62.63757607 -24.75332571 103.6889137 -26.84811401 134.77020264 C-27.07303018 139.90034881 -27.10238068 145.02485842 -27.06445312 150.15917969 C-27.04831719 152.74312889 -27.06445552 155.32552007 -27.08349609 157.90942383 C-27.10262912 172.81475941 -25.35488514 187.47406699 -21.36083984 201.86450195 C-21.15499268 202.62996338 -20.94914551 203.3954248 -20.73706055 204.18408203 C-18.55672232 212.0367001 -15.70673949 219.61956297 -12.67333984 227.17700195 C-6.36400803 224.65403842 -1.52050785 218.71227353 3.27392578 214.03979492 C4.55754343 212.79941972 5.85354241 211.57172912 7.16162109 210.35717773 C14.57999477 204.01211785 14.57999477 204.01211785 18.80419922 195.66918945 C18.26296392 193.01364828 17.32378427 190.69781639 16.32666016 188.17700195 C15.73381056 185.51698398 15.20025947 182.88946706 14.73291016 180.20825195 C14.60268463 179.48222778 14.47245911 178.75620361 14.33828735 178.00817871 C12.91668402 169.5823187 12.77838501 161.2038424 12.82666016 152.67700195 C12.82809021 151.85505341 12.82952026 151.03310486 12.83099365 150.18624878 C12.947926 122.87593927 18.21115036 93.86238255 37.83447266 73.38012695 C45.11907269 66.94044918 52.71065818 64.28430916 62.38549805 64.46557617 C72.04110816 65.09808524 80.01850748 69.73688211 86.45947266 76.8059082 C95.28258172 88.01014921 101.25859462 100.82059625 103.38916016 114.92700195 C103.91015904 117.83092545 103.91015904 117.83092545 105.32666016 120.17700195 C108.45120358 121.74154771 111.40925156 122.44510924 114.81884766 123.19262695 C120.82326705 124.87760879 127.40617196 128.93653219 130.65087891 134.41137695 C132.33588083 136.56757238 132.33588083 136.56757238 135.90087891 136.56762695 C137.27251764 136.54112186 138.64387954 136.49353285 140.01416016 136.42700195 C140.71605469 136.40895508 141.41794922 136.3909082 142.14111328 136.37231445 C143.87021452 136.32526408 145.59861221 136.25352068 147.32666016 136.17700195 C144.72813667 102.24106091 134.33677507 69.58017442 112.32666016 43.17700195 C111.64023437 42.27014648 111.64023437 42.27014648 110.93994141 41.3449707 C101.53979312 29.29132711 85.43436865 19.33779714 70.32666016 17.17700195 C46.73941512 15.2641023 29.00883076 22.69225349 12.32666016 39.17700195 Z M43.63916016 91.67700195 C27.72496229 116.39558244 25.08007125 151.89238966 30.95166016 180.30200195 C33.70955879 192.37678517 37.64338634 204.31716331 45.32666016 214.17700195 C46.04853516 215.16700195 46.77041016 216.15700195 47.51416016 217.17700195 C49.25381633 219.42528116 49.25381633 219.42528116 52.32666016 220.17700195 C52.34124268 219.2233374 52.3558252 218.26967285 52.37084961 217.28710938 C52.42883808 213.74766611 52.50606974 210.20885872 52.58911133 206.66992188 C52.62235833 205.13845137 52.65039109 203.60685839 52.6730957 202.07519531 C52.70664734 199.87292309 52.75895926 197.67177283 52.81494141 195.4699707 C52.82133133 194.78549362 52.82772125 194.10101654 52.83430481 193.39579773 C52.92234099 190.54739857 53.01693155 188.61408316 54.68994141 186.25317383 C57.0820324 184.68033118 59.18131202 184.65614008 62.01416016 184.48950195 C63.00802734 184.42375977 64.00189453 184.35801758 65.02587891 184.2902832 C66.16476563 184.23420898 66.16476563 184.23420898 67.32666016 184.17700195 C66.97732422 183.4293457 66.62798828 182.68168945 66.26806641 181.91137695 C65.81302734 180.9265332 65.35798828 179.94168945 64.88916016 178.92700195 C64.43669922 177.9524707 63.98423828 176.97793945 63.51806641 175.97387695 C59.68875547 166.98441259 59.81660177 154.35843831 62.88916016 145.11450195 C67.95651756 133.58493963 76.9900226 126.2486556 88.32666016 121.17700195 C86.58408887 106.38292736 79.46151305 92.44644496 68.38916016 82.55200195 C58.06932821 77.91860802 49.95008954 83.27167623 43.63916016 91.67700195 Z M80.77197266 147.0793457 C76.6468812 153.06630276 76.61057873 159.12635408 77.32666016 166.17700195 C79.10008449 172.8217311 83.77332486 177.35068154 89.32666016 181.17700195 C95.32553019 184.11762452 102.20949546 184.27583983 108.63916016 182.55981445 C114.76798876 179.8545112 119.56618807 174.76836501 122.49853516 168.78637695 C124.4402563 162.66812355 124.38647926 155.59006813 121.63916016 149.73950195 C118.33291991 144.15588644 113.59447135 139.24416367 107.32666016 137.17700195 C95.48861281 135.68023735 88.41492132 138.13887319 80.77197266 147.0793457 Z M140.32666016 152.17700195 C140.32666016 162.73700195 140.32666016 173.29700195 140.32666016 184.17700195 C200.38666016 184.17700195 260.44666016 184.17700195 322.32666016 184.17700195 C320.79205645 173.43477599 316.12232581 167.04094372 307.89306641 160.0871582 C296.77140079 151.80938882 283.09505503 151.8763033 269.74560547 151.94995117 C268.32513436 151.95051679 266.90466267 151.9501958 265.48419189 151.94906616 C261.66678984 151.94849751 257.8495161 151.96017185 254.03214359 151.97421408 C250.02833283 151.98680368 246.02451842 151.98789837 242.02069092 151.99026489 C234.45621188 151.99645566 226.89179137 152.0128336 219.32733798 152.03296387 C210.70812675 152.05539812 202.08891257 152.06633514 193.46967936 152.07635474 C175.75529981 152.09720224 158.04100037 152.13384806 140.32666016 152.17700195 Z M68.32666016 200.17700195 C68.32666016 208.09700195 68.32666016 216.01700195 68.32666016 224.17700195 C166.00666016 224.17700195 263.68666016 224.17700195 364.32666016 224.17700195 C364.32666016 216.25700195 364.32666016 208.33700195 364.32666016 200.17700195 C266.64666016 200.17700195 168.96666016 200.17700195 68.32666016 200.17700195 Z M22.55102539 217.83911133 C21.32653351 219.06376252 20.10481308 220.29118848 18.88525391 221.52075195 C18.24298355 222.16443726 17.6007132 222.80812256 16.9389801 223.47131348 C14.87836004 225.53755274 12.82123491 227.60723364 10.76416016 229.67700195 C9.37181004 231.0743646 7.9792349 232.47150307 6.58642578 233.8684082 C3.16388278 237.30200568 -0.25552867 240.73869463 -3.67333984 244.17700195 C1.6123128 252.79030263 7.2440809 260.00636221 14.32666016 267.17700195 C15.11943359 267.99426758 15.91220703 268.8115332 16.72900391 269.65356445 C29.63865678 282.15509186 45.07778054 287.71367035 62.84521484 287.59716797 C81.22949742 287.0573668 95.77983253 277.93722582 108.32666016 265.17700195 C109.21482422 264.28754883 110.10298828 263.3980957 111.01806641 262.48168945 C120.83176107 252.50918797 120.83176107 252.50918797 126.32666016 240.17700195 C125.42178864 240.17557693 124.51691711 240.17415192 123.58462524 240.17268372 C115.02268916 240.15479334 106.46126594 240.1130016 97.89957619 240.04491138 C93.4987378 240.01074022 89.09824291 239.98554688 84.69726562 239.98144531 C80.44347223 239.97714102 76.19045242 239.94850369 71.93690109 239.90357018 C70.32079971 239.89066281 68.70460543 239.88626333 67.08845901 239.89084816 C54.10285421 239.91908531 45.16743958 237.53204078 35.43994141 228.51293945 C32.32971265 225.07501562 29.98053293 221.29100741 27.63916016 217.30200195 C27.20603516 216.60075195 26.77291016 215.89950195 26.32666016 215.17700195 C24.80596155 215.06163637 24.80596155 215.06163637 22.55102539 217.83911133 Z M145.32666016 240.17700195 C144.21291016 242.36325195 143.09916016 244.54950195 141.95166016 246.80200195 C136.24071286 257.67737148 129.45904007 267.87054787 120.32666016 276.17700195 C119.08916016 277.44543945 119.08916016 277.44543945 117.82666016 278.73950195 C115.21606872 281.28482861 112.4899929 283.61970322 109.68212891 285.94262695 C109.23482422 286.3499707 108.78751953 286.75731445 108.32666016 287.17700195 C108.32666016 287.50700195 108.32666016 287.83700195 108.32666016 288.17700195 C126.80666016 288.17700195 145.28666016 288.17700195 164.32666016 288.17700195 C164.32666016 272.33700195 164.32666016 256.49700195 164.32666016 240.17700195 C158.05666016 240.17700195 151.78666016 240.17700195 145.32666016 240.17700195 Z M180.32666016 240.17700195 C180.32666016 256.01700195 180.32666016 271.85700195 180.32666016 288.17700195 C206.72666016 288.17700195 233.12666016 288.17700195 260.32666016 288.17700195 C260.32666016 272.33700195 260.32666016 256.49700195 260.32666016 240.17700195 C233.92666016 240.17700195 207.52666016 240.17700195 180.32666016 240.17700195 Z M-56.67333984 248.17700195 C-52.83949828 254.88622469 -48.91093597 259.64359475 -43.67333984 265.17700195 C-43.02107422 265.8937207 -42.36880859 266.61043945 -41.69677734 267.34887695 C-29.69714685 280.08922538 -13.5044269 287.12456533 3.82666016 287.80200195 C5.06029297 287.86000977 5.06029297 287.86000977 6.31884766 287.91918945 C8.32113026 288.01231888 10.32386277 288.0956918 12.32666016 288.17700195 C9.70924435 285.54026943 7.07638592 282.92968868 4.38134766 280.37231445 C-5.70876377 270.6914965 -13.73458577 260.31982159 -20.67333984 248.17700195 C-32.55333984 248.17700195 -44.43333984 248.17700195 -56.67333984 248.17700195 Z " fill="#000000" transform="translate(115.67333984375,159.822998046875)"/>
<path d="M0 0 C1.01474593 -0.00679667 1.01474593 -0.00679667 2.04999179 -0.01373065 C4.30990242 -0.02635992 6.5695716 -0.02475526 8.82951355 -0.02310181 C10.45272124 -0.02908802 12.07592609 -0.03589378 13.6991272 -0.04345703 C18.1042017 -0.06111562 22.50919849 -0.06581237 26.91430497 -0.0670886 C29.66809473 -0.06851093 32.42186478 -0.0727821 35.17564964 -0.07808304 C44.78749723 -0.09658341 54.39928937 -0.10475371 64.01115417 -0.10317993 C72.96289881 -0.10197879 81.91440223 -0.12307579 90.86608583 -0.15466726 C98.55797927 -0.18084291 106.249794 -0.19154667 113.94173163 -0.19026911 C118.5329144 -0.18975982 123.12388282 -0.1954246 127.71502113 -0.21662521 C132.03498997 -0.23602915 136.35454047 -0.23611747 140.67452431 -0.22159195 C142.25631829 -0.21950536 143.8381386 -0.22419585 145.41988754 -0.23631287 C154.78468357 -0.30338194 162.02988652 -0.21985319 169.39274597 6.23226929 C169.9315741 6.88324585 170.47040222 7.53422241 171.02555847 8.20492554 C171.57985535 8.85332397 172.13415222 9.50172241 172.70524597 10.16976929 C175.90723508 14.8169805 176.39747269 18.76107268 176.37760925 24.35263062 C176.37790131 25.04586426 176.37819336 25.7390979 176.37849426 26.45333862 C176.37710744 28.73134127 176.36157714 31.00901169 176.34587097 33.28695679 C176.34213853 34.87164634 176.33929265 36.4563382 176.33729553 38.04103088 C176.32967725 42.20196967 176.31004435 46.36276774 176.28788757 50.52365112 C176.26378325 55.5213607 176.25463956 60.51911746 176.24298096 65.51686859 C176.22361882 73.10048529 176.18528383 80.68379354 176.15055847 88.26742554 C186.71055847 88.26742554 197.27055847 88.26742554 208.15055847 88.26742554 C208.15055847 93.54742554 208.15055847 98.82742554 208.15055847 104.26742554 C197.59055847 104.26742554 187.03055847 104.26742554 176.15055847 104.26742554 C176.19696472 106.98992554 176.24337097 109.71242554 176.29118347 112.51742554 C176.32244225 115.17512145 176.34669393 117.83279632 176.37028503 120.49057007 C176.39031221 122.32757847 176.41754229 124.16452383 176.45231628 126.00131226 C176.50122912 128.65267556 176.52361611 131.30319095 176.54118347 133.95492554 C176.56182861 134.76671265 176.58247375 135.57849976 176.60374451 136.41488647 C176.60637593 143.21027348 174.68316841 148.3773299 170.18571472 153.50961304 C169.53473816 154.04844116 168.8837616 154.58726929 168.21305847 155.14242554 C167.56466003 155.69672241 166.9162616 156.25101929 166.24821472 156.82211304 C161.68979258 159.96292531 157.78523487 160.51964934 152.30111694 160.53485107 C151.28637101 160.54164774 151.28637101 160.54164774 150.25112516 160.54858172 C147.99121452 160.56121099 145.73154534 160.55960633 143.47160339 160.55795288 C141.8483957 160.56393909 140.22519086 160.57074485 138.60198975 160.57830811 C134.19691524 160.5959667 129.79191845 160.60066345 125.38681197 160.60193968 C122.63302221 160.60336201 119.87925216 160.60763317 117.1254673 160.61293411 C107.51361971 160.63143449 97.90182757 160.63960478 88.28996277 160.63803101 C79.33821814 160.63682986 70.38671472 160.65792686 61.43503112 160.68951833 C53.74313767 160.71569398 46.05132294 160.72639775 38.35938531 160.72512019 C33.76820254 160.7246109 29.17723412 160.73027567 24.58609581 160.75147629 C20.26612697 160.77088022 15.94657647 160.77096854 11.62659264 160.75644302 C10.04479866 160.75435643 8.46297835 160.75904692 6.8812294 160.77116394 C-2.48356663 160.83823301 -9.72876958 160.75470427 -17.09162903 154.30258179 C-17.89987122 153.32611694 -17.89987122 153.32611694 -18.72444153 152.32992554 C-19.2787384 151.6815271 -19.83303528 151.03312866 -20.40412903 150.36508179 C-23.43373405 145.96806045 -24.09770596 142.20940174 -24.07649231 136.91659546 C-24.07634125 135.65566574 -24.07619019 134.39473602 -24.07603455 133.09559631 C-24.06582289 131.72969401 -24.05539093 130.36379334 -24.04475403 128.99789429 C-24.04102094 127.59256695 -24.03817536 126.187237 -24.03617859 124.78190613 C-24.02856542 121.09442886 -24.00893705 117.40711072 -23.98677063 113.71969604 C-23.96626212 109.95242504 -23.9570564 106.1851274 -23.94709778 102.41781616 C-23.92675167 95.03421237 -23.88759977 87.65104478 -23.84944153 80.26742554 C-34.40944153 80.26742554 -44.96944153 80.26742554 -55.84944153 80.26742554 C-55.84944153 74.98742554 -55.84944153 69.70742554 -55.84944153 64.26742554 C-45.28944153 64.26742554 -34.72944153 64.26742554 -23.84944153 64.26742554 C-23.89584778 60.96742554 -23.94225403 57.66742554 -23.99006653 54.26742554 C-24.02130587 51.05373674 -24.04556879 47.84006518 -24.06916809 44.62631226 C-24.08922199 42.40129971 -24.11647218 40.17633947 -24.15119934 37.95150757 C-24.19999087 34.74418189 -24.22247315 31.53755603 -24.24006653 28.32992554 C-24.26071167 27.34314819 -24.28135681 26.35637085 -24.30262756 25.33969116 C-24.30499763 17.96278148 -22.79117714 12.62439619 -17.88459778 7.02523804 C-17.23362122 6.48640991 -16.58264465 5.94758179 -15.91194153 5.39242554 C-15.26354309 4.83812866 -14.61514465 4.28383179 -13.94709778 3.71273804 C-9.38867564 0.57192576 -5.48411793 0.01520174 0 0 Z M-5.84944153 19.26742554 C-8.62214365 23.56059365 -8.10481127 28.56533921 -8.04475403 33.50570679 C-8.04192413 34.38647385 -8.03909424 35.26724091 -8.03617859 36.17469788 C-8.02501986 38.97658099 -7.99992324 41.7781397 -7.97444153 44.57992554 C-7.96440616 46.48421778 -7.95528128 48.38851506 -7.94709778 50.29281616 C-7.92509462 54.95114351 -7.89059447 59.60922959 -7.84944153 64.26742554 C-6.60227356 64.32349976 -6.60227356 64.32349976 -5.32991028 64.38070679 C-4.24323059 64.44644897 -3.1565509 64.51219116 -2.03694153 64.57992554 C-0.41852356 64.66693726 -0.41852356 64.66693726 1.23258972 64.75570679 C4.38644157 65.30879192 5.27482233 65.75474661 7.15055847 68.26742554 C8.26153172 70.1352662 9.32121344 72.03421826 10.33805847 73.95492554 C11.1327655 75.44572632 11.1327655 75.44572632 11.94352722 76.96664429 C12.54100769 78.10553101 12.54100769 78.10553101 13.15055847 79.26742554 C14.55283545 76.63146827 15.5428872 74.17963034 16.24797058 71.28085327 C16.53353065 70.12461708 16.53353065 70.12461708 16.82485962 68.94502258 C17.02386368 68.1220015 17.22286774 67.29898041 17.42790222 66.45101929 C17.86311776 64.70028584 18.29867499 62.94963732 18.73454285 61.19906616 C19.41452054 58.44593173 20.09118315 55.69208367 20.76164246 52.93661499 C21.41196455 50.27236155 22.07527444 47.61160903 22.74040222 44.95101929 C22.93738205 44.12597397 23.13436188 43.30092865 23.33731079 42.45088196 C23.53083633 41.68320999 23.72436188 40.91553802 23.92375183 40.12460327 C24.08870651 39.45049911 24.25366119 38.77639496 24.4236145 38.0818634 C25.29705595 35.90177071 26.35334716 34.7613935 28.15055847 33.26742554 C30.08805847 32.86898804 30.08805847 32.86898804 32.15055847 32.89242554 C32.83118347 32.88469116 33.51180847 32.87695679 34.21305847 32.86898804 C36.73003576 33.38659224 37.49347233 34.3310887 39.15055847 36.26742554 C40.11869348 39.0379337 40.94898237 41.73739133 41.70915222 44.56430054 C41.93957718 45.39012634 42.17000214 46.21595215 42.40740967 47.06680298 C43.14368879 49.7145122 43.86596629 52.36581626 44.58805847 55.01742554 C45.06958002 56.7559564 45.55199313 58.49424059 46.0353241 60.23226929 C48.80657804 70.22621232 51.49915689 80.24106899 54.15055847 90.26742554 C55.96745458 87.54208137 56.49601977 86.39136234 57.08024597 83.33432007 C57.23380554 82.54985504 57.38736511 81.76539001 57.545578 80.95715332 C57.70397156 80.11337128 57.86236511 79.26958923 58.02555847 78.40023804 C58.28055115 77.09263016 58.28055115 77.09263016 58.54069519 75.75860596 C59.08374544 72.97107891 59.61793622 70.18196248 60.15055847 67.39242554 C60.68381272 64.61016666 61.21910073 61.82836968 61.76042175 59.04766846 C62.09699674 57.31791626 62.42890752 55.5872482 62.75553894 53.85559082 C64.29295212 45.9385381 64.29295212 45.9385381 66.15055847 42.26742554 C69.26605719 40.70967618 72.75499727 40.70261932 76.15055847 41.26742554 C79.62491207 44.2323419 80.86801805 48.01869507 82.47087097 52.18148804 C82.92706314 53.33685562 82.92706314 53.33685562 83.39247131 54.51556396 C84.36089519 56.97168712 85.31869368 59.43177877 86.27555847 61.89242554 C87.24135843 64.35946151 88.20935323 66.8256046 89.18006897 69.29071045 C89.78321658 70.8241151 90.38317444 72.35877884 90.97969055 73.89477539 C92.13567348 77.33789542 92.13567348 77.33789542 94.15055847 80.26742554 C97.67702652 80.47271798 101.20180879 80.58710042 104.73258972 80.69320679 C109.46633127 81.48847537 110.82094038 83.54592 113.63493347 87.18930054 C114.80680847 88.88200887 115.97868347 90.5747172 117.15055847 92.26742554 C119.26300757 89.09875189 120.23654195 86.34698564 121.42790222 82.73617554 C121.86320222 81.43791565 122.29875691 80.13974114 122.73454285 78.84164429 C123.41371631 76.80191162 124.0900624 74.76133168 124.76164246 72.71908569 C125.41345586 70.74292653 126.07620798 68.77070191 126.74040222 66.79867554 C127.32616028 65.02847046 127.32616028 65.02847046 127.92375183 63.22250366 C129.06049365 60.48436974 129.81887737 59.03815596 132.15055847 57.26742554 C134.08805847 56.86898804 134.08805847 56.86898804 136.15055847 56.89242554 C137.17149597 56.88082397 137.17149597 56.88082397 138.21305847 56.86898804 C140.80280546 57.40155697 141.43542819 58.24179526 143.15055847 60.26742554 C144.32767307 62.37505992 145.4381954 64.52034078 146.50602722 66.68539429 C146.9657769 67.61126091 146.9657769 67.61126091 147.43481445 68.55583191 C148.40825253 70.51944191 149.37324277 72.48706694 150.33805847 74.45492554 C150.99831189 75.79048595 151.65911314 77.12577569 152.32048035 78.46078491 C153.93686497 81.72655321 155.54570147 84.99597409 157.15055847 88.26742554 C158.14055847 88.26742554 159.13055847 88.26742554 160.15055847 88.26742554 C160.22018615 80.02651878 160.27343423 71.78573572 160.30599499 63.54460716 C160.32162555 59.71756954 160.34281565 55.89073374 160.37687683 52.06381226 C160.40956409 48.36796724 160.4274311 44.67231589 160.4351902 40.97633743 C160.44071698 39.56897561 160.45150948 38.16162392 160.46774864 36.75434494 C160.48964483 34.77752848 160.49078491 32.80051557 160.49113464 30.82357788 C160.49779648 29.69994843 160.50445831 28.57631897 160.51132202 27.41864014 C160.08654164 23.70824825 159.20679307 21.38440177 157.15055847 18.26742554 C153.32491256 16.27642349 150.09279883 16.01464365 145.81915283 16.00672913 C144.54199905 15.99964432 143.26484528 15.99255951 141.94898987 15.98526001 C140.54100001 15.98755364 139.13301049 15.99006331 137.72502136 15.99276733 C136.23649846 15.98841829 134.74797779 15.9832345 133.25946045 15.97727966 C129.22226707 15.96389935 125.18516736 15.96330989 121.14795613 15.96584296 C117.77567271 15.96691329 114.40340819 15.96202775 111.03112882 15.95723754 C103.07458641 15.9461458 95.1180912 15.94570314 87.1615448 15.95175171 C78.95733122 15.95779271 70.75328908 15.94547657 62.54910475 15.92418164 C55.50097437 15.90656105 48.45289854 15.90056498 41.40474695 15.90381938 C37.19708146 15.90563159 32.98953829 15.90300231 28.78189278 15.88910484 C24.82475713 15.87652357 20.86788864 15.87847331 16.91075706 15.89151573 C15.46035802 15.89388039 14.00994015 15.89115076 12.55956268 15.88289261 C10.57604907 15.87241516 8.59245926 15.882334 6.60894775 15.89320374 C5.50007234 15.89303599 4.39119692 15.89286825 3.24871922 15.89269543 C-0.3464838 16.32754401 -2.75581795 17.41173857 -5.84944153 19.26742554 Z M32.15055847 75.26742554 C31.62511294 77.14740075 31.09992295 79.02744769 30.57585144 80.9078064 C30.12284798 82.53262467 29.66873268 84.15713334 29.21354675 85.78134155 C28.10824392 89.74297961 27.02710417 93.70588953 26.03337097 97.69711304 C25.86224792 98.37507935 25.69112488 99.05304565 25.51481628 99.7515564 C25.0498783 101.60782827 24.59600359 103.46686084 24.14274597 105.32601929 C23.16899936 108.2127563 22.6454507 109.56636266 20.15055847 111.26742554 C18.21305847 111.66586304 18.21305847 111.66586304 16.15055847 111.64242554 C15.12962097 111.6540271 15.12962097 111.6540271 14.08805847 111.66586304 C11.49831149 111.1332941 10.86568875 110.29305581 9.15055847 108.26742554 C7.97344387 106.15979115 6.86292154 104.0145103 5.79508972 101.84945679 C5.48858994 101.23221237 5.18209015 100.61496796 4.86630249 99.97901917 C3.89286442 98.01540916 2.92787418 96.04778413 1.96305847 94.07992554 C1.30280505 92.74436512 0.6420038 91.40907539 -0.0193634 90.07406616 C-1.63574802 86.80829786 -3.24458453 83.53887698 -4.84944153 80.26742554 C-5.83944153 80.26742554 -6.82944153 80.26742554 -7.84944153 80.26742554 C-7.92557326 88.13275953 -7.97807601 95.9979983 -8.01423645 103.86361694 C-8.02761703 106.53892275 -8.04977538 109.21374703 -8.07575989 111.88900757 C-8.11219237 115.73656305 -8.12917981 119.58379139 -8.14241028 123.43148804 C-8.15789413 124.62545197 -8.17337799 125.81941589 -8.18933105 127.04956055 C-8.32464206 135.15042716 -8.32464206 135.15042716 -4.84944153 142.26742554 C-1.00290032 144.22656244 2.19891304 144.52019001 6.48196411 144.52812195 C7.75911789 144.53520676 9.03627167 144.54229156 10.35212708 144.54959106 C11.76011693 144.54729744 13.16810645 144.54478776 14.57609558 144.54208374 C16.06461848 144.54643278 17.55313915 144.55161657 19.04165649 144.55757141 C23.07884987 144.57095172 27.11594958 144.57154119 31.15316081 144.56900811 C34.52544423 144.56793779 37.89770875 144.57282332 41.26998812 144.57761353 C49.22653053 144.58870528 57.18302574 144.58914794 65.13957214 144.58309937 C73.34378573 144.57705837 81.54782786 144.58937451 89.75201219 144.61066943 C96.80014257 144.62829002 103.8482184 144.63428609 110.89636999 144.63103169 C115.10403548 144.62921949 119.31157865 144.63184876 123.51922417 144.64574623 C127.47635981 144.6583275 131.43322831 144.65637777 135.39035988 144.64333534 C136.84075893 144.64097069 138.29117679 144.64370031 139.74155426 144.65195847 C141.72506788 144.66243591 143.70865768 144.65251707 145.69216919 144.64164734 C146.80104461 144.64181508 147.90992002 144.64198282 149.05239773 144.64215565 C152.65001213 144.2070154 155.05789271 143.13042201 158.15055847 141.26742554 C160.59531592 137.28582577 160.38239521 133.36293598 160.34587097 128.77914429 C160.34304108 128.07594559 160.34021118 127.37274689 160.33729553 126.64823914 C160.32615998 124.41695662 160.30106844 122.18608537 160.27555847 119.95492554 C160.26552007 118.43605115 160.25639573 116.91717044 160.24821472 115.39828491 C160.2262426 111.68786632 160.19175894 107.97768612 160.15055847 104.26742554 C159.31911316 104.23004272 158.48766785 104.19265991 157.63102722 104.15414429 C156.54434753 104.0884021 155.45766785 104.02265991 154.33805847 103.95492554 C153.25911316 103.89691772 152.18016785 103.83890991 151.06852722 103.77914429 C147.90396905 103.22418161 147.02622292 102.79380787 145.15055847 100.26742554 C143.86227733 98.05224405 142.64164071 95.85097232 141.46305847 93.57992554 C141.14272644 92.97342163 140.82239441 92.36691772 140.49235535 91.74203491 C139.70684364 90.25307988 138.92802905 88.76059506 138.15055847 87.26742554 C136.15222978 90.26491857 135.21417973 92.73701166 134.09196472 96.14242554 C133.51285339 97.86719116 133.51285339 97.86719116 132.92204285 99.62680054 C132.1164404 102.05271807 131.314352 104.4798054 130.51579285 106.90805054 C129.93474792 108.63281616 129.93474792 108.63281616 129.34196472 110.39242554 C128.99335388 111.44687866 128.64474304 112.50133179 128.28556824 113.58773804 C127.17379131 116.21257426 126.44754674 117.61133568 124.15055847 119.26742554 C117.15003573 120.0452614 117.15003573 120.0452614 114.28337097 117.81430054 C111.18410909 114.11335045 108.59497292 110.12145399 105.96305847 106.07992554 C104.88714072 104.4400084 103.81036396 102.80065442 102.73258972 101.16195679 C102.26055115 100.43855103 101.78851257 99.71514526 101.3021698 98.96981812 C100.26071489 97.31441892 100.26071489 97.31441892 99.15055847 96.26742554 C95.99867188 96.06432067 92.85450727 95.92081893 89.69743347 95.83773804 C84.67832946 95.60338299 84.67832946 95.60338299 82.33415222 94.11117554 C80.7052018 91.5736686 79.66917248 88.9553554 78.58805847 86.14242554 C77.28040935 81.9131995 77.28040935 81.9131995 74.15055847 79.26742554 C74.02971893 79.88272629 73.90887939 80.49802704 73.78437805 81.13197327 C72.52474413 87.54083486 71.25832035 93.94832802 69.98796082 100.35507202 C69.51486552 102.74567864 69.04349751 105.13662776 68.57389832 107.52792358 C67.8982746 110.96674832 67.21643124 114.40428999 66.53337097 117.84164429 C66.22074814 119.44346809 66.22074814 119.44346809 65.90180969 121.07765198 C65.70175323 122.07831192 65.50169678 123.07897186 65.295578 124.10995483 C65.1223703 124.98709641 64.9491626 125.86423798 64.77070618 126.76795959 C64.11436673 129.41329404 63.31072529 131.80030235 62.15055847 134.26742554 C59.03505975 135.8251749 55.54611967 135.83223176 52.15055847 135.26742554 C49.48127995 133.09125818 48.56908175 131.16371973 47.64274597 127.88461304 C47.38243591 126.97969116 47.12212585 126.07476929 46.85392761 125.14242554 C46.44388489 123.65742554 46.44388489 123.65742554 46.02555847 122.14242554 C45.58747864 120.59941772 45.58747864 120.59941772 45.14054871 119.02523804 C44.12967356 115.44316111 43.13749589 111.85614844 42.15055847 108.26742554 C41.95621216 107.56202637 41.76186584 106.8566272 41.56163025 106.12985229 C38.73032558 95.84983883 35.93001618 85.56157277 33.15055847 75.26742554 C32.82055847 75.26742554 32.49055847 75.26742554 32.15055847 75.26742554 Z " fill="#000000" transform="translate(287.8494415283203,47.732574462890625)"/>
<path d="M0 0 C15.84 0 31.68 0 48 0 C48 5.28 48 10.56 48 16 C32.16 16 16.32 16 0 16 C0 10.72 0 5.44 0 0 Z " fill="#000000" transform="translate(312,416)"/>
<path d="M0 0 C10.56 0 21.12 0 32 0 C32 5.28 32 10.56 32 16 C21.44 16 10.88 16 0 16 C0 10.72 0 5.44 0 0 Z " fill="#000000" transform="translate(160,192)"/>
<path d="M0 0 C7.92 0 15.84 0 24 0 C24 5.28 24 10.56 24 16 C16.08 16 8.16 16 0 16 C0 10.72 0 5.44 0 0 Z " fill="#000000" transform="translate(96,304)"/>
</svg>
