<?xml version="1.0" encoding="UTF-8"?>
<svg version="1.1" xmlns="http://www.w3.org/2000/svg" width="512" height="512">
<path d="M0 0 C0.79811647 0.00119778 1.59623294 0.00239555 2.41853476 0.00362962 C3.26237746 0.0009778 4.10622016 -0.00167403 4.97563386 -0.00440621 C7.84020371 -0.01214521 10.70473103 -0.01266013 13.56931067 -0.01325613 C15.62901129 -0.01726773 17.68871112 -0.02170544 19.74840999 -0.02653569 C25.4372839 -0.0385408 31.12614932 -0.04415872 36.81503344 -0.04871684 C42.9392371 -0.05465806 49.06343053 -0.06627155 55.18762732 -0.07700735 C69.29194015 -0.10040396 83.39625339 -0.11494387 97.50057923 -0.12723677 C102.37886497 -0.13148925 107.25715032 -0.13605491 112.13543558 -0.14082009 C138.05680459 -0.16607815 163.97817421 -0.18813294 189.89955282 -0.20054823 C195.90790067 -0.20346971 201.9162485 -0.2064372 207.92459631 -0.20945364 C208.67108097 -0.20982455 209.41756564 -0.21019546 210.18667105 -0.21057761 C234.39597941 -0.22273635 258.60521513 -0.25368446 282.81448936 -0.29537517 C307.68977159 -0.33813486 332.56501545 -0.3647857 357.44033544 -0.37002295 C360.95166269 -0.37076343 364.46298989 -0.37167412 367.97431707 -0.37268072 C368.6654087 -0.37287134 369.35650032 -0.37306195 370.06853412 -0.37325834 C381.20414449 -0.37677606 392.33966407 -0.39709304 403.47524107 -0.42347736 C414.66273998 -0.44958554 425.85013535 -0.45694963 437.03767011 -0.44637607 C443.10205478 -0.44117166 449.16615001 -0.44419164 455.23049307 -0.46884161 C460.77721291 -0.49120019 466.32343316 -0.49069894 471.87016097 -0.47163774 C473.88165363 -0.46881884 475.89317922 -0.47454 477.90461859 -0.48945068 C480.63024105 -0.50842744 483.35405823 -0.49685636 486.07963705 -0.47738844 C487.26276476 -0.49666227 487.26276476 -0.49666227 488.46979403 -0.51632547 C492.55906547 -0.45174191 494.27955627 -0.0441677 497.46458888 2.61677104 C498.13652805 3.44964912 498.80846722 4.2825272 499.50076818 5.14064401 C499.83076818 5.47064401 500.16076818 5.80064401 500.50076818 6.14064401 C500.60426386 8.7882959 500.64175708 11.41007276 500.63778257 14.05841058 C500.6404344 14.90225329 500.64308623 15.74609599 500.64581841 16.61550969 C500.6535574 19.48007954 500.65407233 22.34460686 500.65466833 25.20918649 C500.65867993 27.26888712 500.66311764 29.32858695 500.66794789 31.38828582 C500.679953 37.07715973 500.68557092 42.76602515 500.69012904 48.45490927 C500.69607026 54.57911293 500.70768375 60.70330636 500.71841955 66.82750314 C500.74181616 80.93181598 500.75635606 95.03612922 500.76864897 109.14045506 C500.77290144 114.0187408 500.77746711 118.89702615 500.78223228 123.77531141 C500.80749035 149.69668042 500.82954514 175.61805004 500.84196043 201.53942865 C500.84488191 207.5477765 500.84784939 213.55612433 500.85086584 219.56447214 C500.85123675 220.3109568 500.85160766 221.05744147 500.85198981 221.82654688 C500.86414855 246.03585524 500.89509666 270.24509096 500.93678737 294.45436519 C500.97954706 319.32964742 501.0061979 344.20489128 501.01143514 369.08021127 C501.01217563 372.59153852 501.01308632 376.10286572 501.01409292 379.6141929 C501.01428354 380.30528453 501.01447415 380.99637615 501.01467054 381.70840995 C501.01818826 392.84402032 501.03850524 403.9795399 501.06488956 415.1151169 C501.09099774 426.30261581 501.09836183 437.49001118 501.08778827 448.67754593 C501.08258386 454.7419306 501.08560384 460.80602584 501.11025381 466.8703689 C501.13261238 472.41708874 501.13211114 477.96330899 501.11304994 483.5100368 C501.11023104 485.52152946 501.1159522 487.53305505 501.13086288 489.54449442 C501.14983964 492.27011688 501.13826856 494.99393406 501.11880064 497.71951288 C501.13807447 498.90264059 501.13807447 498.90264059 501.15773767 500.10966986 C501.09315411 504.1989413 500.6855799 505.9194321 498.02464116 509.10446471 C497.19176308 509.77640388 496.35888499 510.44834305 495.50076818 511.14064401 C495.17076818 511.47064401 494.84076818 511.80064401 494.50076818 512.14064401 C491.45296324 512.25730067 488.42752892 512.30867926 485.37869787 512.31764597 C483.9421208 512.32750276 483.9421208 512.32750276 482.47652197 512.33755869 C479.29189501 512.35734659 476.10731535 512.36896705 472.92264318 512.37892526 C471.83757734 512.38300079 470.7525115 512.38707632 469.63456488 512.39127535 C463.89058638 512.41216047 458.14663195 512.42645105 452.40262365 512.43581003 C446.46278149 512.44687383 440.52331402 512.4812667 434.58360434 512.52098173 C430.02314056 512.54710446 425.46276657 512.55549806 420.90223455 512.55909151 C418.71254718 512.56396945 416.52286413 512.57561758 414.33324957 512.5941295 C411.26866879 512.61842601 408.20506384 512.61757295 405.14041662 512.61061472 C404.23424093 512.62342478 403.32806524 512.63623483 402.39442968 512.64943308 C398.37464216 512.61614146 396.062222 512.46438947 392.52329016 510.42377084 C386.8924688 504.06741008 388.50076818 498.99867475 388.50076818 490.14064401 C293.46076818 490.14064401 198.42076818 490.14064401 100.50076818 490.14064401 C100.50076818 494.43064401 100.50076818 498.72064401 100.50076818 503.14064401 C99.01047761 507.46248667 97.49307604 509.92447052 93.50076818 512.14064401 C90.34966984 512.60073722 87.21812226 512.57088073 84.0381217 512.56056589 C83.07996557 512.56903543 82.12180944 512.57750498 81.13461828 512.58623117 C77.96616879 512.60963724 74.79820386 512.61062247 71.62967443 512.60939401 C69.42776307 512.61649328 67.22585356 512.62419193 65.02394629 512.6324653 C60.40801365 512.64591834 55.79225206 512.64747508 51.17630529 512.64162058 C45.25993317 512.63572312 39.34438126 512.66631483 33.42816782 512.70673746 C28.88053986 512.73258144 24.33311026 512.73549486 19.78541899 512.7318458 C17.60410961 512.73354006 15.42279137 512.7432119 13.24155378 512.76099008 C10.19141308 512.78311447 7.14294396 512.77351052 4.0928092 512.75587839 C2.74061537 512.77577326 2.74061537 512.77577326 1.36110449 512.79607004 C-3.16283887 512.73527595 -4.91216194 512.61925965 -8.53623438 509.66469187 C-9.18402353 508.83175607 -9.83181269 507.99882028 -10.49923182 507.14064401 C-10.82923182 506.81064401 -11.15923182 506.48064401 -11.49923182 506.14064401 C-11.60272749 503.49299212 -11.64022071 500.87121527 -11.6362462 498.22287744 C-11.63889803 497.37903474 -11.64154986 496.53519203 -11.64428204 495.66577834 C-11.65202104 492.80120849 -11.65253596 489.93668117 -11.65313196 487.07210153 C-11.65714356 485.01240091 -11.66158127 482.95270108 -11.66641152 480.89300221 C-11.67841663 475.2041283 -11.68403455 469.51526288 -11.68859267 463.82637876 C-11.69453389 457.70217509 -11.70614738 451.57798167 -11.71688318 445.45378488 C-11.74027979 431.34947204 -11.7548197 417.24515881 -11.7671126 403.14083297 C-11.77136507 398.26254723 -11.77593074 393.38426188 -11.78069592 388.50597662 C-11.80595398 362.58460761 -11.82800877 336.66323799 -11.84042406 310.74185938 C-11.84334554 304.73351152 -11.84631303 298.72516369 -11.84932947 292.71681589 C-11.84988584 291.59708889 -11.84988584 291.59708889 -11.85045344 290.45474115 C-11.86261218 266.24543278 -11.89356029 242.03619707 -11.935251 217.82692284 C-11.97801069 192.95164061 -12.00466153 168.07639675 -12.00989877 143.20107676 C-12.01063926 139.68974951 -12.01154995 136.17842231 -12.01255655 132.66709512 C-12.01274717 131.9760035 -12.01293778 131.28491187 -12.01313417 130.57287808 C-12.01665189 119.43726771 -12.03696887 108.30174812 -12.06335319 97.16617113 C-12.08946137 85.97867221 -12.09682546 74.79127685 -12.0862519 63.60374209 C-12.08104749 57.53935742 -12.08406747 51.47526219 -12.10871744 45.41091913 C-12.13107602 39.86419929 -12.13057477 34.31797904 -12.11151357 28.77125123 C-12.10869467 26.75975857 -12.11441583 24.74823298 -12.12932651 22.73679361 C-12.14830327 20.01117115 -12.13673219 17.28735397 -12.11726427 14.56177515 C-12.13011349 13.77302334 -12.14296271 12.98427154 -12.1562013 12.17161816 C-12.09161774 8.08234673 -11.68404353 6.36185593 -9.02310479 3.17682332 C-8.19022671 2.50488415 -7.35734863 1.83294498 -6.49923182 1.14064401 C-4.72695817 -0.63162963 -2.3612561 0.01160902 0 0 Z M11.50076818 23.14064401 C11.50076818 176.92064401 11.50076818 330.70064401 11.50076818 489.14064401 C33.28076818 489.14064401 55.06076818 489.14064401 77.50076818 489.14064401 C77.50441381 484.50383081 77.50805944 479.86701761 77.51181555 475.08969492 C77.54707245 432.59520751 77.60207587 390.10078207 77.67868914 347.60634838 C77.68870691 342.03989967 77.69855099 336.47345065 77.70828772 330.90700144 C77.71119978 329.24469164 77.71119978 329.24469164 77.71417066 327.54879984 C77.74521422 309.59140343 77.76217788 291.63401981 77.77396241 273.67660163 C77.78636177 255.2584688 77.81383566 236.84040323 77.85538125 218.42231286 C77.88055146 207.05212009 77.8938829 195.68203881 77.89219776 184.31181779 C77.89216806 176.5208786 77.90674564 168.73005322 77.93293247 160.93915836 C77.9476187 156.44035085 77.95574704 151.94177672 77.94657087 147.44294924 C77.93831654 143.32655029 77.94834831 139.21062133 77.9731048 135.09429231 C77.97881383 133.60297191 77.97773391 132.11160734 77.96928063 130.62029997 C77.95879123 128.59685433 77.97517321 126.57332231 77.9929595 124.54992765 C77.99447838 123.42481631 77.99599726 122.29970497 77.99756217 121.14049935 C78.61465384 117.46171633 79.93127698 115.79441309 82.50076818 113.14064401 C85.05981909 111.86111856 86.86387664 112.01171615 89.73045588 112.00642294 C91.40383366 111.99973617 91.40383366 111.99973617 93.11101705 111.99291432 C94.96481781 111.99319086 94.96481781 111.99319086 96.85606909 111.99347299 C98.16098686 111.98979631 99.46590464 111.98611962 100.81036538 111.98233151 C104.44469876 111.97229455 108.07901562 111.96859201 111.71336091 111.9659422 C115.62825721 111.9620442 119.54314038 111.95246557 123.45802832 111.94372934 C132.91817931 111.92395129 142.3783314 111.91389731 151.83849791 111.90500155 C156.29035673 111.9006211 160.74221437 111.89525368 165.19407225 111.89001268 C179.98752136 111.87299954 194.78096973 111.85850429 209.57442713 111.85126394 C213.41486439 111.84935396 217.25530165 111.84743364 221.09573889 111.845478 C222.05029306 111.84499426 223.00484723 111.84451052 223.98832729 111.84401212 C239.45925711 111.83570783 254.9301097 111.81036457 270.40100578 111.77789732 C286.274379 111.74485621 302.14771293 111.72681788 318.02112073 111.7236197 C326.93764688 111.72145193 335.85406041 111.71266433 344.77055311 111.68715852 C352.36261322 111.66549179 359.95453336 111.6573812 367.54662088 111.66712531 C371.42169854 111.67168168 375.29648714 111.6697067 379.17152548 111.65036386 C383.3693943 111.62959011 387.56661721 111.63967975 391.76451635 111.65289682 C392.99369136 111.64192758 394.22286637 111.63095833 395.4892891 111.61965668 C403.72340631 111.68255106 403.72340631 111.68255106 407.73428392 114.04612821 C410.68499447 117.54477805 410.62875443 119.65595819 410.63943338 124.18078417 C410.64490783 125.47710602 410.65038227 126.77342788 410.65602261 128.10903221 C410.65709895 129.56127067 410.65808362 131.0135092 410.65898657 132.46574777 C410.66354937 133.99777614 410.66854897 135.52980327 410.67395014 137.06182891 C410.68757283 141.28729136 410.69496151 145.51274574 410.7013768 149.73822445 C410.70936265 154.28902539 410.72306664 158.83980943 410.73608923 163.39059824 C410.75787779 171.28032396 410.77601355 179.17005137 410.79169416 187.05979151 C410.81437116 198.46714336 410.84251697 209.87447651 410.87201344 221.28181253 C410.91971602 239.78780801 410.96297296 258.29381112 411.00345373 276.7998237 C411.04279511 294.78062402 411.08421807 312.76141754 411.12845373 330.74220651 C411.131178 331.84985643 411.13390228 332.95750634 411.1367091 334.0987214 C411.15038836 339.65527065 411.16410867 345.2118198 411.17784941 350.7683689 C411.29185605 396.89244661 411.3983831 443.01653917 411.50076818 489.14064401 C433.28076818 489.14064401 455.06076818 489.14064401 477.50076818 489.14064401 C477.50076818 335.36064401 477.50076818 181.58064401 477.50076818 23.14064401 C323.72076818 23.14064401 169.94076818 23.14064401 11.50076818 23.14064401 Z M100.50076818 134.14064401 C100.50076818 244.03064401 100.50076818 353.92064401 100.50076818 467.14064401 C144.06076818 467.14064401 187.62076818 467.14064401 232.50076818 467.14064401 C232.50076818 357.25064401 232.50076818 247.36064401 232.50076818 134.14064401 C188.94076818 134.14064401 145.38076818 134.14064401 100.50076818 134.14064401 Z M256.50076818 134.14064401 C256.50076818 244.03064401 256.50076818 353.92064401 256.50076818 467.14064401 C300.06076818 467.14064401 343.62076818 467.14064401 388.50076818 467.14064401 C388.50076818 357.25064401 388.50076818 247.36064401 388.50076818 134.14064401 C344.94076818 134.14064401 301.38076818 134.14064401 256.50076818 134.14064401 Z " fill="#000000" transform="translate(11.499231815338135,-0.14064401388168335)"/>
<path d="M0 0 C3.11589717 2.18553212 5.77196978 4.74715622 8.45019531 7.44433594 C10.23578621 9.23667765 12.05101012 10.99648315 13.8671875 12.7578125 C15.22533012 14.08714159 16.58210192 15.41787266 17.9375 16.75 C18.58855713 17.38760254 19.23961426 18.02520508 19.91040039 18.68212891 C27.73150283 26.49402644 27.73150283 26.49402644 28.375 32.5 C27.87788423 37.13974714 26.50990038 39.59075964 23.125 42.75 C20.56523158 44.25574613 18.98481484 44.8611714 16 45 C7.24093146 42.35575289 1.234228 35.3900837 -5 29 C-9.55811645 30.80403204 -12.4431815 34.39066348 -15.66992188 37.92382812 C-19.21810811 41.64264849 -22.20269021 43.40460266 -27 45 C-32.50901596 44.24013573 -35.60429124 42.39444663 -39 38 C-40.52500786 33.61560241 -39.87857858 30.98844247 -37.9989624 26.81289673 C-36.35024671 23.82084089 -34.05332299 21.50216266 -31.6328125 19.13671875 C-31.11621063 18.61866165 -30.59960876 18.10060455 -30.06735229 17.56684875 C-28.98119892 16.48234439 -27.89013952 15.40273313 -26.79443359 14.32788086 C-25.12416989 12.68668434 -23.47348791 11.02749956 -21.82421875 9.36523438 C-20.7615269 8.30877787 -19.69776055 7.25340087 -18.6328125 6.19921875 C-17.89818283 5.46018562 -17.89818283 5.46018562 -17.14871216 4.70622253 C-12.09110317 -0.21502059 -6.92078763 -2.60446602 0 0 Z " fill="#000000" transform="translate(195,45)"/>
<path d="M0 0 C2.99884299 2.01475665 5.46558016 4.43633686 8 7 C8.7528125 7.73992188 9.505625 8.47984375 10.28125 9.2421875 C12.2047644 11.14538309 14.10942106 13.06416784 16 15 C18.9100166 13.69958023 20.81182315 12.37946909 22.91796875 9.99609375 C23.45099609 9.42052734 23.98402344 8.84496094 24.53320312 8.25195312 C25.62920707 7.04984254 26.71282005 5.83630753 27.78320312 4.61132812 C31.60227811 0.5458612 34.41193251 -0.75817875 39.98999023 -1.12353516 C43.97282007 -0.87875052 46.08613566 1.05349765 48.75 3.8125 C50.38943245 6.68150679 50.86999017 8.68474941 51 12 C49.12633574 17.37736934 46.89402063 20.59633483 42.78125 24.64453125 C42.28210083 25.1403923 41.78295166 25.63625336 41.26867676 26.1471405 C39.68830129 27.71190431 38.09428435 29.26192445 36.5 30.8125 C35.43012385 31.87087036 34.36110512 32.93010821 33.29296875 33.99023438 C22.51806305 44.6239579 22.51806305 44.6239579 16 45 C10.63940708 43.15142501 7.09496862 40.67378419 3.13671875 36.59765625 C2.61866165 36.07868271 2.10060455 35.55970917 1.56684875 35.02500916 C0.48241351 33.93457232 -0.59719853 32.8393192 -1.67211914 31.73950195 C-3.31490698 30.06003929 -4.97330423 28.39729934 -6.63476562 26.73632812 C-7.6910549 25.67021197 -8.74642631 24.60318544 -9.80078125 23.53515625 C-10.53981438 22.79278465 -10.53981438 22.79278465 -11.29377747 22.03541565 C-14.91566952 18.31256466 -16.80008197 15.79926224 -17.375 10.625 C-16.92573223 6.2820782 -15.8337428 4.29326866 -13 1 C-8.90237415 -1.61792763 -4.52232773 -1.56058063 0 0 Z " fill="#000000" transform="translate(306,45)"/>
<path d="M0 0 C3.08954459 1.77484476 4.53214578 3.23442037 6.375 6.25 C7.24268417 10.06781033 7.15194726 13.24859282 6 17 C3.47140452 20.60133296 1.33293086 22.22281431 -2.9375 23 C-7.00675792 23.26104673 -9.61545472 22.36131066 -13 20 C-15.90288337 16.61330274 -16.58198247 13.46731921 -16.4296875 9 C-15.65395507 5.38931815 -13.60947818 3.54734775 -11 1 C-7.53472176 -0.73263912 -3.78892972 -0.4719774 0 0 Z " fill="#000000" transform="translate(461,267)"/>
<path d="M0 0 C3.60133296 2.52859548 5.22281431 4.66706914 6 8.9375 C6.32712532 13.89111195 4.59262083 17.16236058 1.375 20.875 C-2.38873689 22.65782274 -5.92539036 22.77544474 -10 22 C-13.06881816 20.28095248 -15.40357084 18.19285833 -17 15 C-17.39431433 10.26822808 -17.45299639 7.90599278 -15.3125 3.625 C-10.9165697 -1.36497493 -6.19241887 -1.90151044 0 0 Z " fill="#000000" transform="translate(462,223)"/>
</svg>
