<?xml version="1.0" encoding="UTF-8"?>
<svg version="1.1" xmlns="http://www.w3.org/2000/svg" width="512" height="512">
<path d="M0 0 C0.80308594 0.64839844 1.60617187 1.29679687 2.43359375 1.96484375 C20.84433218 17.56770526 32.48078321 39.78600778 38 63 C38.33837891 64.38638672 38.33837891 64.38638672 38.68359375 65.80078125 C43.70544922 90.28665585 37.26893387 110.96399433 23.90258789 131.39550781 C23.01616496 132.72552795 22.11947276 134.04881108 21.20874023 135.36230469 C20.31793741 136.67471522 19.4593685 138.0094309 18.62971497 139.36132812 C17.4712043 141.23707302 16.25310562 143.07657725 14.99639893 144.88800049 C6.87544438 157.67561079 7.93199395 171.73500991 8.11864567 186.34714603 C8.15586726 190.01942521 8.14383576 193.6915401 8.13641357 197.36395264 C8.12896246 204.29695088 8.15843008 211.22919225 8.20463252 218.16202235 C8.28721298 230.60557646 8.32401971 243.04916537 8.32002425 255.49298835 C8.3203371 259.85431694 8.34288786 264.21479667 8.3835597 268.57592916 C8.40005054 270.6293137 8.40763004 272.68250234 8.41133118 274.73594666 C8.41627179 277.23727549 8.43572095 279.73863371 8.47227478 282.23970032 C8.46992325 283.34115891 8.46757172 284.44261749 8.46514893 285.57745361 C8.4718523 286.53377308 8.47855568 287.49009254 8.48546219 288.47539139 C7.8492978 291.78371512 6.64120091 292.96702834 4 295 C-1.95769641 295.73164693 -1.95769641 295.73164693 -4.69061375 293.81327057 C-6.49371746 291.31628781 -6.38011997 289.6174536 -6.38768005 286.5501709 C-6.39758469 285.41761871 -6.40748932 284.28506653 -6.41769409 283.11819458 C-6.41319244 281.87456146 -6.4086908 280.63092834 -6.40405273 279.34960938 C-6.41091599 278.04035492 -6.41777924 276.73110046 -6.42485046 275.38217163 C-6.44282546 271.78661336 -6.44160389 268.1912986 -6.43590808 264.59570885 C-6.43281844 261.58933013 -6.43890709 258.58299834 -6.44494683 255.5766263 C-6.45900845 248.47519826 -6.45742091 241.37389042 -6.44604492 234.27246094 C-6.43459814 226.96581525 -6.44857725 219.65953809 -6.4754414 212.35294104 C-6.49767359 206.06908264 -6.50421787 199.78533924 -6.49836498 193.50144434 C-6.4950077 189.75353342 -6.49732624 186.00585793 -6.51461601 182.25798035 C-6.53020034 178.72510056 -6.52600431 175.19276002 -6.50731087 171.65990067 C-6.50192573 169.76193629 -6.51605688 167.86394707 -6.53100586 165.96603394 C-6.39437273 149.91720254 1.5253166 137.82392622 9.9375 124.6875 C22.15455747 105.56424943 27.9695448 89.75062276 23.48291016 67.01293945 C17.85905497 41.53082092 2.76208359 18.76574112 -19.17041016 4.50097656 C-41.32498289 -9.34632878 -67.18241713 -14.62929776 -93.0625 -9.8125 C-119.38931845 -3.54420989 -142.46778893 11.00270405 -156.92089844 34.2109375 C-168.3113024 53.09529955 -172.44484781 72.18684048 -171.69726562 94.1328125 C-171.54359583 103.89938148 -173.40808293 112.39463325 -179.5 120.25 C-180.53253906 121.60158203 -180.53253906 121.60158203 -181.5859375 122.98046875 C-183.37534809 125.21867973 -185.17181469 127.4500022 -186.9765625 129.67578125 C-188.02629758 130.97114682 -189.07577438 132.26672174 -190.125 133.5625 C-190.64231689 134.19986084 -191.15963379 134.83722168 -191.69262695 135.49389648 C-196.09762148 140.9826539 -199.84923338 146.69846677 -203 153 C-196.28634386 153.54885364 -189.67484245 154.07941657 -182.9375 153.8125 C-179.57606825 153.80264243 -178.1442135 153.92942744 -175.0625 155.4375 C-173.0882827 157.89031543 -172.33343672 159.60288067 -171.25 162.5 C-169.69363882 166.3781459 -168.32609753 167.79951221 -164.5 169.5 C-147.29608458 175.863092 -128.12329102 171.46286439 -111 167 C-109.99130859 166.73815918 -108.98261719 166.47631836 -107.94335938 166.20654297 C-103.91809162 165.15688876 -99.89500778 164.09920223 -95.8737793 163.03417969 C-80.28170671 158.92893882 -63.32104607 155.64530575 -48.2734375 163.40625 C-36.77520732 170.77067537 -31.61433934 182.05245401 -28.515625 195.02832031 C-26.09474317 206.10489816 -24.83855261 217.14411347 -24.8671875 228.48046875 C-24.86623077 229.33755936 -24.86527405 230.19464996 -24.86428833 231.07771301 C-24.86361372 232.87171503 -24.86541726 234.6657196 -24.86962891 236.4597168 C-24.87500748 239.19129941 -24.86964913 241.92271913 -24.86328125 244.65429688 C-24.86394177 246.40885453 -24.8652224 248.16341208 -24.8671875 249.91796875 C-24.86516327 250.72542038 -24.86313904 251.53287201 -24.86105347 252.36479187 C-24.90930622 264.12158293 -24.90930622 264.12158293 -27.125 267.9375 C-30.22289358 269.69297303 -32.52844534 269.48723574 -36 269 C-38.41964368 266.88257735 -39.81454865 265.17947757 -40.32302856 261.94552612 C-40.41398475 259.41009345 -40.37023642 256.90675088 -40.28515625 254.37109375 C-40.27238144 253.42677994 -40.25960663 252.48246613 -40.2464447 251.50953674 C-40.20429523 248.48483436 -40.13614048 245.4615884 -40.0625 242.4375 C-38.93947185 208.69687068 -38.93947185 208.69687068 -53 179 C-59.3808655 173.90377778 -66.19996464 173.68412046 -74 174 C-76.89187683 174.34157089 -79.71463477 174.89728042 -82.5625 175.5 C-83.80543823 175.75305908 -83.80543823 175.75305908 -85.07348633 176.01123047 C-92.09097734 177.48787066 -99.02873613 179.25856087 -105.97241211 181.04321289 C-126.98073321 186.44197378 -147.7899105 191.62237591 -169 184 C-169 186.97 -169 189.94 -169 193 C-167.52484445 193.63440928 -166.04456668 194.25690827 -164.5625 194.875 C-163.73878906 195.22304688 -162.91507812 195.57109375 -162.06640625 195.9296875 C-154.43909818 198.59195809 -147.11793018 199.41640558 -139.0625 199.4375 C-138.00708008 199.44136719 -136.95166016 199.44523438 -135.86425781 199.44921875 C-124.7490536 199.29630107 -113.90273047 197.63119106 -102.96508789 195.77905273 C-76.82268314 191.40815857 -76.82268314 191.40815857 -65.78125 198.40625 C-58.61713699 204.07338418 -54.81110748 211.9376146 -53.33984375 220.86328125 C-52.16428022 231.7135975 -51.73385061 242.59872269 -52.3125 253.5 C-52.34706299 254.19939697 -52.38162598 254.89879395 -52.41723633 255.61938477 C-52.65610805 259.1509307 -52.9865198 262.03429631 -55 265 C-58.04983996 266.52491998 -60.6423369 266.23562548 -64 266 C-65.69726562 264.98657227 -65.69726562 264.98657227 -67 263 C-67.29568358 260.25010514 -67.41714901 257.71544616 -67.40625 254.96484375 C-67.42250427 253.77490562 -67.42250427 253.77490562 -67.43908691 252.56092834 C-67.47336525 250.01970374 -67.48892625 247.47892524 -67.5 244.9375 C-67.15963755 228.30156302 -67.15963755 228.30156302 -72.875 213 C-76.98778148 209.12914684 -80.55828396 208.77653254 -86.12036133 208.81958008 C-91.65069623 209.16607584 -97.09388174 210.22449596 -102.55325317 211.13870239 C-150.83940686 219.08029657 -150.83940686 219.08029657 -171 209 C-171.30948111 215.31003416 -171.30948111 215.31003416 -169 221 C-163.28812615 224.09707144 -158.35560331 224.45362978 -151.9375 224.5625 C-132.54700837 225.21389933 -111.64646376 227.38455339 -97.5625 242.3125 C-88.45029239 253.54206705 -85.77551975 266.34081677 -85.6875 280.5625 C-85.68194092 281.32433594 -85.67638184 282.08617187 -85.6706543 282.87109375 C-85.72412422 286.98050868 -86.02170331 290.35797677 -88 294 C-91.04983996 295.52491998 -93.6423369 295.23562548 -97 295 C-99.02617202 293.4911547 -99.87808112 292.60023388 -100.38476562 290.10571289 C-100.39185547 289.4018042 -100.39894531 288.69789551 -100.40625 287.97265625 C-100.4259082 287.18608643 -100.44556641 286.3995166 -100.46582031 285.58911133 C-100.47709961 284.75532959 -100.48837891 283.92154785 -100.5 283.0625 C-100.93726535 270.33255237 -102.54892028 258.86696247 -112.1875 249.75 C-124.42452759 240.12214674 -142.24173027 239.65195518 -157.16113281 239.46606445 C-165.74488215 239.27213061 -174.31174767 237.73278771 -181 232 C-189.78995461 219.90321359 -185.91714892 203.46064315 -184.00366211 189.69042969 C-183.02047366 182.24279207 -182.79144079 175.45520864 -184 168 C-185.12277344 168.03480469 -186.24554688 168.06960938 -187.40234375 168.10546875 C-196.87644873 168.31280736 -204.71827274 168.37131527 -212.9375 163.125 C-216.23634935 159.72618552 -216.8475234 157.08639578 -217.5 152.4375 C-217.10406718 141.28886543 -208.11167605 131.93510406 -201.39599609 123.72705078 C-199.19999439 121.01027637 -197.09990001 118.22937358 -195 115.4375 C-194.29875 114.50808594 -193.5975 113.57867187 -192.875 112.62109375 C-187.08141937 104.52215083 -186.92708914 98.10961081 -187.09008789 88.37524414 C-187.49716575 59.95096147 -177.99732149 34.82783248 -160 13 C-159.443125 12.30132812 -158.88625 11.60265625 -158.3125 10.8828125 C-119.41910224 -36.67704889 -45.51406216 -36.80813747 0 0 Z " fill="#000000" transform="translate(419,110)"/>
<path d="M0 0 C13.02251469 12.13501243 20.2491689 28.26645366 21.28662109 46.02075195 C21.3854194 49.83501851 21.40410344 53.64155621 21.39453125 57.45703125 C21.41064453 58.73771484 21.42675781 60.01839844 21.44335938 61.33789062 C21.45249733 79.27570255 15.31360136 92.91420601 4.95703125 107.20703125 C-0.56960281 114.84093698 -4.36998005 122.13023744 -7.515625 131.02734375 C-10.78344209 140.23681211 -13.93067036 148.65701636 -19.91796875 156.51953125 C-20.48386719 157.26589844 -21.04976563 158.01226562 -21.6328125 158.78125 C-27.46192448 165.93215608 -34.64843482 170.83529278 -43.99609375 171.85546875 C-55.39284431 171.99582282 -63.33548139 168.95529796 -71.91796875 161.51953125 C-72.52511719 160.99488281 -73.13226563 160.47023438 -73.7578125 159.9296875 C-80.88799047 153.29877801 -86.39843656 144.65001107 -87.23046875 134.83203125 C-86.91796875 131.51953125 -86.91796875 131.51953125 -85.85546875 129.58203125 C-82.75268545 127.88050492 -80.3802769 128.09433551 -76.91796875 128.51953125 C-73.42905269 130.7125642 -72.54418247 133.41452264 -71.23046875 137.14453125 C-68.38264827 144.69404751 -62.93844232 151.17694842 -55.85546875 155.14453125 C-50.63819079 157.33309119 -46.08319115 157.32618273 -40.73046875 155.33203125 C-29.7232428 148.23848564 -25.73166481 137.04130306 -21.62890625 125.23828125 C-19.28412297 118.60079371 -16.62211993 112.2223576 -12.73046875 106.33203125 C-12.13105469 105.4090625 -11.53164062 104.48609375 -10.9140625 103.53515625 C-9.88029091 101.97337217 -8.84576138 100.41205688 -7.80126953 98.85742188 C4.6969809 80.24412506 9.30714913 62.17125162 5.36328125 39.6328125 C3.79718595 32.37765329 1.43763852 25.56572463 -2.91796875 19.51953125 C-3.44777344 18.76285156 -3.97757812 18.00617188 -4.5234375 17.2265625 C-10.54027057 9.56760868 -20.13892147 3.73832747 -29.91796875 2.51953125 C-50.00368123 1.18482036 -67.16696442 4.82719711 -82.85546875 18.33203125 C-91.25358393 26.38786517 -97.81764735 37.61135935 -98.12890625 49.5234375 C-98.15726563 50.26400391 -98.185625 51.00457031 -98.21484375 51.76757812 C-98.26705059 53.31420562 -98.31128491 54.86112223 -98.34765625 56.40820312 C-98.58207024 62.00972079 -98.58207024 62.00972079 -100.23828125 64.5234375 C-103.12663959 66.23630117 -105.66632871 65.86792125 -108.91796875 65.51953125 C-111.02155256 63.97690312 -111.75851034 62.83844808 -112.91796875 60.51953125 C-113.96529558 42.51356612 -110.79579492 27.19496043 -98.54296875 13.20703125 C-97.02050489 11.62581459 -95.47935317 10.06232776 -93.91796875 8.51953125 C-93.2425 7.82214844 -92.56703125 7.12476563 -91.87109375 6.40625 C-68.58835439 -16.13249205 -25.43058849 -21.6177024 0 0 Z " fill="#000000" transform="translate(164.91796875,273.48046875)"/>
<path d="M0 0 C6.36475595 4.84408208 10.30418103 11.20401716 12 19 C12.2396373 22.08042857 12.23096227 25.16112887 12.25 28.25 C12.270625 29.07113281 12.29125 29.89226562 12.3125 30.73828125 C12.37069881 39.91914355 9.74156704 45.95406572 3.51171875 52.64453125 C0.11851657 55.82664775 -3.54387411 58.55690782 -7.26855469 61.33496094 C-14.21681608 66.57162715 -20.21545845 72.20893877 -22 81 C-22.2978582 84.3529173 -22.49806786 87.68205321 -22.59375 91.046875 C-23.04381663 94.31851317 -23.61813517 95.73181508 -26 98 C-27.9375 98.49609375 -27.9375 98.49609375 -30 98.4375 C-31.0209375 98.43556641 -31.0209375 98.43556641 -32.0625 98.43359375 C-34.56693873 97.8731246 -35.38344978 96.96967059 -37 95 C-37.33022752 92.07257764 -37.47508711 89.42523194 -37.4375 86.5 C-37.42992676 85.69062988 -37.42235352 84.88125977 -37.41455078 84.04736328 C-37.10191397 72.61672238 -33.08251686 63.94479949 -24.9296875 55.9765625 C-21.18337148 52.569634 -17.28585635 49.43043202 -13.25 46.375 C-9.04072458 43.15917245 -5.40438019 39.80876038 -3 35 C-2.35068967 27.48503127 -1.98762145 20.08980571 -7 14 C-11.64302765 10.54472361 -16.41124083 10.18056085 -22 11 C-27.10506569 12.46926281 -31.80771057 14.67476912 -35.0859375 19.0234375 C-36.72091075 22.55889248 -36.99037938 26.34846836 -37.34765625 30.1953125 C-38.14007559 33.60224118 -39.26929033 34.86553703 -42 37 C-45 37.5 -45 37.5 -48 37 C-50.68561411 34.90794553 -51.85841356 33.71001434 -52.53125 30.3359375 C-52.42796115 20.54931936 -50.66866547 13.49769045 -43.9375 6.1875 C-32.46999662 -4.539552 -13.88563563 -8.42080586 0 0 Z " fill="#000000" transform="translate(139,299)"/>
</svg>
