<?xml version="1.0" encoding="UTF-8"?>
<svg version="1.1" xmlns="http://www.w3.org/2000/svg" width="512" height="512">
<path d="M0 0 C1.71498827 1.30379226 3.423906 2.61563078 5.125 3.9375 C5.85203125 4.4634375 6.5790625 4.989375 7.328125 5.53125 C10.71827293 8.12209476 11.95200985 9.34729831 13.1875 13.5625 C13.09789973 18.40091463 13.09789973 18.40091463 11.125 20.9375 C8.50279311 22.97699425 7.14478242 22.93872771 3.7890625 22.73046875 C-0.29905472 21.84572696 -1.79369611 20.75570266 -4.8125 17.9375 C-24.63563237 0.95010183 -50.94699554 -6.12066228 -76.75 -4.875 C-91.0834787 -3.56755431 -104.04372287 0.52359868 -116.875 6.9375 C-117.92300781 7.46085937 -118.97101563 7.98421875 -120.05078125 8.5234375 C-143.72265054 21.37835989 -160.30142156 44.14342863 -168.00976562 69.69970703 C-171.40447787 82.80438608 -171.33874452 95.60264491 -171.125 109.0625 C-171.10487952 111.29295249 -171.08663869 113.52342276 -171.0703125 115.75390625 C-171.02681451 121.14883398 -170.96035382 126.5430803 -170.875 131.9375 C-170.06675781 131.90269531 -169.25851563 131.86789063 -168.42578125 131.83203125 C-167.35714844 131.80496094 -166.28851563 131.77789062 -165.1875 131.75 C-164.13175781 131.71519531 -163.07601562 131.68039063 -161.98828125 131.64453125 C-158.45663401 131.97686945 -156.69244571 132.82071504 -153.875 134.9375 C-151.59437172 138.35844242 -151.65574993 139.61937222 -151.75 143.625 C-151.76804688 144.61886719 -151.78609375 145.61273438 -151.8046875 146.63671875 C-151.82789063 147.39597656 -151.85109375 148.15523437 -151.875 148.9375 C-123.8746255 149.13869254 -123.8746255 149.13869254 -98.875 137.9375 C-98.09640625 137.35097656 -97.3178125 136.76445312 -96.515625 136.16015625 C-84.80438096 126.55143421 -79.4152678 113.76197696 -77.9375 98.9375 C-77.84597656 97.7 -77.75445312 96.4625 -77.66015625 95.1875 C-76.875 91.9375 -76.875 91.9375 -74.53515625 89.49609375 C-71.875 87.9375 -71.875 87.9375 -68.25 88 C-65.02660834 88.89538657 -63.78223042 89.28856885 -61.875 91.9375 C-60.44508781 94.79732438 -60.4523155 97.57176645 -60.125 100.75 C-58.69414511 112.47086265 -54.82606819 122.11651188 -46.875 130.9375 C-46.39933594 131.53949219 -45.92367188 132.14148438 -45.43359375 132.76171875 C-41.66753152 137.13743074 -37.13345014 139.65236794 -32.0625 142.25 C-31.41095947 142.58781494 -30.75941895 142.92562988 -30.08813477 143.27368164 C-20.22668227 148.07144039 -10.054597 148.29544508 0.75 148.5625 C2.68552734 148.62050781 2.68552734 148.62050781 4.66015625 148.6796875 C7.8149687 148.77316342 10.96978727 148.85892313 14.125 148.9375 C14.09019531 148.03386719 14.05539062 147.13023437 14.01953125 146.19921875 C13.99246094 145.01972656 13.96539062 143.84023437 13.9375 142.625 C13.90269531 141.45324219 13.86789062 140.28148437 13.83203125 139.07421875 C14.125 135.9375 14.125 135.9375 15.44921875 134.08203125 C18.92084767 131.71096535 22.11852399 131.80261184 26.1875 131.8125 C27.25097656 131.80992187 28.31445312 131.80734375 29.41015625 131.8046875 C32.125 131.9375 32.125 131.9375 34.125 132.9375 C34.05506846 127.14284129 33.96662675 121.34883368 33.86254883 115.5546875 C33.82972323 113.59219725 33.80156661 111.62962216 33.77856445 109.66699219 C33.5285212 88.87616141 31.6528571 69.14346184 21.8125 50.4375 C19.45278448 45.90099264 18.06843034 43.00903435 19.125 37.9375 C20.6875 35.5 20.6875 35.5 23.125 33.9375 C26.5625 33.375 26.5625 33.375 30.125 33.9375 C34.51339576 37.58409743 36.80036539 41.54359468 39.125 46.625 C39.4667627 47.36540527 39.80852539 48.10581055 40.16064453 48.86865234 C42.51638605 54.15711973 44.4233226 59.49364136 46 65.0625 C46.28617187 66.06156372 46.28617187 66.06156372 46.578125 67.08081055 C49.51565998 78.26286737 50.26201651 89.37218437 50.22265625 100.875 C50.22187073 102.46222366 50.22187073 102.46222366 50.22106934 104.08151245 C50.21527766 108.48786291 50.20579332 112.89257933 50.12866211 117.29833984 C50.07746754 120.55431441 50.08291373 123.80624354 50.09765625 127.0625 C50.0513784 128.54544556 50.0513784 128.54544556 50.00416565 130.05834961 C50.06210292 134.24921363 50.12499623 136.87737698 53.0788269 140.00878906 C55.42833376 141.85176745 55.42833376 141.85176745 57.86277771 143.34912109 C64.00477403 147.66161392 67.95563275 156.08830574 69.68359375 163.25390625 C71.69414781 175.47736324 69.49939991 186.12375441 62.9453125 196.53125 C59.88778137 200.57296497 56.24467267 203.98781437 52.125 206.9375 C51.465 206.9375 50.805 206.9375 50.125 206.9375 C50.14071045 207.65591064 50.1564209 208.37432129 50.17260742 209.11450195 C50.91166356 248.21587273 42.62763477 280.911832 15.125 309.9375 C12.57045779 312.45557299 9.90496822 314.83089347 7.18359375 317.16796875 C5.40859936 318.69372294 3.76750896 320.27335215 2.125 321.9375 C2.67828979 322.05976456 3.23157959 322.18202911 3.80163574 322.30799866 C9.64783127 323.60329065 15.48848685 324.9217143 21.32666016 326.25268555 C23.49561302 326.74411151 25.66584007 327.22995304 27.83740234 327.7097168 C56.07270847 333.95744605 80.49767117 344.55146901 96.97265625 369.4296875 C106.69853635 384.87341294 110.29863884 401.06813448 110.5 419.0625 C110.53738281 420.33738281 110.57476562 421.61226563 110.61328125 422.92578125 C110.62488281 424.14910156 110.63648438 425.37242187 110.6484375 426.6328125 C110.66825684 427.74672363 110.68807617 428.86063477 110.70849609 430.00830078 C110.125 432.9375 110.125 432.9375 107.81884766 435.33544922 C105.125 436.9375 105.125 436.9375 101.5 436.875 C96.98214286 435.62003968 96.98214286 435.62003968 95.125 432.9375 C94.16223211 430.04919634 93.98870948 428.14646637 93.94921875 425.140625 C93.43925481 401.79890352 88.21848533 381.69742536 71.125 364.9375 C67.65293881 361.87841525 64.07281358 359.34561301 60.125 356.9375 C58.67673828 356.03257812 58.67673828 356.03257812 57.19921875 355.109375 C46.01521817 348.82776295 33.56475806 346.57636976 21.125 343.9375 C20.9084375 344.69675781 20.691875 345.45601563 20.46875 346.23828125 C18.59015417 351.40988082 16.10824306 356.22044013 13.625 361.125 C13.08746094 362.19363281 12.54992187 363.26226562 11.99609375 364.36328125 C8.38230886 371.52250522 4.68035364 378.63073118 0.91601562 385.71166992 C-2.45129311 392.06953962 -5.67386449 398.49460542 -8.875 404.9375 C-12.84037589 412.9185738 -16.89689272 420.83803159 -21.08154297 428.70605469 C-24.99153349 436.08899088 -28.71685835 443.56129999 -32.4140625 451.05273438 C-36.40890682 459.11455214 -40.63379533 466.98524124 -44.875 474.9375 C-5.77 475.4325 -5.77 475.4325 34.125 475.9375 C34.125 470.6575 34.125 465.3775 34.125 459.9375 C37.125 455.9375 37.125 455.9375 40.5625 455.0625 C45.49190647 454.88953837 45.49190647 454.88953837 48.125 456.9375 C50.125 460.9375 50.125 460.9375 50.125 475.9375 C64.645 475.9375 79.165 475.9375 94.125 475.9375 C94.125 471.6475 94.125 467.3575 94.125 462.9375 C96.14540816 457.42729592 96.14540816 457.42729592 99.125 455.9375 C105.35078828 455.36103812 105.35078828 455.36103812 108.32055664 457.57226562 C110.62841882 460.59737302 110.62754733 462.31588201 110.62109375 466.09375 C110.62173828 467.28097656 110.62238281 468.46820313 110.62304688 469.69140625 C110.60306641 470.92761719 110.58308594 472.16382813 110.5625 473.4375 C110.56958984 474.67371094 110.57667969 475.90992188 110.58398438 477.18359375 C110.51095602 487.53114993 110.51095602 487.53114993 107.125 490.9375 C104.49882221 491.43774599 104.49882221 491.43774599 101.266922 491.43807125 C100.03664371 491.44788554 98.80636541 491.45769983 97.53880596 491.46781152 C96.16624899 491.45847152 94.79369453 491.44875593 93.42114258 491.43870544 C91.96875621 491.44259588 90.51637365 491.44823424 89.06400013 491.45547634 C85.06308148 491.47028634 81.06255418 491.46001721 77.06164789 491.44573963 C72.75074445 491.43466501 68.43989749 491.44656075 64.1289978 491.45558167 C55.6800677 491.46954018 47.2312867 491.46193875 38.78236365 491.44690608 C28.95062726 491.43007654 19.11892832 491.43325237 9.28718197 491.43700016 C-8.25095837 491.44288353 -25.78902699 491.42868852 -43.32714844 491.40405273 C-60.35907683 491.38013057 -77.39090939 491.37304787 -94.42285156 491.38354492 C-112.95363111 491.39494521 -131.4843663 491.3968952 -150.0151453 491.38244683 C-151.98980267 491.38092093 -153.96446005 491.37940057 -155.93911743 491.37788582 C-156.91077715 491.377128 -157.88243686 491.37637019 -158.88354081 491.37558941 C-165.74254748 491.3708397 -172.60153439 491.37270288 -179.46054077 491.37695122 C-187.81533169 491.38186967 -196.17003187 491.37593031 -204.52480197 491.35605692 C-208.79044939 491.34616147 -213.05595842 491.34110395 -217.32161331 491.34894943 C-221.22244773 491.35597732 -225.12300219 491.34927003 -229.02379954 491.3313458 C-230.43895715 491.32728241 -231.85414005 491.32833263 -233.26928842 491.33486467 C-235.18515763 491.34295465 -237.10108079 491.33095977 -239.016922 491.31781673 C-240.08344907 491.3167876 -241.14997614 491.31575848 -242.24882221 491.31469816 C-245.28987535 490.87791142 -245.86163537 490.11741401 -247.875 487.9375 C-251.44873601 488.12895014 -254.73480799 488.69326616 -258.22631836 489.44116211 C-287.38059258 495.42603322 -316.74246734 489.44048754 -341.875 473.9375 C-345.40184865 471.46577504 -348.64815253 468.78599015 -351.875 465.9375 C-353.13763672 464.87208984 -353.13763672 464.87208984 -354.42578125 463.78515625 C-373.88809643 446.98082038 -386.51056605 422.37101859 -389.875 396.9375 C-390.94436053 381.03310717 -390.75752594 365.19492587 -385.875 349.9375 C-385.56151611 348.92091309 -385.56151611 348.92091309 -385.24169922 347.88378906 C-380.12926445 331.7001566 -370.36004674 312.59419782 -355.875 302.9375 C-353 302.5 -353 302.5 -349.875 302.9375 C-347 305.0625 -347 305.0625 -344.875 307.9375 C-344.39220531 311.59081242 -344.47640673 313.33442745 -346.52734375 316.4375 C-347.65849609 317.675 -347.65849609 317.675 -348.8125 318.9375 C-367.9837021 341.15797991 -374.4546884 365.96477926 -372.875 394.9375 C-371.03019786 411.94644899 -363.22973958 427.56488693 -352.875 440.9375 C-352.24980469 441.74703125 -351.62460937 442.5565625 -350.98046875 443.390625 C-336.51414167 460.81112835 -313.72563577 471.63864198 -291.51171875 474.34765625 C-268.20614354 476.48871754 -244.778011 470.66720384 -226 456.4375 C-224.61469954 455.28308295 -223.23951132 454.11641687 -221.875 452.9375 C-221.14023438 452.34582031 -220.40546875 451.75414062 -219.6484375 451.14453125 C-202.24137906 436.63864922 -191.80989599 414.3086653 -189.2734375 392.00805664 C-187.04599742 367.16423104 -194.74025264 342.81106456 -210.1875 323.25 C-220.78899231 310.80710178 -233.65780627 301.91721415 -248.875 295.9375 C-249.81085938 295.56753906 -250.74671875 295.19757813 -251.7109375 294.81640625 C-274.3043517 286.88838301 -296.99913346 289.56314484 -318.875 297.9375 C-319.535 298.2675 -320.195 298.5975 -320.875 298.9375 C-324.53046065 299.34366229 -326.46417682 299.15184253 -329.75 297.4375 C-332.32511171 294.40795681 -332.46389555 292.78604793 -332.5390625 288.9375 C-331.50386372 285.81972486 -329.5599418 284.74098426 -326.875 282.9375 C-303.48989298 271.98930003 -273.47319188 269.62071045 -248.875 277.9375 C-247.72515625 278.32292969 -246.5753125 278.70835937 -245.390625 279.10546875 C-219.20473071 288.60246562 -198.05203348 306.32873549 -184.875 330.9375 C-178.83276349 330.3497338 -173.03458481 329.44514185 -167.12109375 328.08984375 C-165.94160912 327.82561363 -165.94160912 327.82561363 -164.73829651 327.55604553 C-162.26198669 327.00022041 -159.7872468 326.43773874 -157.3125 325.875 C-155.61924056 325.49369658 -153.92588195 325.11283326 -152.23242188 324.73242188 C-148.11211897 323.80585767 -143.99320865 322.87332643 -139.875 321.9375 C-140.29273682 321.55005615 -140.71047363 321.1626123 -141.14086914 320.76342773 C-143.07436653 318.96866619 -145.005938 317.1718442 -146.9375 315.375 C-147.92266602 314.46137695 -147.92266602 314.46137695 -148.92773438 313.52929688 C-166.14021205 297.50388663 -178.69653846 278.85132192 -184.875 255.9375 C-185.18179688 254.82632812 -185.48859375 253.71515625 -185.8046875 252.5703125 C-187.38759437 245.68089881 -187.94451474 239.16511314 -187.92578125 232.08984375 C-187.92885284 231.38481216 -187.93192444 230.67978058 -187.93508911 229.9533844 C-187.95042784 226.3660196 -187.91692059 222.79261016 -187.79394531 219.20727539 C-187.62706488 211.74772948 -187.62706488 211.74772948 -191.04272461 205.34741211 C-193.65057198 203.22332938 -193.65057198 203.22332938 -196.38476562 201.57592773 C-202.87042778 197.30874354 -206.29522175 189.3290172 -207.875 181.9375 C-209.88181962 169.84991205 -208.26284216 159.54212154 -201.55078125 149.19921875 C-197.59698433 143.86297536 -194.10359222 140.32267432 -187.875 137.9375 C-187.88388245 137.29286804 -187.89276489 136.64823608 -187.9019165 135.98406982 C-187.99161054 129.16867097 -188.05123041 122.35344421 -188.09472656 115.53759766 C-188.11462785 113.00660371 -188.14175873 110.47565441 -188.17675781 107.94482422 C-188.43457471 88.79812801 -187.81636404 70.33575525 -180.125 52.5 C-179.78283447 51.67781982 -179.44066895 50.85563965 -179.08813477 50.00854492 C-174.51615118 39.34267233 -168.34342771 29.81325456 -160.875 20.9375 C-160.22144531 20.14988281 -159.56789062 19.36226562 -158.89453125 18.55078125 C-119.70059567 -26.92560667 -48.75965543 -34.75281674 0 0 Z M-69.875 128.9375 C-70.81204213 130.31851653 -71.74439889 131.70294029 -72.65307617 133.1027832 C-83.21864036 149.25258957 -98.05688821 158.93893363 -116.875 162.9375 C-121.49559324 163.67536324 -126.00819423 164.10308691 -130.68359375 164.25390625 C-131.92431641 164.29580078 -133.16503906 164.33769531 -134.44335938 164.38085938 C-136.35858398 164.43983398 -136.35858398 164.43983398 -138.3125 164.5 C-139.61638672 164.54318359 -140.92027344 164.58636719 -142.26367188 164.63085938 C-145.46735316 164.73647524 -148.67110611 164.83858101 -151.875 164.9375 C-151.951815 171.80184664 -152.0039168 178.66608021 -152.03979492 185.53076172 C-152.05477077 187.86023094 -152.0751586 190.1896725 -152.10131836 192.51904297 C-152.40599072 210.94660685 -152.40599072 210.94660685 -148.875 228.9375 C-148.65046143 229.68563965 -148.42592285 230.4337793 -148.19458008 231.20458984 C-141.10196538 252.79174402 -125.40522858 269.5676173 -105.4621582 279.91870117 C-85.54148217 289.6103417 -62.92510229 290.84249076 -41.9921875 283.6484375 C-19.62439556 275.45563253 -2.89376931 259.15979659 7.28808594 237.80273438 C14.69869417 221.28667635 14.40164475 203.75915612 14.25 186.0625 C14.23994549 184.0065148 14.23082403 181.95052481 14.22265625 179.89453125 C14.20084925 174.90873383 14.1664569 169.92317116 14.125 164.9375 C12.92508423 164.91562622 12.92508423 164.91562622 11.70092773 164.89331055 C-32.13437623 164.00051522 -32.13437623 164.00051522 -50.5 149.70703125 C-52.74596611 147.90170856 -52.74596611 147.90170856 -55.0625 146.94921875 C-57.39874583 145.6451505 -57.80088551 144.34748797 -58.875 141.9375 C-59.79755982 140.78298228 -60.75768616 139.65764429 -61.75 138.5625 C-63.75253106 136.29557609 -65.54712003 134.04168765 -67.1875 131.5 C-67.744375 130.654375 -68.30125 129.80875 -68.875 128.9375 C-69.205 128.9375 -69.535 128.9375 -69.875 128.9375 Z M30.125 147.9375 C30.125 164.1075 30.125 180.2775 30.125 196.9375 C39.19615698 195.80360538 43.86981534 194.13338931 49.5 187 C53.63230897 180.98120216 55.10356423 175.18126204 54.125 167.9375 C51.45930911 159.48698507 47.29942891 154.3003717 39.63671875 149.953125 C36.47943722 148.55957196 36.47943722 148.55957196 30.125 147.9375 Z M-185.875 155.25 C-190.86771961 160.87576779 -193.07571648 167.46081115 -192.875 174.9375 C-191.46215576 182.45584969 -187.93034928 188.53222503 -181.9375 193.25 C-176.97134547 195.9864525 -173.59104347 196.9375 -167.875 196.9375 C-167.875 180.7675 -167.875 164.5975 -167.875 147.9375 C-174.47857237 147.9375 -181.09789153 150.71787145 -185.875 155.25 Z M-171.875 212.9375 C-172.81269323 242.61909733 -167.74860017 270.29888423 -146.9375 292.8125 C-144.95069183 294.8899729 -142.92440355 296.92193095 -140.875 298.9375 C-140.0396875 299.77152344 -139.204375 300.60554688 -138.34375 301.46484375 C-131.73341067 307.7425199 -123.60907076 314.02614308 -114.875 316.9375 C-114.61253566 313.06379549 -114.45346436 309.19237619 -114.3125 305.3125 C-114.23708984 304.21808594 -114.16167969 303.12367188 -114.08398438 301.99609375 C-113.79180413 295.97341814 -113.79180413 295.97341814 -116.69213867 290.98999023 C-119.02048144 289.4486445 -121.37839457 288.18414223 -123.875 286.9375 C-147.69778872 270.94566464 -161.12282407 247.45953707 -166.625 219.625 C-167.04849968 217.39712138 -167.46769931 215.16839697 -167.875 212.9375 C-169.195 212.9375 -170.515 212.9375 -171.875 212.9375 Z M29.125 212.9375 C28.97804688 213.96746094 28.83109375 214.99742187 28.6796875 216.05859375 C25.39562602 237.51564921 17.77555528 255.64223644 3.125 271.9375 C2.45082031 272.70578125 1.77664063 273.4740625 1.08203125 274.265625 C-5.32733863 281.14397316 -12.99123634 285.93688732 -20.875 290.9375 C-22.36 291.9275 -22.36 291.9275 -23.875 292.9375 C-24.29178607 295.45646074 -24.29178607 295.45646074 -24.16796875 298.3828125 C-24.15830078 299.45917969 -24.14863281 300.53554688 -24.13867188 301.64453125 C-24.11353516 302.77246094 -24.08839844 303.90039062 -24.0625 305.0625 C-24.04896484 306.19816406 -24.03542969 307.33382812 -24.02148438 308.50390625 C-23.98604319 311.31557387 -23.93663517 314.12630417 -23.875 316.9375 C-0.70171624 307.88005652 16.30162813 287.16717947 26.125 264.9375 C31.80029449 250.88675632 34.33975084 236.97125681 34.1875 221.875 C34.18298828 221.00939453 34.17847656 220.14378906 34.17382812 219.25195312 C34.16219913 217.14710461 34.14427073 215.04229242 34.125 212.9375 C32.475 212.9375 30.825 212.9375 29.125 212.9375 Z M-98.875 299.9375 C-99.205 309.5075 -99.535 319.0775 -99.875 328.9375 C-107.45263031 330.86905282 -115.02523044 332.75878909 -122.65625 334.46875 C-123.82623535 334.73220215 -124.9962207 334.9956543 -126.20166016 335.26708984 C-128.55412469 335.79442777 -130.90796694 336.31565942 -133.26318359 336.83056641 C-134.89247803 337.19674072 -134.89247803 337.19674072 -136.5546875 337.5703125 C-137.53163574 337.78574707 -138.50858398 338.00118164 -139.51513672 338.22314453 C-142.03561011 338.78350311 -142.03561011 338.78350311 -143.875 340.9375 C-139.585 349.1875 -135.295 357.4375 -130.875 365.9375 C-90.285 365.9375 -49.695 365.9375 -7.875 365.9375 C-0.2300905 353.3844192 -0.2300905 353.3844192 5.125 339.9375 C0.55947248 338.32200565 -4.03253833 337.15939593 -8.7578125 336.1328125 C-10.26968941 335.79367307 -11.78140361 335.45380759 -13.29296875 335.11328125 C-15.65269751 334.58424925 -18.01304478 334.05967234 -20.37646484 333.54736328 C-22.67346377 333.04755995 -24.96565108 332.52929093 -27.2578125 332.0078125 C-27.96205353 331.85974152 -28.66629456 331.71167053 -29.39187622 331.55911255 C-33.63705353 330.57392408 -36.35407858 329.56954964 -38.875 325.9375 C-39.42089844 323.09667969 -39.42089844 323.09667969 -39.484375 319.859375 C-39.51660156 318.69921875 -39.54882812 317.5390625 -39.58203125 316.34375 C-39.59621094 315.1371875 -39.61039062 313.930625 -39.625 312.6875 C-39.65464844 311.46546875 -39.68429687 310.2434375 -39.71484375 308.984375 C-39.78552402 305.96868356 -39.83823175 302.9537645 -39.875 299.9375 C-41.26996704 300.15321655 -41.26996704 300.15321655 -42.69311523 300.37329102 C-46.08659435 300.89805583 -49.48003357 301.42242757 -52.875 301.9375 C-54.56302734 302.21013672 -54.56302734 302.21013672 -56.28515625 302.48828125 C-68.17128215 303.97566371 -79.71350965 302.98817912 -91.3984375 300.59375 C-94.94043788 299.81384112 -94.94043788 299.81384112 -98.875 299.9375 Z M-171.125 345.4375 C-172.38828125 345.7159375 -173.6515625 345.994375 -174.953125 346.28125 C-175.91734375 346.4978125 -176.8815625 346.714375 -177.875 346.9375 C-177.59785156 348.17242187 -177.32070312 349.40734375 -177.03515625 350.6796875 C-170.32430094 381.58591346 -171.70384742 412.67855377 -189.1875 440.125 C-198.06085501 453.58680133 -208.57839616 464.73990026 -222.07421875 473.66015625 C-222.66847656 474.08167969 -223.26273438 474.50320313 -223.875 474.9375 C-223.875 475.2675 -223.875 475.5975 -223.875 475.9375 C-211.995 475.9375 -200.115 475.9375 -187.875 475.9375 C-187.545 470.3275 -187.215 464.7175 -186.875 458.9375 C-181.875 455.9375 -181.875 455.9375 -178.75 455.9375 C-175.875 456.9375 -175.875 456.9375 -172.875 461.9375 C-172.38 468.8675 -172.38 468.8675 -171.875 475.9375 C-145.805 475.9375 -119.735 475.9375 -92.875 475.9375 C-94.21653555 471.91289336 -95.33540945 468.79608175 -97.2734375 465.1640625 C-97.74668457 464.26913086 -98.21993164 463.37419922 -98.70751953 462.45214844 C-99.47104736 461.02177246 -99.47104736 461.02177246 -100.25 459.5625 C-104.60377227 451.32006254 -108.85765822 443.03819162 -113 434.6875 C-116.92467605 426.78622415 -120.94466652 418.94855846 -125.08642578 411.15917969 C-128.45246376 404.80244846 -131.67438078 398.37886681 -134.875 391.9375 C-139.67058594 382.2920846 -144.60043444 372.72965526 -149.66064453 363.22070312 C-151.36938645 360.007966 -153.06966068 356.7907672 -154.77075195 353.57397461 C-156.47031715 350.36083437 -158.17255586 347.14911564 -159.875 343.9375 C-163.89925997 343.9375 -167.20589798 344.56658844 -171.125 345.4375 Z M-121.875 381.9375 C-120.26808909 386.75823272 -118.4415879 391.00684922 -116.11328125 395.47265625 C-115.73426163 396.20835846 -115.355242 396.94406067 -114.96473694 397.70205688 C-113.70949482 400.13670637 -112.44842604 402.56829015 -111.1875 405 C-110.30564919 406.70848062 -109.42431145 408.41722615 -108.54345703 410.1262207 C-107.14536278 412.83869014 -105.74697839 415.55100523 -104.34710693 418.26255798 C-99.13289976 428.36425384 -93.95996236 438.48696767 -88.78939819 448.61105347 C-87.26553 451.59459423 -85.74089852 454.57774379 -84.21606445 457.56079102 C-83.27683182 459.39858817 -82.33762169 461.23639684 -81.3984375 463.07421875 C-80.96910416 463.91417389 -80.53977081 464.75412903 -80.09742737 465.61953735 C-79.70095505 466.39566376 -79.30448273 467.17179016 -78.89599609 467.97143555 C-78.55216888 468.64434128 -78.20834167 469.31724701 -77.85409546 470.01054382 C-76.85246528 471.98185055 -75.86386938 473.95976124 -74.875 475.9375 C-71.245 475.9375 -67.615 475.9375 -63.875 475.9375 C-56.49018808 462.00511956 -49.27708232 447.99053974 -42.125 433.9375 C-34.68851309 419.33923781 -27.23563497 404.75128376 -19.63378906 390.23828125 C-18.87146973 388.77841797 -18.87146973 388.77841797 -18.09375 387.2890625 C-17.65998047 386.46229004 -17.22621094 385.63551758 -16.77929688 384.78369141 C-15.80168615 383.13045189 -15.80168615 383.13045189 -15.875 381.9375 C-50.855 381.9375 -85.835 381.9375 -121.875 381.9375 Z " fill="#000000" transform="translate(395.875,21.0625)"/>
<path d="M0 0 C11.35164595 7.65692761 18.9330684 17.28301053 23.15234375 30.3515625 C23.15234375 31.6715625 23.15234375 32.9915625 23.15234375 34.3515625 C23.99796875 34.31675781 24.84359375 34.28195312 25.71484375 34.24609375 C34.44738879 34.03770347 40.04084443 34.58420719 47.40234375 39.5390625 C52.07940602 44.32242164 54.67047967 49.64827699 55.1796875 56.359375 C55.07173867 64.22421831 51.32478382 69.9485727 47.15234375 76.3515625 C47.55066406 76.74085938 47.94898438 77.13015625 48.359375 77.53125 C53.40452029 82.85872702 55.87825821 88.33496648 56.28125 95.7109375 C55.87267694 102.89191853 52.50353577 108.46673969 47.21484375 113.2265625 C41.49588884 117.19481693 35.98854886 118.23292448 29.15234375 117.3515625 C21.99528411 115.45739931 17.21005997 111.48424724 13.15234375 105.3515625 C10.48378777 98.73818463 10.37817631 92.98817773 12.71484375 86.2890625 C14.85302757 81.33510139 17.55318358 78.17509754 22.15234375 75.3515625 C23.28671875 74.9803125 24.42109375 74.6090625 25.58984375 74.2265625 C31.33177987 72.10425958 34.35380486 65.43671244 37.15234375 60.3515625 C38.09322072 57.63767616 38.34612467 56.87328037 37.33984375 54.1640625 C36.27112388 52.20134057 36.27112388 52.20134057 34.15234375 51.3515625 C32.28177584 51.124061 30.40548417 50.94193439 28.52734375 50.7890625 C27.52445313 50.70527344 26.5215625 50.62148438 25.48828125 50.53515625 C24.71742188 50.47457031 23.9465625 50.41398437 23.15234375 50.3515625 C23.06984375 51.3209375 22.98734375 52.2903125 22.90234375 53.2890625 C21.13993783 65.55143607 12.51204602 75.86380068 3.15234375 83.3515625 C2.12437678 86.43546341 1.86447504 88.96019763 1.62744141 92.1965332 C1.53709625 93.39820633 1.4467511 94.59987946 1.35366821 95.83796692 C1.21147354 97.78795845 1.21147354 97.78795845 1.06640625 99.77734375 C0.96361038 101.12637004 0.86011496 102.47534319 0.75595093 103.82426453 C0.31422891 109.54936872 -0.12227713 115.27480168 -0.54003906 121.00170898 C-0.79621689 124.50736303 -1.06471729 128.01189203 -1.34105301 131.51601219 C-1.49342885 133.49277223 -1.63237887 135.47055244 -1.77108765 137.44831848 C-1.86773712 138.65944809 -1.9643866 139.8705777 -2.06396484 141.1184082 C-2.14311127 142.17969437 -2.22225769 143.24098053 -2.30380249 144.33442688 C-3.51468181 151.05201788 -6.6107289 154.45172298 -11.84765625 158.3515625 C-15.57124112 160.21335493 -19.99925017 159.62269232 -24.09765625 159.6640625 C-25.03996094 159.69306641 -25.98226562 159.72207031 -26.953125 159.75195312 C-32.78381098 159.80510805 -36.31222376 159.38534867 -40.84765625 155.3515625 C-44.27384792 151.65526112 -45.42667984 149.13494002 -45.98046875 144.140625 C-46.08936935 143.19021835 -46.08936935 143.19021835 -46.20046997 142.22061157 C-47.48814537 130.2790069 -48.17043311 118.25052965 -48.94677734 106.26708984 C-49.16567181 102.92669388 -49.40713109 99.58855319 -49.65234375 96.25 C-49.71291962 95.22917328 -49.77349548 94.20834656 -49.83590698 93.15658569 C-50.25479251 87.71671194 -50.65920982 84.2421552 -54.84765625 80.3515625 C-56.23984375 79.2996875 -56.23984375 79.2996875 -57.66015625 78.2265625 C-65.09687146 72.20188183 -69.38801132 62.39572274 -71.84765625 53.3515625 C-71.84765625 52.3615625 -71.84765625 51.3715625 -71.84765625 50.3515625 C-73.61940444 50.43879628 -75.39013002 50.54697905 -77.16015625 50.6640625 C-78.14628906 50.72207031 -79.13242188 50.78007812 -80.1484375 50.83984375 C-82.81917019 51.17570225 -82.81917019 51.17570225 -84.703125 52.51953125 C-86.43506761 55.29182164 -86.24935639 57.13402311 -85.84765625 60.3515625 C-82.2714637 68.11329884 -77.96317653 73.01425956 -70.11328125 76.2890625 C-65.43650859 78.48230761 -63.47199948 82.21052142 -61.03515625 86.6640625 C-58.95633175 93.11935964 -59.06433626 99.15527365 -61.74609375 105.43359375 C-64.98817148 111.07848796 -69.59346004 115.00178535 -75.8203125 116.9140625 C-83.20277094 118.50719419 -89.34020326 117.07321622 -95.84765625 113.3515625 C-100.59823681 109.2265728 -103.44239744 104.64482357 -104.21875 98.3359375 C-104.3923073 89.88267591 -103.13543256 83.83012979 -97.1796875 77.609375 C-96.74011719 77.19429688 -96.30054688 76.77921875 -95.84765625 76.3515625 C-96.26917969 75.66449219 -96.69070312 74.97742188 -97.125 74.26953125 C-97.67285156 73.36847656 -98.22070312 72.46742188 -98.78515625 71.5390625 C-99.33042969 70.64574219 -99.87570313 69.75242187 -100.4375 68.83203125 C-103.96014246 62.6356934 -103.96469836 54.76281161 -102.234375 47.9296875 C-99.46646907 41.6378837 -94.27378606 37.75230065 -88.01953125 35.1953125 C-84.53253194 34.26773633 -81.5739495 34.15306672 -77.97265625 34.2265625 C-76.82023437 34.24460937 -75.6678125 34.26265625 -74.48046875 34.28125 C-73.17722656 34.31605469 -73.17722656 34.31605469 -71.84765625 34.3515625 C-71.77289063 33.75730469 -71.698125 33.16304688 -71.62109375 32.55078125 C-69.50526256 19.21274739 -62.19312708 10.12085096 -51.8828125 1.7578125 C-37.12952603 -8.4727963 -15.39502367 -8.91179697 0 0 Z M-50.84765625 23.3515625 C-52.600892 25.91981595 -53.81232055 28.42613721 -54.84765625 31.3515625 C-55.26015625 32.5065625 -55.67265625 33.6615625 -56.09765625 34.8515625 C-58.02152597 43.82962118 -56.48013195 51.70085542 -51.97265625 59.6640625 C-49.28072661 63.06856175 -46.34217608 66.04179567 -43.078125 68.90234375 C-42.46582031 69.46308594 -41.85351562 70.02382813 -41.22265625 70.6015625 C-40.65289062 71.10171875 -40.083125 71.601875 -39.49609375 72.1171875 C-34.17464276 79.33014951 -34.0992719 88.74796851 -33.4609375 97.35546875 C-33.35410743 98.68789965 -33.24627655 100.02025065 -33.13749695 101.3525238 C-32.85633179 104.82870822 -32.58861344 108.30579706 -32.32385254 111.78326416 C-32.05031844 115.34379699 -31.76384444 118.90328704 -31.47851562 122.46289062 C-30.92235399 129.42483286 -30.38161759 136.3878827 -29.84765625 143.3515625 C-26.21765625 143.3515625 -22.58765625 143.3515625 -18.84765625 143.3515625 C-17.75496792 133.46594688 -16.84420056 123.57797037 -16.15234375 113.65625 C-16.02845067 111.91609352 -15.90450813 110.17594056 -15.78051758 108.43579102 C-15.59398512 105.81131849 -15.41162855 103.18688941 -15.24227905 100.56124878 C-13.76799117 77.7259741 -13.76799117 77.7259741 -7.97265625 71.5390625 C-7.44929688 70.971875 -6.9259375 70.4046875 -6.38671875 69.8203125 C-4.84765625 68.3515625 -4.84765625 68.3515625 -2.34765625 66.5390625 C3.80584104 61.15475237 7.51400819 53.13647847 8.40234375 45.0859375 C8.8413561 36.36056701 6.39115756 28.59426587 0.71484375 21.9140625 C-0.45155558 20.70583028 -1.63689217 19.51533346 -2.84765625 18.3515625 C-3.61078125 17.6090625 -4.37390625 16.8665625 -5.16015625 16.1015625 C-21.40144038 5.5258426 -38.2738369 9.39600477 -50.84765625 23.3515625 Z M-86.72265625 90.4765625 C-88.3942925 93.26262292 -88.31142249 95.17145112 -87.84765625 98.3515625 C-86.27069993 100.4301233 -86.27069993 100.4301233 -83.84765625 101.3515625 C-80.64826929 101.27352867 -79.31636081 100.78902009 -76.97265625 98.6015625 C-75.62163058 96.3774509 -75.62163058 96.3774509 -76.03515625 93.7265625 C-76.70442176 91.20135885 -76.70442176 91.20135885 -78.84765625 89.3515625 C-81.95112879 89.02140585 -84.00546801 88.84624956 -86.72265625 90.4765625 Z M28.65234375 90.9765625 C26.92428424 93.24448578 26.92428424 93.24448578 27.15234375 95.9140625 C28.36857226 98.8786195 29.28803324 99.91940725 32.15234375 101.3515625 C34.7588288 101.51366469 34.7588288 101.51366469 37.15234375 100.3515625 C39.23211087 98.19084783 39.23211087 98.19084783 40.15234375 95.3515625 C39.45749111 92.56932872 39.45749111 92.56932872 38.15234375 90.3515625 C33.17687999 89.08720048 33.17687999 89.08720048 28.65234375 90.9765625 Z " fill="#000000" transform="translate(138.84765625,326.6484375)"/>
<path d="M0 0 C2.9375 2.1875 2.9375 2.1875 5 5 C5.3125 7.8125 5.3125 7.8125 5 10 C6.093125 10.0825 7.18625 10.165 8.3125 10.25 C12 11 12 11 13.9375 12.6875 C15.3613395 15.7864448 15.55153827 17.62182812 15 21 C12.8125 23.875 12.8125 23.875 10 26 C7.1875 26.3125 7.1875 26.3125 5 26 C4.9175 27.093125 4.835 28.18625 4.75 29.3125 C4 33 4 33 2.3125 34.9375 C-0.7864448 36.3613395 -2.62182812 36.55153827 -6 36 C-8.875 33.8125 -8.875 33.8125 -11 31 C-11.3125 28.1875 -11.3125 28.1875 -11 26 C-12.093125 25.9175 -13.18625 25.835 -14.3125 25.75 C-18 25 -18 25 -19.9375 23.375 C-21.45259656 19.98831357 -21.52368962 17.66582737 -21 14 C-18.449054 11.15751732 -17.0103853 10.08981203 -13.1875 9.75 C-12.465625 9.8325 -11.74375 9.915 -11 10 C-10.896875 8.906875 -10.79375 7.81375 -10.6875 6.6875 C-10 3 -10 3 -8.875 1.0625 C-5.76581435 -0.69937187 -3.49155423 -0.48159369 0 0 Z " fill="#000000" transform="translate(412,442)"/>
</svg>
