<?xml version="1.0" encoding="UTF-8"?>
<svg version="1.1" xmlns="http://www.w3.org/2000/svg" width="512" height="512">
<path d="M0 0 C1.39115273 -0.01029488 1.39115273 -0.01029488 2.81040955 -0.02079773 C5.87124002 -0.03907493 8.93155838 -0.03522684 11.99243164 -0.02954102 C14.12325711 -0.03410239 16.2540811 -0.03940783 18.38490295 -0.04542542 C22.84943623 -0.05435836 27.31379064 -0.05193125 31.77832031 -0.04199219 C37.49605423 -0.03050283 43.21317054 -0.05071291 48.93082333 -0.07990932 C53.33093683 -0.09826645 57.7309022 -0.0979798 62.13104439 -0.0922718 C64.23894683 -0.09211853 66.34685927 -0.09816804 68.45472527 -0.11056328 C71.40380328 -0.1254618 74.35173868 -0.11480417 77.30078125 -0.09765625 C78.16902527 -0.10732422 79.03726929 -0.11699219 79.93182373 -0.12695312 C85.43085297 -0.06008928 88.5172721 0.75970576 92.71508789 4.40405273 C92.71508789 5.06405273 92.71508789 5.72405273 92.71508789 6.40405273 C93.58004883 6.57678711 94.44500977 6.74952148 95.33618164 6.92749023 C125.6297145 13.68694792 157.72687458 29.20924614 180.71508789 50.40405273 C182.26095665 53.49579025 182.0086831 55.99834826 181.71508789 59.40405273 C180.15258789 61.84155273 180.15258789 61.84155273 177.71508789 63.40405273 C172.03510137 64.19235322 169.21682005 62.85999821 164.81835938 59.59448242 C163.77723999 58.78865723 163.77723999 58.78865723 162.71508789 57.96655273 C161.20890096 56.85450358 159.6997315 55.74648371 158.18774414 54.64233398 C157.43638184 54.0914209 156.68501953 53.54050781 155.91088867 52.97290039 C137.93056468 40.12638472 117.3996443 31.77115502 96.71508789 24.40405273 C96.71508789 30.34405273 96.71508789 36.28405273 96.71508789 42.40405273 C98.69508789 42.73405273 100.67508789 43.06405273 102.71508789 43.40405273 C106.04476669 44.52339305 109.24343215 45.94350906 112.46508789 47.34155273 C113.85183716 47.94326294 113.85183716 47.94326294 115.26660156 48.55712891 C162.65613747 69.51858758 198.7331327 108.31363555 217.51538086 156.45532227 C224.5669593 175.01096002 229.03083495 195.5119881 228.71508789 215.40405273 C234.32508789 215.40405273 239.93508789 215.40405273 245.71508789 215.40405273 C240.68163739 166.40417473 226.13484355 120.74855866 191.45727539 84.41967773 C188.56774877 81.07663797 187.66731407 79.31175542 187.90258789 74.84155273 C188.71508789 71.40405273 188.71508789 71.40405273 189.77758789 69.46655273 C192.93844302 67.73318057 196.29427291 67.45173794 199.71508789 68.40405273 C202.18774414 70.63842773 202.18774414 70.63842773 204.71508789 73.40405273 C205.45887695 74.16202148 206.20266602 74.91999023 206.96899414 75.70092773 C232.99610415 103.35748456 249.3713882 139.51789557 257.52758789 176.27905273 C257.72255859 177.1566626 257.9175293 178.03427246 258.1184082 178.93847656 C261.17038879 193.51881592 262.12523371 207.86620225 262.09008789 222.71655273 C262.08927216 224.0229068 262.08927216 224.0229068 262.08843994 225.35565186 C261.99850804 256.86275482 256.42508774 289.82758832 241.27758789 317.84155273 C238.70532858 323.28607091 238.36215802 327.666417 238.48657227 333.55322266 C238.49633339 334.42777949 238.50609451 335.30233633 238.51615143 336.20339489 C238.64740946 344.79081148 239.09813377 353.35776752 239.6410675 361.92769814 C239.8150659 364.67828721 239.98097607 367.4292731 240.1451416 370.1804657 C240.55397998 377.00772031 240.97483654 383.83421976 241.39727783 390.66064453 C243.93396304 431.68417358 243.93396304 431.68417358 244.12133789 445.00952148 C244.14538696 445.85541336 244.16943604 446.70130524 244.19421387 447.5728302 C244.19162213 457.59113484 239.86992895 465.15650948 233.09399414 472.26733398 C227.19140597 477.56900185 220.84060038 479.53486139 213.02856445 479.51757812 C211.88768372 479.51750259 210.74680298 479.51742706 209.5713501 479.51734924 C208.34518982 479.51218796 207.11902954 479.50702667 205.85571289 479.50170898 C204.59619812 479.50029404 203.33668335 479.49887909 202.03900146 479.49742126 C198.6984367 479.49277346 195.35794068 479.48379555 192.01739502 479.47271729 C188.60543409 479.46246872 185.19346604 479.45791627 181.78149414 479.45288086 C175.09267309 479.44185236 168.40388446 479.42511462 161.71508789 479.40405273 C162.04508789 480.39405273 162.37508789 481.38405273 162.71508789 482.40405273 C163.01626482 485.46118919 163.03856577 488.5213029 163.09008789 491.59155273 C163.1274707 492.41719727 163.16485352 493.2428418 163.20336914 494.09350586 C163.29090871 500.26504552 161.96888212 504.80007844 157.71508789 509.40405273 C153.7184621 512.30713125 150.89180749 512.78168125 145.99058533 512.79173279 C144.99610731 512.79981109 144.99610731 512.79981109 143.98153883 512.8080526 C141.76744981 512.82232196 139.55395952 512.81523144 137.33984375 512.80810547 C135.74955261 512.81380949 134.15926557 512.82077388 132.56898499 512.8289032 C128.25504142 512.84684345 123.94130116 512.84566496 119.6273315 512.83996081 C116.02620209 512.8368711 112.42511185 512.84295879 108.82398802 512.84899956 C100.33054221 512.86304518 91.83719698 512.86148238 83.34375 512.85009766 C74.57822743 512.83860799 65.81301051 512.8527062 57.04752821 512.87949413 C49.52213984 512.90163207 41.99684756 512.90829307 34.47142893 512.90241772 C29.97651858 512.89904337 25.48180431 512.90149518 20.98692131 512.91866875 C16.76215197 512.93410621 12.53783675 512.9302183 8.31308556 512.9113636 C6.76186969 512.90766922 5.21062041 512.91081088 3.65943527 512.92124939 C1.54329854 512.93440377 -0.57132227 512.92296415 -2.68739319 512.90525818 C-3.87185563 512.90504889 -5.05631807 512.90483961 -6.27667332 512.90462399 C-9.92156507 512.29811362 -11.11049536 511.34917738 -13.28491211 508.40405273 C-13.73333099 504.81670172 -13.82900286 502.45577904 -12.15263653 499.21536636 C-9.47332694 496.61697983 -7.65608984 496.9112477 -3.96382141 496.92303467 C-3.32014042 496.91961697 -2.67645942 496.91619927 -2.01327294 496.912678 C0.14752634 496.90607967 2.30708829 496.92810486 4.46777344 496.94995117 C6.014994 496.95107924 7.56221672 496.95044658 9.10943604 496.94818115 C13.31385658 496.94703148 17.51782251 496.97058147 21.72213721 496.99847698 C26.11436149 497.02344858 30.50659569 497.02582928 34.89888 497.03057861 C43.21809155 497.0430209 51.53709334 497.07585938 59.85621244 497.11597657 C69.32644705 497.16065538 78.79669158 497.18267152 88.26700532 497.20275831 C107.74981853 497.24459097 127.23243636 497.31496729 146.71508789 497.40405273 C146.62765458 495.48654987 146.51946899 493.56998609 146.40258789 491.65405273 C146.34458008 490.58670898 146.28657227 489.51936523 146.22680664 488.41967773 C145.67595972 485.17346533 145.00524601 483.73228949 142.71508789 481.40405273 C139.00872874 480.16859968 135.57916565 480.25928875 131.7192688 480.26361084 C130.48339927 480.25915416 130.48339927 480.25915416 129.22256267 480.25460744 C126.45199448 480.24591129 123.68146945 480.24441142 120.91088867 480.24291992 C118.92843534 480.23829244 116.94598289 480.23326788 114.96353149 480.22787476 C109.57098376 480.21474309 104.17844847 480.20830445 98.78588724 480.2038641 C95.41871758 480.20093497 92.05155134 480.1968305 88.68438339 480.19235992 C78.15463213 480.17868377 67.62488866 480.16901735 57.09512913 480.16515803 C44.92985118 480.16067505 32.76468546 480.14311644 20.59944165 480.11415744 C11.20235084 480.09256237 1.80529167 480.08245494 -7.5918237 480.08111691 C-13.20738671 480.08006744 -18.82284425 480.07412933 -24.4383812 480.0562973 C-29.71936448 480.03985395 -35.00016255 480.03764293 -40.28116226 480.04643631 C-42.22058863 480.04720866 -44.16002481 480.04283807 -46.09942627 480.03297806 C-48.74488166 480.02031598 -51.38967538 480.02610394 -54.03512573 480.03656006 C-54.80448672 480.02850365 -55.57384771 480.02044725 -56.36652267 480.01214671 C-60.84076113 480.05357206 -63.73269168 480.62384747 -67.28491211 483.40405273 C-68.63582739 486.10588329 -68.62349269 488.5221348 -68.84741211 491.52905273 C-68.9730957 493.17260742 -68.9730957 493.17260742 -69.10131836 494.84936523 C-69.1619043 495.69241211 -69.22249023 496.53545898 -69.28491211 497.40405273 C-68.14948975 497.38834229 -67.01406738 497.37263184 -65.84423828 497.35644531 C-61.63434942 497.30217242 -57.42449152 497.26771237 -53.21435547 497.23925781 C-51.39171144 497.22416513 -49.56910375 497.20368878 -47.74658203 497.17773438 C-45.12775711 497.14137171 -42.50941203 497.12433149 -39.89038086 497.11108398 C-39.0746611 497.09560013 -38.25894135 497.08011627 -37.41850281 497.06416321 C-31.71383813 497.06246363 -31.71383813 497.06246363 -29.60029602 498.74565125 C-27.61445166 501.24935167 -27.41137646 503.24244391 -27.28491211 506.40405273 C-28.42271083 508.7313683 -29.45331925 510.57245988 -31.28491211 512.40405273 C-32.62838977 512.52263845 -33.97790878 512.57405442 -35.32641602 512.59692383 C-36.18465973 512.61298676 -37.04290344 512.62904968 -37.92715454 512.64559937 C-41.87631554 512.69003407 -45.8253053 512.73115652 -49.7746582 512.75415039 C-51.85419946 512.77066754 -53.93368495 512.79790111 -56.01293945 512.83618164 C-59.01275058 512.89114074 -62.01122675 512.91285824 -65.01147461 512.92749023 C-65.93465485 512.95015961 -66.85783508 512.97282898 -67.80899048 512.9961853 C-74.26602671 512.97520525 -77.43008563 511.70207464 -82.28491211 507.40405273 C-85.84814514 502.38510864 -85.67985659 497.63662876 -85.53491211 491.71655273 C-85.52975586 490.86254883 -85.52459961 490.00854492 -85.51928711 489.12866211 C-85.47465491 485.5776131 -85.41701566 482.80036339 -84.28491211 479.40405273 C-84.97680634 479.41293518 -85.66870056 479.42181763 -86.38156128 479.43096924 C-92.94176654 479.51153186 -99.50183125 479.57222676 -106.0624218 479.61130142 C-109.43432813 479.6320665 -112.80582149 479.66017662 -116.17749023 479.70581055 C-120.06496864 479.75461936 -123.95186946 479.77708917 -127.83959961 479.79467773 C-129.03479218 479.81532288 -130.22998474 479.83596802 -131.46139526 479.85723877 C-141.75377841 479.85996545 -149.84854375 477.61939462 -157.46069336 470.47045898 C-174.88351734 450.7345406 -165.28975189 412.03395701 -163.78491211 387.71655273 C-163.36556774 380.92668601 -162.95102938 374.13657211 -162.54582214 367.34584618 C-162.38461963 364.67841368 -162.21620143 362.01150917 -162.04724121 359.34455872 C-161.52094926 350.79914725 -161.13632096 342.25088591 -160.99780273 333.68994141 C-160.972593 332.8871214 -160.94738327 332.0843014 -160.92140961 331.25715351 C-160.86735109 323.72640447 -163.56093589 317.80171261 -166.99194336 311.21264648 C-180.15988561 284.56949137 -184.72955297 253.51727726 -184.65991211 224.09155273 C-184.65936829 223.22065002 -184.65882446 222.34974731 -184.65826416 221.45245361 C-184.5051544 167.81136816 -165.10679076 114.06964266 -128.28100586 74.55249023 C-126.46105965 72.59364402 -124.74773838 70.58109398 -123.03491211 68.52905273 C-108.55730967 52.03516319 -90.23042774 39.2163079 -71.28491211 28.40405273 C-70.23352051 27.80101318 -70.23352051 27.80101318 -69.16088867 27.18579102 C-32.53361056 6.40405273 -32.53361056 6.40405273 -15.28491211 6.40405273 C-14.95491211 5.41405273 -14.62491211 4.42405273 -14.28491211 3.40405273 C-9.86604643 -0.30156268 -5.48099006 -0.02835159 0 0 Z M-3.28491211 16.40405273 C-3.41105125 19.52083613 -3.47362954 22.61420323 -3.48803711 25.73217773 C-3.49373718 26.67333435 -3.49943726 27.61449097 -3.50531006 28.58416748 C-3.51477761 30.58157217 -3.52130097 32.57899259 -3.52514648 34.57641602 C-3.53482727 37.62731436 -3.5658238 40.67753216 -3.59741211 43.72827148 C-3.60394437 45.66706956 -3.60919396 47.60587246 -3.61303711 49.54467773 C-3.62538391 50.45630676 -3.63773071 51.36793579 -3.65045166 52.30718994 C-3.63362247 57.114579 -3.56541555 60.59377855 -0.28491211 64.40405273 C3.24267662 66.72715514 6.35842148 66.66300563 10.515625 66.67871094 C11.19092758 66.68382187 11.86623016 66.6889328 12.56199646 66.69419861 C14.78889895 66.70807093 17.01549114 66.70713968 19.24243164 66.70483398 C20.79415501 66.70872221 22.34587733 66.71305714 23.89759827 66.71781921 C27.14823864 66.72527632 30.3987704 66.72499386 33.64941406 66.71972656 C37.81014221 66.71393238 41.97042513 66.73086381 46.13107967 66.75407124 C49.33531788 66.76882008 52.53944915 66.76967873 55.74371529 66.76656151 C57.27748051 66.76707414 58.81125182 66.77230096 60.34498405 66.78237343 C62.49200042 66.79474338 64.63815317 66.78794378 66.78515625 66.77636719 C68.00553085 66.77699661 69.22590546 66.77762604 70.48326111 66.77827454 C74.05960483 66.3641602 75.89888895 65.62261296 78.71508789 63.40405273 C80.61853922 60.59666296 80.96436027 58.37078998 80.95800781 55.01855469 C80.96108444 54.16119217 80.96416107 53.30382965 80.96733093 52.42048645 C80.96014542 51.50369614 80.9529599 50.58690582 80.94555664 49.64233398 C80.94509842 48.69593552 80.9446402 47.74953705 80.94416809 46.77445984 C80.94115114 44.77817528 80.93328151 42.78189296 80.92089844 40.78564453 C80.90259419 37.71760805 80.90038914 34.64987259 80.90063477 31.58178711 C80.89572126 29.64363344 80.88989367 27.70548182 80.88305664 25.76733398 C80.88194382 24.84447098 80.88083099 23.92160797 80.87968445 22.97077942 C81.2679624 18.86220189 81.2679624 18.86220189 79.71508789 15.40405273 C77.16457315 15.30367543 74.64111611 15.26787786 72.09008789 15.2746582 C71.29175537 15.27290588 70.49342285 15.27115356 69.67089844 15.26934814 C67.0189398 15.26492906 64.36704727 15.26786781 61.71508789 15.27124023 C59.88045234 15.27056721 58.04581688 15.2695972 56.21118164 15.26834106 C52.36091261 15.26686402 48.51066674 15.26901887 44.66040039 15.27368164 C39.71352292 15.27937893 34.7666997 15.27609997 29.81982422 15.27010918 C26.02986234 15.26650375 22.23991343 15.26764206 18.44995117 15.27023697 C16.62540684 15.27090629 14.80086134 15.27007764 12.97631836 15.26775742 C10.43087628 15.26523119 7.8855233 15.26907104 5.34008789 15.2746582 C4.19769653 15.27162186 4.19769653 15.27162186 3.03222656 15.26852417 C-0.4158776 14.97086179 -0.4158776 14.97086179 -3.28491211 16.40405273 Z M-110.59741211 78.46655273 C-143.51318568 111.73157953 -166.98285448 160.60283412 -168.38256836 207.68920898 C-168.3709668 208.60573242 -168.35936523 209.52225586 -168.34741211 210.46655273 C-168.32678711 212.09592773 -168.30616211 213.72530273 -168.28491211 215.40405273 C-162.67491211 215.40405273 -157.06491211 215.40405273 -151.28491211 215.40405273 C-151.13795898 213.8894043 -150.99100586 212.37475586 -150.83959961 210.81420898 C-145.33186797 157.89561626 -123.07584619 110.20792219 -81.58032227 75.9987793 C-62.94971056 60.92716313 -41.84695346 50.23809487 -19.28491211 42.40405273 C-19.28491211 36.46405273 -19.28491211 30.52405273 -19.28491211 24.40405273 C-50.96191628 24.40405273 -89.53531652 57.59063767 -110.59741211 78.46655273 Z M-86.74975586 101.8371582 C-90.59769227 105.76464801 -93.96341581 110.03168755 -97.28491211 114.40405273 C-98.38899414 115.80204102 -98.38899414 115.80204102 -99.51538086 117.22827148 C-116.05747691 138.55362422 -127.18349517 163.30134954 -132.65991211 189.71655273 C-132.81556641 190.45494385 -132.9712207 191.19333496 -133.1315918 191.95410156 C-134.62234387 199.81636893 -134.77525639 207.2495612 -135.28491211 215.40405273 C-118.78491211 215.40405273 -102.28491211 215.40405273 -85.28491211 215.40405273 C-84.56303711 211.58842773 -83.84116211 207.77280273 -83.09741211 203.84155273 C-76.64298425 171.16047844 -60.71006218 141.10868704 -32.48291016 122.05444336 C-3.64643857 103.21136277 30.28242628 95.34207847 64.41821289 102.36889648 C96.16855018 109.68193163 124.94385443 128.11942121 142.47265625 155.95239258 C153.95625123 174.73546081 158.81260877 193.94041756 162.71508789 215.40405273 C179.21508789 215.40405273 195.71508789 215.40405273 212.71508789 215.40405273 C211.88328184 201.4199468 211.88328184 201.4199468 209.65258789 187.77905273 C209.43489746 186.76544678 209.21720703 185.75184082 208.99291992 184.70751953 C202.24342659 154.8860622 187.6973914 127.61100431 166.71508789 105.40405273 C165.56444763 104.05396816 164.41841829 102.69993684 163.27758789 101.34155273 C146.53424241 82.32535492 122.63653365 67.48739842 98.71508789 59.40405273 C98.05508789 59.40405273 97.39508789 59.40405273 96.71508789 59.40405273 C96.29549805 60.70729492 96.29549805 60.70729492 95.86743164 62.03686523 C93.06013213 70.106723 90.73627884 75.38956352 82.96899414 79.27822876 C75.21449108 82.27137235 67.1403369 81.83854682 58.96508789 81.80249023 C57.34041209 81.80451513 55.71573717 81.80743001 54.09106445 81.81118774 C50.69872316 81.81559159 47.30662008 81.80924303 43.91430664 81.79516602 C39.58706698 81.77807517 35.26038573 81.78792683 30.9331665 81.80588341 C27.58207058 81.81677399 24.23110494 81.81325085 20.88000488 81.80550003 C19.28535901 81.80351257 17.69070094 81.80590564 16.09606934 81.81293869 C5.29852901 81.85012104 -4.51342932 81.82358972 -12.85131836 74.00561523 C-16.61040755 69.8060878 -17.90157393 64.7245842 -19.28491211 59.40405273 C-42.41665539 59.40405273 -71.20447686 86.55372344 -86.74975586 101.8371582 Z M-7.28491211 125.40405273 C-8.38061523 125.91709961 -9.47631836 126.43014648 -10.60522461 126.95874023 C-35.79009829 139.64220674 -54.69746712 162.34170744 -64.09741211 188.77905273 C-73.15371893 218.21204989 -70.61249456 248.51450226 -56.16772461 275.81420898 C-55.87639648 276.33885742 -55.58506836 276.86350586 -55.28491211 277.40405273 C-53.63074725 275.2016236 -51.9831636 272.99523217 -50.34741211 270.77905273 C-47.62239132 267.64115 -45.6785985 266.56570055 -41.53588867 266.08520508 C-40.50947266 266.05378418 -39.48305664 266.02236328 -38.42553711 265.98999023 C-37.31049805 265.95131836 -36.19545898 265.91264648 -35.04663086 265.87280273 C-33.30833008 265.82639648 -33.30833008 265.82639648 -31.53491211 265.77905273 C-30.36057617 265.74038086 -29.18624023 265.70170898 -27.97631836 265.66186523 C-25.07933943 265.56765454 -22.18236585 265.48203672 -19.28491211 265.40405273 C-19.0309668 264.64479492 -18.77702148 263.88553711 -18.51538086 263.10327148 C-18.17120117 262.1094043 -17.82702148 261.11553711 -17.47241211 260.09155273 C-16.96774414 258.61235352 -16.96774414 258.61235352 -16.45288086 257.10327148 C-15.34060244 254.53275514 -14.4028302 253.18213296 -12.28491211 251.40405273 C-12.71803711 250.20780273 -13.15116211 249.01155273 -13.59741211 247.77905273 C-19.67687343 229.42486951 -20.06922506 212.94834536 -11.28491211 195.40405273 C-2.93282852 180.42708698 9.70922444 172.64079962 25.71508789 167.40405273 C42.15812353 163.65388671 57.70235037 167.69303018 71.71508789 176.40405273 C86.07884148 187.03360011 93.07512429 200.90661956 95.71508789 218.40405273 C96.78681398 228.25512407 94.39987414 238.33473865 90.77758789 247.46655273 C89.98491509 249.51266055 89.98491509 249.51266055 89.71508789 251.40405273 C91.31102405 254.02562696 91.31102405 254.02562696 93.71508789 256.40405273 C94.60327148 258.61694336 94.60327148 258.61694336 95.36352539 261.06030273 C95.62053223 261.87305664 95.87753906 262.68581055 96.14233398 263.52319336 C96.33134277 264.14387695 96.52035156 264.76456055 96.71508789 265.40405273 C97.80394287 265.41807129 97.80394287 265.41807129 98.91479492 265.43237305 C102.22390003 265.48626555 105.53162027 265.56987712 108.84008789 265.65405273 C109.98219727 265.66823242 111.12430664 265.68241211 112.30102539 265.69702148 C123.00523537 266.00819038 123.00523537 266.00819038 127.71508789 270.40405273 C129.42239851 272.65003354 130.44287384 274.85962463 131.71508789 277.40405273 C145.65588297 259.83703929 148.61050522 232.68659881 146.49243164 211.13891602 C143.58374239 188.06911835 133.95975127 167.80435291 118.71508789 150.40405273 C117.99836914 149.58549805 117.28165039 148.76694336 116.54321289 147.92358398 C98.30032758 128.54909112 71.53597028 116.2170678 44.92211914 115.16577148 C26.38238361 114.7835089 9.55948385 117.49749953 -7.28491211 125.40405273 Z M11.71508789 191.40405273 C11.08989258 191.90549805 10.46469727 192.40694336 9.82055664 192.92358398 C2.55140839 199.43255987 -2.53873093 209.64019256 -3.28491211 219.40405273 C-3.37761306 229.77331615 -1.77432156 240.69593707 5.71508789 248.40405273 C8.72264155 249.1856523 8.72264155 249.1856523 12.13256836 249.11450195 C13.43426971 249.14317352 14.73597107 249.17184509 16.07711792 249.2013855 C17.49549927 249.20571059 18.91388759 249.20811497 20.33227539 249.20874023 C21.79192941 249.22227422 23.25157539 249.23670209 24.71121216 249.25198364 C27.76951521 249.27739083 30.82710558 249.28268201 33.88549805 249.27563477 C37.79641499 249.2695392 41.70346009 249.3273878 45.613554 249.40229607 C48.62842093 249.45050243 51.64235969 249.45734021 54.65756607 249.45264053 C56.09850437 249.45668213 57.53947951 249.47510826 58.98003769 249.50844955 C67.04424814 249.90994336 67.04424814 249.90994336 73.923172 246.44421387 C79.95819987 237.61734006 81.55271553 227.08354171 80.34008789 216.59936523 C77.95413986 204.40120591 71.41778533 195.34721262 61.46508789 188.02905273 C45.18362005 178.02717371 26.50511914 179.40349692 11.71508789 191.40405273 Z M-168.28491211 231.40405273 C-168.99822848 275.66929617 -150.0297105 322.10503732 -121.28491211 355.40405273 C-120.63780273 356.16073242 -119.99069336 356.91741211 -119.32397461 357.69702148 C-109.33356599 369.08014506 -98.55751721 380.45426759 -86.28491211 389.40405273 C-85.95491211 389.40405273 -85.62491211 389.40405273 -85.28491211 389.40405273 C-83.54052161 377.03635732 -83.54052161 377.03635732 -86.44799805 365.31323242 C-89.35459328 361.86774182 -92.84750449 359.37884976 -96.51342773 356.80322266 C-99.91265532 354.11841377 -102.55968409 350.74909235 -105.28491211 347.40405273 C-106.08892456 346.41791992 -106.08892456 346.41791992 -106.90917969 345.41186523 C-114.54144211 335.88533611 -121.43555961 326.12181043 -127.28491211 315.40405273 C-127.6286084 314.77708496 -127.97230469 314.15011719 -128.32641602 313.50415039 C-140.44104627 291.09975911 -147.03217752 267.23178644 -149.9753418 242.03027344 C-150.39313601 238.48594193 -150.84224818 234.94536415 -151.28491211 231.40405273 C-156.89491211 231.40405273 -162.50491211 231.40405273 -168.28491211 231.40405273 Z M-135.28491211 231.40405273 C-134.45310606 245.38815867 -134.45310606 245.38815867 -132.22241211 259.02905273 C-132.00472168 260.04265869 -131.78703125 261.05626465 -131.56274414 262.10058594 C-124.4410883 293.56637831 -108.08574503 327.06578817 -82.28491211 347.40405273 C-79.40259855 340.36285026 -76.53776045 333.31472561 -73.68505859 326.26147461 C-72.71220049 323.86205026 -71.73532828 321.46424943 -70.75439453 319.06811523 C-69.34646268 315.6269788 -67.95299099 312.18029384 -66.56225586 308.73217773 C-66.11961899 307.65913391 -65.67698212 306.58609009 -65.22093201 305.48052979 C-64.82044144 304.47979431 -64.41995087 303.47905884 -64.00732422 302.44799805 C-63.47104652 301.12895477 -63.47104652 301.12895477 -62.92393494 299.78326416 C-61.88476013 295.91420585 -62.98543449 293.94457331 -64.88647461 290.51342773 C-65.55420898 289.40483398 -66.22194336 288.29624023 -66.90991211 287.15405273 C-77.27064993 269.34032084 -81.603032 251.65439332 -85.28491211 231.40405273 C-101.78491211 231.40405273 -118.28491211 231.40405273 -135.28491211 231.40405273 Z M162.71508789 231.40405273 C161.40524195 234.02374461 161.21232103 236.64622389 160.81616211 239.52124023 C158.33658193 257.23351256 153.19402152 276.82090872 141.87133789 291.08764648 C139.45934474 294.09878872 139.45934474 294.09878872 139.81445312 296.93212891 C141.10209967 301.89597316 143.0191063 306.53429811 144.96899414 311.27124023 C145.599459 312.82332687 145.599459 312.82332687 146.24266052 314.4067688 C147.58188647 317.69990658 148.9296074 320.98949008 150.27758789 324.27905273 C151.18895824 326.51580256 152.09977197 328.75277928 153.01000977 330.98999023 C155.23859175 336.4639902 157.47415209 341.93509941 159.71508789 347.40405273 C160.83153904 346.45415744 161.94698561 345.50308134 163.06201172 344.55151367 C163.68328445 344.02201111 164.30455719 343.49250854 164.94465637 342.94696045 C188.60785611 322.32479401 203.20652291 289.10031688 209.65258789 259.02905273 C209.85215088 258.10390869 210.05171387 257.17876465 210.25732422 256.22558594 C211.90733202 247.84166311 212.16930178 240.13663046 212.71508789 231.40405273 C196.21508789 231.40405273 179.71508789 231.40405273 162.71508789 231.40405273 Z M228.71508789 231.40405273 C228.4843457 233.34924805 228.25360352 235.29444336 228.01586914 237.29858398 C222.73061772 280.29466948 208.45467517 318.97860698 178.73461914 351.19702148 C176.47965143 353.6613479 174.35994398 356.21283715 172.26586914 358.81420898 C170.71508789 360.40405273 170.71508789 360.40405273 168.57055664 361.65014648 C165.73678125 363.40202514 164.40833664 364.48509407 162.71508789 367.40405273 C161.68167576 374.32734148 162.22898391 381.44809176 162.71508789 388.40405273 C197.33961225 371.59211878 222.60261458 326.18546905 235.07348633 291.55908203 C241.06454014 274.07078733 246.03997567 254.47108502 245.77758789 235.84155273 C245.75696289 234.37717773 245.73633789 232.91280273 245.71508789 231.40405273 C240.10508789 231.40405273 234.49508789 231.40405273 228.71508789 231.40405273 Z M-3.28491211 264.40405273 C-3.28491211 270.01405273 -3.28491211 275.62405273 -3.28491211 281.40405273 C24.43508789 281.40405273 52.15508789 281.40405273 80.71508789 281.40405273 C80.71508789 275.79405273 80.71508789 270.18405273 80.71508789 264.40405273 C52.99508789 264.40405273 25.27508789 264.40405273 -3.28491211 264.40405273 Z M-39.28491211 281.40405273 C-39.90495117 282.99604492 -40.52499023 284.58803711 -41.16381836 286.22827148 C-47.48095452 302.39873381 -53.94465566 318.5045117 -60.5078125 334.57666016 C-60.82551605 335.35642212 -61.1432196 336.13618408 -61.47055054 336.9395752 C-62.07185109 338.41528616 -62.67459451 339.89041025 -63.27896118 341.36486816 C-64.67923319 344.29349322 -64.67923319 344.29349322 -65.28491211 347.40405273 C3.35508789 347.40405273 71.99508789 347.40405273 142.71508789 347.40405273 C136.59346527 331.48783391 130.4497492 315.59867273 124.09008789 299.77905273 C123.36465954 297.97052634 122.63939904 296.1619326 121.91430664 294.35327148 C120.18344403 290.03597181 118.44922916 285.72004206 116.71508789 281.40405273 C110.11508789 281.40405273 103.51508789 281.40405273 96.71508789 281.40405273 C96.15821289 282.97155273 95.60133789 284.53905273 95.02758789 286.15405273 C93.30808792 290.46499769 91.82177337 292.9821613 87.71508789 295.40405273 C83.81048286 296.70558775 80.09479825 296.5597691 76.02441406 296.56518555 C75.13628525 296.57015045 74.24815643 296.57511536 73.33311462 296.58023071 C70.39142078 296.59485007 67.44978087 296.60165411 64.50805664 296.60717773 C62.46405536 296.61292954 60.4200541 296.61868727 58.37605286 296.62445068 C54.08793893 296.63496014 49.79984375 296.64080312 45.51171875 296.64428711 C40.02049422 296.64977051 34.52951782 296.67379559 29.03837109 296.70225906 C24.8150002 296.72089503 20.59168894 296.72609157 16.36828041 296.72762299 C14.3441056 296.73064807 12.3199318 296.73867171 10.29579735 296.75180817 C7.46165542 296.7688879 4.62811801 296.7669836 1.79394531 296.76049805 C0.95996216 296.76971283 0.125979 296.77892761 -0.73327637 296.78842163 C-5.65262991 296.75320812 -9.02869537 296.1390437 -13.28491211 293.40405273 C-16.49425385 289.39237556 -17.61520928 286.41316121 -19.28491211 281.40405273 C-25.88491211 281.40405273 -32.48491211 281.40405273 -39.28491211 281.40405273 Z M-145.28491211 351.40405273 C-146.30358395 366.73618677 -147.30585277 382.0693353 -148.28491211 397.40405273 C-148.34245667 398.30490601 -148.40000122 399.20575928 -148.45928955 400.13391113 C-149.89501076 421.9094908 -149.89501076 421.9094908 -150.59741211 443.71655273 C-150.61505615 444.43931396 -150.6327002 445.1620752 -150.65087891 445.90673828 C-150.64376406 451.16719427 -149.37203706 455.16822677 -145.74975586 459.04858398 C-140.83163988 462.80949621 -138.73004481 463.5285141 -132.5402832 463.51757812 C-131.84748764 463.51772415 -131.15469208 463.51787018 -130.44090271 463.51802063 C-128.1466867 463.51732292 -125.85255147 463.50953715 -123.55834961 463.50170898 C-121.96937098 463.4998443 -120.38039177 463.49842064 -118.79141235 463.49742126 C-114.60581886 463.49360005 -110.42025998 463.48377312 -106.23468018 463.47271729 C-101.96497058 463.46249468 -97.69525541 463.45792182 -93.42553711 463.45288086 C-85.04531288 463.44215051 -76.6651168 463.42507882 -68.28491211 463.40405273 C-68.06156307 458.67210734 -67.89875358 453.9432553 -67.79052734 449.20727539 C-67.74540327 447.59865876 -67.68408082 445.9904086 -67.60595703 444.38305664 C-66.81120098 435.15215314 -66.81120098 435.15215314 -70.24707031 427.05834961 C-72.54167969 425.54691092 -74.76197343 424.47293134 -77.28491211 423.40405273 C-79.64253925 421.11014525 -81.00372125 419.34356102 -81.94897461 416.18530273 C-84.00441497 409.458407 -86.94849692 406.70020697 -92.86279297 402.94897461 C-97.49278128 400.01191217 -101.64660274 396.74956066 -105.78491211 393.15405273 C-106.35967285 392.65856934 -106.93443359 392.16308594 -107.52661133 391.65258789 C-110.15295301 389.36214675 -112.63262711 387.04657046 -115.06616211 384.54467773 C-117.01096014 382.17261169 -117.01096014 382.17261169 -119.28491211 382.40405273 C-119.53370117 381.82397461 -119.78249023 381.24389648 -120.03881836 380.64624023 C-121.46408279 378.08165785 -123.07465035 376.52534486 -125.22241211 374.52905273 C-129.77825831 370.09852916 -133.63855373 365.32220132 -137.47802734 360.27758789 C-139.91081327 357.09208465 -142.4217273 354.20358596 -145.28491211 351.40405273 Z M221.71508789 351.40405273 C220.05988407 353.46847669 218.44413623 355.5503783 216.84008789 357.65405273 C211.00956424 365.19835597 204.85487005 372.56335272 197.90258789 379.11108398 C196.48961135 380.35696498 196.48961135 380.35696498 196.71508789 382.40405273 C196.11438477 382.6734668 195.51368164 382.94288086 194.89477539 383.22045898 C192.70029915 384.41208318 191.5017671 385.50472355 189.84008789 387.34155273 C186.40892787 390.87623913 182.7061362 393.92832016 178.84008789 396.96655273 C178.2299585 397.44866211 177.6198291 397.93077148 176.99121094 398.42749023 C173.66065734 401.01965168 170.33153785 403.25866314 166.65258789 405.34155273 C161.90171187 408.3425665 160.79948878 412.42996128 158.95727539 417.55639648 C156.78072077 422.5460453 153.07698694 425.40726753 148.13037109 427.49487305 C145.33945602 429.26024685 145.33945602 429.26024685 145.14746094 432.86572266 C145.14825078 434.28890116 145.17640445 435.71223554 145.22680664 437.13452148 C145.23388138 437.88494217 145.24095612 438.63536285 145.24824524 439.40852356 C145.27622132 441.80388369 145.3389578 444.1969002 145.40258789 446.59155273 C145.42766697 448.21586791 145.45048083 449.84021976 145.47094727 451.46459961 C145.52605746 455.44531945 145.61234556 459.42428889 145.71508789 463.40405273 C154.86864548 463.4968498 164.02204042 463.56786667 173.17596626 463.61130142 C177.42680638 463.63215101 181.67732399 463.66042007 185.92797852 463.70581055 C190.03231844 463.74936291 194.13634872 463.77320961 198.24090195 463.78356171 C199.80458321 463.79093631 201.36824806 463.8053374 202.93179703 463.82697296 C205.12701915 463.85613336 207.3209719 463.8600037 209.51635742 463.8581543 C210.76434113 463.86703674 212.01232483 463.87591919 213.29812622 463.8850708 C218.51195014 463.15110193 221.56141793 460.68244377 225.02758789 456.84155273 C227.93614863 452.64029833 227.90563906 448.86075686 227.89868164 443.93530273 C227.89766953 443.12291138 227.89665741 442.31052002 227.89561462 441.47351074 C227.7675621 427.3998838 226.75782368 413.33660968 225.91912842 399.29125977 C225.7296541 396.09560673 225.54565586 392.89964859 225.36182499 389.70366669 C225.13944234 385.84324328 224.91363123 381.98302237 224.68774414 378.12280273 C224.64611712 377.40579697 224.60449009 376.6887912 224.56160164 375.95005798 C224.08345857 367.75391109 223.5285953 359.57477456 222.71508789 351.40405273 C222.38508789 351.40405273 222.05508789 351.40405273 221.71508789 351.40405273 Z M-69.28491211 363.40405273 C-69.36741211 370.72592773 -69.44991211 378.04780273 -69.53491211 385.59155273 C-69.57132812 387.89534912 -69.60774414 390.19914551 -69.64526367 392.57275391 C-69.6569499 394.40583362 -69.66714188 396.23892374 -69.67553711 398.07202148 C-69.69600098 399.01807251 -69.71646484 399.96412354 -69.73754883 400.93884277 C-69.73983164 405.25051115 -69.6922767 407.72029311 -67.44799805 411.48730469 C-63.47247775 415.01008232 -59.31634065 414.55012385 -54.28909302 414.54449463 C-53.05322348 414.54895131 -53.05322348 414.54895131 -51.79238689 414.55349803 C-49.0218187 414.56219418 -46.25129366 414.56369404 -43.48071289 414.56518555 C-41.49825956 414.56981302 -39.51580711 414.57483759 -37.53335571 414.58023071 C-32.14080798 414.59336238 -26.74827269 414.59980102 -21.35571146 414.60424137 C-17.9885418 414.6071705 -14.62137556 414.61127497 -11.25420761 414.61574554 C-0.72445635 414.6294217 9.80528712 414.63908812 20.33504665 414.64294744 C32.5003246 414.64743042 44.66549032 414.66498903 56.83073413 414.69394803 C66.22782494 414.7155431 75.62488412 414.72565053 85.02199948 414.72698855 C90.63756249 414.72803802 96.25302003 414.73397614 101.86855698 414.75180817 C107.14954026 414.76825152 112.43033833 414.77046253 117.71133804 414.76166916 C119.65076441 414.76089681 121.59020059 414.7652674 123.52960205 414.77512741 C126.17505744 414.78778949 128.81985116 414.78200153 131.46530151 414.77154541 C132.2346625 414.77960181 133.00402349 414.78765822 133.79669845 414.79595876 C138.28115257 414.75443883 141.16780509 414.20323606 144.71508789 411.40405273 C146.81992535 408.24679655 146.96229379 407.53030662 146.94213867 403.93261719 C146.94177612 402.56272644 146.94177612 402.56272644 146.94140625 401.16516113 C146.93117432 400.20887817 146.92094238 399.25259521 146.91040039 398.26733398 C146.90838623 397.38573608 146.90637207 396.50413818 146.90429688 395.5958252 C146.89383302 392.30268145 146.86591043 389.00961186 146.84008789 385.71655273 C146.79883789 378.35342773 146.75758789 370.99030273 146.71508789 363.40405273 C127.24508789 363.40405273 107.77508789 363.40405273 87.71508789 363.40405273 C87.38508789 370.99405273 87.05508789 378.58405273 86.71508789 386.40405273 C81.31930427 394.49772817 81.31930427 394.49772817 75.47161865 395.96820068 C72.29514583 396.47045236 69.26476659 396.54640959 66.0480957 396.56518555 C65.39857941 396.57015045 64.74906311 396.57511536 64.0798645 396.58023071 C61.94263629 396.59476968 59.80548233 396.60164105 57.66821289 396.60717773 C56.93381737 396.61000511 56.19942184 396.61283249 55.44277191 396.61574554 C51.55502466 396.63070613 47.66731419 396.63995486 43.77954102 396.64428711 C39.78404635 396.64976178 35.78889417 396.67377729 31.79350662 396.70225906 C28.70321705 396.72097846 25.61300839 396.726096 22.52266693 396.72762299 C21.05081056 396.73062997 19.57895495 396.73859165 18.10715485 396.75180817 C2.19107289 396.88451192 2.19107289 396.88451192 -4.28491211 393.40405273 C-13.07117698 384.39813124 -9.60064492 379.14219803 -10.28491211 363.40405273 C-29.75491211 363.40405273 -49.22491211 363.40405273 -69.28491211 363.40405273 Z M5.71508789 363.40405273 C5.71508789 369.34405273 5.71508789 375.28405273 5.71508789 381.40405273 C27.49508789 381.40405273 49.27508789 381.40405273 71.71508789 381.40405273 C71.71508789 375.46405273 71.71508789 369.52405273 71.71508789 363.40405273 C49.93508789 363.40405273 28.15508789 363.40405273 5.71508789 363.40405273 Z M-52.28491211 430.40405273 C-52.28491211 441.29405273 -52.28491211 452.18405273 -52.28491211 463.40405273 C7.77508789 463.40405273 67.83508789 463.40405273 129.71508789 463.40405273 C129.71508789 452.51405273 129.71508789 441.62405273 129.71508789 430.40405273 C69.65508789 430.40405273 9.59508789 430.40405273 -52.28491211 430.40405273 Z " fill="#000000" transform="translate(217.284912109375,-0.404052734375)"/>
<path d="M0 0 C0.66 -0.02191406 1.32 -0.04382813 2 -0.06640625 C5.21433489 0.9443514 6.26425234 2.74048574 8 5.5625 C9.03072822 11.70421849 9.23841245 17.59560964 5.875 22.9375 C2.44553149 24.87589525 0.86752888 25.36823518 -3 24.5625 C-6.51151749 21.82672275 -7.85934857 20.37408495 -8.62890625 15.93359375 C-8.60699219 14.63550781 -8.58507812 13.33742187 -8.5625 12 C-8.56378906 10.69933594 -8.56507812 9.39867187 -8.56640625 8.05859375 C-8 4.5625 -8 4.5625 -6.21484375 2.1328125 C-3.88989776 0.4844381 -2.81185845 -0.00549191 0 0 Z " fill="#000000" transform="translate(107,239.4375)"/>
<path d="M0 0 C2.37657805 2.38770956 2.96626486 3.71270718 3.36328125 7.09375 C3.34652344 8.2178125 3.32976562 9.341875 3.3125 10.5 C3.30863281 11.6240625 3.30476563 12.748125 3.30078125 13.90625 C3.01373858 16.85868886 2.59560913 18.53771109 1 21 C-1.67633026 23.0815902 -3.11753668 22.99587591 -6.5625 22.875 C-10 22 -10 22 -11.6875 20.4140625 C-13.52111918 17.04151293 -13.43374103 14.31911608 -13.4375 10.5 C-13.45683594 9.1903125 -13.47617187 7.880625 -13.49609375 6.53125 C-13 3 -13 3 -11.16015625 0.59375 C-6.94999126 -2.51248384 -4.63249057 -2.02671463 0 0 Z " fill="#000000" transform="translate(344,378)"/>
<path d="M0 0 C2.40074392 3.60111588 2.33244948 6.27603771 2.3125 10.4375 C2.32925781 11.75621094 2.34601563 13.07492187 2.36328125 14.43359375 C1.99078001 18.09051454 1.65575499 19.52170329 -1 22 C-4.42890226 22.87281149 -6.89259577 23.32922829 -10.3125 22.3125 C-12.42047183 20.67296635 -13.01495741 19.48985233 -14 17 C-14.3359375 13.94140625 -14.3359375 13.94140625 -14.375 10.5625 C-14.40335938 9.45003906 -14.43171875 8.33757812 -14.4609375 7.19140625 C-13.9039495 3.33497236 -12.73850256 1.72367312 -10 -1 C-6.00471255 -2.33176248 -3.90144863 -1.41870859 0 0 Z " fill="#000000" transform="translate(179,378)"/>
<path d="M0 0 C1.18722656 -0.05607422 1.18722656 -0.05607422 2.3984375 -0.11328125 C4.625 0.3125 4.625 0.3125 6.3828125 1.83203125 C8.11293579 5.28683719 8.13869632 8.53231598 8.125 12.3125 C8.15335938 13.0240625 8.18171875 13.735625 8.2109375 14.46875 C8.22518024 18.28580549 7.93729962 19.97320498 5.3203125 22.81640625 C1.64835083 24.85461106 -0.38817286 24.41995198 -4.375 23.3125 C-6.95955285 21.41716125 -7.33775506 20.42423483 -8.375 17.3125 C-9.28522021 6.00476426 -9.28522021 6.00476426 -5.375 1.3125 C-3.79602167 -0.26647833 -2.18137428 0.06706491 0 0 Z " fill="#000000" transform="translate(239.375,28.6875)"/>
<path d="M0 0 C0.7734375 0.00128906 1.546875 0.00257812 2.34375 0.00390625 C5.01678665 0.54141906 5.88320113 1.26369421 7.5 3.4375 C9.40662089 8.76938748 9.44107733 15.28646611 7.1875 20.4375 C5.5 22.4375 5.5 22.4375 2.5 24.4375 C-3.40070922 24.12139058 -3.40070922 24.12139058 -6.1953125 22.3828125 C-8.25635476 19.30976146 -7.93253167 16.0701597 -7.875 12.5 C-7.88660156 11.78392578 -7.89820313 11.06785156 -7.91015625 10.33007812 C-7.89265195 7.18222212 -7.67785806 4.79209752 -6.2578125 1.9609375 C-4.04251644 0.04101425 -2.90380865 -0.07259522 0 0 Z " fill="#000000" transform="translate(272.5,28.5625)"/>
</svg>
