<?xml version="1.0" encoding="UTF-8"?>
<svg version="1.1" xmlns="http://www.w3.org/2000/svg" width="512" height="512">
<path d="M0 0 C4.21602348 1.85232196 8.07691634 4.22333301 12 6.625 C13.15114203 7.31220885 14.30334333 7.99764612 15.45654297 8.68139648 C17.82465935 10.08820012 20.18727598 11.50360869 22.54589844 12.92626953 C27.70374092 16.03186807 32.91786099 19.0405998 38.125 22.0625 C40.099348 23.21547884 42.07330602 24.36912572 44.046875 25.5234375 C48.0950697 27.88956054 52.14746345 30.24826171 56.203125 32.6015625 C91.52315009 53.10754115 125.80597808 75.11517139 151 108 C151.40895508 108.52722656 151.81791016 109.05445312 152.23925781 109.59765625 C187.65717296 155.47330291 206.33448653 210.80096537 206.09765625 268.7109375 C206.09578414 270.05856269 206.094364 271.40618857 206.09336853 272.7538147 C206.08960566 276.24875876 206.0798311 279.74365923 206.06866455 283.23858643 C206.058314 286.82571829 206.05384212 290.41285741 206.04882812 294 C206.03820117 301.0000175 206.02120278 308.00000586 206 315 C206.82414902 314.72085754 207.64829803 314.44171509 208.49742126 314.15411377 C210.11892845 313.60844757 210.11892845 313.60844757 211.77319336 313.05175781 C212.84484238 312.69011536 213.91649139 312.3284729 215.02061462 311.95587158 C234.30671373 305.76834237 256.29845732 308.78127845 274.26171875 317.6015625 C281.0486324 321.40779577 287.13743351 325.89587742 293 331 C293.92039062 331.77730469 293.92039062 331.77730469 294.859375 332.5703125 C303.4840965 340.44333809 309.95650684 352.14797792 314 363 C314.391875 364.02351563 314.78375 365.04703125 315.1875 366.1015625 C320.59984897 382.75205275 320.06580887 402.62861274 314 419 C313.69964844 419.90234375 313.39929688 420.8046875 313.08984375 421.734375 C310.04681405 430.21797296 305.52788795 438.794799 298 444 C294.65595685 444.47772045 292.75283164 444.34589562 289.6875 442.9375 C287.1226062 439.99262193 287 437.86970167 287 434 C288.5 430.9375 288.5 430.9375 289.62109375 429.19921875 C299.90751715 412.79339333 304.07068703 395.11847701 300.30859375 375.8515625 C295.87801997 359.05616564 285.32524677 343.92691067 270.28369141 334.97900391 C254.57771067 326.31230962 237.49057771 323.82314562 220 328 C202.57100325 333.33710905 188.42144642 343.67214378 179.58105469 359.71899414 C171.14668838 375.92642612 169.54274214 393.71699162 174.67578125 411.17578125 C180.10008909 427.74055838 191.12550885 440.29406049 206.16796875 448.7890625 C222.56374693 456.89708435 239.50924628 458.09980974 257 453 C260.15919659 451.74528362 263.25944338 450.39074059 266.37109375 449.0234375 C269.99152104 447.61399924 272.17930411 447.28361952 276 448 C278.4375 449.5 278.4375 449.5 280 452 C280.60921535 454.80468955 280.86557371 457.24736809 280 460 C269.62609439 470.12416344 250.98092652 472.99280064 237.0625 473.375 C226.86337966 473.14080665 216.64010453 471.30483781 207 468 C206.98598145 469.73286255 206.98598145 469.73286255 206.97167969 471.50073242 C206.9317339 475.79685682 206.86596254 480.09226856 206.79248047 484.38793945 C206.76429741 486.24526803 206.7430696 488.10271595 206.72900391 489.96020508 C206.70753716 492.63424661 206.66086931 495.30685735 206.609375 497.98046875 C206.60814636 498.80773972 206.60691772 499.63501068 206.60565186 500.48735046 C206.50402524 504.50956877 206.28821284 506.54436183 204.08691406 510.02441406 C202 512 202 512 200 512.62890625 C199.34 512.60699219 198.68 512.58507812 198 512.5625 C197.34 512.56378906 196.68 512.56507813 196 512.56640625 C192.8692882 511.67977889 191.91178958 510.68675908 190 508 C189.5076948 504.34706729 189.7076645 500.73432619 189.84765625 497.05859375 C189.8770343 494.84313294 189.90363747 492.62763392 189.92773438 490.41210938 C189.98527304 486.93016313 190.06195275 483.45258175 190.18823242 479.97241211 C191.30224547 466.24565351 191.30224547 466.24565351 186.20605469 454.16186523 C184.04324668 452.1850352 181.78027717 450.60239884 179.2824707 449.07958984 C165.88569216 440.59214026 159.39839753 421.76293121 156 407 C151.99857876 387.5530928 155.56884472 365.23072456 166.1796875 348.4140625 C168.32759247 345.17966154 170.63410766 342.07866572 173 339 C173.51433594 338.31292969 174.02867187 337.62585938 174.55859375 336.91796875 C176.66285236 334.27721362 178.55814659 332.27589163 181.4485321 330.47114563 C185.65144799 327.76294077 188.52421919 325.70518824 189.90249634 320.76547241 C190.20731144 316.77434211 190.2058602 312.85008724 190.08203125 308.85546875 C190.07095021 307.36219157 190.06392907 305.86887941 190.06071472 304.37556458 C190.04389826 301.23993407 189.99472305 298.10717068 189.91918945 294.97241211 C189.82461171 291.04148079 189.78360215 287.11264938 189.7641201 283.18070221 C189.6419395 259.92880767 188.94491843 236.28329697 183.25 213.625 C182.99178467 212.5623291 182.73356934 211.4996582 182.4675293 210.40478516 C173.90275049 176.10975891 158.4704658 144.34567364 136 117 C135.4961377 116.38189453 134.99227539 115.76378906 134.47314453 115.12695312 C124.16324065 102.55242669 112.97007848 90.8579114 100 81 C99.37029297 80.52095215 98.74058594 80.0419043 98.09179688 79.54833984 C86.54335065 70.8272531 74.50543074 63.25983385 62 56 C60.08034772 54.87695385 58.16108778 53.75323682 56.2421875 52.62890625 C51.18805366 49.6711883 46.12725337 46.72507966 41.06445312 43.78222656 C38.03641459 42.02117802 35.01003456 40.25731984 31.984375 38.4921875 C30.9948584 37.9149292 30.0053418 37.3376709 28.98583984 36.74291992 C27.00657137 35.58756443 25.02772505 34.43148543 23.04931641 33.2746582 C17.78703937 30.19957738 12.51456123 27.14394947 7.2265625 24.11328125 C6.12183594 23.47712891 5.01710937 22.84097656 3.87890625 22.18554688 C1.751917 20.96118752 -0.37817649 19.74220104 -2.51171875 18.52929688 C-3.46433594 17.97951172 -4.41695312 17.42972656 -5.3984375 16.86328125 C-6.24067871 16.38157471 -7.08291992 15.89986816 -7.95068359 15.40356445 C-10 14 -10 14 -12 11 C-12.41857482 7.16306413 -12.54644269 4.88796936 -10.5 1.5625 C-6.9523096 -0.6548065 -4.0112436 -0.76115519 0 0 Z " fill="#000000" transform="translate(194,0)"/>
<path d="M0 0 C8.93735751 7.30770499 13.1196867 16.85205568 14.4453125 28.1640625 C16.71792933 52.48835443 9.79801736 75.35694452 -5.40234375 94.4765625 C-9.66361448 99.473804 -14.23717069 104.11047042 -18.96484375 108.6640625 C-23.63028896 112.90898443 -23.63028896 112.90898443 -25.0923357 118.83505058 C-25.09871971 120.22830703 -25.09951897 121.62159507 -25.09614563 123.01486206 C-25.09826134 123.78145649 -25.10037706 124.54805092 -25.10255688 125.33787549 C-25.10857406 127.92041421 -25.10755552 130.50290431 -25.10668945 133.08544922 C-25.10971979 134.9314482 -25.11324089 136.77744642 -25.11721802 138.6234436 C-25.12511668 142.60566161 -25.13025555 146.58787061 -25.13350868 150.57009506 C-25.13940836 156.86390692 -25.15593842 163.15766193 -25.17485046 169.45144653 C-25.18118808 171.60420796 -25.1875137 173.75696942 -25.19382763 175.90973091 C-25.19699344 176.98793988 -25.20015925 178.06614884 -25.203421 179.1770308 C-25.24553809 193.83464457 -25.27848188 208.4922321 -25.29077148 223.14990234 C-25.29914086 233.03028964 -25.32158991 242.91053655 -25.36012715 252.79085362 C-25.37992605 258.02243891 -25.39227972 263.25381414 -25.38729286 268.4854393 C-25.38266032 273.4053682 -25.39637523 278.32489863 -25.42430496 283.24474716 C-25.43124033 285.05234469 -25.43131823 286.85998321 -25.42410469 288.66757965 C-25.41526197 291.13196337 -25.43083425 293.59502004 -25.45259094 296.05929565 C-25.44414841 296.77777833 -25.43570587 297.496261 -25.4270075 298.23651588 C-25.4828704 301.64892285 -25.7423639 303.3794146 -27.87185955 306.10396004 C-30.12932508 307.78666626 -31.18238511 308.23199699 -33.96484375 308.2265625 C-34.95484375 308.25943359 -34.95484375 308.25943359 -35.96484375 308.29296875 C-39.15421326 307.29006154 -40.17203368 305.43175649 -41.96484375 302.6640625 C-42.34799725 299.95306718 -42.50240075 297.65301497 -42.46604919 294.94818115 C-42.47435079 293.79361101 -42.47435079 293.79361101 -42.48282009 292.61571622 C-42.49641831 290.04003047 -42.48146218 287.46531517 -42.46655273 284.88964844 C-42.47033635 283.04146412 -42.47583674 281.19328263 -42.48292542 279.34510803 C-42.49689568 274.32624443 -42.48569741 269.30772307 -42.4692142 264.28887844 C-42.45536312 259.03334217 -42.46182417 253.77782577 -42.46534729 248.52227783 C-42.46805031 239.69204192 -42.4545691 230.86194186 -42.43139648 222.03173828 C-42.40481914 211.83377231 -42.40302887 201.63603397 -42.41478485 191.43804526 C-42.42558082 181.62055545 -42.41935914 171.80314769 -42.40522957 161.98566437 C-42.39948224 157.81203514 -42.39954268 153.6384662 -42.40429497 149.46483612 C-42.40908243 144.54327166 -42.39888989 139.62195493 -42.37734032 134.70043755 C-42.37179512 132.89815799 -42.37128623 131.09585451 -42.37629318 129.29357338 C-42.42901727 107.5857285 -42.42901727 107.5857285 -35.77734375 100.5390625 C-34.85888672 99.56066406 -34.85888672 99.56066406 -33.921875 98.5625 C-31.99040612 96.68885953 -30.00660389 94.9164081 -27.96484375 93.1640625 C-13.11734783 80.40092658 -3.93575102 61.8583366 -2.21484375 42.4140625 C-1.71612939 33.13243417 -1.9730145 24.1292179 -7.46875 16.28515625 C-11.50493158 11.91174801 -16.79248158 9.84816099 -22.65234375 9.3515625 C-28.83057715 9.45377592 -33.20997777 11.86539331 -37.46875 16.23046875 C-40.54811592 20.07718855 -42.0435087 24.38811652 -43.71484375 28.9765625 C-51.64305361 49.63233334 -62.64740286 66.76944268 -77.96484375 82.6640625 C-79.11339844 83.92476562 -79.11339844 83.92476562 -80.28515625 85.2109375 C-90.66208024 96.25620575 -103.58825839 104.52096187 -117.1640625 111.10351562 C-120.83904322 112.9873571 -123.22701046 114.3909058 -124.9765625 118.23046875 C-126.13838933 122.26701335 -126.08719363 124.62360293 -124.96484375 128.6640625 C-122.4677621 132.67722944 -120.40740283 134.23153135 -115.96484375 135.6640625 C-113.13391987 135.94683767 -113.13391987 135.94683767 -110.140625 135.90234375 C-109.02880859 135.91845703 -107.91699219 135.93457031 -106.77148438 135.95117188 C-104.46164365 135.96795663 -102.15168925 135.9733628 -99.84179688 135.96679688 C-90.11312373 136.14062331 -82.99823555 138.40535987 -76.02734375 145.3515625 C-69.11564411 153.01047291 -69.53098241 164.09712495 -69.57666016 173.75512695 C-69.57258664 175.14749054 -69.56724041 176.53985088 -69.56072998 177.9322052 C-69.54714946 181.68397713 -69.55231459 185.43549933 -69.56186724 189.18727517 C-69.56950465 193.12470906 -69.56240766 197.0621227 -69.55770874 200.9995575 C-69.55226622 207.60399183 -69.55940652 214.20832517 -69.57373047 220.81274414 C-69.59008799 228.44281136 -69.58474005 236.07263845 -69.56825125 243.70269996 C-69.55463374 250.26770211 -69.55271699 256.83263204 -69.56056726 263.39764374 C-69.56523799 267.31288383 -69.56588451 271.22801101 -69.55595779 275.14324379 C-69.54728529 278.8197613 -69.55331487 282.49596886 -69.57064056 286.17245293 C-69.57649015 288.16214448 -69.56759469 290.15186229 -69.55825806 292.14154053 C-69.56671753 293.32877213 -69.575177 294.51600372 -69.58389282 295.73921204 C-69.5850239 296.76877172 -69.58615498 297.79833139 -69.58732033 298.85908985 C-70.06594875 302.41526557 -71.41011025 305.109329 -73.96484375 307.6640625 C-81.21397565 308.25825364 -81.21397565 308.25825364 -84.06526089 306.0019207 C-86.45223819 303.0642155 -86.46439644 301.58429783 -86.46363831 297.83255005 C-86.47321564 296.64091248 -86.48279297 295.4492749 -86.49266052 294.2215271 C-86.48291702 292.9175296 -86.47317352 291.6135321 -86.46313477 290.27001953 C-86.46695858 288.88016172 -86.47257815 287.49030787 -86.4798584 286.10046387 C-86.4918091 283.10909859 -86.49131977 280.1180843 -86.48126411 277.1267128 C-86.46570274 272.39472069 -86.47938208 267.66308901 -86.49729919 262.93112183 C-86.52812545 253.73801449 -86.52962044 244.54501715 -86.52764893 235.35186768 C-86.52625636 223.65739324 -86.5366253 211.96300371 -86.57622665 200.26859176 C-86.59114915 195.56686413 -86.59089834 190.86545566 -86.57874882 186.16372323 C-86.57403163 183.23528168 -86.58156747 180.30696179 -86.59229279 177.37854004 C-86.59583853 175.37823736 -86.58443341 173.37792559 -86.57255554 171.37765503 C-86.57931305 170.18037781 -86.58607056 168.98310059 -86.59303284 167.74954224 C-86.59244653 166.71311144 -86.59186022 165.67668064 -86.59125614 164.60884285 C-87.03930409 161.07713365 -88.12443086 158.6992238 -89.96484375 155.6640625 C-93.14500701 153.54395366 -94.05777331 153.40155082 -97.71875 153.3203125 C-98.65654297 153.29066406 -99.59433594 153.26101563 -100.56054688 153.23046875 C-102.02911133 153.19759766 -102.02911133 153.19759766 -103.52734375 153.1640625 C-115.31590075 152.89269423 -125.40879851 152.30531073 -134.65234375 144.3515625 C-140.23592006 137.86254138 -143.49876925 130.58550261 -143.2109375 121.83203125 C-142.32413475 114.01972132 -139.63543557 107.20222012 -133.96484375 101.6640625 C-130.79193201 99.35011581 -127.42574852 97.51143734 -123.96484375 95.6640625 C-92.24772263 78.55351032 -70.84385641 53.06584311 -58.23413086 19.37695312 C-54.16733224 8.79923206 -47.80570903 0.19397778 -37.33984375 -4.6484375 C-24.6881112 -10.06082128 -11.02203069 -7.89231827 0 0 Z " fill="#000000" transform="translate(343.96484375,204.3359375)"/>
<path d="M0 0 C2.64994067 1.92140421 4.88228497 4.2076803 7.17297363 6.53805542 C7.87215424 7.22943607 8.57133485 7.92081673 9.29170275 8.63314831 C11.63424835 10.95573212 13.95849451 13.29580344 16.28320312 15.63623047 C17.95802528 17.30427816 19.63390941 18.97126013 21.31077576 20.63725281 C25.86584326 25.16949205 30.40491059 29.71744815 34.94064903 34.26902151 C37.77600426 37.11326447 40.61662269 39.95220797 43.45875549 42.78967667 C44.16681774 43.49658966 44.16681774 43.49658966 44.88918427 44.21778373 C45.84825653 45.17525731 46.80733998 46.13271969 47.76643449 47.09017099 C56.76186505 56.07134082 65.74190303 65.06777579 74.71675998 74.06949832 C82.40524535 81.78028646 90.10669465 89.47792202 97.81787109 97.16601562 C106.77996613 106.10129568 115.73381881 115.04470608 124.67485571 124.00106156 C125.6303082 124.95810669 126.58577109 125.91514144 127.54124451 126.87216568 C128.01129316 127.34298571 128.48134182 127.81380575 128.96563438 128.29889306 C132.26600202 131.60356336 135.57221867 134.90229179 138.88050842 138.19903183 C143.34388577 142.64791495 147.79475733 147.10894968 152.23646736 151.57946205 C153.86473702 153.21431788 155.49722997 154.84498045 157.13432121 156.47100258 C172.98316475 172.22257572 172.98316475 172.22257572 177 182 C177.32866814 182.76402067 177.65733627 183.52804134 177.99596405 184.31521416 C181.52887441 192.95688124 181.51151145 202.9309313 180 212 C179.39678002 218.8652179 179.14579406 224.66241218 183.39453125 230.375 C187.58223664 234.61365071 192.10500147 236.20934341 198 236.5625 C203.3521037 236.32371383 206.99712528 234.49442643 211 231 C215.21292626 226.24695498 215.63962548 222.07488478 216 216 C216.38017074 211.06662158 216.74281465 206.93108577 220 203 C224.44051929 200.33051752 227.73283377 199.68226243 232.875 199.625 C240.06200285 199.23077622 244.49678578 197.84352646 249.3671875 192.5 C252.85601319 187.49533969 252.72014203 181.87671461 252 176 C249.96617138 169.89851414 245.93762579 166.4688129 240.25 163.625 C236.60872776 162.92475534 233.81104344 163.24537026 230.16015625 163.69140625 C214.39731548 165.23067006 199.81006886 164.32245113 187 154 C180.63002779 148.72677083 174.79778337 142.88741361 168.9375 137.0625 C168.26960449 136.39935791 167.60170898 135.73621582 166.91357422 135.05297852 C166.29111816 134.42834717 165.66866211 133.80371582 165.02734375 133.16015625 C164.46781006 132.59949463 163.90827637 132.03883301 163.33178711 131.46118164 C161.16465425 129.08349325 160.99477919 127.92951905 160.75 124.625 C161 121 161 121 162.125 118.625 C164.74934598 116.35056682 166.54847562 116.06903049 170 116 C173.83735944 117.93595463 176.55918673 120.36267594 179.51171875 123.45703125 C180.35283203 124.32263672 181.19394531 125.18824219 182.06054688 126.08007812 C183.79661762 127.88584985 185.5284746 129.69568321 187.25585938 131.50976562 C194.70663759 139.15318754 203.09681357 146.42926805 214.19140625 147.23046875 C215.30386719 147.21628906 216.41632813 147.20210937 217.5625 147.1875 C218.78453125 147.17332031 220.0065625 147.15914062 221.265625 147.14453125 C224.80304518 147.00762273 228.28994757 146.71815945 231.8125 146.375 C242.09552747 145.52742925 250.22413245 148.21749974 258.203125 154.82421875 C265.46623822 161.67037547 269.04170419 169.04846663 270 179 C270.14981252 190.63543898 266.50263395 199.38671326 258.515625 207.796875 C252.65737004 212.92739642 245.62055964 216.16390337 237.8125 216.0625 C236.91144531 216.05347656 236.01039063 216.04445312 235.08203125 216.03515625 C234.05142578 216.01775391 234.05142578 216.01775391 233 216 C232.99742187 216.72703125 232.99484375 217.4540625 232.9921875 218.203125 C232.60955252 228.15163437 229.53315121 236.51139606 222.75 243.9375 C214.30133839 251.63349688 204.89873172 253.49368325 193.83203125 253.27734375 C185.38168219 252.66574866 178.06273882 248.88020475 172 243 C169.67244991 240.15521655 167.78067711 237.21187554 166 234 C165.65839844 233.40832031 165.31679687 232.81664062 164.96484375 232.20703125 C161.06259097 223.9850754 162.61384171 212.81765105 163.625 204.0625 C164.57068182 194.60568176 161.56348778 187.56413491 156 180 C150.9745424 174.23931467 145.43536725 168.93959393 140.00463867 163.56640625 C138.35920951 161.9237454 136.71467095 160.28019202 135.07095337 158.63581848 C130.62358278 154.19156087 126.1640891 149.75965121 121.70240951 145.32976532 C117.03357984 140.68973468 112.37653455 136.037908 107.71833801 131.38720703 C99.90285685 123.58665569 92.08014414 115.79341199 84.25219727 108.00537109 C76.19669981 99.99088928 68.144019 91.97359928 60.09594727 83.95166016 C59.59926075 83.45658994 59.10257423 82.96151972 58.59083661 82.45144737 C53.17101361 77.04909675 47.75200177 71.64593311 42.3336153 66.24214172 C41.85785501 65.76766926 41.38209471 65.2931968 40.89191744 64.80434638 C38.52075811 62.43960026 36.14963352 60.07481934 33.77857 57.70997715 C28.22589628 52.17258903 22.66970077 46.63876497 17.11048257 41.10794735 C13.66305082 37.67747736 10.21752719 34.24509526 6.77238846 30.81232262 C5.16920167 29.21582547 3.56513597 27.62021038 1.96014977 26.02552223 C-0.22221322 23.85699976 -2.40154454 21.68547559 -4.58015442 19.51318359 C-5.22293722 18.87604211 -5.86572003 18.23890062 -6.5279811 17.58245182 C-11.91081215 12.20403592 -11.91081215 12.20403592 -12.25 7.625 C-11.99015512 3.85724926 -11.67186361 2.5729057 -9 0 C-5.29248743 -1.23583752 -3.75340185 -1.11783097 0 0 Z " fill="#000000" transform="translate(12,11)"/>
<path d="M0 0 C2.24761631 1.67266788 2.91696662 2.67332703 3.61254883 5.40991211 C3.72622803 6.35616455 3.83990723 7.30241699 3.95703125 8.27734375 C4.09665283 9.33840332 4.23627441 10.39946289 4.38012695 11.49267578 C4.52281006 12.62946777 4.66549316 13.76625977 4.8125 14.9375 C8.80677358 43.38614929 19.08758211 69.13485283 38 91 C38.67289063 91.80566406 39.34578125 92.61132812 40.0390625 93.44140625 C52.59193494 108.02556169 68.24146639 118.45019836 85.0625 127.5 C97.88440509 134.41387915 109.03478211 142.41437824 119.49365234 152.54931641 C121.02635062 154.02537689 122.5838692 155.47156003 124.14453125 156.91796875 C147.0628624 178.53791935 161.7693627 207.41589387 172.9375 236.5 C173.32768311 237.50329346 173.71786621 238.50658691 174.11987305 239.5402832 C176.31944536 245.42297437 177.81410128 250.69803325 178 257 C175.61234617 260.54530418 174.1855322 261.75301412 170 262.625 C166.07447412 261.80718211 164.2279277 260.21580599 162 257 C160.11839534 252.82507098 158.6664128 248.51864392 157.1875 244.1875 C153.68443503 234.34027077 149.95084559 224.96292653 144.95898438 215.78417969 C143.96586564 213.93649341 143.01888208 212.07014785 142.078125 210.1953125 C137.50328831 201.17664423 132.13904957 193.02779848 126 185 C124.93845703 183.60007812 124.93845703 183.60007812 123.85546875 182.171875 C109.94889937 164.52420625 93.74081591 151.8517687 74.23828125 140.94921875 C62.74461225 134.51586654 51.90104591 127.74397102 42 119 C41.02546875 118.15824219 40.0509375 117.31648438 39.046875 116.44921875 C11.4673632 92.24290021 -9.27596346 54.99570597 -12.15478516 18.01147461 C-12.27549067 15.7982919 -12.33268087 13.59098336 -12.375 11.375 C-12.41238281 10.62476562 -12.44976562 9.87453125 -12.48828125 9.1015625 C-12.55065165 5.19301768 -12.37305764 3.4104903 -9.703125 0.47265625 C-6.02530689 -1.53101055 -3.97805179 -1.10501439 0 0 Z " fill="#000000" transform="translate(12,107)"/>
<path d="M0 0 C0.7347757 -0.00902847 1.46955139 -0.01805695 2.22659302 -0.02735901 C3.77813661 -0.04183701 5.32974093 -0.05074216 6.88134766 -0.05444336 C9.24356987 -0.06633455 11.60317289 -0.11553152 13.96484375 -0.16601562 C15.47654983 -0.17548169 16.98827186 -0.18271585 18.5 -0.1875 C19.20019257 -0.20703232 19.90038513 -0.22656464 20.62179565 -0.24668884 C24.43702358 -0.21194214 26.86888089 0.3840015 29.81298828 2.71850586 C33.0841146 6.09498196 33.51077578 8.30456444 33.48046875 12.8203125 C33.47563477 14.09165039 33.47563477 14.09165039 33.47070312 15.38867188 C33.45813477 16.7102832 33.45813477 16.7102832 33.4453125 18.05859375 C33.44080078 18.95126953 33.43628906 19.84394531 33.43164062 20.76367188 C33.41986233 22.96621362 33.40341414 25.16861974 33.3828125 27.37109375 C33.96248779 27.35014648 34.54216309 27.32919922 35.1394043 27.30761719 C37.78286174 27.22412568 40.4260413 27.17233222 43.0703125 27.12109375 C44.43833008 27.07082031 44.43833008 27.07082031 45.83398438 27.01953125 C50.09621181 26.95753521 52.66134688 26.9492277 56.40234375 29.13671875 C61.63148712 35.03626512 60.72073027 41.59033722 60.69848633 49.07006836 C60.69532772 51.2978616 60.7187959 53.52432403 60.74414062 55.75195312 C60.74641404 57.17577958 60.74711692 58.59960959 60.74609375 60.0234375 C60.74907471 61.31241943 60.75205566 62.60140137 60.75512695 63.92944336 C60.26386492 68.47063742 58.80905319 71.08287635 55.4453125 74.12109375 C50.95579666 76.84201244 46.24060404 76.49225213 41.1328125 76.43359375 C40.01519531 76.42682617 40.01519531 76.42682617 38.875 76.41992188 C37.0442361 76.40818621 35.21351377 76.39025225 33.3828125 76.37109375 C33.44082031 77.67304688 33.49882812 78.975 33.55859375 80.31640625 C33.60551023 82.04293276 33.65100836 83.76949823 33.6953125 85.49609375 C33.73720703 86.35203125 33.77910156 87.20796875 33.82226562 88.08984375 C33.90668019 92.47940099 33.82785101 95.43654129 30.98828125 98.92578125 C27.0093747 102.66010734 24.19580453 102.5552586 18.9609375 102.609375 C17.85452911 102.62148262 17.85452911 102.62148262 16.72576904 102.63383484 C15.16225534 102.64767426 13.59871144 102.65839706 12.03515625 102.66625977 C9.65565805 102.68342891 7.27756557 102.72730762 4.8984375 102.77148438 C3.37761436 102.78161558 1.85677943 102.79013035 0.3359375 102.796875 C-0.37052917 102.81438309 -1.07699585 102.83189117 -1.80487061 102.84992981 C-6.87251593 102.82792654 -9.7167731 101.55190708 -13.6171875 98.37109375 C-16.27750175 94.09178825 -15.84849904 89.43665781 -15.7421875 84.55859375 C-15.73316406 83.77033203 -15.72414063 82.98207031 -15.71484375 82.16992188 C-15.69141254 80.23684709 -15.65554588 78.30392995 -15.6171875 76.37109375 C-16.63039063 76.39429688 -17.64359375 76.4175 -18.6875 76.44140625 C-20.03905508 76.46017785 -21.39061819 76.47837655 -22.7421875 76.49609375 C-23.40734375 76.51285156 -24.0725 76.52960938 -24.7578125 76.546875 C-30.66622863 76.60480065 -34.87780322 75.83990714 -39.4296875 71.99609375 C-44.19415648 66.27873097 -42.83839392 58.65261151 -42.8671875 51.55859375 C-42.8878125 50.29982422 -42.9084375 49.04105469 -42.9296875 47.74414062 C-42.98084251 35.61400819 -42.98084251 35.61400819 -39.6171875 30.37109375 C-35.32638545 26.38735475 -30.31992147 27.02319545 -24.8046875 27.18359375 C-23.47920898 27.20389648 -23.47920898 27.20389648 -22.12695312 27.22460938 C-19.95676727 27.25980158 -17.78689717 27.3136039 -15.6171875 27.37109375 C-15.66359375 26.15292969 -15.71 24.93476563 -15.7578125 23.6796875 C-15.79535408 22.05601427 -15.83175167 20.4323143 -15.8671875 18.80859375 C-15.90070313 18.00873047 -15.93421875 17.20886719 -15.96875 16.38476562 C-16.06451364 10.51924257 -15.11922983 7.12823867 -11.6171875 2.37109375 C-8.04560585 -0.13331146 -4.20742797 0.032039 0 0 Z M0.3828125 16.37109375 C0.34542969 17.61246094 0.30804688 18.85382813 0.26953125 20.1328125 C0.203853 21.77476886 0.1374063 23.41669462 0.0703125 25.05859375 C0.04775391 25.87521484 0.02519531 26.69183594 0.00195312 27.53320312 C-0.20774993 32.24198981 -0.55402983 35.56579336 -3.6171875 39.37109375 C-6.74836317 41.4585442 -7.68664974 41.64763371 -11.28515625 41.78515625 C-12.17783203 41.82382812 -13.07050781 41.8625 -13.99023438 41.90234375 C-14.91900391 41.93328125 -15.84777344 41.96421875 -16.8046875 41.99609375 C-17.74505859 42.03476562 -18.68542969 42.0734375 -19.65429688 42.11328125 C-21.97493816 42.20752049 -24.29603591 42.29039498 -26.6171875 42.37109375 C-26.6171875 48.31109375 -26.6171875 54.25109375 -26.6171875 60.37109375 C-25.23144531 60.396875 -23.84570312 60.42265625 -22.41796875 60.44921875 C-20.5885106 60.50550977 -18.75908474 60.56285688 -16.9296875 60.62109375 C-16.01767578 60.63527344 -15.10566406 60.64945312 -14.16601562 60.6640625 C-9.88720044 60.81965578 -7.25937228 60.98366668 -3.53515625 63.23046875 C-0.86473459 66.21089863 -0.49231833 68.74345837 -0.30078125 72.6015625 C-0.25888672 73.40400391 -0.21699219 74.20644531 -0.17382812 75.03320312 C-0.13451172 75.86658203 -0.09519531 76.69996094 -0.0546875 77.55859375 C-0.01150391 78.40357422 0.03167969 79.24855469 0.07617188 80.11914062 C0.18212768 82.20293808 0.2829627 84.28699478 0.3828125 86.37109375 C5.9928125 86.37109375 11.6028125 86.37109375 17.3828125 86.37109375 C17.59197898 81.04715021 17.59197898 81.04715021 17.77075195 75.72216797 C18.00369573 70.97147522 18.68375222 67.43512502 21.3828125 63.37109375 C24.25766745 61.58109699 26.57199695 61.09315384 29.9296875 60.95703125 C30.77402344 60.91835938 31.61835938 60.8796875 32.48828125 60.83984375 C33.36097656 60.80890625 34.23367188 60.77796875 35.1328125 60.74609375 C36.46505859 60.68808594 36.46505859 60.68808594 37.82421875 60.62890625 C40.01008417 60.53489053 42.19641942 60.45191373 44.3828125 60.37109375 C44.3828125 54.43109375 44.3828125 48.49109375 44.3828125 42.37109375 C42.99707031 42.35691406 41.61132812 42.34273438 40.18359375 42.328125 C38.35413372 42.28121577 36.52470765 42.23296843 34.6953125 42.18359375 C33.32729492 42.17489258 33.32729492 42.17489258 31.93164062 42.16601562 C27.31816934 42.01502929 25.05455957 41.88618498 21.30078125 39.0078125 C18.94137154 35.76422482 18.27220129 33.26948075 18.06640625 29.359375 C18.00924438 28.33517456 18.00924438 28.33517456 17.95092773 27.2902832 C17.90782471 26.43007568 17.86472168 25.56986816 17.8203125 24.68359375 C17.6759375 21.94046875 17.5315625 19.19734375 17.3828125 16.37109375 C11.7728125 16.37109375 6.1628125 16.37109375 0.3828125 16.37109375 Z " fill="#000000" transform="translate(421.6171875,339.62890625)"/>
<path d="M0 0 C5.57087945 1.56611258 9.42134623 6.65489561 13.35917473 10.68434715 C14.44077903 11.76165724 15.52411351 12.83723261 16.6090374 13.91119957 C19.54443634 16.82724006 22.45427477 19.7676173 25.3596046 22.71357894 C28.40489011 25.79404229 31.47128949 28.85335501 34.53497124 31.91550255 C39.6753389 37.05961403 44.79999208 42.21896733 49.91483879 47.38844872 C55.8285342 53.36507709 61.7629084 59.32050945 67.70961422 65.26428193 C74.04174407 71.59371007 80.35854297 77.93826978 86.67092824 84.28738236 C88.49066124 86.11564015 90.31322062 87.94103937 92.13642502 89.76583481 C94.99990299 92.6333309 97.85296224 95.51081151 100.69826508 98.39633942 C101.74415354 99.45391029 102.79344689 100.50812624 103.84634972 101.55871391 C105.28242379 102.99282439 106.70495516 104.44045816 108.12673759 105.88873863 C108.92660308 106.69530749 109.72646856 107.50187635 110.5505724 108.3328867 C112.55218035 110.90080727 113.16389969 112.43589769 113.36918449 115.66603661 C111.09207606 121.30459082 111.09207606 121.30459082 108.36918449 122.66603661 C105.00004254 123.20509932 102.50166417 123.45016917 99.6013155 121.44195843 C98.99631246 120.88944503 98.39130941 120.33693163 97.76797295 119.7676754 C97.06746756 119.12807695 96.36696217 118.48847851 95.64522934 117.82949829 C91.40292421 113.79703618 87.24763266 109.68294137 83.11356926 105.5398159 C82.1093043 104.53690891 81.10482738 103.53421413 80.10015678 102.53171349 C77.39584201 99.83192247 74.69465728 97.12902069 71.99419713 94.42537475 C69.16146294 91.59009487 66.326274 88.7572713 63.49148369 85.92404747 C58.73969044 81.1740677 53.98999702 76.42199591 49.24149895 71.66872215 C43.74919091 66.17095425 38.25326436 60.67682336 32.7554813 55.18453091 C28.02823812 50.46181988 23.302939 45.73717036 18.57927173 41.01088268 C15.76067445 38.1907256 12.94140387 35.37125053 10.12037659 32.55352402 C7.47428795 29.91031621 4.83064259 27.26468915 2.18889236 24.61714554 C1.21780704 23.64473456 0.24586345 22.67317985 -0.72698402 21.70253181 C-2.05098815 20.38124629 -3.37163111 19.05659519 -4.69207954 17.73175621 C-5.43295028 16.99050845 -6.17382101 16.24926069 -6.93714237 15.48555088 C-9.33385048 12.91076562 -9.6109928 11.88012187 -9.94331551 8.29103661 C-9.63081551 4.66603661 -9.63081551 4.66603661 -8.13081551 2.22853661 C-5.36979173 0.50289674 -3.26301673 -0.08720348 0 0 Z " fill="#000000" transform="translate(54.630815505981445,-0.6660366058349609)"/>
<path d="M0 0 C2.55846877 2.0561716 3.46753242 3.74458206 4.2109375 6.91015625 C4.40123535 7.71662598 4.5915332 8.5230957 4.78759766 9.35400391 C4.98144043 10.24780762 5.1752832 11.14161133 5.375 12.0625 C5.58560059 13.02075684 5.79620117 13.97901367 6.01318359 14.96630859 C12.66580831 46.5132621 15.44945315 78.77044084 16.8125 110.9375 C16.86567383 112.09233887 16.91884766 113.24717773 16.97363281 114.43701172 C17.0094043 115.49807129 17.04517578 116.55913086 17.08203125 117.65234375 C17.11530518 118.57007568 17.1485791 119.48780762 17.18286133 120.43334961 C16.89718543 124.44311019 15.84258782 127.15741218 13 130 C9.96170128 130.49581345 7.04287041 130.45224313 4 130 C0.96970553 127.44318904 0.6151329 124.80128085 0 121 C-0.16953613 118.32675003 -0.30076474 115.66791063 -0.39453125 112.9921875 C-0.46053869 111.36691044 -0.52738893 109.74166744 -0.5949707 108.11645508 C-0.62982574 107.26274323 -0.66468079 106.40903137 -0.70059204 105.52944946 C-1.97039457 75.40981652 -4.20147926 44.16080139 -11.54858398 14.80834961 C-12.52074174 10.91393507 -12.57144313 6.96069207 -12 3 C-8.46365762 -1.60796128 -5.39003434 -1.49723176 0 0 Z " fill="#000000" transform="translate(194,382)"/>
</svg>
