<?xml version="1.0" encoding="UTF-8"?>
<svg version="1.1" xmlns="http://www.w3.org/2000/svg" width="512" height="512">
<path d="M0 0 C3.16544378 1.70877939 5.38589062 3.89668483 7.15234375 7.0703125 C8.37388911 11.29224347 8.24924808 15.31638583 8.1875 19.6875 C8.18685547 20.53505859 8.18621094 21.38261719 8.18554688 22.25585938 C8.14474063 28.21810529 7.68832477 34.07913967 7 40 C7.64437012 39.64695801 8.28874023 39.29391602 8.95263672 38.93017578 C11.91951578 37.3147274 14.89699502 35.71983845 17.875 34.125 C18.88820313 33.56941406 19.90140625 33.01382813 20.9453125 32.44140625 C28.3043466 28.52602272 35.57533411 25.14861318 44.0625 26.5 C47.5694353 26.94532512 48.87448391 26.92444066 52.0859375 26.0546875 C71.72046869 21.41310597 91.998169 25.97624607 109.18408203 35.86621094 C113.83966421 38.77297669 117.90108077 42.36686705 122 46 C123.32246004 47.01433585 124.65197284 48.01989768 126 49 C126.6084375 48.38253906 127.216875 47.76507813 127.84375 47.12890625 C144.95357009 30.59780066 164.76311496 24.39068421 188.3125 24.73046875 C207.60675697 25.38152164 225.63291672 34.21735973 239 48 C252.7532824 63.47506737 259.28194968 81.22583725 259.4375 101.6875 C259.44773193 102.72044189 259.45796387 103.75338379 259.46850586 104.81762695 C259.35104941 115.14311631 257.0169601 124.67933639 252.75 134.0625 C252.44698975 134.73877441 252.14397949 135.41504883 251.83178711 136.11181641 C244.51244723 152.03624948 230.25086606 172.50051987 215 182 C211.1234517 182.64609138 209.14978499 182.544635 205.625 180.875 C203.35056682 178.25065402 203.06903049 176.45152438 203 173 C205.08059572 168.7471213 208.10376533 165.77044685 211.5 162.5625 C227.47424277 146.98645291 241.7910087 127.1925735 242.29223633 104.10888672 C242.36504386 94.73513631 241.71012705 86.75395991 238 78 C237.43925781 76.66582031 237.43925781 76.66582031 236.8671875 75.3046875 C229.87627183 60.1654198 218.15287391 50.87043022 202.95239258 44.69067383 C187.9269594 39.37531176 171.45111495 40.75510994 157 47 C153.09045475 49.0576554 149.5292959 51.34710644 146 54 C145.00226563 54.7425 145.00226563 54.7425 143.984375 55.5 C140.0783797 58.62479624 137.24437497 62.12075653 134.45703125 66.265625 C132.77503572 68.2677859 131.43213113 69.06993073 129 70 C124.67962278 70.30859837 121.66313906 70.35086511 118 68 C116.56685799 66.31870694 115.19779552 64.58192205 113.875 62.8125 C105.20155933 51.95295481 91.84427605 44.07989124 78 42 C74.7695191 41.77760149 71.55011982 41.70655033 68.3125 41.6875 C67.51658447 41.68194092 66.72066895 41.67638184 65.90063477 41.6706543 C60.64535342 41.73453668 55.95358238 42.17039681 51 44 C49.46601362 46.31624717 49.46601362 46.31624717 49 49.25 C45.7701283 61.06453071 38.91302287 70.78782412 31 80 C29.99876014 81.20730617 28.99856011 82.41547648 28 83.625 C27.34 84.40875 26.68 85.1925 26 86 C27.43189638 89.32463298 29.47727243 92.01799052 31.68115234 94.87109375 C47.10970216 114.94855729 56.1789677 139.4993654 55 165 C55.99 165.0825 56.98 165.165 58 165.25 C66.59313381 166.54675057 72.55457781 171.4412915 78 178 C80.63220774 181.59786975 81.96380951 184.62131477 82.08203125 189.125 C82.26538015 195.2094671 82.93127497 199.35366308 87.41015625 203.62890625 C91.04312889 206.73301503 94.86188165 209.57265389 98.74023438 212.36132812 C101.472557 214.3426753 104.10854236 216.42752429 106.74365234 218.53540039 C108.45006556 219.89763713 110.17133636 221.23835477 111.8984375 222.57421875 C113.86351805 224.11113943 115.80915918 225.67352648 117.7265625 227.26953125 C118.51804687 227.92308594 119.30953125 228.57664063 120.125 229.25 C120.78757812 229.81203125 121.45015625 230.3740625 122.1328125 230.953125 C123.91248898 232.15695923 123.91248898 232.15695923 125.8515625 231.96875 C129.01996857 230.5400869 131.57431477 228.42851399 134.25 226.25 C134.8584375 225.76337891 135.466875 225.27675781 136.09375 224.77539062 C138.06905483 223.1915334 140.03549898 221.59723306 142 220 C142.65677734 219.46697266 143.31355469 218.93394531 143.99023438 218.38476562 C146.66909438 216.20966773 149.3465613 214.03288766 152.02075195 211.85205078 C157.58583919 207.31823471 163.20410908 202.85769512 168.875 198.45703125 C170.82024026 196.92758609 172.74207044 195.36725244 174.625 193.76171875 C178.10855315 190.82541297 180.21919541 189.15616092 184.75 188.25 C188.97797077 189.22568556 190.55942494 190.41540538 193 194 C193.14904811 198.17334716 192.73973986 200.17791174 189.9296875 203.30078125 C186.3882095 206.56366298 182.72829895 209.64140577 179 212.6875 C178.245979 213.30616943 177.49195801 213.92483887 176.71508789 214.56225586 C171.33245808 218.95969509 165.86513478 223.22042537 160.328125 227.421875 C155.69555408 230.97106758 151.20855392 234.70653791 146.73022461 238.44750977 C134.58464753 248.46484943 134.58464753 248.46484943 128.0625 249 C127.31097656 249.0825 126.55945313 249.165 125.78515625 249.25 C117.50215777 248.50650505 111.92274615 244.88156095 105.8125 239.5 C104.3357381 238.2421938 102.8578557 236.98570206 101.37890625 235.73046875 C100.64816895 235.10446777 99.91743164 234.4784668 99.16455078 233.83349609 C95.91866333 231.0840471 92.59571064 228.43892119 89.25 225.8125 C88.69030518 225.36777344 88.13061035 224.92304688 87.55395508 224.46484375 C84.49108388 222.05826873 81.38633 219.92519131 78 218 C77.731875 218.73476562 77.46375 219.46953125 77.1875 220.2265625 C73.01014539 229.98288413 64.54817209 236.62583087 55.0625 240.9375 C52 242 52 242 49 242 C48.90203125 242.75023437 48.8040625 243.50046875 48.703125 244.2734375 C47.10631285 255.20334135 44.12834085 263.49351325 37 272 C56.14964137 271.39040659 73.64564331 268.72957558 91.6484375 262.01171875 C99.57774331 259.0764845 107.01929048 258.99812682 114.96875 262.03515625 C121.75012603 265.25630986 124.92286992 270.45343641 128 277 C130.79429823 285.3828947 130.08494516 296.85908579 126.2734375 304.79296875 C114.55879569 325.09595225 96.6534058 336.29124671 74.42578125 342.6484375 C63.7756975 345.44370303 52.85192986 347.18667988 42 349 C44.6129964 361.69781831 44.6129964 361.69781831 52.87109375 371.02685547 C55.30602058 372.41515649 57.76550102 373.74427654 60.25439453 375.03320312 C76.80936026 384.20210722 92.84439259 403.24462987 99 421 C99 421.99 99 422.98 99 424 C99.75023437 423.96519531 100.50046875 423.93039062 101.2734375 423.89453125 C109.59597766 423.67441369 117.58326092 424.0918265 124.4375 429.3125 C129.10632097 434.20906833 130.33888876 438.70982808 131.1796875 445.2421875 C130.61200255 453.95491745 125.32310369 460.03136937 120.125 466.625 C119.41730469 467.54023438 118.70960938 468.45546875 117.98046875 469.3984375 C116.00359688 471.94591484 114.0057055 474.47520197 112 477 C111.5270752 477.61101562 111.05415039 478.22203125 110.56689453 478.8515625 C107.92605416 482.18253971 105.22491199 484.50134437 101.625 486.75 C100.73039062 487.32234375 99.83578125 487.8946875 98.9140625 488.484375 C82.06819737 497.2460314 59.47013265 490.45699041 41.9375 487.4375 C38.08651294 486.77719973 34.23503913 486.12150447 30.38075256 485.48072815 C28.0013848 485.08504334 25.6238035 484.67840185 23.2485199 484.25889587 C13.32791541 482.60673095 5.85098731 483.40727213 -3.5 486.875 C-18.37015337 492.10668672 -33.87891322 494.11881047 -49.609375 494.203125 C-50.49077148 494.21009399 -51.37216797 494.21706299 -52.28027344 494.22424316 C-55.10356487 494.24151594 -57.92665796 494.24796079 -60.75 494.25 C-61.71264771 494.25100708 -62.67529541 494.25201416 -63.66711426 494.25305176 C-77.61810659 494.2431628 -91.31366892 493.99231826 -105 491 C-105.71414062 490.8448291 -106.42828125 490.6896582 -107.1640625 490.52978516 C-113.39559495 489.11992968 -119.31517417 487.37895286 -125.125 484.6875 C-138.14201625 479.37735487 -158.23870295 486.37118294 -171.56665039 488.63696289 C-210.7140751 495.2616489 -210.7140751 495.2616489 -223 488 C-233.02354859 480.65752216 -240.29701943 470.47643812 -247.5 460.5 C-247.93376953 459.90034424 -248.36753906 459.30068848 -248.81445312 458.68286133 C-253.55031027 452.01142212 -253.83550003 446.03219346 -253 438 C-250.93996487 432.33490338 -247.36419979 428.73469009 -242 426 C-235.32994772 423.69998197 -229.0080864 423.78975741 -222 424 C-221.89429688 423.30261719 -221.78859375 422.60523438 -221.6796875 421.88671875 C-220.89935672 418.57255525 -219.64538236 415.85704677 -218.125 412.8125 C-217.61195313 411.76707031 -217.09890625 410.72164063 -216.5703125 409.64453125 C-215 407 -215 407 -212 405 C-208.44974612 404.67724965 -205.90291396 404.59606481 -202.625 406.0625 C-200.19310301 408.96206949 -200.19004562 411.2484995 -200 415 C-200.76217702 417.71731154 -201.95426175 420.12498737 -203.25 422.625 C-203.56324219 423.26695312 -203.87648437 423.90890625 -204.19921875 424.5703125 C-207.10789365 430.46007743 -209.49592932 435.24112246 -215 439 C-218.42061711 440.12500296 -221.85966631 440.26837146 -225.4375 440.5 C-229.38194046 440.75595442 -233.1407845 441.13438157 -237 442 C-235.98887501 448.50008923 -232.59712948 452.29245485 -228.37890625 457.21484375 C-226.2327661 459.72748402 -224.23114157 462.29452652 -222.25 464.9375 C-218.48745856 469.79239218 -214.88959911 473.03841995 -209 475 C-199.7078616 475.79915719 -190.62992227 474.60539432 -181.48828125 473.03125 C-180.27222702 472.8314856 -179.05617279 472.63172119 -177.80326843 472.42590332 C-173.97118373 471.79442343 -170.1418483 471.1478466 -166.3125 470.5 C-162.44341891 469.85527335 -158.57383744 469.21368143 -154.7039032 468.57409668 C-152.3082837 468.17712655 -149.91324784 467.77661459 -147.51887512 467.37219238 C-146.44312729 467.19200562 -145.36737946 467.01181885 -144.2590332 466.82617188 C-143.31308792 466.66628784 -142.36714264 466.50640381 -141.39253235 466.3416748 C-139 466 -139 466 -136 466 C-134.98356313 435.29578769 -141.52331477 407.12873794 -163 384 C-168.7578367 384.51156583 -172.38083399 388.03212494 -176.74023438 391.49414062 C-179.73000826 393.75852675 -181.47010318 394.92828941 -185.26171875 395.44140625 C-189.23668282 394.80064885 -190.64092451 393.19169037 -193 390 C-193.67656897 386.39163216 -193.46946784 384.74941436 -191.51953125 381.63671875 C-188.74304197 378.73109043 -186.02117487 377.16056009 -182.55029297 375.20605469 C-174.35091188 370.49475337 -169.57351888 366.51418501 -166.875 357.25 C-166.1419842 354.5026917 -165.54034574 351.79489174 -165 349 C-165.83958252 348.8548999 -166.67916504 348.7097998 -167.54418945 348.56030273 C-191.88653642 344.28594713 -215.72617274 339.6471915 -235 323 C-235.68964844 322.40574219 -236.37929687 321.81148438 -237.08984375 321.19921875 C-245.3223288 313.56718366 -251.28527682 303.68742951 -252.3359375 292.38671875 C-252.44150109 282.38984631 -251.65571701 274.5608922 -244.625 267.0625 C-238.42238999 261.41772644 -232.03051741 259.63953175 -223.83642578 259.72802734 C-218.61876968 260.22832592 -213.85235275 262.07076249 -208.9375 263.8125 C-192.49366715 269.32953731 -177.29245081 271.44952681 -160 272 C-160.68835938 271.12601562 -160.68835938 271.12601562 -161.390625 270.234375 C-166.80777844 262.99632964 -171 255.29889177 -171 246.0625 C-171.65996106 242.82273855 -171.65996106 242.82273855 -174.37109375 241.78515625 C-176.48222913 240.98642095 -178.59990139 240.20482162 -180.72265625 239.4375 C-186.14463629 237.0593252 -189.91695579 233.1999113 -194 229 C-194.58652344 228.43410156 -195.17304688 227.86820313 -195.77734375 227.28515625 C-203.60410422 219.13974904 -206.32224584 207.88093661 -206.31030273 196.92114258 C-206.08128163 186.51257144 -202.55290923 179.52288166 -195.3671875 172.1015625 C-190.08246126 167.40984185 -184.9660239 165.58050199 -178 165 C-178.061875 163.741875 -178.12375 162.48375 -178.1875 161.1875 C-178.05943229 130.96352049 -164.39163029 104.57805241 -144 83 C-143.41476563 82.37351562 -142.82953125 81.74703125 -142.2265625 81.1015625 C-138.99182852 77.74533616 -135.62358166 74.96156117 -131.875 72.1875 C-127.40391229 68.70773943 -125.44928285 65.49722138 -123.1796875 60.38671875 C-118.74587834 51.41633002 -109.41157724 47.31475372 -100.4140625 44.06640625 C-95.49214256 42.60497464 -90.53953163 41.75287538 -85.47412109 40.984375 C-66.33897551 38.05702785 -51.39249248 29.6549975 -36.3371582 17.86938477 C-29.82032185 12.78508088 -23.0840336 8.25225303 -16 4 C-14.83017578 3.2884375 -14.83017578 3.2884375 -13.63671875 2.5625 C-8.80400628 -0.14006542 -5.38683136 -0.78195939 0 0 Z M-13.640625 21.4921875 C-14.37418213 22.0274707 -15.10773926 22.56275391 -15.86352539 23.11425781 C-17.04483032 23.9858252 -17.04483032 23.9858252 -18.25 24.875 C-19.06267334 25.46635742 -19.87534668 26.05771484 -20.71264648 26.66699219 C-24.39464753 29.34652009 -28.06291762 32.04262291 -31.70703125 34.7734375 C-49.05938688 47.66853624 -66.50865367 54.66718366 -87.80761719 57.91430664 C-96.08251177 59.22860833 -104.75176301 61.97111118 -110 69 C-111.13559654 71.82730444 -111.13559654 71.82730444 -111 75 C-109.57771293 77.31745458 -108.31994998 78.97874027 -106.5 80.9375 C-106.00661133 81.49034668 -105.51322266 82.04319336 -105.00488281 82.61279297 C-103.35999051 84.43171305 -101.68446329 86.21770172 -100 88 C-99.13084961 88.93271729 -99.13084961 88.93271729 -98.24414062 89.88427734 C-86.00747682 102.92493133 -71.45202274 117.37547427 -53 120 C-53.03480469 118.90300781 -53.06960937 117.80601563 -53.10546875 116.67578125 C-53.13361865 115.22136955 -53.16091752 113.7669412 -53.1875 112.3125 C-53.21263672 111.59126953 -53.23777344 110.87003906 -53.26367188 110.12695312 C-53.32667231 105.52792109 -52.88572296 102.62565193 -50 99 C-44.94223452 95.62815634 -39.66787868 96.86642426 -34 98 C-18.661387 99.0763939 -5.30256988 92.01842668 6.125 82.375 C17.34373248 72.53834124 26.07581568 61.21578883 33 48 C33 47.34 33 46.68 33 46 C27.31052448 47.70152539 22.31506182 50.30355094 17.09765625 53.078125 C9.59461718 56.95252668 1.02824065 59.90365494 -7.375 57.25 C-9.52682862 55.59474722 -10.17465186 54.61360243 -11 52 C-11.21472844 46.42302516 -10.67631707 41.49757585 -9.5 36.0625 C-8.32175129 30.27432796 -7.6834794 24.90838451 -8 19 C-10.64425773 19 -11.51808399 19.9324177 -13.640625 21.4921875 Z M-135.34765625 97.33203125 C-152.92748725 116.028042 -162.48450688 140.5267052 -162.2109375 166.16015625 C-161.47102388 179.6293246 -157.78567851 192.18487048 -151.34375 204.05078125 C-148.58942571 210.09588253 -148.94831892 217.0019786 -151.125 223.20703125 C-151.57875 224.25246094 -152.0325 225.29789063 -152.5 226.375 C-155.97066683 234.6190768 -156.69463594 242.73738513 -153.92578125 251.3359375 C-147.84648098 264.56049753 -136.63450978 272.66484403 -123.3359375 277.91796875 C-82.7915071 292.82919605 -32.40107287 292.56271884 7.08203125 274.59765625 C16.89756482 269.6418414 26.814508 261.96997606 30.99609375 251.5078125 C34.39548802 240.84126872 32.70173944 232.52782429 28.05859375 222.53125 C25.29278919 213.30509751 27.19310885 206.16072211 31.3125 197.75 C41.18086548 176.06680052 41.8507721 153.17700725 33.4921875 130.80859375 C28.6634505 118.76261947 21.84249158 107.52268324 13 98 C9.53214592 99.29050654 6.54831425 100.81757851 3.4375 102.8125 C-9.58782009 110.7165889 -21.88458623 113.47482975 -37 113 C-37.02578125 113.71285156 -37.0515625 114.42570312 -37.078125 115.16015625 C-37.45647556 121.54912141 -38.12834101 125.83778801 -42 131 C-46.26412465 134.76246292 -51.50012058 135.10258025 -57 135 C-75.38423217 132.62152247 -91.52336237 118.76019758 -104 106 C-104.66 106 -105.32 106 -106 106 C-106.39638672 105.10861328 -106.39638672 105.10861328 -106.80078125 104.19921875 C-108.04418284 101.91897413 -109.29184276 100.56934481 -111.1875 98.8125 C-114.73668525 95.38980563 -117.67610881 91.67267 -120.6171875 87.72265625 C-121.30167969 86.86994141 -121.30167969 86.86994141 -122 86 C-126.09134003 86 -132.54534243 94.54836844 -135.34765625 97.33203125 Z M-185 185 C-189.7082936 190.21729831 -190.36362462 194.24464143 -190.2734375 201.08984375 C-189.50962372 209.21900468 -184.86806119 215.56879649 -179 221 C-174.42893653 224.61873375 -174.42893653 224.61873375 -169 226 C-168.31904891 224.63201789 -167.65591761 223.25515997 -167 221.875 C-166.62875 221.10929687 -166.2575 220.34359375 -165.875 219.5546875 C-164.44534274 215.38059889 -164.49109409 212.26789273 -166.13671875 208.16796875 C-166.64847656 207.18441406 -167.16023438 206.20085937 -167.6875 205.1875 C-171.48083827 197.40259675 -173.74302013 189.33884154 -176 181 C-180.09632497 181 -181.76067881 182.55398196 -185 185 Z M53 181 C52.70867187 182.14855469 52.41734375 183.29710937 52.1171875 184.48046875 C49.82431891 193.24676237 47.34338352 201.18818242 43.0390625 209.203125 C41.29364054 213.90132847 42.77738377 217.87340256 44.5625 222.375 C45.036875 223.57125 45.51125 224.7675 46 226 C53.94114497 224.01471376 59.226523 219.72981234 63.4375 212.8125 C67.32061798 205.92446238 67.69471034 199.83478882 67 192 C64.88025926 187.52499178 62.12885367 184.7190012 58 182 C56.34271246 181.62279065 54.67601492 181.28260018 53 181 Z M-235 281 C-237.33168681 285.66337361 -236.67739534 291.77285631 -235.19921875 296.6328125 C-228.89256273 310.45977655 -215.45113962 318.77351015 -201.75 324.1875 C-187.27358183 329.54947013 -171.24848809 332.10708926 -155.890625 333.25 C-151.93766826 334.27563202 -150.46369963 335.76101028 -148 339 C-147.01 342.96 -147.01 342.96 -146 347 C-89.9 347 -33.8 347 24 347 C24.33 344.36 24.66 341.72 25 339 C27.08476473 335.57037589 28.79152602 334.29576963 32.6953125 333.34033203 C36.12443199 332.80900808 39.54864606 332.42149957 43 332.0625 C67.63076205 328.99556056 92.45517046 323.17069214 108.5 302.75 C113.09028783 296.50507354 113.741505 290.58616651 113 283 C111.7402794 279.91368454 110.84552001 278.61227311 108.1875 276.6875 C103.02952175 275.06642112 98.95374351 276.1679963 94.125 278.25 C75.29950616 285.81879194 54.96425323 288.36068247 34.78637695 287.73120117 C22.86019287 287.41247597 12.82785321 287.58714909 2.0234375 293.109375 C-2.7751971 295.54186259 -7.84956363 296.70643271 -13.0625 297.9375 C-13.95155029 298.14850342 -14.84060059 298.35950684 -15.7565918 298.5769043 C-17.83526487 299.06194859 -19.9172825 299.53262699 -22 300 C-22.15855469 300.67804688 -22.31710938 301.35609375 -22.48046875 302.0546875 C-25.19954961 312.90096586 -28.97197027 321.97125713 -38 329 C-48.03192357 334.98343216 -58.48253851 336.86530159 -69.9609375 334.3515625 C-79.51496962 330.8253109 -87.57342926 324.24046642 -92 315 C-92.94387953 311.617765 -93.78476959 308.26718136 -94.45703125 304.8203125 C-96.21456863 301.60780114 -96.74585644 301.40263836 -100.0625 300.26171875 C-101.70120808 299.8141869 -103.34758749 299.39393127 -105 299 C-105.75563232 298.80341797 -106.51126465 298.60683594 -107.28979492 298.40429688 C-110.33663303 297.6198904 -113.39125446 296.87335921 -116.45507812 296.15820312 C-121.5305925 294.89038458 -125.95995079 293.09842732 -130.6875 290.84375 C-138.26920929 287.51540672 -144.64695362 287.41526002 -152.8125 287.8125 C-155.54271287 287.88704379 -158.27295743 287.93115405 -161.00390625 287.96875 C-161.68113739 287.97953079 -162.35836853 287.99031158 -163.05612183 288.00141907 C-182.79447127 288.21589203 -202.88525247 284.42276585 -221.06640625 276.734375 C-227.50353287 274.28956731 -230.47996855 276.58508556 -235 281 Z M-80 303 C-75.1504199 312.9211177 -75.1504199 312.9211177 -67 319 C-62.17850066 320.60716645 -56.891602 320.93751158 -52 319.3515625 C-44.98687803 315.68845861 -41.453116 310.35934799 -39 303 C-52.53 303 -66.06 303 -80 303 Z M-152 363 C-153.1630458 366.36498878 -153.1630458 366.36498878 -154 370 C-152.37448309 372.75132309 -152.37448309 372.75132309 -149.6875 375.0625 C-135.25863525 389.49136475 -126.57787522 409.32134085 -122 429 C-121.81163574 429.79865479 -121.62327148 430.59730957 -121.42919922 431.42016602 C-119.76342242 439.35058445 -119.77015569 447.1104559 -119.875 455.1875 C-119.8850607 456.53449847 -119.89418103 457.88150431 -119.90234375 459.22851562 C-119.92569396 462.48587021 -119.9584423 465.74283549 -120 469 C-113.76650247 472.07628373 -107.82628334 473.94301604 -101 475.1875 C-99.74316406 475.4340332 -99.74316406 475.4340332 -98.4609375 475.68554688 C-89.94335613 477.31390802 -81.56075005 478.15449717 -72.890625 478.203125 C-72.04965271 478.21013931 -71.20868042 478.21715363 -70.34222412 478.22438049 C-67.64476099 478.24178117 -64.94751718 478.24823194 -62.25 478.25 C-61.32993164 478.25067474 -60.40986328 478.25134949 -59.46191406 478.25204468 C-39.6713845 478.22894709 -21.83389208 476.24505203 -3 470 C-3.02094727 469.2565332 -3.04189453 468.51306641 -3.06347656 467.74707031 C-3.87553125 434.3911531 2.21286545 402.69511616 25 377 C25.61617187 376.35675781 26.23234375 375.71351563 26.8671875 375.05078125 C30.38402271 371.48664523 30.38402271 371.48664523 30.9375 366.625 C30.24922156 364.10652612 30.24922156 364.10652612 29 363 C26.65972876 362.90237776 24.34901619 362.87002396 22.00828552 362.87974548 C20.89831942 362.87846385 20.89831942 362.87846385 19.76592976 362.87715632 C17.26767587 362.87549931 14.76948802 362.88102647 12.27124023 362.88647461 C10.48786419 362.88675646 8.70448803 362.88659879 6.92111206 362.8860321 C2.06387809 362.88574404 -2.79333141 362.89164212 -7.65055966 362.89860606 C-12.72080948 362.90483821 -17.79105981 362.90544329 -22.86131287 362.90663147 C-32.46963693 362.9097452 -42.07794968 362.91795914 -51.68626875 362.92798096 C-62.62199528 362.93914081 -73.55772234 362.94465222 -84.49345315 362.94967639 C-106.99564172 362.96014172 -129.49782022 362.97774196 -152 363 Z M38.01953125 384.9140625 C22.26445788 404.26631192 11.76553343 427.99194514 11.875 453.1875 C11.87113281 454.08919922 11.86726563 454.99089844 11.86328125 455.91992188 C11.86457031 456.78552734 11.86585938 457.65113281 11.8671875 458.54296875 C11.86831543 459.32696045 11.86944336 460.11095215 11.87060547 460.91870117 C11.92279751 463.19631307 11.92279751 463.19631307 13 466 C24.71465055 468.26623329 36.45845766 470.31068813 48.23681641 472.21704102 C50.16661824 472.53138828 52.09566244 472.85042153 54.02392578 473.17407227 C75.08527666 477.76265903 75.08527666 477.76265903 94.76611328 471.96972656 C98.80909046 468.40483696 101.86415204 464.27831605 104.9375 459.875 C105.58267578 458.98167969 106.22785156 458.08835937 106.89257812 457.16796875 C108.0838257 455.51627004 109.26769476 453.85920212 110.44116211 452.19482422 C111.48991475 450.71819364 112.57808757 449.2688673 113.70141602 447.84814453 C115.20361476 446.08667409 115.20361476 446.08667409 115 443.875 C113.54239532 441.14199122 111.91343142 440.93502689 109 440 C106.88057257 439.78805726 104.7533642 439.6459157 102.625 439.5625 C97.3220068 439.20297504 93.53963525 438.80105153 89 436 C86.20454992 432.72532991 84.76295111 429.42624055 83.3125 425.4375 C76.1449845 407.02249863 59.67480945 392.74324346 43 383 C39.900488 382.65252561 39.900488 382.65252561 38.01953125 384.9140625 Z " fill="#000000" transform="translate(253,9)"/>
<path d="M0 0 C0.66677261 -0.00619858 1.33354523 -0.01239716 2.02052307 -0.01878357 C3.42488146 -0.0258584 4.82932414 -0.02274844 6.23364258 -0.01000977 C8.37023989 0.00385003 10.50244454 -0.03022564 12.63867188 -0.06835938 C24.01359124 -0.13428981 24.01359124 -0.13428981 27.8515625 2.8515625 C30.62639111 6.4562464 31.0729178 9.20688228 31.0390625 13.67578125 C31.03422852 14.80693359 31.03422852 14.80693359 31.02929688 15.9609375 C31.01672852 17.12689453 31.01672852 17.12689453 31.00390625 18.31640625 C30.99939453 19.10917969 30.99488281 19.90195313 30.99023438 20.71875 C30.9784919 22.66800133 30.96055771 24.61721363 30.94140625 26.56640625 C32.24335938 26.50839844 33.5453125 26.45039062 34.88671875 26.390625 C36.61324526 26.34370852 38.33981073 26.29821039 40.06640625 26.25390625 C41.3503125 26.19106445 41.3503125 26.19106445 42.66015625 26.12695312 C47.00975683 26.04330696 50.01107739 26.12063157 53.49609375 28.8984375 C58.41289188 34.2629313 57.16260972 40.97853884 57.19140625 47.87890625 C57.21203125 49.10287109 57.23265625 50.32683594 57.25390625 51.58789062 C57.26164062 53.36583008 57.26164062 53.36583008 57.26953125 55.1796875 C57.27887695 56.26032471 57.28822266 57.34096191 57.29785156 58.4543457 C56.77730277 62.99916452 55.27522722 66.38601181 51.8359375 69.4296875 C47.72393522 71.04452241 44.00054852 70.8884714 39.62890625 70.75390625 C38.3749707 70.73360352 38.3749707 70.73360352 37.09570312 70.71289062 C35.04399127 70.67771842 32.9926135 70.62391673 30.94140625 70.56640625 C30.99361328 72.17708984 30.99361328 72.17708984 31.046875 73.8203125 C31.07503543 75.25649464 31.10233316 76.69269387 31.12890625 78.12890625 C31.15404297 78.83337891 31.17917969 79.53785156 31.20507812 80.26367188 C31.27683208 85.45387448 30.53009966 89.02355817 27.94140625 93.56640625 C22.08202675 98.01786911 15.54813495 97.04190846 8.50390625 97.00390625 C6.5384082 97.03387695 6.5384082 97.03387695 4.53320312 97.06445312 C3.26669922 97.06380859 2.00019531 97.06316406 0.6953125 97.0625 C-0.45638428 97.06435303 -1.60808105 97.06620605 -2.79467773 97.06811523 C-6.77112932 96.45687969 -8.94248779 95.06951713 -12.05859375 92.56640625 C-14.40918282 87.87866005 -14.30398968 83.31286395 -14.18359375 78.19140625 C-14.17457031 77.45535156 -14.16554688 76.71929687 -14.15625 75.9609375 C-14.13289519 74.16261745 -14.09703211 72.36446714 -14.05859375 70.56640625 C-15.28835938 70.6128125 -16.518125 70.65921875 -17.78515625 70.70703125 C-19.41794435 70.74456661 -21.05075886 70.78096487 -22.68359375 70.81640625 C-23.49183594 70.84992188 -24.30007813 70.8834375 -25.1328125 70.91796875 C-30.58481794 71.00661924 -33.84559175 70.37755268 -38.05859375 66.56640625 C-41.02891189 60.69066019 -40.38803747 54.4982441 -40.37109375 48.06640625 C-40.38720703 46.84308594 -40.40332031 45.61976563 -40.41992188 44.359375 C-40.42056641 43.17988281 -40.42121094 42.00039062 -40.421875 40.78515625 C-40.42485596 39.71201172 -40.42783691 38.63886719 -40.4309082 37.53320312 C-39.91370738 33.41187562 -38.17782262 30.84354612 -35.48046875 27.765625 C-31.56122667 25.82496804 -27.61090815 26.25498434 -23.30859375 26.37890625 C-21.97634766 26.39920898 -21.97634766 26.39920898 -20.6171875 26.41992188 C-18.43036797 26.45519316 -16.24479409 26.50447873 -14.05859375 26.56640625 C-14.08179688 25.39722656 -14.105 24.22804688 -14.12890625 23.0234375 C-14.14767196 21.47526683 -14.1658713 19.92708922 -14.18359375 18.37890625 C-14.20035156 17.60998047 -14.21710938 16.84105469 -14.234375 16.04882812 C-14.27071647 11.81504641 -14.27706483 8.30592487 -12.05859375 4.56640625 C-8.11298273 0.69145348 -5.47344967 0.04822895 0 0 Z M1.94140625 16.56640625 C1.915625 17.87996094 1.88984375 19.19351563 1.86328125 20.546875 C1.80698796 22.28258475 1.7496409 24.01826055 1.69140625 25.75390625 C1.67013672 27.05038086 1.67013672 27.05038086 1.6484375 28.37304688 C1.49055877 32.49368184 1.27041936 35.00779921 -0.85546875 38.6171875 C-4.03832854 41.43322835 -7.02345354 41.6630276 -11.16796875 41.8828125 C-11.92207031 41.92470703 -12.67617188 41.96660156 -13.453125 42.00976562 C-14.61908203 42.06874023 -14.61908203 42.06874023 -15.80859375 42.12890625 C-16.60136719 42.17208984 -17.39414062 42.21527344 -18.2109375 42.25976562 C-20.1599719 42.36543616 -22.10926123 42.46638591 -24.05859375 42.56640625 C-24.05859375 46.52640625 -24.05859375 50.48640625 -24.05859375 54.56640625 C-22.67285156 54.58058594 -21.28710938 54.59476563 -19.859375 54.609375 C-18.02991497 54.65628423 -16.2004889 54.70453157 -14.37109375 54.75390625 C-13.45908203 54.75970703 -12.54707031 54.76550781 -11.60742188 54.77148438 C-7.30197906 54.91238978 -4.68447168 55.18076429 -0.96484375 57.47265625 C1.76183738 61.89792563 1.72141497 65.77055482 1.75390625 70.87890625 C1.77904297 71.81025391 1.80417969 72.74160156 1.83007812 73.70117188 C1.88874377 75.9891322 1.91798809 78.27781374 1.94140625 80.56640625 C6.23140625 80.56640625 10.52140625 80.56640625 14.94140625 80.56640625 C14.95558594 79.18066406 14.96976562 77.79492188 14.984375 76.3671875 C15.03128423 74.53772747 15.07953157 72.7083014 15.12890625 70.87890625 C15.13470703 69.96689453 15.14050781 69.05488281 15.14648438 68.11523438 C15.28738978 63.80979156 15.55576429 61.19228418 17.84765625 57.47265625 C22.27292563 54.74597512 26.14555482 54.78639753 31.25390625 54.75390625 C32.18525391 54.72876953 33.11660156 54.70363281 34.07617188 54.67773438 C36.3641322 54.61906873 38.65281374 54.58982441 40.94140625 54.56640625 C40.94140625 50.60640625 40.94140625 46.64640625 40.94140625 42.56640625 C39.77222656 42.51742187 38.60304688 42.4684375 37.3984375 42.41796875 C35.85023821 42.34290454 34.30206224 42.2673583 32.75390625 42.19140625 C31.60051758 42.145 31.60051758 42.145 30.42382812 42.09765625 C25.32906792 41.83526517 21.19140465 41.49355719 17.171875 38.05078125 C15.22573719 34.12143633 15.36582397 30.14602332 15.25390625 25.81640625 C15.21974609 24.92824219 15.18558594 24.04007813 15.15039062 23.125 C15.06813083 20.93923986 15.00308591 18.75284392 14.94140625 16.56640625 C10.65140625 16.56640625 6.36140625 16.56640625 1.94140625 16.56640625 Z " fill="#000000" transform="translate(370.05859375,97.43359375)"/>
<path d="M0 0 C0.94140335 -0.01606293 1.8828067 -0.03212585 2.85273743 -0.04867554 C7.15279327 -0.09323261 11.45269693 -0.13418237 15.75292969 -0.15722656 C18.01963566 -0.17378964 20.28628934 -0.20108405 22.55273438 -0.23925781 C25.82473787 -0.29406524 29.09551903 -0.31590625 32.36791992 -0.33056641 C33.88226372 -0.36457047 33.88226372 -0.36457047 35.42720032 -0.39926147 C40.01595296 -0.38550749 43.29971008 -0.36594343 46.95019531 2.60888672 C52.05558445 8.10979669 51.85302857 13.05687971 51.66088867 20.36083984 C50.89338899 29.77230469 46.3121887 37.47512149 39.53588867 43.91552734 C33.00172789 49.27722782 25.16819814 51.88464339 16.69995117 51.54052734 C7.66669706 50.20504625 -0.46602172 46.1489897 -6.37036133 39.15771484 C-12.4393595 30.72359238 -14.83960728 21.53635587 -13.65161133 11.19287109 C-12.59685212 7.25366834 -10.98375392 3.69197804 -7.65161133 1.19287109 C-4.80712845 0.24471013 -2.95552146 0.04590731 0 0 Z M2.34838867 16.19287109 C3.33001391 24.04587298 4.00019545 26.94104172 9.34838867 32.19287109 C13.84970957 34.94367831 17.33091893 35.69036559 22.43041992 34.76318359 C26.9278345 33.42586684 29.6921314 30.97328515 32.66088867 27.44287109 C34.8918883 23.60595236 34.8918883 23.60595236 35.34838867 16.19287109 C24.45838867 16.19287109 13.56838867 16.19287109 2.34838867 16.19287109 Z " fill="#000000" transform="translate(172.651611328125,225.80712890625)"/>
<path d="M0 0 C2.57097751 2.17727794 2.99489484 2.98277008 4 6.375 C4 10 4 10 2 12.9375 C-1.69807735 15.47992818 -3.59358003 15.56081709 -8 15 C-8.63550781 14.65453125 -9.27101562 14.3090625 -9.92578125 13.953125 C-12.44883544 12.79375546 -13.89728447 12.93390403 -16.625 13.3125 C-17.78902344 13.46138672 -17.78902344 13.46138672 -18.9765625 13.61328125 C-21.05895686 13.91641199 -21.05895686 13.91641199 -23 15 C-26.83614957 15.35519903 -29.14629634 15.54724594 -32.4375 13.4375 C-34.63021887 10.01685857 -34.63007693 7.99048721 -34 4 C-26.25920617 -6.64359151 -10.39066893 -6.5961996 0 0 Z " fill="#000000" transform="translate(250,173)"/>
<path d="M0 0 C1.75390625 1.390625 1.75390625 1.390625 3 3 C3.75471698 9.79245283 3.75471698 9.79245283 1.4375 13.5 C-1.90028661 15.55402253 -4.14399755 15.41314312 -8 15 C-9.33333333 14.33333333 -10.66666667 13.66666667 -12 13 C-16.65145592 12.61975225 -16.65145592 12.61975225 -21 14 C-24.07505294 15.53752647 -26.62244827 15.30156712 -30 15 C-32.375 13.875 -32.375 13.875 -34 12 C-35.11662709 8.57567692 -35.28725108 6.75403409 -34 3.375 C-25.50565463 -6.71203513 -10.69080099 -5.96371175 0 0 Z " fill="#000000" transform="translate(164,173)"/>
<path d="M0 0 C4.51939873 1.04914613 4.51939873 1.04914613 6.5 3.8125 C6.8984375 6.58984375 6.8984375 6.58984375 6.875 9.75 C6.88273437 10.79027344 6.89046875 11.83054688 6.8984375 12.90234375 C6.45507613 16.14062045 5.7767304 17.50355172 3.5 19.8125 C-0.06898301 20.97629881 -1.78394777 21.12170437 -5.25 19.625 C-7.66345721 17.68082614 -8.60071529 16.75561359 -9.5 13.8125 C-9.95466086 8.81123056 -9.59261015 5.82143908 -6.5 1.8125 C-3.5 -0.1875 -3.5 -0.1875 0 0 Z " fill="#000000" transform="translate(149.5,195.1875)"/>
<path d="M0 0 C2.50799914 1.98910276 3.85085153 3.755466 4.23828125 6.98828125 C4.36738006 11.03111229 4.33436235 13.40557805 2.3125 17 C-0.33105441 19.28631733 -1.50897671 20 -5 20 C-10.63855422 17.72289157 -10.63855422 17.72289157 -12 15 C-12.14754174 13.21247508 -12.2211522 11.4183716 -12.25 9.625 C-12.27578125 8.66851562 -12.3015625 7.71203125 -12.328125 6.7265625 C-11.9477363 3.56571355 -11.20848261 2.26008267 -9 0 C-5.45026831 -1.1832439 -3.60040463 -0.90010116 0 0 Z " fill="#000000" transform="translate(239,196)"/>
</svg>
