<?xml version="1.0" encoding="UTF-8"?>
<svg version="1.1" xmlns="http://www.w3.org/2000/svg" width="512" height="512">
<path d="M0 0 C1.72445595 -0.0129007 1.72445595 -0.0129007 3.48374939 -0.02606201 C5.37736458 -0.03245193 5.37736458 -0.03245193 7.30923462 -0.03897095 C8.65130322 -0.04687398 9.9933697 -0.05514305 11.33543396 -0.06375122 C15.74285866 -0.08994231 20.15029275 -0.10527328 24.55776978 -0.11953735 C26.07541535 -0.12489773 27.59306087 -0.13027524 29.11070633 -0.13566971 C35.42276626 -0.15729179 41.73482366 -0.17602935 48.04691124 -0.1872921 C57.09241288 -0.20353891 66.13748553 -0.23674159 75.18282545 -0.29369295 C81.5438457 -0.33237856 87.90475113 -0.35192296 94.26588595 -0.35721266 C98.06513114 -0.36086732 101.86391848 -0.37290015 105.66303635 -0.4053154 C109.23696167 -0.43537343 112.81015153 -0.44171669 116.38417625 -0.42993164 C118.31914016 -0.42960547 120.25405852 -0.45408499 122.18885803 -0.47930908 C131.6480566 -0.41119886 131.6480566 -0.41119886 134.72784424 2.56536865 C137.32448217 6.41945418 137.92252825 8.46666196 137.47183228 13.15390015 C134.31393754 18.73284751 134.31393754 18.73284751 131.47183228 20.15390015 C129.77721651 20.25452425 128.07867459 20.29170115 126.38108826 20.29866028 C125.30302917 20.30555878 124.22497009 20.31245728 123.11424255 20.31956482 C121.92618515 20.32217819 120.73812775 20.32479156 119.5140686 20.32748413 C117.64318069 20.33751465 117.64318069 20.33751465 115.73449707 20.3477478 C113.01766959 20.36182754 110.30089618 20.37414982 107.58405495 20.3836956 C103.28469939 20.39914186 98.9854176 20.42309294 94.68611145 20.44859314 C82.45905217 20.51980569 70.23195007 20.5794945 58.00479126 20.63070679 C51.25459851 20.65905475 44.50447859 20.69446343 37.75436229 20.73736054 C33.48453866 20.76407005 29.21479743 20.78201426 24.94490683 20.79339778 C21.65541199 20.80470745 18.36600593 20.82881956 15.0765686 20.85092163 C13.30966423 20.85180534 13.30966423 20.85180534 11.50706482 20.85270691 C3.22882492 20.76428069 3.22882492 20.76428069 -4.52816772 23.15390015 C-10.66975364 44.64945085 -7.15562429 67.80129428 -7.52816772 90.15390015 C148.23183228 90.15390015 303.99183228 90.15390015 464.47183228 90.15390015 C465.85635352 56.22537257 465.85635352 56.22537257 461.47183228 23.15390015 C456.38224715 20.79971135 451.18527273 20.87469157 445.67837524 20.91439819 C444.82707031 20.91238403 443.97576538 20.91036987 443.09866333 20.90829468 C441.26154784 20.90476562 439.42442016 20.90549585 437.58730698 20.91007042 C434.67840396 20.91568767 431.76989606 20.90646706 428.86102295 20.89286804 C420.59471769 20.8558295 412.32855034 20.83722688 404.06216431 20.84848022 C398.99643965 20.85432974 393.93127573 20.83608504 388.86566544 20.80259132 C386.93838187 20.79463919 385.01103718 20.79591176 383.08376694 20.80661583 C380.39072275 20.82093709 377.69944666 20.80468162 375.00650024 20.78158569 C374.21260895 20.79335342 373.41871765 20.80512115 372.60076904 20.81724548 C368.52605683 20.74872317 366.70581763 20.34404164 363.50091553 17.7396698 C360.53740353 13.96310747 360.0091255 11.96605065 360.47183228 7.15390015 C363.62972701 1.57495278 363.62972701 1.57495278 366.47183228 0.15390015 C369.43937011 0.0342735 372.38412446 -0.02451464 375.35269165 -0.03897095 C376.27326355 -0.04714844 377.19383545 -0.05532593 378.14230347 -0.06375122 C381.20005644 -0.08863451 384.25776271 -0.10513346 387.31558228 -0.11953735 C388.88279778 -0.12752287 388.88279778 -0.12752287 390.48167419 -0.13566971 C396.0174486 -0.16242075 401.55320035 -0.18178482 407.08901978 -0.19619751 C412.79414905 -0.2128022 418.49869582 -0.25753957 424.20360565 -0.30856895 C428.59956483 -0.34231968 432.9953875 -0.35378385 437.39146423 -0.35942459 C439.4933057 -0.36612107 441.59513869 -0.38130111 443.69685364 -0.4053154 C464.60820677 -0.63051354 464.60820677 -0.63051354 472.47183228 5.15390015 C473.37933228 5.71077515 474.28683228 6.26765015 475.22183228 6.84140015 C480.64916099 12.419488 484.58609797 19.273819 484.61227417 27.1169281 C484.62083939 28.65384811 484.62083939 28.65384811 484.62957764 30.22181702 C484.6306955 31.34546158 484.63181335 32.46910614 484.63296509 33.62680054 C484.63792999 34.81086487 484.6428949 35.9949292 484.64801025 37.21487427 C484.66012149 40.46527023 484.66757857 43.71563021 484.67202091 46.96604466 C484.67495485 48.99987708 484.67906043 51.0337039 484.68352509 53.06753349 C484.69720248 59.43953553 484.70686607 65.81152471 484.71072698 72.1835404 C484.7151985 79.52206739 484.732703 86.86040727 484.76172757 94.19887739 C484.78341317 99.88057965 484.79343503 105.56222956 484.7947681 111.24397272 C484.79581188 114.63245398 484.80162707 118.02075943 484.81958771 121.40919685 C484.83670948 125.19801968 484.83475223 128.98639184 484.82827759 132.77523804 C484.84209976 134.43945045 484.84209976 134.43945045 484.85620117 136.13728333 C484.78424995 149.62989392 480.34180483 161.51906214 470.78433228 171.21640015 C468.40707646 173.48690527 466.21501767 175.32510988 463.47183228 177.15390015 C463.01620776 179.14183706 463.01620776 179.14183706 463.08707142 181.47612953 C463.07761488 182.38927787 463.06815834 183.30242622 463.05841523 184.24324572 C463.0656866 185.75781345 463.0656866 185.75781345 463.07310486 187.30297852 C463.06645803 188.37049453 463.0598112 189.43801055 463.05296296 190.53787553 C463.0342121 194.13865722 463.03694638 197.73911015 463.03945923 201.3399353 C463.03044946 203.911631 463.0201242 206.48332238 463.00857544 209.05500793 C462.98574424 214.60384365 462.97389658 220.15261641 462.96944618 225.70149612 C462.96299584 233.72428988 462.94007826 241.7469696 462.91310289 249.7697175 C462.86978931 262.78513216 462.83984871 275.80054203 462.81826782 288.81600952 C462.7972718 301.46154129 462.77000877 314.10703385 462.73428345 326.75253296 C462.73208462 327.53161336 462.7298858 328.31069376 462.72762034 329.11338265 C462.71655103 333.02168428 462.70535816 336.92998554 462.69410384 340.83828664 C462.60085406 373.27679186 462.52928613 405.71531148 462.47183228 438.15390015 C463.64101196 438.09589233 464.81019165 438.03788452 466.01480103 437.9781189 C467.56293807 437.93120565 469.11111845 437.88570717 470.65933228 437.84140015 C471.42825806 437.79950562 472.19718384 437.75761108 472.9894104 437.71444702 C477.32135048 437.62148693 478.9491914 437.74345364 482.48110962 440.5171814 C484.63546477 443.37063193 485.15191763 444.62843776 485.09683228 448.15390015 C485.1097229 448.97890015 485.12261353 449.80390015 485.13589478 450.65390015 C484.15206305 454.35773722 482.45267699 455.77499541 479.47183228 458.15390015 C476.46666575 458.64514619 474.03126383 458.82752168 471.03063965 458.78310585 C469.75288741 458.79400666 469.75288741 458.79400666 468.44932199 458.80512768 C465.58121776 458.82344496 462.71443952 458.80599117 459.84634399 458.78881836 C457.77493542 458.79457688 455.70353194 458.80251618 453.63213921 458.81245458 C447.9293607 458.83338794 442.22699886 458.82298311 436.52421856 458.80752349 C430.37824828 458.79624049 424.23235115 458.81365753 418.08639526 458.8274231 C406.73882995 458.84840467 395.39143508 458.84653972 384.04387397 458.83286575 C373.56149209 458.8202961 363.0791591 458.81700066 352.59677124 458.82297897 C351.5544561 458.82355186 351.5544561 458.82355186 350.49108408 458.82413632 C347.67046929 458.82569297 344.84985451 458.82728497 342.02923977 458.82893514 C315.56081006 458.84423581 289.09246528 458.83035388 262.62404868 458.80345066 C239.09995709 458.77972197 215.57600081 458.78184508 192.0519104 458.80575562 C165.63240799 458.83251926 139.21298065 458.84315077 112.79346657 458.8276943 C109.97794217 458.82609067 107.16241774 458.82452647 104.34689331 458.82297897 C103.30698542 458.82238589 103.30698542 458.82238589 102.2460693 458.82178083 C91.76936214 458.81608952 81.29270918 458.82275217 70.81600952 458.83537674 C58.90546365 458.84965741 46.99507764 458.84564997 35.08453798 458.81897302 C29.00394141 458.80580412 22.92361994 458.80073494 16.84302521 458.81721878 C11.28163218 458.83206745 5.72077048 458.82401398 0.15942597 458.79733102 C-1.85731852 458.79172447 -3.87410747 458.79463481 -5.8908236 458.80670996 C-8.6235205 458.82182275 -11.35437586 458.8064183 -14.0869751 458.78310585 C-14.8777922 458.79481168 -15.66860931 458.80651751 -16.48339057 458.81857806 C-20.51396193 458.74941985 -22.32276768 458.31782252 -25.51423836 455.77082479 C-27.70232441 452.92759881 -28.20842318 451.69024956 -28.15316772 448.15390015 C-28.16605835 447.32890015 -28.17894897 446.50390015 -28.19223022 445.65390015 C-27.20322892 441.93060111 -25.54561429 440.52359694 -22.52816772 438.15390015 C-19.56151573 437.55748829 -16.72623173 437.67737109 -13.71566772 437.84140015 C-12.92740601 437.86395874 -12.13914429 437.88651733 -11.32699585 437.90975952 C-9.39322844 437.96835853 -7.46044605 438.05803187 -5.52816772 438.15390015 C-5.42678609 405.05714863 -5.37803665 371.96080308 -5.3996967 338.86391557 C-5.40220986 334.95496203 -5.40428808 331.04600837 -5.40609741 327.13705444 C-5.40646492 326.35886478 -5.40683243 325.58067512 -5.40721108 324.77890395 C-5.412122 312.18482275 -5.38181238 299.59106074 -5.33844517 286.99706382 C-5.29471899 274.07069511 -5.28893815 261.14470934 -5.31824982 248.2182979 C-5.33513976 240.24417538 -5.32256968 232.27122364 -5.2720985 224.29723828 C-5.2365446 218.17863781 -5.25383249 212.06121463 -5.29068947 205.94264603 C-5.2975543 203.43566144 -5.2873509 200.92856264 -5.25873756 198.42173195 C-4.40143245 185.46183412 -4.40143245 185.46183412 -8.7176857 173.77819633 C-11.21298517 171.536409 -13.68664713 169.91119231 -16.52816772 168.15390015 C-23.24122162 160.08095443 -27.61597078 150.50074031 -27.68206787 139.95036316 C-27.69066833 138.92300049 -27.6992688 137.89563782 -27.70812988 136.83714294 C-27.71238983 135.72068893 -27.71664978 134.60423492 -27.72103882 133.45394897 C-27.72921631 132.26959259 -27.7373938 131.08523621 -27.74581909 129.86499023 C-27.77062372 125.94698421 -27.7873364 122.02898585 -27.80160522 118.1109314 C-27.80696925 116.75745832 -27.81234677 115.40398529 -27.81773758 114.05051231 C-27.8393511 108.41693069 -27.85808462 102.7833518 -27.86935997 97.14973927 C-27.88558154 89.10034599 -27.91873254 81.05143663 -27.97576082 73.0022257 C-28.0145731 67.32897956 -28.03400593 61.65586224 -28.03928053 55.9824869 C-28.0429187 52.60059486 -28.05477395 49.21922017 -28.08738327 45.83747292 C-28.11907346 42.05821815 -28.11906474 38.28017726 -28.11166382 34.50082397 C-28.12806915 33.39449112 -28.14447449 32.28815826 -28.16137695 31.14830017 C-28.09163356 22.41652854 -25.33009738 16.72000774 -20.84066772 9.40390015 C-15.01696269 3.73759254 -8.13827298 0.04530243 0 0 Z M-7.52816772 111.15390015 C-8.97052885 133.94983864 -8.97052885 133.94983864 -0.32504272 154.40390015 C6.63193426 161.17939078 13.76736996 164.09278617 23.34683228 164.46640015 C32.33881217 164.23194668 40.01073288 161.50407938 46.47183228 155.15390015 C57.32795246 142.56080073 54.47183228 127.41179009 54.47183228 111.15390015 C34.01183228 111.15390015 13.55183228 111.15390015 -7.52816772 111.15390015 Z M74.47183228 111.15390015 C73.02947115 133.94983864 73.02947115 133.94983864 81.67495728 154.40390015 C88.63193426 161.17939078 95.76736996 164.09278617 105.34683228 164.46640015 C114.33881217 164.23194668 122.01073288 161.50407938 128.47183228 155.15390015 C139.32795246 142.56080073 136.47183228 127.41179009 136.47183228 111.15390015 C116.01183228 111.15390015 95.55183228 111.15390015 74.47183228 111.15390015 Z M156.47183228 111.15390015 C155.02947115 133.94983864 155.02947115 133.94983864 163.67495728 154.40390015 C170.63193426 161.17939078 177.76736996 164.09278617 187.34683228 164.46640015 C196.33881217 164.23194668 204.01073288 161.50407938 210.47183228 155.15390015 C221.32795246 142.56080073 218.47183228 127.41179009 218.47183228 111.15390015 C198.01183228 111.15390015 177.55183228 111.15390015 156.47183228 111.15390015 Z M238.47183228 111.15390015 C237.02947115 133.94983864 237.02947115 133.94983864 245.67495728 154.40390015 C252.63193426 161.17939078 259.76736996 164.09278617 269.34683228 164.46640015 C278.33881217 164.23194668 286.01073288 161.50407938 292.47183228 155.15390015 C303.32795246 142.56080073 300.47183228 127.41179009 300.47183228 111.15390015 C280.01183228 111.15390015 259.55183228 111.15390015 238.47183228 111.15390015 Z M320.47183228 111.15390015 C319.02947115 133.94983864 319.02947115 133.94983864 327.67495728 154.40390015 C334.63193426 161.17939078 341.76736996 164.09278617 351.34683228 164.46640015 C360.33881217 164.23194668 368.01073288 161.50407938 374.47183228 155.15390015 C385.32795246 142.56080073 382.47183228 127.41179009 382.47183228 111.15390015 C362.01183228 111.15390015 341.55183228 111.15390015 320.47183228 111.15390015 Z M402.47183228 111.15390015 C401.02947115 133.94983864 401.02947115 133.94983864 409.67495728 154.40390015 C416.63193426 161.17939078 423.76736996 164.09278617 433.34683228 164.46640015 C442.33881217 164.23194668 450.01073288 161.50407938 456.47183228 155.15390015 C467.32795246 142.56080073 464.47183228 127.41179009 464.47183228 111.15390015 C444.01183228 111.15390015 423.55183228 111.15390015 402.47183228 111.15390015 Z M62.09683228 168.47421265 C61.56058228 169.06975952 61.02433228 169.6653064 60.47183228 170.27890015 C52.07410294 178.88570158 42.13465253 182.48778297 30.47183228 184.15390015 C25.19183228 184.15390015 19.91183228 184.15390015 14.47183228 184.15390015 C14.47183228 267.97390015 14.47183228 351.79390015 14.47183228 438.15390015 C25.69183228 438.15390015 36.91183228 438.15390015 48.47183228 438.15390015 C48.48213974 435.51713791 48.4924472 432.88037567 48.50306702 430.16371155 C48.6004657 405.36791275 48.70329628 380.57214077 48.81117153 355.77638531 C48.86650555 343.02731438 48.91998785 330.27824065 48.96914673 317.52914429 C49.01198636 306.42011843 49.05826381 295.31111319 49.10871083 284.20211917 C49.13531352 278.31722937 49.16016667 272.43234367 49.1809063 266.54743004 C49.20046531 261.01290452 49.22460693 255.47841826 49.25232315 249.94392776 C49.26169747 247.90853525 49.26937138 245.87313411 49.27525139 243.8377285 C49.28350606 241.06678891 49.29778101 238.29594477 49.31361389 235.52503967 C49.314592 234.71278811 49.31557011 233.90053654 49.31657785 233.06367129 C49.34043617 229.83443262 49.44327339 227.23957681 50.47183228 224.15390015 C53.89239699 223.01371191 56.50594444 223.02803396 60.1144104 223.0269165 C60.79272667 223.02535651 61.47104294 223.02379652 62.16991425 223.02218926 C64.44765888 223.01819387 66.72533712 223.02136327 69.00308228 223.02450562 C70.63410481 223.02315093 72.26512704 223.02137061 73.89614868 223.01919556 C78.32992297 223.01462926 82.76367403 223.0164075 87.19744873 223.01957464 C91.83253035 223.02210237 96.46760995 223.01975955 101.10269165 223.01818848 C108.8872005 223.01636799 116.67169987 223.01876992 124.45620728 223.02352905 C133.46244822 223.02897144 142.46866653 223.0272087 151.47490692 223.02170265 C159.20064233 223.01716807 166.92637092 223.01652266 174.65210724 223.01914132 C179.26934683 223.02070219 183.88657578 223.02090302 188.5038147 223.01760483 C192.84413719 223.01472113 197.18443043 223.01671103 201.52474976 223.02249908 C203.11992341 223.023824 204.71509953 223.0234371 206.31027222 223.02123642 C208.4832997 223.01851441 210.65623273 223.02191899 212.82925415 223.0269165 C214.0467334 223.02729353 215.26421265 223.02767056 216.51858521 223.02805901 C219.47183228 223.15390015 219.47183228 223.15390015 222.47183228 224.15390015 C223.74278777 227.96676663 223.6252691 231.55165993 223.63005066 235.52503967 C223.63498032 236.38714554 223.63990997 237.2492514 223.64498901 238.13748169 C223.66041087 241.04619135 223.6687383 243.95487916 223.67715454 246.86361694 C223.68686674 248.97658133 223.69701203 251.08954376 223.70755672 253.20250416 C223.73465422 258.87301997 223.7558055 264.54354355 223.77574921 270.21408844 C223.79534138 275.53050898 223.82026387 280.84689924 223.84475708 286.16329956 C223.91332046 301.72264368 223.97329901 317.28202467 224.03433228 332.84140015 C224.17870728 367.59452515 224.32308228 402.34765015 224.47183228 438.15390015 C296.41183228 438.15390015 368.35183228 438.15390015 442.47183228 438.15390015 C442.47183228 420.99390015 442.47183228 403.83390015 442.47183228 386.15390015 C437.24685913 386.12884399 432.02188599 386.10378784 426.63858032 386.07797241 C409.41172021 385.99464798 392.18489061 385.90599301 374.95807171 385.81456089 C364.50930088 385.75923465 354.06052663 385.70575362 343.61172485 385.65658569 C334.5067283 385.61373653 325.40175682 385.56745667 316.296799 385.5170216 C311.47384638 385.49042658 306.65089872 385.46557362 301.8279171 385.44482613 C297.29144964 385.42525703 292.7550299 385.40111237 288.21860504 385.37340927 C286.55087716 385.3640403 284.8831388 385.35636446 283.21539497 385.35048103 C280.94365905 385.34221726 278.67203885 385.32793982 276.40034485 385.31211853 C275.12734874 385.30566598 273.85435263 385.29921343 272.54278088 385.29256535 C269.47183228 385.15390015 269.47183228 385.15390015 266.47183228 384.15390015 C265.37353368 380.85900435 265.3460074 378.43675722 265.34484863 374.96688843 C265.34202881 373.67132019 265.33920898 372.37575195 265.33630371 371.04092407 C265.33824808 369.60202012 265.34029626 368.16311631 265.34243774 366.72421265 C265.34108297 365.21141518 265.33930261 363.69861804 265.33712769 362.18582153 C265.33256242 358.07435042 265.33433921 353.96290436 265.33750677 349.8514328 C265.34003503 345.55267773 265.33769153 341.25392483 265.33612061 336.95516968 C265.33430028 329.73560195 265.33670164 322.51604445 265.34146118 315.29647827 C265.34690354 306.94461561 265.34514079 298.59277737 265.33963478 290.2409153 C265.33509976 283.07568464 265.33445501 275.91046135 265.33707345 268.74522972 C265.33863407 264.46333796 265.33883582 260.18145768 265.33553696 255.89956665 C265.33265262 251.87442123 265.33464433 247.84930735 265.34043121 243.82416534 C265.34175578 242.34509585 265.34136981 240.86602371 265.33916855 239.38695526 C265.33644523 237.37160841 265.34046221 235.35625578 265.34484863 233.34091187 C265.34541417 231.64743118 265.34541417 231.64743118 265.34599113 229.91973877 C265.47183228 227.15390015 265.47183228 227.15390015 266.47183228 224.15390015 C269.9643394 222.98973111 272.71338282 223.0143702 276.40034485 222.99568176 C277.4638716 222.9882748 277.4638716 222.9882748 278.54888374 222.9807182 C280.93034271 222.96533091 283.3117747 222.95697925 285.69326782 222.94857788 C287.39812457 222.93900032 289.10297895 222.92899031 290.80783081 222.9185791 C295.44178768 222.89151072 300.07575476 222.87051162 304.70974708 222.85057712 C309.55044912 222.8287295 314.39111964 222.80133482 319.23179626 222.77452087 C328.40087305 222.72457743 337.56996732 222.67964472 346.73907834 222.63649851 C357.17669685 222.58714025 367.61428373 222.53221689 378.05187166 222.47681892 C399.52516383 222.3629735 420.99848503 222.25687474 442.47183228 222.15390015 C442.47183228 209.61390015 442.47183228 197.07390015 442.47183228 184.15390015 C437.19183228 184.15390015 431.91183228 184.15390015 426.47183228 184.15390015 C412.85725743 182.25419203 403.0621434 176.95924067 393.47183228 167.15390015 C390.39448243 168.52989578 388.27129386 170.13994871 385.84683228 172.46640015 C374.01104709 183.06561076 359.75365035 184.81981177 344.47183228 184.15390015 C330.97438894 182.65418422 320.86483528 176.7575086 311.47183228 167.15390015 C308.39448243 168.52989578 306.27129386 170.13994871 303.84683228 172.46640015 C292.01104709 183.06561076 277.75365035 184.81981177 262.47183228 184.15390015 C248.97438894 182.65418422 238.86483528 176.7575086 229.47183228 167.15390015 C226.39448243 168.52989578 224.27129386 170.13994871 221.84683228 172.46640015 C210.01104709 183.06561076 195.75365035 184.81981177 180.47183228 184.15390015 C166.97438894 182.65418422 156.86483528 176.7575086 147.47183228 167.15390015 C144.39448243 168.52989578 142.27129386 170.13994871 139.84683228 172.46640015 C128.01104709 183.06561076 113.75365035 184.81981177 98.47183228 184.15390015 C86.18320696 182.78849733 75.91873305 177.86056615 67.33901978 168.93515015 C65.15777333 166.8542958 64.35503352 166.30582623 62.09683228 168.47421265 Z M68.47183228 242.15390015 C68.47183228 306.83390015 68.47183228 371.51390015 68.47183228 438.15390015 C113.35183228 438.15390015 158.23183228 438.15390015 204.47183228 438.15390015 C204.47183228 373.47390015 204.47183228 308.79390015 204.47183228 242.15390015 C159.59183228 242.15390015 114.71183228 242.15390015 68.47183228 242.15390015 Z M284.47183228 242.15390015 C284.47183228 283.07390015 284.47183228 323.99390015 284.47183228 366.15390015 C336.61183228 366.15390015 388.75183228 366.15390015 442.47183228 366.15390015 C442.47183228 325.23390015 442.47183228 284.31390015 442.47183228 242.15390015 C390.33183228 242.15390015 338.19183228 242.15390015 284.47183228 242.15390015 Z " fill="#000000" transform="translate(27.528167724609375,53.846099853515625)"/>
<path d="M0 0 C8.81569767 6.36031879 15.3686394 14.71931095 17.578125 25.4921875 C19.01229772 38.17065089 17.3506189 48.79185135 9.53811646 59.10441589 C5.55394851 63.95815292 1.05797875 68.34193172 -3.375 72.78125 C-4.44120099 73.85389468 -5.50725867 74.92668183 -6.57318115 75.99960327 C-8.79867736 78.23700829 -11.02820021 80.47030961 -13.26025391 82.70117188 C-16.09896948 85.53968424 -18.92366644 88.39171482 -21.74501419 91.24747658 C-23.93963616 93.46448989 -26.14344559 95.67219742 -28.34981537 97.87751389 C-29.39428357 98.92431845 -30.43556683 99.97431224 -31.47336578 101.02772903 C-40.98483217 110.66889482 -50.42175087 118.5707652 -64.5234375 118.87280273 C-76.93184883 118.84037166 -86.21804626 116.27845123 -95.421875 107.4921875 C-104.00509191 98.50105534 -107.04403012 89.00120367 -106.89477539 76.77172852 C-106.22581605 60.56985962 -96.17282328 50.91546713 -85.3203125 39.984375 C-84.78916462 39.44757236 -84.25801674 38.91076973 -83.71077347 38.35770035 C-80.90126704 35.51839591 -78.08620023 32.68475161 -75.26611328 29.85595703 C-72.38140866 26.96029167 -69.5157405 24.04653392 -66.65415001 21.12804985 C-64.42503045 18.8613816 -62.18231251 16.60853299 -59.93587112 14.35904312 C-58.87449845 13.29168578 -57.81804388 12.21941092 -56.76704025 11.14184189 C-41.49685092 -4.48656397 -19.99665964 -12.44953326 0 0 Z M-42.359375 27.2421875 C-43.04322266 27.93957031 -43.72707031 28.63695312 -44.43164062 29.35546875 C-46.10215226 31.06102608 -47.76519892 32.77320634 -49.421875 34.4921875 C-47.83756047 38.40069949 -45.15552405 41.01586106 -42.1953125 43.9140625 C-41.43379379 44.67133636 -41.43379379 44.67133636 -40.65689087 45.44390869 C-39.04153658 47.04810846 -37.41935291 48.64519606 -35.796875 50.2421875 C-34.69745802 51.33156857 -33.59849441 52.4214074 -32.5 53.51171875 C-29.8125148 56.17720635 -27.11888479 58.83633893 -24.421875 61.4921875 C-19.84432028 59.42277081 -16.86378181 56.26478957 -13.359375 52.7421875 C-12.73482422 52.13375 -12.11027344 51.5253125 -11.46679688 50.8984375 C-6.46379759 45.90077759 -2.99505787 41.41518772 -2.984375 34.0546875 C-3.1728979 28.01375817 -4.56420178 24.357322 -8.91796875 19.9921875 C-13.05941055 16.35680717 -16.26998815 15.32303366 -21.671875 15.1796875 C-23.04085937 15.12361328 -23.04085937 15.12361328 -24.4375 15.06640625 C-32.21799416 16.17645057 -37.1554003 21.83904203 -42.359375 27.2421875 Z M-72.13867188 56.88671875 C-72.87150391 57.62277344 -73.60433594 58.35882813 -74.359375 59.1171875 C-75.08833984 59.83003906 -75.81730469 60.54289062 -76.56835938 61.27734375 C-81.87059262 66.57471702 -85.84799075 71.08594223 -85.859375 78.9296875 C-85.6708521 84.97061683 -84.27954822 88.627053 -79.92578125 92.9921875 C-75.78433945 96.62756783 -72.57376185 97.66134134 -67.171875 97.8046875 C-66.25921875 97.84207031 -65.3465625 97.87945312 -64.40625 97.91796875 C-56.62575584 96.80792443 -51.6883497 91.14533297 -46.484375 85.7421875 C-45.80052734 85.04480469 -45.11667969 84.34742188 -44.41210938 83.62890625 C-42.74159774 81.92334892 -41.07855108 80.21116866 -39.421875 78.4921875 C-41.00599406 74.609498 -43.65053138 71.97354385 -46.578125 69.0703125 C-47.33252869 68.31303864 -47.33252869 68.31303864 -48.10217285 67.54046631 C-49.16217486 66.47910753 -50.22468988 65.42025331 -51.28955078 64.36376953 C-52.92327546 62.74079626 -54.54600794 61.10737682 -56.16796875 59.47265625 C-57.19987976 58.44206604 -58.23241059 57.41209598 -59.265625 56.3828125 C-59.75212524 55.89226379 -60.23862549 55.40171509 -60.73986816 54.89630127 C-66.07256972 49.63767158 -67.42781614 52.22344742 -72.13867188 56.88671875 Z " fill="#000000" transform="translate(300.421875,5.5078125)"/>
<path d="M0 0 C5.53846154 3.07692308 5.53846154 3.07692308 7 6 C7.08573394 8.25120742 7.10712188 10.50499303 7.09765625 12.7578125 C7.0962413 13.42086395 7.09482635 14.08391541 7.09336853 14.76705933 C7.08776754 16.88641863 7.075215 19.00567259 7.0625 21.125 C7.05748512 22.56119639 7.05292219 23.99739444 7.04882812 25.43359375 C7.03779782 28.95576345 7.02053259 32.47787145 7 36 C7.78125244 35.98428955 8.56250488 35.9685791 9.36743164 35.95239258 C12.93237979 35.88974761 16.49721177 35.85091511 20.0625 35.8125 C21.29162109 35.78736328 22.52074219 35.76222656 23.78710938 35.73632812 C30.26857778 35.68391733 35.35419389 35.64780262 41 39 C43.30479842 41.75088844 43.93080325 43.44642599 44.375 47 C43.94697195 50.42422442 43.06082066 52.25223913 41 55 C37.27459338 57.48360441 35.36937027 57.2315867 30.92578125 57.1953125 C30.2419487 57.1924826 29.55811615 57.18965271 28.8535614 57.18673706 C26.67302835 57.17555684 24.49290855 57.15045691 22.3125 57.125 C20.83268823 57.11496738 19.35287001 57.10584202 17.87304688 57.09765625 C14.248564 57.07562481 10.62432234 57.04111002 7 57 C7.02618408 57.91289795 7.05236816 58.8257959 7.0793457 59.76635742 C7.16478542 63.16772344 7.22734999 66.56794258 7.2746582 69.9699707 C7.29973644 71.43955525 7.33380856 72.90901587 7.37719727 74.37817383 C7.43815499 76.49591681 7.46627316 78.61200576 7.48828125 80.73046875 C7.51446533 82.00301514 7.54064941 83.27556152 7.56762695 84.58666992 C6.85312722 88.883195 5.32885212 90.29513145 2 93 C-0.86608129 94.43304064 -2.81300783 94.30644155 -6 94 C-9.64200886 92.17899557 -11.55631286 91.04934345 -13.15966797 87.25732422 C-14.03658055 83.85820518 -14.22868822 81.01226266 -14.1953125 77.5078125 C-14.18886719 76.30898438 -14.18242187 75.11015625 -14.17578125 73.875 C-14.15902344 72.6375 -14.14226562 71.4 -14.125 70.125 C-14.11597656 68.86429687 -14.10695313 67.60359375 -14.09765625 66.3046875 C-14.07415808 63.2029296 -14.04130334 60.10156348 -14 57 C-14.88260498 57.02094727 -15.76520996 57.04189453 -16.67456055 57.06347656 C-19.96405569 57.13184095 -23.25279094 57.18188949 -26.54272461 57.21972656 C-27.96374457 57.23978421 -29.38468259 57.26703778 -30.80541992 57.30175781 C-32.85355895 57.35054011 -34.90060275 57.37302539 -36.94921875 57.390625 C-38.17987061 57.41157227 -39.41052246 57.43251953 -40.6784668 57.45410156 C-44.6067137 56.91705347 -46.21246252 55.75963324 -49 53 C-50.60553944 49.78892113 -50.47469056 46.48329272 -50 43 C-48.10237626 39.64266569 -46.81585406 38.33168912 -43.24365234 36.87939453 C-39.90551894 35.97438501 -37.17651722 35.77052953 -33.7265625 35.8046875 C-31.99599609 35.81435547 -31.99599609 35.81435547 -30.23046875 35.82421875 C-29.04066406 35.84097656 -27.85085938 35.85773438 -26.625 35.875 C-25.41199219 35.88402344 -24.19898438 35.89304687 -22.94921875 35.90234375 C-19.96594227 35.92583412 -16.98307406 35.95868318 -14 36 C-14.01571045 35.24904053 -14.0314209 34.49808105 -14.04760742 33.72436523 C-14.11027758 30.29548789 -14.14909261 26.86673145 -14.1875 23.4375 C-14.21263672 22.25607422 -14.23777344 21.07464844 -14.26367188 19.85742188 C-14.32483007 12.57959703 -14.34549712 6.70394324 -9.25 1.0625 C-5.94108701 -0.50004225 -3.62002488 -0.43689955 0 0 Z " fill="#000000" transform="translate(394,311)"/>
<path d="M0 0 C2.8100346 1.79363911 4.50940468 3.01880935 6 6 C6.114249 8.87195576 6.16786269 11.72020876 6.17700195 14.59301758 C6.18357315 15.48260666 6.19014435 16.37219574 6.19691467 17.28874207 C6.21666937 20.24067259 6.22831486 23.19255221 6.23828125 26.14453125 C6.24235678 27.15145208 6.2464323 28.15837292 6.25063133 29.1958065 C6.27150095 34.5248227 6.28579903 39.85381308 6.29516602 45.18286133 C6.30623469 50.69110164 6.34063747 56.19893844 6.38033772 61.70703602 C6.40646488 65.93894713 6.41485437 70.17076152 6.41844749 74.4027462 C6.42332324 76.43334365 6.4349652 78.4639365 6.45348549 80.49445534 C6.47779473 83.33622976 6.47692696 86.17695259 6.4699707 89.01879883 C6.48278076 89.8579483 6.49559082 90.69709778 6.50878906 91.56167603 C6.47296479 95.575943 6.30052941 97.52675497 4.09562683 100.99882507 C0.84953824 104.09860935 -1.47242908 104.33377337 -5.9609375 104.29296875 C-9.13134567 103.83745033 -10.8192402 102.24684343 -13 100 C-14.64854797 96.70290406 -14.16546889 93.03225036 -14.17700195 89.40698242 C-14.18685875 88.0725988 -14.18685875 88.0725988 -14.19691467 86.71125793 C-14.21666937 83.75932741 -14.22831486 80.80744779 -14.23828125 77.85546875 C-14.24235678 76.84854792 -14.2464323 75.84162708 -14.25063133 74.8041935 C-14.27150095 69.4751773 -14.28579903 64.14618692 -14.29516602 58.81713867 C-14.30623469 53.30889836 -14.34063747 47.80106156 -14.38033772 42.29296398 C-14.40646488 38.06105287 -14.41485437 33.82923848 -14.41844749 29.5972538 C-14.42332324 27.56665635 -14.4349652 25.5360635 -14.45348549 23.50554466 C-14.47779473 20.66377024 -14.47692696 17.82304741 -14.4699707 14.98120117 C-14.48278076 14.1420517 -14.49559082 13.30290222 -14.50878906 12.43832397 C-14.47296479 8.424057 -14.30052941 6.47324503 -12.09562683 3.00117493 C-8.46304159 -0.46768622 -4.86625665 -0.69917481 0 0 Z " fill="#000000" transform="translate(138,323)"/>
<path d="M0 0 C3.02182284 2.05741129 4.69011377 3.49949825 5.4453125 7.15625 C5.65056702 11.26134032 5.33688603 13.46098235 3.125 17 C-0.14840013 20.08084718 -2.46126475 20.33387487 -6.9609375 20.29296875 C-10.13134567 19.83745033 -11.8192402 18.24684343 -14 16 C-15.73765543 12.52468913 -15.59585352 8.7911999 -15 5 C-10.58053726 -0.73335706 -6.94670018 -1.6767897 0 0 Z " fill="#000000" transform="translate(139,445)"/>
<path d="M0 0 C3.125 1.875 3.125 1.875 5 5 C5.98876625 10.02622846 5.7769173 13.70513784 3.125 18.125 C-1.29486216 20.7769173 -4.97377154 20.98876625 -10 20 C-13.125 18.125 -13.125 18.125 -15 15 C-15.98876625 9.97377154 -15.7769173 6.29486216 -13.125 1.875 C-8.70513784 -0.7769173 -5.02622846 -0.98876625 0 0 Z " fill="#000000" transform="translate(205,384)"/>
</svg>
