<?xml version="1.0" encoding="UTF-8"?>
<svg version="1.1" xmlns="http://www.w3.org/2000/svg" width="512" height="512">
<path d="M0 0 C1.9449234 -0.00856522 1.9449234 -0.00856522 3.92913818 -0.01730347 C5.3591155 -0.01854869 6.78909293 -0.01967381 8.21907043 -0.02069092 C9.73065817 -0.02532221 11.24224474 -0.03034729 12.75382996 -0.03573608 C16.85531375 -0.04883342 20.95678119 -0.05530001 25.05828261 -0.05974674 C27.62380107 -0.06268221 30.1893151 -0.06678794 32.75483131 -0.07125092 C40.79057105 -0.08491977 48.82630063 -0.09458902 56.86205119 -0.09845281 C66.12149835 -0.10293006 75.38079763 -0.12046503 84.64019984 -0.1494534 C91.80812892 -0.1711108 98.97601651 -0.18115927 106.14397794 -0.18249393 C110.41996885 -0.18353919 114.69582065 -0.18938725 118.97177696 -0.20731354 C122.99785339 -0.22386424 127.02368717 -0.22591602 131.04978561 -0.21717453 C132.52108602 -0.21640784 133.99239985 -0.22069787 135.46366692 -0.23063278 C149.02612272 -0.31678678 158.22010883 1.41765795 168.26911926 10.69903564 C175.89947581 18.65368235 177.17688442 28.74231517 177.08955383 39.32281494 C177.0957938 40.50051547 177.10203376 41.678216 177.10846281 42.89160442 C177.12157031 46.1293766 177.1169715 49.36653923 177.10451794 52.60429525 C177.09541465 56.10812561 177.10946314 59.61187768 177.12043762 63.11569214 C177.13817151 69.96733079 177.13440587 76.81879362 177.12278706 83.670439 C177.11373272 89.24170254 177.11253736 94.812917 177.11688232 100.38418579 C177.11749526 101.17882349 177.11810819 101.97346118 177.11873969 102.79217881 C177.12001867 104.40675491 177.12131552 106.02133099 177.12263006 107.63590705 C177.13402082 122.75574248 177.12094581 137.8754807 177.09942859 152.99530017 C177.08155897 165.95290909 177.0846635 178.91037463 177.10310364 191.86798096 C177.12453697 206.93579497 177.13292233 222.00352392 177.12065458 237.07135105 C177.11938046 238.67980002 177.11812298 240.288249 177.11688232 241.896698 C177.11595667 243.08360459 177.11595667 243.08360459 177.11501232 244.29448909 C177.1115668 249.85541472 177.1173705 255.41628614 177.12680054 260.97720337 C177.13804933 267.75936154 177.13492024 274.54133466 177.11367756 281.32347178 C177.10320563 284.78011931 177.09897869 288.23645894 177.11227417 291.69310379 C177.12324069 295.44839707 177.1094507 299.20283004 177.08955383 302.95806885 C177.09847672 304.03911738 177.10739961 305.12016592 177.11659288 306.2339735 C177.0076267 316.87190641 173.99152372 326.32085522 166.58161926 334.14044189 C157.05601056 342.91041336 145.71765161 342.53522699 133.51911926 342.32794189 C131.97030416 342.31286709 130.42147485 342.29918363 128.87263489 342.28692627 C125.10860749 342.25414328 121.34527288 342.20251687 117.58161926 342.14044189 C117.60256653 342.78070313 117.62351379 343.42096436 117.64509583 344.08062744 C117.72851211 346.99623765 117.78035895 349.91159641 117.83161926 352.82794189 C117.8818927 354.33904541 117.8818927 354.33904541 117.93318176 355.88067627 C118.0307668 363.2727427 118.0307668 363.2727427 116.14802551 366.90997314 C112.34438958 370.21572066 108.36274162 373.20432655 104.26911926 376.14044189 C103.43960754 376.74372314 102.61009583 377.34700439 101.75544739 377.96856689 C100.12803057 379.15027445 98.49717262 380.32725996 96.86262512 381.49908447 C95.41264122 382.54245831 93.9698188 383.59591364 92.53694153 384.66265869 C88.83886001 387.39623594 86.22386639 388.80076528 81.58161926 389.14044189 C85.30043098 392.08984429 88.06808442 393.26204211 92.81228638 393.28088379 C93.67439728 393.28659393 94.53650818 393.29230408 95.42474365 393.29818726 C96.36765762 393.29930511 97.31057159 393.30042297 98.28205872 393.30157471 C99.27747681 393.30653961 100.2728949 393.31150452 101.29847717 393.31661987 C104.59729194 393.33124581 107.89605862 393.33804429 111.19490051 393.34356689 C113.48552451 393.34931805 115.77614849 393.35507579 118.06677246 393.36083984 C122.87274907 393.3713511 127.67870894 393.37719294 132.48469543 393.38067627 C138.64178392 393.38616079 144.79865124 393.41018759 150.95567036 393.43864822 C155.68859503 393.45727555 160.42146644 393.46248026 165.15442467 393.46401215 C167.42421363 393.46703905 169.69400164 393.47506882 171.96375465 393.48819733 C175.14033946 393.50525918 178.31638413 393.503377 181.49299622 393.49688721 C182.42983749 393.50610199 183.36667877 393.51531677 184.33190918 393.52481079 C189.46153369 393.49199591 193.23883287 393.18098584 197.58161926 390.14044189 C200.41120892 386.30338295 200.95710012 383.57532244 200.9601593 378.84941101 C200.9724633 376.94668678 200.9724633 376.94668678 200.98501587 375.00552368 C200.97905767 373.60705457 200.9728386 372.20858654 200.96638489 370.81011963 C200.97049193 369.33133018 200.97595359 367.85254396 200.98266602 366.37376404 C200.99438326 363.19205566 200.99687796 360.01052072 200.99230957 356.82879448 C200.98548884 351.78846808 201.00138935 346.74836876 201.02070618 341.70808411 C201.05855839 330.99804896 201.07134716 320.28803364 201.08161926 309.57794189 C201.09270523 298.03828947 201.10822159 286.49874219 201.15233183 274.95916134 C201.17059558 269.95890025 201.17461319 264.95889961 201.16739655 259.95861328 C201.16586372 256.83211687 201.17672792 253.70574806 201.19077492 250.57928658 C201.19474376 249.14108896 201.19371112 247.7028664 201.18700218 246.26467896 C201.12683481 232.28001965 202.80850904 219.46054876 212.69099426 208.88262939 C222.20856595 199.98862275 232.23206634 196.58746641 245.20271301 196.82794189 C257.95891262 198.00770602 266.69848034 204.30765431 274.81990051 213.76934814 C279.86526616 220.55989571 281.69889172 227.70021738 281.71965027 236.07202148 C281.72510361 237.26069824 281.73055695 238.449375 281.73617554 239.67407227 C281.73721786 240.96976135 281.73826019 242.26545044 281.73933411 243.60040283 C281.74400595 244.9855363 281.74915012 246.37066824 281.75473022 247.75579834 C281.76598768 250.73447271 281.77443322 253.71313721 281.78084946 256.69182587 C281.79155868 261.40782868 281.81181176 266.12376049 281.83396912 270.83972168 C281.89579369 284.24884787 281.94986687 297.65796958 281.98298645 311.06719971 C282.00136624 318.47630803 282.03034335 325.88529698 282.07099116 333.29431748 C282.09200324 337.21086745 282.10751019 341.12726736 282.10979843 345.04387665 C282.11195525 348.73103193 282.12792912 352.41787475 282.15418816 356.10493469 C282.1647362 358.09149431 282.16064392 360.07811506 282.15600586 362.06469727 C282.24347225 371.52615502 283.19284285 379.49689418 289.83552551 386.63653564 C295.34471451 391.38158657 302.07423415 393.52968784 309.29646301 393.42169189 C316.24026638 392.56706994 322.17795619 389.58026098 326.58161926 384.14044189 C333.53661213 375.19830821 332.88587271 365.32841389 332.90046692 354.54473877 C332.90977574 352.96721895 332.91994582 351.38970402 332.9309082 349.81219482 C332.95811477 345.54835206 332.97332979 341.28454216 332.98633623 337.0206356 C333.00200781 332.55764387 333.02878513 328.09471885 333.05436707 323.6317749 C333.1010837 315.1888999 333.13786218 306.74601224 333.17103994 298.30307436 C333.20931169 288.68755284 333.25870857 279.07209844 333.3090241 269.45663357 C333.41223809 249.68461929 333.50153264 229.91256249 333.58161926 210.14044189 C332.63923401 209.99421387 331.69684875 209.84798584 330.72590637 209.69732666 C323.3161192 208.38497908 317.75782516 204.06564868 313.08552551 198.32012939 C308.12578687 191.13172897 306.499964 183.87927956 306.38874817 175.2144165 C306.36465378 173.49749855 306.36465378 173.49749855 306.34007263 171.74589539 C306.29539504 166.55801443 306.2541945 161.37021541 306.23152161 156.18218994 C306.21814379 153.44389735 306.19020441 150.70634318 306.14949036 147.96832275 C306.09071694 144.01399739 306.07287249 140.06003275 306.05818176 136.10528564 C306.03551239 134.8812352 306.01284302 133.65718475 305.98948669 132.39604187 C306.01052303 123.9708417 306.01052303 123.9708417 308.84480286 119.84967041 C312.86322123 117.34004088 314.94923264 117.74786676 319.58161926 118.14044189 C319.56590881 117.5607666 319.55019836 116.98109131 319.53401184 116.3838501 C319.47139136 113.7403145 319.43254408 111.09693535 319.39411926 108.45294189 C319.35641418 107.08492432 319.35641418 107.08492432 319.31794739 105.68927002 C319.2631744 100.66841238 319.28460536 97.21810896 322.58161926 93.14044189 C325.21769559 90.50436556 333.83041067 91.81905821 337.53645325 91.79034424 C339.10301076 91.77379781 340.66949317 91.74652442 342.235672 91.70831299 C344.49331343 91.65349851 346.74918297 91.63166478 349.00740051 91.61700439 C349.70545303 91.59433502 350.40350555 91.57166565 351.12271118 91.54830933 C354.75180128 91.56404844 356.30500976 91.89024969 359.03059387 94.35552979 C360.68531094 97.32662339 361.05468987 98.86281484 360.97224426 102.22247314 C360.95290833 103.61949463 360.95290833 103.61949463 360.93318176 105.04473877 C360.88290833 106.48429932 360.88290833 106.48429932 360.83161926 107.95294189 C360.81357239 108.93198486 360.79552551 109.91102783 360.77693176 110.91973877 C360.72994814 113.3276496 360.66427621 115.73353525 360.58161926 118.14044189 C361.79849426 118.05794189 363.01536926 117.97544189 364.26911926 117.89044189 C367.37311823 117.68000129 368.49920281 118.08810919 371.18206787 119.79167175 C373.58161926 122.14044189 373.58161926 122.14044189 374.20980835 124.90119934 C374.21077011 125.96056198 374.21173187 127.01992462 374.21272278 128.11138916 C374.22525589 129.31686905 374.237789 130.52234894 374.2507019 131.76435852 C374.23081459 133.71589088 374.23081459 133.71589088 374.21052551 135.70684814 C374.21135511 137.06483653 374.2138179 138.4228248 374.21783447 139.7808075 C374.22069279 142.62991508 374.20600399 145.47823684 374.17854309 148.32720947 C374.14468571 151.94954529 374.15040094 155.57045557 374.16920567 159.19285679 C374.17987174 162.00110874 374.17074823 164.80903962 374.15582085 167.61726189 C374.14822377 169.59279463 374.15544119 171.56836685 374.16305542 173.54389954 C374.00941749 185.45306149 371.43209519 194.30252984 363.09724426 202.96856689 C358.66508426 206.79509012 353.56393351 210.14044189 347.58161926 210.14044189 C347.58530643 210.96851695 347.58899361 211.79659201 347.59279251 212.64976025 C347.68130635 232.84132237 347.7474079 253.03285084 347.78886795 273.22456646 C347.809453 282.98932063 347.83749565 292.75394493 347.88337708 302.51861572 C347.92336947 311.03405134 347.94908153 319.54939284 347.95797324 328.06491977 C347.96316707 332.56973701 347.97528896 337.07428513 348.00453949 341.57901573 C348.03190508 345.8283119 348.04002206 350.07723082 348.03404999 354.32660675 C348.03514085 355.87728495 348.042968 357.42797718 348.05844116 358.97857857 C348.19557613 373.44374722 345.84878869 386.16465794 335.80427551 397.07012939 C327.12146581 405.34454518 316.69029741 408.54835828 304.90974426 408.41778564 C291.72409069 407.31898118 282.75821217 401.35236019 274.34333801 391.58184814 C269.5853762 384.98822036 267.46004565 377.33168699 267.45031738 369.29115295 C267.44430511 367.49757858 267.44430511 367.49757858 267.43817139 365.66777039 C267.4387001 364.35913528 267.43922882 363.05050018 267.43977356 361.70220947 C267.43674073 360.30737193 267.43321893 358.91253538 267.429245 357.5177002 C267.42136381 354.51499637 267.41621396 351.51230438 267.41295433 348.50959206 C267.40703422 343.75586455 267.39048342 339.00221152 267.37161255 334.2485199 C267.36527527 332.61946206 267.35894965 330.99040417 267.35263538 329.36134624 C267.34946957 328.54552842 267.34630376 327.72971059 267.34304202 326.889171 C267.30101175 315.82474786 267.26800404 304.76035947 267.25569153 293.69586182 C267.24729743 286.22923873 267.22475653 278.7628003 267.18633586 271.2962696 C267.16661965 267.34836137 267.15415577 263.40072891 267.15917015 259.45276833 C267.16383443 255.73518454 267.14991519 252.01812259 267.12215805 248.30064392 C267.11201183 246.29737122 267.12146856 244.29402874 267.13165283 242.29075623 C267.04125926 233.51929432 265.55863486 226.93864342 260.33161926 219.82794189 C254.7313863 214.35498696 247.91610721 211.76631234 240.12458801 211.85528564 C233.76945277 212.56791986 226.9288169 215.42062732 222.58161926 220.14044189 C218.10221199 227.54231146 216.46357964 233.9331019 216.44358826 242.58537292 C216.43813492 243.86245621 216.43268158 245.13953949 216.42706299 246.45532227 C216.42594342 247.85809321 216.42489287 249.26086421 216.42390442 250.66363525 C216.41923183 252.15068206 216.41408754 253.63772744 216.4085083 255.12477112 C216.39725863 258.32006126 216.38880953 261.51534225 216.38238907 264.71064568 C216.37167827 269.76642675 216.35142635 274.82214165 216.32926941 279.87788391 C216.26744498 294.25207495 216.21332251 308.62626118 216.18025208 323.00054932 C216.16189542 330.94470931 216.13295042 338.88875748 216.09224737 346.83283526 C216.07120292 351.03323284 216.05572365 355.23348972 216.05344009 359.43394279 C216.0512896 363.38456582 216.03537952 367.33489541 216.00905037 371.285429 C216.00187247 372.73216635 215.99974908 374.17893931 216.00315285 375.62569046 C216.02481992 386.58898823 215.00870483 393.13475764 207.48396301 401.34356689 C202.42446691 406.12255706 196.93354468 408.25013123 190.02983093 408.28761292 C189.12164108 408.29476822 188.21345123 408.30192352 187.27774048 408.30929565 C185.79403206 408.31332901 185.79403206 408.31332901 184.28034973 408.31744385 C183.23268936 408.32401505 182.18502899 408.33058624 181.10562134 408.33735657 C177.6366824 408.35707446 174.16778676 408.36874985 170.69880676 408.37872314 C169.51240726 408.38279867 168.32600777 408.3868742 167.10365677 408.39107323 C160.82222417 408.4119291 154.54081337 408.42623205 148.25935364 408.43560791 C141.78314372 408.44666171 135.30727839 408.48105163 128.83119011 408.52077961 C123.84161252 408.54697296 118.85211664 408.55530227 113.86247635 408.55888939 C111.47596539 408.5637495 109.08945795 408.57534695 106.70301437 408.59392738 C103.35482036 408.61837219 100.0075126 408.61734342 96.65925598 408.6104126 C95.19376564 408.62962769 95.19376564 408.62962769 93.69866943 408.64923096 C85.30383448 408.58621977 78.0134106 406.63457618 71.70661926 400.89044189 C69.30333917 398.32620309 68.03632836 396.02397957 66.76911926 392.76544189 C65.97666513 390.78662593 65.97666513 390.78662593 64.58161926 389.14044189 C62.45654471 388.7274201 62.45654471 388.7274201 60.03865051 388.82403564 C53.64000422 388.39573219 49.96988321 385.49862157 45.08161926 381.57794189 C43.84822815 380.62709717 43.84822815 380.62709717 42.58992004 379.65704346 C40.23832116 377.8369608 37.90897861 375.99134633 35.58161926 374.14044189 C34.44511526 373.25957512 33.30731285 372.38037796 32.16755676 371.50372314 C25.76948821 366.51617979 25.76948821 366.51617979 24.58161926 364.14044189 C24.49735832 362.4729813 24.47436784 360.80219002 24.48396301 359.13262939 C24.48718567 358.14649658 24.49040833 357.16036377 24.49372864 356.14434814 C24.506297 354.59553955 24.506297 354.59553955 24.51911926 353.01544189 C24.52363098 351.97516846 24.5281427 350.93489502 24.53279114 349.86309814 C24.54459974 347.28882228 24.56106851 344.71466043 24.58161926 342.14044189 C23.63431946 342.16138916 22.68701965 342.18233643 21.71101379 342.20391846 C18.1511791 342.2726361 14.59206274 342.32250185 11.03181458 342.36016846 C9.49947392 342.38011913 7.96720774 342.40729005 6.43513489 342.44219971 C-4.8574613 342.69281868 -14.56658777 341.81564543 -23.82463074 334.67559814 C-30.75918563 327.99599012 -34.46528782 319.12631926 -34.79590416 309.57875919 C-34.8122721 307.46250666 -34.8124007 305.3460881 -34.79933167 303.22981262 C-34.80401164 302.05719893 -34.80869161 300.88458524 -34.8135134 299.6764378 C-34.82336536 296.44370962 -34.81987894 293.21132302 -34.81055474 289.97860372 C-34.80374134 286.48363256 -34.81425684 282.98870606 -34.82249451 279.4937439 C-34.83581011 272.65555991 -34.8329637 265.8174749 -34.82425658 258.9792871 C-34.81747132 253.41941515 -34.81656696 247.85957087 -34.81982803 242.29969597 C-34.82028773 241.50727393 -34.82074743 240.71485189 -34.82122106 239.89841707 C-34.82218028 238.28842918 -34.82315292 236.6784413 -34.82413884 235.06845342 C-34.83268651 219.9834868 -34.82286867 204.89857493 -34.80673774 189.81361728 C-34.79333771 176.88241095 -34.79566124 163.95128544 -34.80949402 151.02008057 C-34.82556533 135.98929084 -34.83185986 120.95854908 -34.82265723 105.92775196 C-34.82170162 104.32350251 -34.82075851 102.71925305 -34.81982803 101.11500359 C-34.81913379 99.93114713 -34.81913379 99.93114713 -34.81842553 98.72337439 C-34.8158401 93.17353282 -34.82019704 87.6237218 -34.82726669 82.07388496 C-34.83569925 75.30558685 -34.83336487 68.53739305 -34.81742446 61.76910681 C-34.80956487 58.31871805 -34.80641032 54.86850292 -34.81637192 51.41811562 C-34.82458671 47.67125628 -34.81426562 43.92488329 -34.79933167 40.17805481 C-34.80602383 39.09662014 -34.812716 38.01518547 -34.81961095 36.90098006 C-34.72994552 25.27801793 -31.9290221 16.74088521 -23.71916199 8.41778564 C-16.76045997 2.05330986 -9.34341194 0.02469598 0 0 Z M-16.35588074 21.01544189 C-20.75476775 27.68042222 -20.70631155 33.77227526 -20.67907715 41.51394653 C-20.6829027 42.66499032 -20.68672824 43.81603411 -20.69066972 45.00195801 C-20.69919291 48.18824866 -20.69876988 51.3743918 -20.69448912 54.56068635 C-20.6920205 58.00045116 -20.70103777 61.44018895 -20.70852661 64.87994385 C-20.72127202 71.61557639 -20.72306749 78.35116907 -20.72072635 85.08681165 C-20.71894279 90.56238665 -20.72069364 96.03794955 -20.72495079 101.5135231 C-20.72554598 102.29305225 -20.72614117 103.0725814 -20.72675439 103.87573264 C-20.72796616 105.45939159 -20.72918029 107.04305053 -20.73039677 108.62670948 C-20.74127177 123.47647989 -20.73911005 138.3262276 -20.73301192 153.1759993 C-20.72784324 166.75641405 -20.739097 180.33675707 -20.75811014 193.91715764 C-20.77748956 207.86626608 -20.78574433 221.81534059 -20.78198689 235.76446259 C-20.78007495 243.59391333 -20.78256171 251.42330302 -20.79670143 259.25274277 C-20.80861755 265.91832466 -20.81001758 272.58380793 -20.79791126 279.24939118 C-20.79202406 282.64888541 -20.79091856 286.04819924 -20.80291367 289.44768143 C-20.81335052 293.13627847 -20.8053043 296.82439047 -20.79260254 300.51296997 C-20.79997682 301.58282194 -20.80735111 302.65267391 -20.81494886 303.75494564 C-20.76566943 310.55579872 -20.235873 316.68200353 -15.76994324 322.16387939 C-15.20017761 322.60989502 -14.63041199 323.05591064 -14.04338074 323.51544189 C-13.47877136 323.97692627 -12.91416199 324.43841064 -12.33244324 324.91387939 C-7.94766873 327.72371449 -4.19587258 328.39313625 0.97549438 328.41459656 C2.26658615 328.42457169 3.55767792 328.43454681 4.88789368 328.44482422 C6.31159961 328.44571994 7.7353057 328.44638355 9.15901184 328.44683838 C10.66399546 328.45446307 12.1689752 328.4628911 13.6739502 328.47206116 C17.75671324 328.49398282 21.8394014 328.50280193 25.92221665 328.5078876 C28.47499555 328.51153399 31.02775491 328.51777553 33.58052635 328.52488899 C42.49211359 328.54937558 51.40364269 328.56243363 60.31526184 328.565979 C68.61268789 328.56961346 76.90974386 328.59950427 85.20705682 328.64138359 C92.33844669 328.67611195 99.46971405 328.69152788 106.60118788 328.69222504 C110.85709117 328.693017 115.11261734 328.70171818 119.368433 328.7302227 C123.37330338 328.75644724 127.37748518 328.75858462 131.38240242 328.74256706 C132.84810135 328.74075601 134.31384027 328.7474123 135.77945328 328.76338577 C143.91920286 328.84665599 150.33166362 328.79373301 156.58161926 323.14044189 C160.84991592 318.64749804 162.82979895 314.3280875 162.83609486 308.12504005 C162.84192705 307.13360076 162.84775924 306.14216146 162.85376817 305.12067854 C162.84998885 304.03887922 162.84620952 302.9570799 162.84231567 301.84249878 C162.84614122 300.6875203 162.84996677 299.53254182 162.85390824 298.34256399 C162.86244128 295.14068216 162.86200465 291.93894679 162.85772765 288.73706102 C162.85526169 285.28230104 162.86427299 281.82756809 162.87176514 278.37281799 C162.88451803 271.60596781 162.88630508 264.83915729 162.88396487 258.07229711 C162.88218213 252.57189938 162.88393042 247.07151369 162.88818932 241.5711174 C162.8890821 240.39702432 162.8890821 240.39702432 162.88999292 239.19921219 C162.89120467 237.60910897 162.8924188 236.01900576 162.8936353 234.42890255 C162.90451321 219.51478633 162.90234721 204.60069272 162.89625045 189.68657522 C162.89108168 176.04398945 162.90233522 162.4014751 162.92134867 148.75890346 C162.94072303 134.74994087 162.94898374 120.74101207 162.94522542 106.73203599 C162.94331268 98.86739081 162.94580793 91.00280641 162.95993996 83.13817215 C162.97184964 76.44252736 162.97326335 69.74698076 162.96114979 63.05133463 C162.95525802 59.63576943 162.95416971 56.22038383 162.96615219 52.80483055 C162.97657567 49.10050383 162.96855365 45.39666138 162.95584106 41.69235229 C162.96321535 40.61501442 162.97058963 39.53767654 162.97818738 38.42769206 C162.92582814 31.18648284 161.71992375 26.67686855 157.95661926 20.45294189 C150.59589457 13.28592049 141.56408638 13.56245883 131.84138489 13.62286377 C130.36698722 13.61743475 128.89259498 13.61030773 127.41821289 13.60162354 C123.43672672 13.58347964 119.45565788 13.59042038 115.47416496 13.60313988 C111.29435532 13.61331416 107.11457982 13.60386196 102.93476868 13.59759521 C95.91741058 13.59033164 88.90022123 13.59987251 81.88288879 13.61895752 C73.78650782 13.64072385 65.69052986 13.63367156 57.59415865 13.6116519 C50.62485715 13.59346099 43.65567651 13.59095755 36.68635893 13.60140657 C32.53173441 13.60762129 28.37729891 13.60853318 24.22268677 13.59526062 C20.31545596 13.58364876 16.40874137 13.59182415 12.50156593 13.61483765 C11.07339647 13.62009644 9.64518306 13.61865977 8.21703148 13.60978699 C-0.99576738 13.55785619 -9.7818716 13.78479383 -16.35588074 21.01544189 Z M334.58161926 106.14044189 C334.58161926 110.10044189 334.58161926 114.06044189 334.58161926 118.14044189 C338.54161926 118.14044189 342.50161926 118.14044189 346.58161926 118.14044189 C346.58161926 114.18044189 346.58161926 110.22044189 346.58161926 106.14044189 C342.62161926 106.14044189 338.66161926 106.14044189 334.58161926 106.14044189 Z M320.58161926 132.14044189 C320.53557834 138.54524628 320.49579095 144.94947077 320.47175598 151.35430908 C320.46173072 153.53076123 320.44810704 155.70720001 320.43074036 157.88360596 C320.40633899 161.02133492 320.39510113 164.15888498 320.38630676 167.29669189 C320.37598419 168.26159546 320.36566162 169.22649902 320.35502625 170.22064209 C320.35356716 179.11015511 321.36145302 185.80800998 327.65583801 192.44122314 C331.48434388 195.81931656 334.95940581 196.96663331 340.08161926 197.51544189 C346.15812627 196.86438757 351.31188826 194.52557103 355.58161926 190.14044189 C359.65930728 183.41509555 360.12756211 177.25681697 359.97224426 169.54278564 C359.96375458 167.93047813 359.96375458 167.93047813 359.95509338 166.28559875 C359.93286244 162.88257622 359.88268987 159.48064138 359.83161926 156.07794189 C359.81153715 153.75829574 359.79328939 151.43863293 359.77693176 149.11895752 C359.73645802 143.45870525 359.65813902 137.80077814 359.58161926 132.14044189 C346.71161926 132.14044189 333.84161926 132.14044189 320.58161926 132.14044189 Z M38.58161926 342.14044189 C36.98478503 357.05825469 36.98478503 357.05825469 42.36677551 363.20294189 C44.86800976 365.28922918 44.86800976 365.28922918 47.64411926 367.14044189 C48.58642395 367.80817627 49.52872864 368.47591064 50.49958801 369.16387939 C58.89536438 374.59122823 66.82676183 376.90017551 76.80427551 375.70294189 C83.54603687 374.24998599 88.93449171 371.09781135 94.51911926 367.14044189 C95.43177551 366.51395752 96.34443176 365.88747314 97.28474426 365.24200439 C100.29150474 362.97077635 100.29150474 362.97077635 103.58161926 358.14044189 C103.58161926 352.86044189 103.58161926 347.58044189 103.58161926 342.14044189 C82.13161926 342.14044189 60.68161926 342.14044189 38.58161926 342.14044189 Z " fill="#000000" transform="translate(86.41838073730469,51.85955810546875)"/>
<path d="M0 0 C2.01930038 -0.00969885 4.03757924 -0.04073319 6.05664062 -0.07226562 C7.33539063 -0.07742187 8.61414063 -0.08257812 9.93164062 -0.08789062 C11.68613525 -0.10190918 11.68613525 -0.10190918 13.47607422 -0.11621094 C16.98411191 0.27674096 18.85137724 1.13783413 21.65820312 3.24023438 C23.19086895 6.30556602 22.76096783 9.50777709 22.72070312 12.86523438 C22.71619141 13.57164063 22.71167969 14.27804688 22.70703125 15.00585938 C22.69524187 16.75068713 22.67730637 18.49547137 22.65820312 20.24023438 C23.87403076 20.21405029 25.0898584 20.18786621 26.3425293 20.16088867 C30.86170993 20.07025678 35.38081056 20.0129379 39.90063477 19.96557617 C41.85519935 19.94046156 43.80967029 19.90636306 45.76391602 19.86303711 C48.57656981 19.80225003 51.38798015 19.77399455 54.20117188 19.75195312 C55.0721904 19.7261467 55.94320892 19.70034027 56.84062195 19.67375183 C57.66109512 19.67337418 58.4815683 19.67299652 59.3269043 19.67260742 C60.04416183 19.66150436 60.76141937 19.65040131 61.50041199 19.63896179 C65.01792644 20.61912385 66.41388182 22.39088262 68.65820312 25.24023438 C69.39191904 28.38956066 69.33338953 31.46916272 69.29312134 34.69140625 C69.30092129 35.6477018 69.30872124 36.60399734 69.31675756 37.58927155 C69.336714 40.79623344 69.32089817 44.0020135 69.30517578 47.20898438 C69.31195024 49.50700575 69.3208524 51.8050217 69.33172607 54.10302734 C69.35454599 60.34680456 69.34567163 66.5901693 69.32983065 72.83395386 C69.31718577 79.36327235 69.32890784 85.89255515 69.33676147 92.421875 C69.34644531 104.09013425 69.33089157 115.75820497 69.30546479 127.42643452 C69.28312601 138.0050859 69.28700617 148.58346295 69.31005859 159.16210938 C69.3368187 171.44793922 69.34677503 183.73357371 69.33199728 196.01943207 C69.32419569 202.52254322 69.32318083 209.02546539 69.33967972 215.52856445 C69.35410607 221.64197634 69.34413552 227.75486936 69.31520844 233.8682251 C69.30858792 236.11402524 69.31051166 238.35986894 69.32152176 240.60565186 C69.33515001 243.66738146 69.31809323 246.72743991 69.29312134 249.7890625 C69.30985175 251.12782314 69.30985175 251.12782314 69.32692015 252.49362946 C69.25856835 256.80265463 69.04216949 258.71046795 66.44626522 262.29209137 C63.40933862 264.41412708 62.06585575 264.86459409 58.41429138 264.86169434 C57.37825775 264.87290314 56.34222412 264.88411194 55.27479553 264.8956604 C54.14891525 264.88239716 53.02303497 264.86913391 51.86303711 264.85546875 C50.66904297 264.86101776 49.47504883 264.86656677 48.24487305 264.87228394 C44.97809645 264.8820598 41.71235992 264.86949796 38.44568133 264.84599876 C35.02426167 264.8258623 31.6028761 264.83177068 28.18141174 264.83410645 C22.43728746 264.83405291 16.69349253 264.81431685 10.94946289 264.78222656 C4.31067308 264.74531756 -2.32768569 264.73655372 -8.96656471 264.74352407 C-15.35730018 264.74983086 -21.74788801 264.73907276 -28.13859367 264.71955872 C-30.85661868 264.71138889 -33.57456819 264.70867438 -36.29260445 264.71025085 C-40.08731916 264.70845732 -43.88141704 264.68711269 -47.67602539 264.66015625 C-48.8039299 264.66308685 -49.93183441 264.66601746 -51.09391785 264.66903687 C-52.64373856 264.65201218 -52.64373856 264.65201218 -54.22486877 264.63464355 C-55.12173181 264.63091484 -56.01859484 264.62718613 -56.94263554 264.62334442 C-59.85697793 264.15796769 -61.21870683 263.26605367 -63.34179688 261.24023438 C-64.68687101 257.20501196 -64.48633304 253.31349525 -64.48223877 249.10549927 C-64.48520989 248.15907967 -64.48818101 247.21266008 -64.49124217 246.23756111 C-64.49994408 243.05240819 -64.50143867 239.86729279 -64.50292969 236.68212891 C-64.50755676 234.40411295 -64.51258126 232.12609777 -64.51797485 229.8480835 C-64.53111041 223.64977629 -64.53754591 217.45147991 -64.54198551 211.25316095 C-64.54491399 207.38346237 -64.54901834 203.51376676 -64.55348969 199.64406967 C-64.56559924 188.93130387 -64.5759814 178.21854196 -64.57936478 167.50576973 C-64.57958434 166.82014709 -64.57980391 166.13452445 -64.58003013 165.42812537 C-64.58024841 164.74085904 -64.58046668 164.0535927 -64.58069158 163.34550011 C-64.58113504 161.9528269 -64.58158161 160.56015368 -64.58203125 159.16748047 C-64.58225268 158.4766659 -64.58247411 157.78585133 -64.58270225 157.07410298 C-64.58665122 145.87761765 -64.60410861 134.68119737 -64.62739077 123.48473717 C-64.65109782 111.99125653 -64.66330826 100.49781781 -64.66473269 89.00431144 C-64.66578251 82.55038382 -64.67172797 76.09654794 -64.68955231 69.64264297 C-64.70598718 63.57372219 -64.70821079 57.50496258 -64.6994133 51.43602753 C-64.6986405 49.2063415 -64.70301743 46.97664696 -64.71287155 44.74698257 C-64.72551912 41.70744009 -64.71975332 38.66847468 -64.70928955 35.62893677 C-64.71734596 34.74284733 -64.72540236 33.85675789 -64.7337029 32.94381726 C-64.69564413 28.22965725 -64.43524497 25.0552302 -61.34179688 21.24023438 C-57.90574923 19.52221055 -53.95740792 20.12057257 -50.17773438 20.14257812 C-49.27052643 20.14399307 -48.36331848 20.14540802 -47.42861938 20.14686584 C-44.52464532 20.15247342 -41.62074772 20.16502719 -38.71679688 20.17773438 C-36.75065215 20.1827484 -34.78450623 20.18731148 -32.81835938 20.19140625 C-27.99280898 20.20244531 -23.1673159 20.21971503 -18.34179688 20.24023438 C-18.37660156 19.28761719 -18.41140625 18.335 -18.44726562 17.35351562 C-18.47433594 16.09925781 -18.50140625 14.845 -18.52929688 13.55273438 C-18.56410156 12.31136719 -18.59890625 11.07 -18.63476562 9.79101562 C-18.32286873 6.01082521 -17.6866551 4.1863383 -15.34179688 1.24023438 C-10.37289169 -0.41606735 -5.20382677 0.01514208 0 0 Z M-4.34179688 14.24023438 C-4.34179688 16.22023438 -4.34179688 18.20023438 -4.34179688 20.24023438 C-0.05179687 20.24023438 4.23820312 20.24023438 8.65820312 20.24023438 C8.65820312 18.26023437 8.65820312 16.28023437 8.65820312 14.24023438 C4.36820313 14.24023438 0.07820313 14.24023438 -4.34179688 14.24023438 Z M-49.34179688 34.24023438 C-49.34179688 105.52023438 -49.34179688 176.80023438 -49.34179688 250.24023438 C-15.02179688 250.24023438 19.29820312 250.24023438 54.65820312 250.24023438 C54.65820312 178.96023438 54.65820312 107.68023437 54.65820312 34.24023438 C20.33820313 34.24023438 -13.98179687 34.24023438 -49.34179688 34.24023438 Z " fill="#000000" transform="translate(155.341796875,90.759765625)"/>
<path d="M0 0 C1.97080139 2.06258669 2.94861533 3.28211627 3.15455627 6.15927124 C3.04755905 6.93348419 2.94056183 7.70769714 2.83032227 8.50537109 C2.71109406 9.386828 2.59186584 10.26828491 2.46902466 11.17645264 C1.6493226 16.1110921 0.7191761 21.01375414 -0.28515625 25.9140625 C-0.50570175 27.00971527 -0.72624725 28.10536804 -0.95347595 29.23422241 C-1.6519343 32.69875272 -2.3571025 36.16187662 -3.0625 39.625 C-3.54015941 41.98819117 -4.01737732 44.35147163 -4.49414062 46.71484375 C-5.65765841 52.47760452 -6.82667317 58.23922886 -8 64 C-7.23333008 64.01458252 -6.46666016 64.02916504 -5.67675781 64.04418945 C-2.20066507 64.1186922 1.27446968 64.21534646 4.75 64.3125 C5.9565625 64.33505859 7.163125 64.35761719 8.40625 64.38085938 C10.14648438 64.4340332 10.14648438 64.4340332 11.921875 64.48828125 C13.52434082 64.52755737 13.52434082 64.52755737 15.15917969 64.56762695 C18.33764781 65.05139002 19.75009197 65.72595984 22 68 C23.57755513 76.03625144 19.22430378 82.07930841 15.375 88.875 C14.68781584 90.11737774 14.00237828 91.36072302 13.31860352 92.60498047 C11.91112818 95.16211253 10.49564898 97.71454435 9.07373047 100.26367188 C5.964226 105.8495132 2.95677253 111.49005949 -0.0625 117.125 C-1.209231 119.25021827 -2.35636778 121.37521763 -3.50390625 123.5 C-5.62543525 127.43475551 -7.73366744 131.37607163 -9.82505798 135.32693481 C-10.7698505 137.11085156 -11.71739855 138.89327745 -12.66577148 140.67529297 C-13.85174066 142.90579269 -15.03260039 145.13901996 -16.20727539 147.37548828 C-23.02435306 160.1634839 -23.02435306 160.1634839 -27 164 C-31.52147502 164.7663517 -33.18050407 164.54633062 -37 162 C-39.02836172 156.13579015 -37.04039884 150.30960324 -35.69140625 144.4765625 C-35.44583481 143.37524994 -35.20026337 142.27393738 -34.94725037 141.13925171 C-34.16271445 137.6320739 -33.36283599 134.12860234 -32.5625 130.625 C-32.02697856 128.24371789 -31.4924616 125.86220965 -30.95898438 123.48046875 C-29.65095515 117.65097438 -28.33032175 111.82444512 -27 106 C-27.80219971 105.98541748 -28.60439941 105.97083496 -29.4309082 105.95581055 C-33.05859699 105.88143281 -36.68535504 105.78473757 -40.3125 105.6875 C-41.57513672 105.66494141 -42.83777344 105.64238281 -44.13867188 105.61914062 C-45.95141602 105.5659668 -45.95141602 105.5659668 -47.80078125 105.51171875 C-48.91622314 105.48553467 -50.03166504 105.45935059 -51.1809082 105.43237305 C-54 105 -54 105 -55.88745117 103.90551758 C-57.67956786 100.83607041 -57.29773335 98.5241741 -57 95 C-55.8596055 91.72770492 -54.31991585 88.69285958 -52.74902344 85.6081543 C-52.29703079 84.69350906 -51.84503815 83.77886383 -51.37934875 82.83650208 C-49.88655659 79.82527604 -48.37367755 76.82467791 -46.859375 73.82421875 C-45.81432846 71.73194946 -44.77017184 69.63923546 -43.72686768 67.5460968 C-41.53991804 63.16639557 -39.34314297 58.79180766 -37.13916016 54.4206543 C-34.3123456 48.81256803 -31.50897379 43.19314799 -28.71264267 37.56981182 C-26.56136568 33.24948224 -24.39853493 28.93502067 -22.23206329 24.62229347 C-21.19360896 22.55190887 -20.1586166 20.47978413 -19.1271286 18.40592003 C-17.68586736 15.5128923 -16.22942451 12.62803758 -14.76855469 9.74487305 C-14.34345108 8.88409149 -13.91834747 8.02330994 -13.48036194 7.13644409 C-13.07939804 6.3528804 -12.67843414 5.56931671 -12.26531982 4.76200867 C-11.92241283 4.07975566 -11.57950584 3.39750265 -11.22620773 2.69457531 C-8.21585212 -1.46562867 -4.63918783 -1.38188574 0 0 Z M-23 59 C-22 61 -22 61 -22 61 Z M-24 61 C-25.99891133 64.94845745 -27.99259885 68.89949437 -29.98144531 72.85302734 C-30.65904347 74.19815388 -31.33807459 75.54255956 -32.01855469 76.88623047 C-32.99529838 78.81551284 -33.96689277 80.74731218 -34.9375 82.6796875 C-35.52402344 83.84226074 -36.11054688 85.00483398 -36.71484375 86.20263672 C-38.1391561 88.78982179 -38.1391561 88.78982179 -38 91 C-37.39003174 91.01981934 -36.78006348 91.03963867 -36.15161133 91.06005859 C-33.37149467 91.15567876 -30.59209154 91.26520705 -27.8125 91.375 C-26.85279297 91.4059375 -25.89308594 91.436875 -24.90429688 91.46875 C-23.97294922 91.50742188 -23.04160156 91.54609375 -22.08203125 91.5859375 C-21.22843018 91.6173584 -20.3748291 91.6487793 -19.49536133 91.68115234 C-16.68285513 92.04052355 -14.52119965 92.7017765 -12 94 C-10.94042764 97.66775047 -10.88820799 101.19907152 -11 105 C-7.05697853 100.53185652 -4.47377467 95.56605957 -1.75 90.3125 C-1.29109375 89.44560547 -0.8321875 88.57871094 -0.359375 87.68554688 C2.06953259 83.55058675 2.06953259 83.55058675 3 79 C2.2886792 78.99589111 1.5773584 78.99178223 0.84448242 78.98754883 C-2.37535997 78.95467451 -5.59329441 78.8840379 -8.8125 78.8125 C-9.93205078 78.80669922 -11.05160156 78.80089844 -12.20507812 78.79492188 C-13.27822266 78.76591797 -14.35136719 78.73691406 -15.45703125 78.70703125 C-16.9416687 78.68346558 -16.9416687 78.68346558 -18.45629883 78.65942383 C-21 78 -21 78 -22.84179688 75.65039062 C-24.28244171 72.35367049 -24.11674613 70.2385362 -23.6875 66.6875 C-23.50767578 65.08455078 -23.50767578 65.08455078 -23.32421875 63.44921875 C-23.21722656 62.64097656 -23.11023438 61.83273438 -23 61 C-23.33 61 -23.66 61 -24 61 Z M-12 105 C-11 107 -11 107 -11 107 Z " fill="#000000" transform="translate(175,151)"/>
</svg>
