<?xml version="1.0" encoding="UTF-8"?>
<svg version="1.1" xmlns="http://www.w3.org/2000/svg" width="512" height="512">
<path d="M0 0 C0.59425781 -0.30035156 1.18851563 -0.60070312 1.80078125 -0.91015625 C7.00970783 -3.49148932 14.18494509 -2.90740151 19.60546875 -1.16015625 C27.07801459 2.65971658 32.58481734 8.63281258 35.38818359 16.56958008 C36.65387172 21.59748321 36.6516719 26.77858603 36.875 31.9375 C39.89928962 83.75190701 54.65670104 133.7378925 73.2800293 181.92773438 C78.92006996 196.64693105 82.26032335 210.8744371 83.5 226.625 C86.08977907 255.15005106 91.19452762 284.01172456 106 309 C108.57215048 305.14177427 109.95949267 301.04328563 111.5859375 296.71484375 C113 294 113 294 114.7265625 292.56640625 C121.32678925 290.92201986 128.29820111 294.36817316 134.3828125 296.6484375 C135.38326096 297.01710938 136.38370941 297.38578125 137.41447449 297.765625 C140.6540145 298.9616029 143.889646 300.16774849 147.125 301.375 C149.3451655 302.19908273 151.56546219 303.02281212 153.78588867 303.84619141 C158.17477454 305.47523671 162.56187445 307.10897274 166.94775391 308.74609375 C171.41679909 310.41311368 175.89088754 312.06542652 180.37036133 313.70419312 C183.68757823 314.91926033 186.99970631 316.1479262 190.3125 317.375 C192.05007568 318.00607666 192.05007568 318.00607666 193.82275391 318.64990234 C194.86737793 319.04129395 195.91200195 319.43268555 196.98828125 319.8359375 C197.87040283 320.16126465 198.75252441 320.4865918 199.66137695 320.82177734 C202.53189282 322.26797314 204.11992851 323.36425352 206 326 C207.00668935 333.18913492 204.5520805 339.24214481 202.15234375 345.95703125 C201.74902832 347.11673431 201.34571289 348.27643738 200.93017578 349.47128296 C199.83747516 352.60591968 198.73406063 355.73636813 197.62553024 358.86541367 C196.46933924 362.13736823 195.32724198 365.41423382 194.18383789 368.69067383 C192.33796909 373.97499796 190.48450538 379.25659261 188.625 384.53613281 C186.30649358 391.11997256 184.00733902 397.71039232 181.71875 404.3046875 C178.99134384 412.16180384 176.24954156 420.01370019 173.49539185 427.86148071 C171.83387429 432.60131889 170.18961716 437.34668037 168.56071472 442.0978241 C167.55303121 445.032518 166.53656854 447.9641222 165.51834106 450.89517212 C165.05544397 452.23454962 164.59653957 453.57531514 164.14205933 454.91757202 C163.52845791 456.72861321 162.89939205 458.53439304 162.26953125 460.33984375 C161.92510986 461.34394287 161.58068848 462.34804199 161.22583008 463.38256836 C159.79503255 466.43765307 158.78105388 468.05853128 156 470 C150.33666591 470.37754162 146.30781328 469.73619431 140.94824219 467.69262695 C139.96590858 467.3242849 139.96590858 467.3242849 138.96372986 466.94850159 C136.81978231 466.14097288 134.68351134 465.31493919 132.546875 464.48828125 C131.04047631 463.91623392 129.53365247 463.34530502 128.02642822 462.7754364 C124.06783335 461.27502677 120.11558934 459.75853121 116.16436768 458.23883057 C112.9660053 457.01170147 109.76343024 455.79581429 106.5605278 454.58059406 C89.81551282 448.22676693 89.81551282 448.22676693 82.68835449 445.44058228 C80.26761896 444.49510138 77.84168208 443.56280953 75.41027832 442.64511108 C73.78454895 442.01096786 73.78454895 442.01096786 72.12597656 441.36401367 C71.1796637 441.0020842 70.23335083 440.64015472 69.25836182 440.26725769 C66.61744326 438.78533202 65.915165 437.8590857 65 435 C65.2959216 429.08156799 66.85974945 424.49020794 69 419 C69 418.01 69 417.02 69 416 C66.9703085 414.3569164 65.00404701 412.96260867 62.8125 411.5625 C62.14686035 411.12929443 61.4812207 410.69608887 60.79541016 410.24975586 C49.95788553 403.29759123 38.72780358 396.90760082 27.26953125 391.0390625 C26.33447754 390.55945068 25.39942383 390.07983887 24.43603516 389.58569336 C22.66418742 388.6843457 20.88684627 387.7936776 19.10302734 386.91625977 C11.1764055 382.90430001 5.14128586 377.33320105 -1 371 C-1.5775 371.804375 -2.155 372.60875 -2.75 373.4375 C-10.81509118 382.86508615 -21.46836163 387.89322372 -32.41455078 393.18798828 C-40.07597246 396.93275559 -47.41559138 401.04727546 -54.6875 405.5 C-55.64889893 406.08740967 -56.61029785 406.67481934 -57.60083008 407.2800293 C-61.94011729 409.97073747 -66.11647054 412.66425259 -70 416 C-69.87882813 416.54527344 -69.75765625 417.09054687 -69.6328125 417.65234375 C-69.28005333 419.23976003 -68.93278933 420.82840346 -68.58984375 422.41796875 C-68.20625815 424.09710834 -67.78358767 425.7679546 -67.31640625 427.42578125 C-66.34841855 431.00312708 -65.75732424 433.21997078 -66.875 436.8125 C-73.22195289 443.34612798 -83.86946356 445.69184829 -92.26171875 448.7890625 C-93.74061553 449.3386509 -95.21935748 449.88865606 -96.69795227 450.4390564 C-100.5693639 451.87900407 -104.44270367 453.31369011 -108.31652832 454.74713135 C-113.02537766 456.49061536 -117.7320087 458.24007666 -122.43887806 459.98889732 C-126.09981836 461.34901958 -129.76110283 462.70818728 -133.42350769 464.06436157 C-134.09732986 464.3141124 -134.77115204 464.56386322 -135.46539307 464.82118225 C-137.27977146 465.49363272 -139.09436807 466.16549434 -140.90898132 466.83731079 C-142.87158681 467.57554645 -144.82514785 468.33867468 -146.76496887 469.13485718 C-149.18243106 470.07061598 -151.04160185 470.29918351 -153.625 470.3125 C-154.38039062 470.32925781 -155.13578125 470.34601563 -155.9140625 470.36328125 C-158.58700013 469.89776964 -159.26344252 469.05510631 -161 467 C-161.92971802 464.99484253 -161.92971802 464.99484253 -162.72314453 462.66357422 C-163.02907028 461.77901047 -163.33499603 460.89444672 -163.65019226 459.983078 C-164.13658928 458.5335247 -164.13658928 458.5335247 -164.6328125 457.0546875 C-164.98193192 456.03776321 -165.33105133 455.02083893 -165.69075012 453.97309875 C-166.84350394 450.60974443 -167.98408663 447.24238725 -169.125 443.875 C-169.92816602 441.52612289 -170.73229645 439.17757534 -171.53735352 436.8293457 C-173.2034537 431.96736189 -174.86558887 427.1040501 -176.52490234 422.23974609 C-179.93941004 412.23984229 -183.39999336 402.25599184 -186.8661499 392.27389526 C-187.93178346 389.20396847 -188.99557009 386.13340648 -190.05908203 383.06274414 C-193.16087264 374.11470739 -196.27941033 365.17367157 -199.47265625 356.2578125 C-199.73610336 355.52127945 -199.99955048 354.7847464 -200.27098083 354.02589417 C-201.46203979 350.69889922 -202.65927876 347.37449052 -203.86694336 344.0534668 C-204.47421265 342.3660437 -204.47421265 342.3660437 -205.09375 340.64453125 C-205.44115234 339.68909424 -205.78855469 338.73365723 -206.14648438 337.74926758 C-208.46400332 330.28428452 -208.46400332 330.28428452 -206.9153595 325.99789429 C-204.50662271 322.22777266 -202.71475077 321.54635509 -198.54760742 320.01147461 C-197.89666107 319.76503708 -197.24571472 319.51859955 -196.57504272 319.26469421 C-194.42554769 318.45672385 -192.26623217 317.67962009 -190.10546875 316.90234375 C-188.59561358 316.34181162 -187.08645241 315.77940691 -185.57795715 315.21522522 C-181.60022177 313.73338564 -177.61344321 312.27755243 -173.62426758 310.82684326 C-169.61409469 309.36325672 -165.61319405 307.87478608 -161.61132812 306.38867188 C-154.3782998 303.70780821 -147.14165009 301.03755852 -139.88583374 298.41891479 C-137.27076364 297.47266933 -134.67289338 296.49115004 -132.08120728 295.48269653 C-130.85082733 295.01475677 -129.62044739 294.54681702 -128.3527832 294.06469727 C-126.72950859 293.43193626 -126.72950859 293.43193626 -125.07344055 292.78639221 C-121.6023723 291.89826017 -119.43701781 292.05402424 -116 293 C-111.88456898 296.76267979 -110.31016938 301.69976933 -109 307 C-109 307.99 -109 308.98 -109 310 C-108.34 310 -107.68 310 -107 310 C-106.74734375 309.34128906 -106.4946875 308.68257813 -106.234375 308.00390625 C-105.2968004 305.72227693 -104.31556743 303.50651256 -103.265625 301.27734375 C-98.05007892 290.12230266 -94.06613141 278.92568733 -91 267 C-90.80954102 266.26249512 -90.61908203 265.52499023 -90.42285156 264.76513672 C-87.65187905 253.60357926 -86.45381063 242.32857545 -85.31161499 230.91229248 C-83.08520264 208.79435995 -77.70789077 189.86743639 -70.08129883 169.01147461 C-53.94090407 124.85666154 -40.53040244 78.97077115 -38.66821289 31.71337891 C-38.21047627 21.12305219 -36.69316993 11.79736636 -29 4 C-19.61181966 -3.63882997 -11.14995849 -3.71665283 0 0 Z M-13 13 C-17.27037061 15.56222237 -19.84842739 17.48971822 -22 22 C-22.39487297 24.57835163 -22.64524399 26.97315324 -22.7734375 29.5625 C-22.87365555 31.08197418 -22.97425769 32.60142306 -23.07519531 34.12084961 C-23.1475238 35.31362015 -23.1475238 35.31362015 -23.22131348 36.53048706 C-26.43267207 88.13222431 -40.48982273 139.67773096 -59.96606445 187.51245117 C-60.44692505 188.71285034 -60.44692505 188.71285034 -60.9375 189.9375 C-61.175755 190.53059967 -61.41401001 191.12369934 -61.65948486 191.73477173 C-63.48351517 196.38571947 -64.93328243 201.01147232 -66.0703125 205.875 C-66.24087662 206.60428207 -66.41144073 207.33356415 -66.58717346 208.08494568 C-68.25433693 215.57466819 -69.04012721 223.09167584 -69.72427368 230.72387695 C-72.88770768 265.41977997 -80.49858595 299.18296138 -101 328 C-102.29793097 330.04516472 -102.29793097 330.04516472 -101.30523682 332.62982178 C-100.92123718 333.74423645 -100.53723755 334.85865112 -100.14160156 336.00683594 C-99.82718109 336.92916016 -99.82718109 336.92916016 -99.50640869 337.87011719 C-98.80853194 339.91082215 -98.09980005 341.94757142 -97.390625 343.984375 C-96.90259899 345.40185339 -96.41511858 346.81951972 -95.92816162 348.23736572 C-94.90373608 351.2148999 -93.874209 354.19060407 -92.84082031 357.16503906 C-91.52037199 360.96634197 -90.21017642 364.77107579 -88.90353775 368.57714462 C-87.89621974 371.50890714 -86.88459576 374.43916896 -85.8715744 377.36896515 C-85.38734655 378.77034857 -84.9041632 380.17209338 -84.42206573 381.57421112 C-83.74420112 383.54280879 -83.06084973 385.50941728 -82.37597656 387.47558594 C-81.98879456 388.59318298 -81.60161255 389.71078003 -81.20269775 390.86224365 C-79.98942416 394.02759165 -78.56632455 396.99573816 -77 400 C-74.29556321 398.6880764 -71.7319797 397.26449687 -69.18359375 395.671875 C-58.1771945 388.8848119 -46.95879486 382.72560649 -35.37866211 376.98535156 C-26.5400341 372.53167275 -18.15007253 368.01502729 -13 359.25 C-12.443125 358.32703125 -11.88625 357.4040625 -11.3125 356.453125 C-9.56100945 353.17950576 -8.87499325 350.63761083 -8.87695217 346.97639179 C-8.87496112 346.15530408 -8.87297007 345.33421637 -8.87091869 344.48824722 C-8.87383153 343.58650384 -8.87674437 342.68476046 -8.87974548 341.75569153 C-8.87889106 340.797577 -8.87803663 339.83946247 -8.87715632 338.85231417 C-8.87550348 335.62784238 -8.88101972 332.40342211 -8.88647461 329.17895508 C-8.88675655 326.87312318 -8.88659861 324.56729119 -8.8860321 322.26145935 C-8.8857444 315.98910194 -8.89163686 309.71676354 -8.89860606 303.44441056 C-8.904844 296.89406826 -8.90544375 290.34372555 -8.90663147 283.79338074 C-8.90922299 272.79494903 -8.91564201 261.796524 -8.92456055 250.7980957 C-8.93373768 239.4689945 -8.94081704 228.13989519 -8.94506836 216.81079102 C-8.94546244 215.76353782 -8.94546244 215.76353782 -8.94586449 214.695128 C-8.94716952 211.19266724 -8.94843323 207.69020647 -8.94967639 204.18774569 C-8.96004537 175.12515924 -8.97773479 146.06257972 -9 117 C-12.77326209 120.50864002 -13.65721052 122.57614112 -14.421875 127.71875 C-14.5275177 128.39234055 -14.6331604 129.06593109 -14.74200439 129.75993347 C-14.9710302 131.22954345 -15.19280676 132.70029719 -15.40820312 134.17196655 C-16.00258277 138.22038184 -16.65535067 142.25961986 -17.296875 146.30078125 C-17.43154175 147.15936234 -17.5662085 148.01794342 -17.70495605 148.90254211 C-28.1234771 215.05292621 -28.1234771 215.05292621 -38 240 C-38.33 240.99 -38.66 241.98 -39 243 C-46.33333333 244.22222222 -46.33333333 244.22222222 -49.4375 243.1875 C-51 242 -51 242 -52 240 C-52.30751631 235.59636638 -51.6870615 232.73881463 -49.875 228.75 C-39.02052915 201.38578776 -35.96295699 169.49576371 -31.51953125 140.52734375 C-31.40838486 139.80911942 -31.29723846 139.09089508 -31.182724 138.35090637 C-30.67759843 135.07822478 -30.18700406 131.80541366 -29.72241211 128.52661133 C-28.18738765 118.33280763 -25.65824546 109.21358705 -17.0625 102.8125 C-14 101 -14 101 -9 99 C-9 71.28 -9 43.56 -9 15 C-10.32 14.34 -11.64 13.68 -13 13 Z M7 15 C6.71368017 17.72180044 6.62168966 20.21520901 6.65942383 22.93798828 C6.65898575 23.75758026 6.65854767 24.57717224 6.65809631 25.42160034 C6.66019094 28.13807778 6.68355335 30.85394253 6.70703125 33.5703125 C6.71262482 35.45075137 6.71689604 37.3311946 6.71989441 39.2116394 C6.73136205 44.1667279 6.76084565 49.1215536 6.79400635 54.07653809 C6.82466596 59.1304163 6.83839094 64.18433689 6.85351562 69.23828125 C6.88571357 79.15896979 6.93693301 89.07946306 7 99 C7.67619385 99.31670654 8.3523877 99.63341309 9.04907227 99.9597168 C10.38796509 100.60420776 10.38796509 100.60420776 11.75390625 101.26171875 C13.07757202 101.89146606 13.07757202 101.89146606 14.42797852 102.53393555 C21.37174332 106.49191444 24.72068591 112.53582459 27 120 C27.83545789 123.92196855 28.42890232 127.87003223 29.015625 131.8359375 C29.37968817 134.18776168 29.74386915 136.53956762 30.1081543 138.89135742 C30.29437347 140.11406342 30.48059265 141.33676941 30.67245483 142.5965271 C35.33557179 173.10403038 40.14253067 203.55091415 49.64379883 232.99511719 C51.10167901 237.68818436 51.10167901 237.68818436 50.0625 240.875 C48 243 48 243 44.625 244.125 C41 244 41 244 38.42578125 241.87890625 C25.37957569 226.39572831 24.38413542 195.21851215 20.9375 175.8125 C20.76539001 174.84415222 20.59328003 173.87580444 20.41595459 172.87811279 C18.67939842 163.06422763 17.00179386 153.24777822 15.5546875 143.38671875 C15.44590775 142.65902786 15.33712799 141.93133698 15.22505188 141.18159485 C14.72702352 137.84840462 14.24906335 134.51683907 13.81030273 131.17504883 C13.64216064 130.02415771 13.47401855 128.8732666 13.30078125 127.6875 C13.16841064 126.70136719 13.03604004 125.71523437 12.8996582 124.69921875 C11.73037306 121.19104601 9.64443583 119.52272789 7 117 C6.93152185 146.27481947 6.87845014 175.54963325 6.84680401 204.82451647 C6.84305201 208.28283208 6.83916904 211.74114752 6.83520508 215.19946289 C6.83441815 215.88793411 6.83363122 216.57640533 6.83282044 217.28573931 C6.81977626 228.4247423 6.79612788 239.5636987 6.76854161 250.70267408 C6.74045987 262.13731378 6.72404236 273.57191573 6.71773452 285.0065909 C6.7138244 291.42716417 6.70463767 297.84763188 6.68280983 304.26817131 C6.66242523 310.31325261 6.65617027 316.35818502 6.66067696 322.40329742 C6.65985265 324.6200167 6.65389889 326.83674104 6.64238358 329.05343056 C6.6274088 332.08515409 6.63106479 335.11631897 6.63923645 338.14805603 C6.63049793 339.02064951 6.6217594 339.893243 6.61275607 340.79227871 C6.68720283 351.04461523 10.01900916 358.55269543 17 366 C23.58895351 372.39875691 31.67073092 376.00282996 39.83544922 379.9453125 C50.11394881 384.95355954 59.98005931 390.29316478 69.26782227 396.98974609 C70.79614099 398.06643399 72.39395261 399.04311612 74 400 C77.07218491 399.3623679 77.07218491 399.3623679 77.92108154 397.23002625 C78.17754456 396.457621 78.43400757 395.68521576 78.69824219 394.8894043 C78.99575378 394.01305832 79.29326538 393.13671234 79.59979248 392.23381042 C79.91232971 391.27364517 80.22486694 390.31347992 80.546875 389.32421875 C81.04831024 387.83267021 81.04831024 387.83267021 81.55987549 386.31098938 C82.63447942 383.10678544 83.69262408 379.89742558 84.75 376.6875 C85.79288407 373.55812087 86.83911208 370.42987547 87.88586426 367.30178833 C88.57605741 365.2348481 89.26315637 363.16687206 89.94714355 361.09786987 C91.60445744 356.09681163 93.30215162 351.11876204 95.11132812 346.17041016 C95.4427179 345.2574971 95.77410767 344.34458405 96.11553955 343.40400696 C96.73926975 341.69693559 97.37306288 339.993494 98.01873779 338.29460144 C100.05303376 332.73643801 100.05303376 332.73643801 99 327 C97.67857289 324.80518329 96.32981916 322.72564453 94.875 320.625 C76.11709496 292.31659898 70.67008523 258.09365296 67.515625 224.9453125 C67.43787842 224.16639648 67.36013184 223.38748047 67.2800293 222.58496094 C67.08126963 220.56568762 66.90099559 218.54461666 66.72265625 216.5234375 C65.19062266 204.99827326 61.04971904 193.92640897 56.9375 183.125 C55.95289497 180.48945892 54.97723068 177.85066323 54.00390625 175.2109375 C53.75535889 174.53703979 53.50681152 173.86314209 53.25073242 173.16882324 C36.74033131 128.23156284 22.15448539 79.80005186 21.46557617 31.59106445 C21.32328928 26.12619389 20.30348898 21.98637615 18 17 C12.75128671 12.58627418 12.75128671 12.58627418 7 15 Z M-131.98852539 312.203125 C-132.61289993 312.43721069 -133.23727448 312.67129639 -133.88056946 312.91247559 C-135.95351962 313.69009409 -138.02558565 314.47004111 -140.09765625 315.25 C-141.53106917 315.7882289 -142.96453643 316.3263131 -144.39805603 316.86425781 C-148.17812732 318.28321905 -151.95745413 319.70415302 -155.7366333 321.12548828 C-159.59025364 322.57442607 -163.44456924 324.02151184 -167.29882812 325.46875 C-174.86657013 328.31067986 -182.43352726 331.15469252 -190 334 C-176.95045573 373.551213 -163.06948745 412.801473 -149 452 C-141.35219842 449.83603799 -133.93361867 447.20806445 -126.5 444.40234375 C-125.34250244 443.96741104 -124.18500488 443.53247833 -122.99243164 443.08436584 C-120.56477787 442.17084856 -118.13778465 441.25557414 -115.71142578 440.33862305 C-113.22394874 439.39956037 -110.73574411 438.46293598 -108.24560547 437.53100586 C-104.6407929 436.18115385 -101.03879426 434.82405035 -97.4375 433.46484375 C-95.76107422 432.83823097 -95.76107422 432.83823097 -94.05078125 432.19895935 C-93.02210938 431.80837845 -91.9934375 431.41779755 -90.93359375 431.01538086 C-90.02665771 430.67357285 -89.11972168 430.33176483 -88.18530273 429.979599 C-85.85206978 429.08940462 -85.85206978 429.08940462 -84 427 C-84.54805298 425.43100952 -84.54805298 425.43100952 -85.10717773 423.83032227 C-86.88458093 418.74126775 -88.66110075 413.65190503 -90.4375 408.5625 C-90.76824524 407.6150592 -91.09899048 406.66761841 -91.4397583 405.69146729 C-95.46127755 394.16994822 -99.47310073 382.64515336 -103.46484375 371.11328125 C-114.05336212 340.49328066 -114.05336212 340.49328066 -125 310 C-127.30716694 310 -129.89122755 311.4150992 -131.98852539 312.203125 Z M124 311 C119.75792379 320.55743416 116.39593408 330.35135817 113.068573 340.25469971 C111.43373668 345.11949969 109.78492539 349.97956056 108.13671875 354.83984375 C107.79768021 355.84043823 107.45864166 356.84103271 107.10932922 357.87194824 C102.85819036 370.39749861 98.48114658 382.87903932 94.10009766 395.35961914 C90.29685784 406.20652117 86.60149765 417.08442591 83 428 C90.77602293 431.28917569 98.59128491 434.42498612 106.49609375 437.390625 C107.53266617 437.7807074 108.56923859 438.17078979 109.63722229 438.57269287 C111.80386868 439.38715076 113.9709414 440.20047539 116.13842773 441.01269531 C119.45528486 442.25667015 122.76966679 443.50708972 126.08398438 444.7578125 C128.20037382 445.55247497 130.31690525 446.34675944 132.43359375 447.140625 C133.91332924 447.6999472 133.91332924 447.6999472 135.42295837 448.27056885 C136.34484451 448.61472839 137.26673065 448.95888794 138.21655273 449.31347656 C139.02197006 449.61594299 139.82738739 449.91840942 140.6572113 450.2300415 C143.08717581 451.02865037 145.48430085 451.54899596 148 452 C148.17966812 451.48161057 148.35933624 450.96322113 148.54444885 450.42912292 C156.38475111 427.80893375 164.22777 405.18972567 172.11639404 382.58633423 C173.05544924 379.89520594 173.99386093 377.20385401 174.93212891 374.51245117 C177.51316072 367.11081873 180.09842354 359.71089893 182.7109375 352.3203125 C183.28896118 350.67893311 183.28896118 350.67893311 183.87866211 349.00439453 C184.55521769 347.08470511 185.2353646 345.16627513 185.92016602 343.24951172 C186.34446899 342.04319092 186.34446899 342.04319092 186.77734375 340.8125 C187.01702881 340.13832031 187.25671387 339.46414063 187.50366211 338.76953125 C188.13503422 336.82488321 188.13503422 336.82488321 188 334 C180.10060098 330.99534574 172.19920702 327.99602439 164.29519939 325.00351715 C160.62523999 323.61385536 156.95599903 322.22235699 153.28833008 320.82666016 C149.74976268 319.4801689 146.20940051 318.13850399 142.66773415 316.80018616 C141.31587294 316.28837568 139.96467099 315.7748204 138.61414146 315.25950623 C136.72456917 314.53885115 134.83243251 313.82493069 132.94018555 313.11132812 C131.86318893 312.7027356 130.78619232 312.29414307 129.67655945 311.87316895 C126.99388575 310.84492905 126.99388575 310.84492905 124 311 Z " fill="#202020" transform="translate(257,23)"/>
<path d="M0 0 C3.63670242 3.48530631 4.97254857 7.16416333 6.4375 11.91796875 C6.74772095 12.90389763 6.74772095 12.90389763 7.06420898 13.90974426 C7.71989562 15.99925036 8.36072203 18.09292169 9 20.1875 C9.64171446 22.26336374 10.28669206 24.33813069 10.93579102 26.41169739 C11.52730564 28.30530173 12.10964886 30.20176396 12.69140625 32.09838867 C13.92137902 35.92070462 15.43474926 39.61025306 16.94470215 43.32899475 C18.79162505 48.0036378 20.41061311 52.75619397 22.046875 57.5078125 C22.60921844 59.13249954 22.60921844 59.13249954 23.18292236 60.79000854 C23.97400761 63.07721966 24.76392562 65.3648348 25.55273438 67.65283203 C26.73024737 71.06771576 27.91167009 74.48122608 29.09375 77.89453125 C33.24943367 89.91339632 37.35315587 101.9467616 41.31304932 114.0317688 C43.63070972 121.05878704 46.2366417 127.92227735 49.06640625 134.7578125 C50.12547897 138.43576379 50.2380926 140.3809601 49 144 C45.39663124 147.37539702 41.82445992 149.07819419 37.2253418 150.79321289 C36.23402756 151.16724998 36.23402756 151.16724998 35.22268677 151.54884338 C33.05139392 152.36561921 30.8754604 153.16916975 28.69921875 153.97265625 C27.17822884 154.54186696 25.65754756 155.111903 24.13716125 155.682724 C20.1402102 157.18084552 16.13919267 158.66779399 12.13720703 160.15240479 C8.08441311 161.65806579 4.03553312 163.17417295 -0.01367188 164.68945312 C-6.6041496 167.15430265 -13.19639215 169.61433783 -19.79329109 172.06195736 C-23.14078307 173.30456079 -26.48096656 174.56427944 -29.81591797 175.84008789 C-32.68737695 176.88611623 -34.78251231 177.40775662 -37.8125 177.375 C-38.54082031 177.38273438 -39.26914063 177.39046875 -40.01953125 177.3984375 C-42.58790174 176.88172391 -43.31415459 175.98373299 -45 174 C-45.92971802 171.99484253 -45.92971802 171.99484253 -46.72314453 169.66357422 C-47.02907028 168.77901047 -47.33499603 167.89444672 -47.65019226 166.983078 C-47.97445694 166.01670914 -48.29872162 165.05034027 -48.6328125 164.0546875 C-48.98193192 163.03776321 -49.33105133 162.02083893 -49.69075012 160.97309875 C-50.84350394 157.60974443 -51.98408663 154.24238725 -53.125 150.875 C-53.92816602 148.52612289 -54.73229645 146.17757534 -55.53735352 143.8293457 C-57.2034537 138.96736189 -58.86558887 134.1040501 -60.52490234 129.23974609 C-63.93941004 119.23984229 -67.39999336 109.25599184 -70.8661499 99.27389526 C-71.93178346 96.20396847 -72.99557009 93.13340648 -74.05908203 90.06274414 C-77.16087264 81.11470739 -80.27941033 72.17367157 -83.47265625 63.2578125 C-83.73610336 62.52127945 -83.99955048 61.7847464 -84.27098083 61.02589417 C-85.46203979 57.69889922 -86.65927876 54.37449052 -87.86694336 51.0534668 C-88.27178955 49.92851807 -88.67663574 48.80356934 -89.09375 47.64453125 C-89.44115234 46.68909424 -89.78855469 45.73365723 -90.14648438 44.74926758 C-92.46400332 37.28428452 -92.46400332 37.28428452 -90.9153595 32.99789429 C-88.50662271 29.22777266 -86.71475077 28.54635509 -82.54760742 27.01147461 C-81.5711879 26.64181831 -81.5711879 26.64181831 -80.57504272 26.26469421 C-78.42554769 25.45672385 -76.26623217 24.67962009 -74.10546875 23.90234375 C-72.59561358 23.34181162 -71.08645241 22.77940691 -69.57795715 22.21522522 C-65.60022177 20.73338564 -61.61344321 19.27755243 -57.62426758 17.82684326 C-53.61409469 16.36325672 -49.61319405 14.87478608 -45.61132812 13.38867188 C-38.3782998 10.70780821 -31.14165009 8.03755852 -23.88583374 5.41891479 C-21.27076364 4.47266933 -18.67289338 3.49115004 -16.08120728 2.48269653 C-14.85082733 2.01475677 -13.62044739 1.54681702 -12.3527832 1.06469727 C-10.72950859 0.43193626 -10.72950859 0.43193626 -9.07344055 -0.21360779 C-5.59970652 -1.10242192 -3.43811668 -0.95571803 0 0 Z M-15.98852539 19.203125 C-16.61289993 19.43721069 -17.23727448 19.67129639 -17.88056946 19.91247559 C-19.95351962 20.69009409 -22.02558565 21.47004111 -24.09765625 22.25 C-25.53106917 22.7882289 -26.96453643 23.3263131 -28.39805603 23.86425781 C-32.17812732 25.28321905 -35.95745413 26.70415302 -39.7366333 28.12548828 C-43.59025364 29.57442607 -47.44456924 31.02151184 -51.29882812 32.46875 C-58.86657013 35.31067986 -66.43352726 38.15469252 -74 41 C-60.95045573 80.551213 -47.06948745 119.801473 -33 159 C-25.35219842 156.83603799 -17.93361867 154.20806445 -10.5 151.40234375 C-9.34250244 150.96741104 -8.18500488 150.53247833 -6.99243164 150.08436584 C-4.56477787 149.17084856 -2.13778465 148.25557414 0.28857422 147.33862305 C2.77605126 146.39956037 5.26425589 145.46293598 7.75439453 144.53100586 C11.3592071 143.18115385 14.96120574 141.82405035 18.5625 140.46484375 C20.23892578 139.83823097 20.23892578 139.83823097 21.94921875 139.19895935 C22.97789062 138.80837845 24.0065625 138.41779755 25.06640625 138.01538086 C25.97334229 137.67357285 26.88027832 137.33176483 27.81469727 136.979599 C30.14793022 136.08940462 30.14793022 136.08940462 32 134 C31.45194702 132.43100952 31.45194702 132.43100952 30.89282227 130.83032227 C29.11541907 125.74126775 27.33889925 120.65190503 25.5625 115.5625 C25.23175476 114.6150592 24.90100952 113.66761841 24.5602417 112.69146729 C20.53872245 101.16994822 16.52689927 89.64515336 12.53515625 78.11328125 C1.94663788 47.49328066 1.94663788 47.49328066 -9 17 C-11.30716694 17 -13.89122755 18.4150992 -15.98852539 19.203125 Z " fill="#65BA69" transform="translate(141,316)"/>
<path d="M0 0 C1.00044846 0.36867188 2.00089691 0.73734375 3.03166199 1.1171875 C6.271202 2.3131654 9.5068335 3.51931099 12.7421875 4.7265625 C14.962353 5.55064523 17.18264969 6.37437462 19.40307617 7.19775391 C23.79196204 8.82679921 28.17906195 10.46053524 32.56494141 12.09765625 C37.03398659 13.76467618 41.50807504 15.41698902 45.98754883 17.05575562 C49.30476573 18.27082283 52.61689381 19.4994887 55.9296875 20.7265625 C57.08807129 21.14728027 58.24645508 21.56799805 59.43994141 22.00146484 C60.48456543 22.39285645 61.52918945 22.78424805 62.60546875 23.1875 C63.48759033 23.51282715 64.36971191 23.8381543 65.27856445 24.17333984 C68.14908032 25.61953564 69.73711601 26.71581602 71.6171875 29.3515625 C72.62387685 36.54069742 70.169268 42.59370731 67.76953125 49.30859375 C67.16455811 51.04814835 67.16455811 51.04814835 66.54736328 52.82284546 C65.45466266 55.95748218 64.35124813 59.08793063 63.24271774 62.21697617 C62.08652674 65.48893073 60.94442948 68.76579632 59.80102539 72.04223633 C57.95515659 77.32656046 56.10169288 82.60815511 54.2421875 87.88769531 C51.92368108 94.47153506 49.62452652 101.06195482 47.3359375 107.65625 C44.60853134 115.51336634 41.86672906 123.36526269 39.11257935 131.21304321 C37.45106179 135.95288139 35.80680466 140.69824287 34.17790222 145.4493866 C33.17021871 148.3840805 32.15375604 151.3156847 31.13552856 154.24673462 C30.67263147 155.58611212 30.21372707 156.92687764 29.75924683 158.26913452 C29.14564541 160.08017571 28.51657955 161.88595554 27.88671875 163.69140625 C27.54229736 164.69550537 27.19787598 165.69960449 26.84301758 166.73413086 C25.41222005 169.78921557 24.39824138 171.41009378 21.6171875 173.3515625 C15.95385341 173.72910412 11.92500078 173.08775681 6.56542969 171.04418945 C5.91054062 170.79862808 5.25565155 170.55306671 4.58091736 170.30006409 C2.43696981 169.49253538 0.30069884 168.66650169 -1.8359375 167.83984375 C-3.34233619 167.26779642 -4.84916003 166.69686752 -6.35638428 166.1269989 C-10.31497915 164.62658927 -14.26722316 163.11009371 -18.21844482 161.59039307 C-21.4168072 160.36326397 -24.61938226 159.14737679 -27.8222847 157.93215656 C-44.56729968 151.57832943 -44.56729968 151.57832943 -51.69445801 148.79214478 C-54.11519354 147.84666388 -56.54113042 146.91437203 -58.97253418 145.99667358 C-60.05635376 145.57391144 -61.14017334 145.15114929 -62.25683594 144.71557617 C-63.67630524 144.17268196 -63.67630524 144.17268196 -65.12445068 143.61882019 C-67.76267486 142.13840644 -68.46149229 141.20419864 -69.3828125 138.3515625 C-69.1313984 131.71423015 -67.01191779 126.22184611 -64.5703125 120.1015625 C-60.61507388 109.88011419 -57.05635315 99.57269891 -53.6328125 89.1640625 C-48.98192444 75.05019551 -44.14906608 61.01093677 -39.19311523 47.00146484 C-38.6546821 45.47887759 -38.11635163 43.95625402 -37.578125 42.43359375 C-37.31361038 41.68531311 -37.04909576 40.93703247 -36.77656555 40.16607666 C-34.88511993 34.80392857 -33.02715945 29.43090191 -31.1875 24.05078125 C-30.93269363 23.30593475 -30.67788727 22.56108826 -30.4153595 21.79367065 C-29.20872497 18.26330687 -28.00616339 14.73160794 -26.80834961 11.19824219 C-26.38561768 9.95848633 -25.96288574 8.71873047 -25.52734375 7.44140625 C-25.15971924 6.35722412 -24.79209473 5.27304199 -24.41333008 4.15600586 C-22.12513332 -2.07107686 -22.12513332 -2.07107686 -19.6953125 -3.9609375 C-13.19926046 -5.89219621 -6.02262776 -2.2570354 0 0 Z M-10.3828125 14.3515625 C-14.62488871 23.90899666 -17.98687842 33.70292067 -21.3142395 43.60626221 C-22.94907582 48.47106219 -24.59788711 53.33112306 -26.24609375 58.19140625 C-26.58513229 59.19200073 -26.92417084 60.19259521 -27.27348328 61.22351074 C-31.52462214 73.74906111 -35.90166592 86.23060182 -40.28271484 98.71118164 C-44.08595466 109.55808367 -47.78131485 120.43598841 -51.3828125 131.3515625 C-43.60678957 134.64073819 -35.79152759 137.77654862 -27.88671875 140.7421875 C-26.85014633 141.1322699 -25.81357391 141.52235229 -24.74559021 141.92425537 C-22.57894382 142.73871326 -20.4118711 143.55203789 -18.24438477 144.36425781 C-14.92752764 145.60823265 -11.61314571 146.85865222 -8.29882812 148.109375 C-6.18243868 148.90403747 -4.06590725 149.69832194 -1.94921875 150.4921875 C-0.46948326 151.0515097 -0.46948326 151.0515097 1.04014587 151.62213135 C1.96203201 151.96629089 2.88391815 152.31045044 3.83374023 152.66503906 C4.63915756 152.96750549 5.44457489 153.26997192 6.2743988 153.581604 C8.70436331 154.38021287 11.10148835 154.90055846 13.6171875 155.3515625 C13.79685562 154.83317307 13.97652374 154.31478363 14.16163635 153.78068542 C22.00193861 131.16049625 29.8449575 108.54128817 37.73358154 85.93789673 C38.67263674 83.24676844 39.61104843 80.55541651 40.54931641 77.86401367 C43.13034822 70.46238123 45.71561104 63.06246143 48.328125 55.671875 C48.90614868 54.03049561 48.90614868 54.03049561 49.49584961 52.35595703 C50.17240519 50.43626761 50.8525521 48.51783763 51.53735352 46.60107422 C51.96165649 45.39475342 51.96165649 45.39475342 52.39453125 44.1640625 C52.63421631 43.48988281 52.87390137 42.81570313 53.12084961 42.12109375 C53.75222172 40.17644571 53.75222172 40.17644571 53.6171875 37.3515625 C45.71778848 34.34690824 37.81639452 31.34758689 29.91238689 28.35507965 C26.24242749 26.96541786 22.57318653 25.57391949 18.90551758 24.17822266 C15.36695018 22.8317314 11.82658801 21.49006649 8.28492165 20.15174866 C6.93306044 19.63993818 5.58185849 19.1263829 4.23132896 18.61106873 C2.34175667 17.89041365 0.44962001 17.17649319 -1.44262695 16.46289062 C-2.51962357 16.0542981 -3.59662018 15.64570557 -4.70625305 15.22473145 C-7.38892675 14.19649155 -7.38892675 14.19649155 -10.3828125 14.3515625 Z " fill="#65BA69" transform="translate(391.3828125,319.6484375)"/>
</svg>
