<?xml version="1.0" encoding="UTF-8"?>
<svg version="1.1" xmlns="http://www.w3.org/2000/svg" width="512" height="512">
<path d="M0 0 C12.52492222 10.47290457 19.44435178 23.73248441 21.23828125 40.02734375 C21.42056808 44.63008613 21.18861595 47.86197946 19.36328125 52.12109375 C13.11177563 58.37259937 6.4753945 59.30447194 -2.13671875 59.62109375 C-2.10191406 60.6575 -2.06710937 61.69390625 -2.03125 62.76171875 C-2.00310393 64.13149417 -1.97580464 65.50128716 -1.94921875 66.87109375 C-1.91151367 67.89396484 -1.91151367 67.89396484 -1.87304688 68.9375 C-1.79660614 74.18643051 -1.79660614 74.18643051 -3.63395691 76.53456116 C-5.49604503 79.1200058 -5.4989184 80.51947293 -5.47387695 83.67749023 C-5.47451897 85.18441689 -5.47451897 85.18441689 -5.47517395 86.7217865 C-5.45652534 88.34063499 -5.45652534 88.34063499 -5.4375 89.9921875 C-5.44514083 92.28060185 -5.45363052 94.5690135 -5.46289062 96.85742188 C-5.46067775 100.46318491 -5.44914385 104.06841007 -5.42163086 107.67407227 C-5.40093963 111.15566855 -5.41692675 114.63562492 -5.4375 118.1171875 C-5.4189949 119.1943956 -5.40048981 120.2716037 -5.38142395 121.38145447 C-5.39130844 122.3892244 -5.40119293 123.39699432 -5.41137695 124.43530273 C-5.40446587 125.7595652 -5.40446587 125.7595652 -5.39741516 127.11058044 C-6.29495255 130.15842113 -7.77932516 131.76004399 -10.29991436 133.66815281 C-13.62176222 135.39153982 -16.85524783 135.1484858 -20.51171875 134.93359375 C-21.61580078 134.89975586 -21.61580078 134.89975586 -22.7421875 134.86523438 C-24.54125717 134.80682302 -26.33926628 134.71715712 -28.13671875 134.62109375 C-28.13395337 135.61444449 -28.13395337 135.61444449 -28.13113213 136.62786293 C-28.08681879 152.79741967 -28.05379719 168.96695699 -28.03309441 185.13656044 C-28.02281467 192.95629696 -28.00881809 200.77599276 -27.98583984 208.59570312 C-27.96580419 215.41731495 -27.95297836 222.23889726 -27.94854176 229.0605377 C-27.94595147 232.66713136 -27.93993345 236.27364064 -27.92525864 239.88020706 C-27.90894762 243.92229079 -27.90874552 247.96423106 -27.90966797 252.00634766 C-27.90247742 253.18096054 -27.89528687 254.35557343 -27.88787842 255.56578064 C-27.94160672 277.48250119 -33.36171476 295.97002836 -48.5625 312.203125 C-65.63626757 328.24054856 -85.88746256 332.17990431 -108.51171875 331.80859375 C-110.13410197 331.79349955 -111.75649899 331.77981963 -113.37890625 331.76757812 C-117.29852691 331.73499342 -121.21746388 331.68348189 -125.13671875 331.62109375 C-125.11577148 332.29575684 -125.09482422 332.97041992 -125.07324219 333.66552734 C-124.98917289 336.77555942 -124.93777431 339.88535134 -124.88671875 342.99609375 C-124.85320312 344.05699219 -124.8196875 345.11789062 -124.78515625 346.2109375 C-124.68393599 354.46038833 -125.8389567 361.45549958 -131.06640625 368.05859375 C-131.70835937 368.57421875 -132.3503125 369.08984375 -133.01171875 369.62109375 C-133.64851563 370.15734375 -134.2853125 370.69359375 -134.94140625 371.24609375 C-141.33173189 375.24857529 -147.82732171 374.90838577 -155.11764526 374.88851929 C-156.33402589 374.8930504 -157.55040652 374.89758151 -158.80364716 374.90224993 C-162.17238601 374.9127111 -165.54091116 374.91422135 -168.90965104 374.91186118 C-172.5457399 374.91145262 -176.18179705 374.92249581 -179.81787109 374.93197632 C-186.93851431 374.94857825 -194.05912441 374.95408548 -201.17978536 374.95520107 C-206.96809905 374.95615184 -212.75640183 374.96026357 -218.54471207 374.96660233 C-234.95932688 374.98421182 -251.37391555 374.99344155 -267.78853987 374.99194138 C-268.67317035 374.99186147 -269.55780082 374.99178155 -270.46923828 374.99169922 C-271.35494999 374.99161746 -272.2406617 374.9915357 -273.15321316 374.99145146 C-287.50962752 374.99063843 -301.865937 375.00978098 -316.22232102 375.03797595 C-330.96695889 375.06670475 -345.7115456 375.08051628 -360.45621216 375.0787884 C-368.7328148 375.07812454 -377.00930744 375.08361512 -385.28588486 375.1051445 C-392.33210031 375.12335616 -399.3781559 375.12770374 -406.4243847 375.11412565 C-410.01835232 375.10759612 -413.61201325 375.10747793 -417.20595169 375.12483215 C-421.10471807 375.14346449 -425.00303677 375.13100802 -428.90182495 375.11557007 C-430.03393209 375.12585719 -431.16603924 375.13614432 -432.33245265 375.14674318 C-440.05839396 375.07908499 -445.37078395 373.86215958 -451.37890625 368.69140625 C-451.91773438 368.04945313 -452.4565625 367.4075 -453.01171875 366.74609375 C-453.56601562 366.10929687 -454.1203125 365.4725 -454.69140625 364.81640625 C-457.69800584 360.24962526 -458.38987062 355.69855391 -458.44311523 350.31542969 C-458.45910263 349.08685242 -458.47509003 347.85827515 -458.49156189 346.59246826 C-458.49692459 345.27675842 -458.50228729 343.96104858 -458.5078125 342.60546875 C-458.51679369 341.22552399 -458.52591577 339.84558015 -458.53517151 338.46563721 C-458.55161848 335.5774907 -458.55935343 332.68945949 -458.56225586 329.80126953 C-458.56762791 326.12506587 -458.6052754 322.44996716 -458.65100002 318.77407455 C-458.68094868 315.92391136 -458.68798327 313.07400823 -458.68898201 310.22370148 C-458.69515989 308.21752674 -458.72453754 306.21146584 -458.75450134 304.20550537 C-458.7122745 295.58199376 -457.42618469 288.77799144 -451.80003357 282.01409912 C-444.34644653 274.99723533 -434.37118852 275.20452123 -424.7890625 275.328125 C-423.53662247 275.33236984 -422.28418243 275.33661469 -420.99378967 275.34098816 C-417.69422545 275.35485691 -414.39511642 275.38172105 -411.09570312 275.4151001 C-407.71685299 275.44601168 -404.33793572 275.45953812 -400.95898438 275.47460938 C-394.35138715 275.50756478 -387.74409011 275.55767886 -381.13671875 275.62109375 C-381.15412109 274.66775146 -381.17152344 273.71440918 -381.18945312 272.73217773 C-381.20298828 271.47735596 -381.21652344 270.22253418 -381.23046875 268.9296875 C-381.24787109 267.68759521 -381.26527344 266.44550293 -381.28320312 265.16577148 C-380.9904026 258.08048675 -378.41017878 253.50291121 -373.32421875 248.68359375 C-368.05385981 244.08697142 -361.90733871 243.36535491 -355.109375 243.42578125 C-353.18061523 243.43544922 -353.18061523 243.43544922 -351.21289062 243.4453125 C-349.87499721 243.46201774 -348.53710658 243.47894756 -347.19921875 243.49609375 C-345.83399092 243.50614053 -344.46875595 243.51526339 -343.10351562 243.5234375 C-339.78106676 243.5469177 -336.45898554 243.57976016 -333.13671875 243.62109375 C-332.49350877 239.90618885 -331.99962565 236.3941402 -332.01171875 232.62109375 C-332.00914062 231.81671875 -332.0065625 231.01234375 -332.00390625 230.18359375 C-332.15465841 227.27496381 -332.64017084 224.48894148 -333.13671875 221.62109375 C-334.40490448 221.6299762 -335.67309021 221.63885864 -336.97970581 221.64801025 C-348.95548285 221.7292437 -360.93120367 221.78913008 -372.90719414 221.82834244 C-379.06357214 221.84917991 -385.21972697 221.8774278 -391.37597656 221.92285156 C-397.32173977 221.96644563 -403.26728887 221.99025972 -409.21319962 222.00060272 C-411.47691338 222.00796972 -413.74061599 222.02235561 -416.00423813 222.04401398 C-419.18520807 222.07322762 -422.36530333 222.07704218 -425.54638672 222.07519531 C-426.47356003 222.08957642 -427.40073334 222.10395752 -428.35600281 222.11877441 C-436.31127426 222.06908895 -442.73744891 219.84369326 -449.38671875 215.49609375 C-460.27974879 204.10792599 -460.43487731 191.43055806 -460.39550781 176.5859375 C-460.39822126 174.86524305 -460.40178418 173.14454975 -460.40612793 171.42385864 C-460.41521211 166.77101392 -460.41172411 162.11825833 -460.40536976 157.46541214 C-460.40028916 152.58493061 -460.40500693 147.70445646 -460.40814209 142.82397461 C-460.41177574 134.62970619 -460.40699842 126.43547387 -460.39746094 118.24121094 C-460.38657756 108.78164876 -460.39010356 99.32217281 -460.40111375 89.86261272 C-460.41020376 81.7256201 -460.41146352 73.58865336 -460.40623641 65.4516573 C-460.40312614 60.5984436 -460.4026814 55.74527038 -460.40930939 50.89205933 C-460.41510718 46.32835754 -460.41104156 41.76476641 -460.39952087 37.20107651 C-460.39688727 35.53101662 -460.39761704 33.86094735 -460.4020462 32.19089127 C-460.43213273 19.68929703 -460.07902341 8.9531184 -452.13671875 -1.37890625 C-444.02239377 -9.35911015 -435.22495496 -10.82674628 -424.26368713 -10.7665863 C-423.0830552 -10.77197184 -421.90242326 -10.77735738 -420.68601459 -10.78290612 C-417.42630108 -10.79469985 -414.16691737 -10.79313211 -410.90720117 -10.7857393 C-407.38495879 -10.78099732 -403.86277053 -10.79352653 -400.34054565 -10.80375671 C-393.4470871 -10.82092969 -386.55371976 -10.82178789 -379.66024537 -10.81654381 C-374.05600336 -10.81249822 -368.45178826 -10.81395028 -362.84754753 -10.81929207 C-362.04915056 -10.82004049 -361.25075359 -10.82078891 -360.42816276 -10.82156001 C-358.80609361 -10.82309153 -357.18402447 -10.82462988 -355.56195533 -10.82617498 C-340.35971142 -10.83989449 -325.15751902 -10.83446611 -309.9552763 -10.82298977 C-296.05554863 -10.81305705 -282.15595407 -10.82599968 -268.25624693 -10.84992396 C-253.97370962 -10.87432143 -239.69123429 -10.8839213 -225.40867656 -10.87727123 C-217.39420795 -10.87378057 -209.3798417 -10.87600104 -201.36538887 -10.89352226 C-194.5432186 -10.90825231 -187.72122279 -10.90886922 -180.89905591 -10.89145135 C-177.42039333 -10.88294565 -173.94204231 -10.88078088 -170.46339607 -10.89610291 C-166.68754805 -10.9092851 -162.91254566 -10.89778805 -159.13673401 -10.88011169 C-158.04392248 -10.8897167 -156.95111096 -10.89932171 -155.82518393 -10.90921777 C-146.02137274 -10.814858 -139.03134199 -7.90085268 -131.859375 -1.2421875 C-129.29855652 1.52767739 -127.7759393 4.21655876 -126.13671875 7.62109375 C-125.59971879 8.72782125 -125.59971879 8.72782125 -125.05187035 9.85690689 C-123.89821966 13.34147281 -123.85330943 16.59503358 -123.86929321 20.2230835 C-123.8647621 20.98054627 -123.86023099 21.73800904 -123.85556257 22.51842523 C-123.8429191 25.05238486 -123.8445389 27.58612954 -123.84619141 30.12011719 C-123.84020605 31.93874386 -123.83340048 33.75736798 -123.82583618 35.57598877 C-123.80816792 40.51416961 -123.8034804 45.45228114 -123.80220461 50.39049053 C-123.80078271 53.47729653 -123.79651234 56.56408492 -123.79121017 59.65088654 C-123.77270588 70.42449563 -123.7645399 81.19805523 -123.76611328 91.97167969 C-123.7673142 102.00607255 -123.74622257 112.04025014 -123.71462595 122.07458854 C-123.68844952 130.69557573 -123.67774659 139.31649269 -123.6790241 147.93751931 C-123.67953341 153.08372581 -123.67386757 158.22974107 -123.652668 163.3759079 C-123.63326311 168.21869954 -123.63317659 173.06111801 -123.64770126 177.90392303 C-123.64978779 179.67719062 -123.64509779 181.4504817 -123.63298035 183.22370911 C-123.55363051 195.6441696 -124.59733807 204.51795733 -133.34375 213.8984375 C-140.55728041 220.82908436 -147.71340599 221.91800916 -157.27294922 221.93994141 C-158.78119011 221.95500984 -158.78119011 221.95500984 -160.31990051 221.97038269 C-163.63123014 222.00118275 -166.94247903 222.01824118 -170.25390625 222.03515625 C-172.55462334 222.05387043 -174.85533359 222.07344403 -177.15603638 222.09384155 C-183.20251427 222.1451422 -189.2490144 222.18477914 -195.29559326 222.22198486 C-201.46925348 222.26203735 -207.64282132 222.31312405 -213.81640625 222.36328125 C-225.92311217 222.46001614 -238.02987027 222.54442885 -250.13671875 222.62109375 C-251.06001014 226.03919734 -251.27059631 229.07006841 -251.26171875 232.62109375 C-251.26429688 233.65234375 -251.266875 234.68359375 -251.26953125 235.74609375 C-251.15452877 238.23555912 -250.78088141 240.23634858 -250.13671875 242.62109375 C-249.33564697 242.63567627 -248.5345752 242.65025879 -247.70922852 242.6652832 C-244.03876829 242.74028791 -240.3691658 242.83677583 -236.69921875 242.93359375 C-235.43916016 242.95615234 -234.17910156 242.97871094 -232.88085938 243.00195312 C-223.15342217 243.28133122 -214.890209 244.10741305 -207.57421875 250.94921875 C-202.68335101 256.63751058 -202.08801088 263.6486986 -202.1171875 270.8203125 C-202.12141724 272.16935669 -202.12141724 272.16935669 -202.12573242 273.5456543 C-202.12935791 274.23054932 -202.1329834 274.91544434 -202.13671875 275.62109375 C-201.44260391 275.61443192 -200.74848907 275.60777008 -200.03334045 275.60090637 C-193.45807165 275.54053102 -186.8828814 275.49498609 -180.30739689 275.46565723 C-176.92771031 275.45007149 -173.54825481 275.42896519 -170.16870117 275.39477539 C-166.27386472 275.35821425 -162.3793523 275.34132608 -158.484375 275.328125 C-156.68384422 275.30489922 -156.68384422 275.30489922 -154.84693909 275.28120422 C-146.80666204 275.2796068 -139.42223083 275.88566181 -132.82421875 280.87109375 C-126.89356879 286.9396658 -124.99413991 292.9588511 -125.0390625 301.359375 C-125.04228516 302.42607422 -125.04550781 303.49277344 -125.04882812 304.59179688 C-125.05720703 305.69458984 -125.06558594 306.79738281 -125.07421875 307.93359375 C-125.07873047 309.05572266 -125.08324219 310.17785156 -125.08789062 311.33398438 C-125.09964562 314.09640885 -125.11607798 316.85872373 -125.13671875 319.62109375 C-121.24436927 319.52590357 -117.35248568 319.41950137 -113.46069336 319.30371094 C-111.5032452 319.2476413 -109.54556474 319.19987453 -107.58789062 319.15234375 C-86.97800511 318.52303427 -69.543603 314.75954092 -54.82421875 299.37109375 C-44.43801488 286.96298543 -41.68592954 272.54020402 -41.7043457 256.77441406 C-41.69530418 255.43275057 -41.68497121 254.09109527 -41.67346191 252.74945068 C-41.64614573 249.14694785 -41.63664244 245.54460279 -41.63060784 241.94200993 C-41.62115723 238.16234786 -41.59494907 234.38280063 -41.57060242 230.60321045 C-41.52711615 223.46377413 -41.49845991 216.32436032 -41.47527903 209.18483233 C-41.44813089 201.04921281 -41.40422578 192.91370985 -41.35899031 184.77817392 C-41.26640038 168.05920651 -41.19460293 151.34021813 -41.13671875 134.62109375 C-42.89048828 134.70810547 -42.89048828 134.70810547 -44.6796875 134.796875 C-46.22782455 134.84378824 -47.77600492 134.88928673 -49.32421875 134.93359375 C-50.47760742 134.99643555 -50.47760742 134.99643555 -51.65429688 135.06054688 C-55.95928448 135.15292858 -57.6105371 135.03172179 -61.125 132.2890625 C-63.81716443 128.71867744 -64.26194223 126.17591803 -64.31030273 121.83007812 C-64.32379257 120.85897095 -64.33728241 119.88786377 -64.35118103 118.8873291 C-64.36683861 117.31694885 -64.36683861 117.31694885 -64.3828125 115.71484375 C-64.41573958 113.5052042 -64.44895141 111.29556888 -64.48242188 109.0859375 C-64.52992171 105.59654544 -64.57437495 102.10717191 -64.61352539 98.61767578 C-64.65314487 95.25405281 -64.70470218 91.8907769 -64.7578125 88.52734375 C-64.77043373 86.9569635 -64.77043373 86.9569635 -64.78330994 85.3548584 C-64.79995193 84.38375122 -64.81659393 83.41264404 -64.83374023 82.41210938 C-64.8440477 81.55734009 -64.85435516 80.7025708 -64.86497498 79.82189941 C-65.00534887 77.33221221 -65.00534887 77.33221221 -67.13671875 74.62109375 C-67.43124459 72.23432299 -67.62954045 69.83483281 -67.76171875 67.43359375 C-67.87386719 65.52513672 -67.87386719 65.52513672 -67.98828125 63.578125 C-68.03726562 62.60230469 -68.08625 61.62648438 -68.13671875 60.62109375 C-69.00554687 60.4509375 -69.874375 60.28078125 -70.76953125 60.10546875 C-83.55648043 57.41649062 -83.55648043 57.41649062 -88.76171875 51.8984375 C-92.46529501 45.76438932 -90.48291681 36.13279921 -89.01171875 29.43359375 C-84.6529806 14.23854827 -74.48544061 2.78915019 -61.13671875 -5.37890625 C-41.51703621 -15.39746755 -17.53656468 -13.29983548 0 0 Z M-442.9765625 7.4375 C-443.51990234 8.30181641 -443.51990234 8.30181641 -444.07421875 9.18359375 C-444.45449219 9.76238281 -444.83476562 10.34117188 -445.2265625 10.9375 C-447.36822809 14.89912175 -447.26950299 18.33714732 -447.28388977 22.76152039 C-447.28756646 23.49347856 -447.29124315 24.22543673 -447.29503125 24.97957546 C-447.30606879 27.4391088 -447.30991206 29.89859989 -447.3137207 32.3581543 C-447.31998534 34.11899449 -447.32663214 35.87983336 -447.33363342 37.64067078 C-447.3546775 43.42970865 -447.36503664 49.21874679 -447.375 55.0078125 C-447.37904753 57.00086799 -447.38316445 58.99392333 -447.38735008 60.98697853 C-447.4064031 70.35115132 -447.42063348 79.71531622 -447.42896205 89.07950467 C-447.43873305 99.88699392 -447.46504855 110.69427828 -447.50546294 121.50169533 C-447.53563097 129.85595361 -447.55043162 138.21015318 -447.55374306 146.56446487 C-447.55609292 151.55363001 -447.56504495 156.54257629 -447.59020424 161.53168297 C-447.6135017 166.2275128 -447.61771144 170.92297994 -447.60744286 175.61885262 C-447.60694778 177.33933087 -447.61325992 179.05982708 -447.6269989 180.78025055 C-447.87684165 192.80243913 -447.87684165 192.80243913 -443.13671875 203.62109375 C-441.44362061 205.47622189 -441.44362061 205.47622189 -439.57421875 206.55859375 C-438.99542969 206.93886719 -438.41664063 207.31914062 -437.8203125 207.7109375 C-434.6014457 209.45106735 -431.95055391 209.74781711 -428.36741257 209.75531483 C-426.88622676 209.76200159 -426.88622676 209.76200159 -425.37511802 209.76882344 C-424.28749301 209.76863908 -423.19986801 209.76845472 -422.07928467 209.76826477 C-420.92601504 209.77194146 -419.7727454 209.77561815 -418.58452821 209.77940625 C-415.37816874 209.78853408 -412.17183936 209.793143 -408.96546912 209.79579556 C-405.50931487 209.79969865 -402.05317543 209.80927695 -398.59703064 209.81800842 C-390.24816101 209.83777209 -381.89929017 209.84783865 -373.550403 209.85673621 C-369.61931744 209.86111903 -365.68823323 209.86648584 -361.75714874 209.87172508 C-348.69048721 209.88873681 -335.62382652 209.90323139 -322.55715561 209.91047382 C-319.16619618 209.91238373 -315.77523675 209.91430406 -312.38427734 209.91625977 C-311.54146604 209.91674351 -310.69865474 209.91722725 -309.8303037 209.91772565 C-296.17464431 209.92602751 -282.51907248 209.9513673 -268.86345133 209.98384044 C-254.84551696 210.0169036 -240.8276271 210.03492189 -226.80965352 210.03811806 C-218.9382403 210.04028379 -211.06695477 210.04904157 -203.19557953 210.07457924 C-196.49255645 210.09627607 -189.78969209 210.1043417 -183.08663788 210.09461246 C-179.66697577 210.09006481 -176.24764119 210.09198041 -172.82802391 210.1113739 C-169.1191004 210.12900247 -165.41101074 210.12203003 -161.7020874 210.10884094 C-160.62338528 210.11981019 -159.54468317 210.13077943 -158.4332931 210.14208108 C-151.27538356 210.08052984 -146.87685381 208.96753038 -141.4296875 204.09375 C-137.02741506 198.47813039 -135.88765917 194.42661728 -135.86929321 187.31608582 C-135.86249654 186.22783594 -135.86249654 186.22783594 -135.85556257 185.11760122 C-135.84292441 182.69186105 -135.84453854 180.26634557 -135.84619141 177.84057617 C-135.84020576 176.09914359 -135.83340013 174.35771367 -135.82583618 172.61628723 C-135.80817199 167.88891 -135.8034806 163.16160518 -135.80220461 158.43419814 C-135.80078261 155.47939727 -135.79651208 152.52461479 -135.79121017 149.5698185 C-135.77270805 139.25771542 -135.76453973 128.94566404 -135.76611328 118.63354492 C-135.76731452 109.02742828 -135.74621608 99.42153638 -135.71462595 89.8154766 C-135.6884564 81.56307901 -135.67774628 73.3107548 -135.6790241 65.05831605 C-135.67953356 60.13179105 -135.67385916 55.20546576 -135.652668 50.27898216 C-135.63327438 45.6438445 -135.63316883 41.00909682 -135.64770126 36.37394524 C-135.64978911 34.67604756 -135.64508988 32.9781254 -135.63298035 31.28026962 C-135.28999932 18.21878542 -135.28999932 18.21878542 -141.5486393 7.12224102 C-145.96119285 3.14190193 -150.24592398 1.37357893 -156.13370991 1.36382484 C-157.12104911 1.35737595 -158.10838832 1.35092706 -159.12564689 1.34428275 C-160.74148627 1.34892855 -160.74148627 1.34892855 -162.38996887 1.35366821 C-163.54015824 1.3491371 -164.6903476 1.34460599 -165.87539119 1.33993757 C-169.06393669 1.32946841 -172.25234035 1.32796755 -175.44089758 1.33032632 C-178.88136575 1.33073459 -182.32180031 1.31969437 -185.76225281 1.31021118 C-192.50136004 1.29360225 -199.24043228 1.28810168 -205.97955827 1.28698643 C-211.45801815 1.28603588 -216.93646649 1.28192525 -222.41492271 1.27558517 C-237.95004553 1.25797288 -253.48514073 1.24874626 -269.0202736 1.25024612 C-269.85767755 1.25032603 -270.6950815 1.25040595 -271.55786133 1.25048828 C-272.3962887 1.25057004 -273.23471608 1.2506518 -274.09855034 1.25073604 C-287.6855142 1.25154889 -301.27236719 1.23241152 -314.85929898 1.20421155 C-328.81289694 1.17547926 -342.76644082 1.16167145 -356.72006911 1.1633991 C-364.55291182 1.16406289 -372.38563831 1.15857532 -380.21845436 1.137043 C-386.88773945 1.11882662 -393.55685564 1.11448752 -400.22615484 1.12806185 C-403.62772153 1.13458936 -407.02896422 1.13471709 -410.43050003 1.11735535 C-414.12146262 1.1019451 -417.81157376 1.11118457 -421.5025177 1.12661743 C-422.57305179 1.11633031 -423.64358588 1.10604318 -424.74656039 1.09544432 C-431.91837823 1.16172843 -437.65417282 2.18291147 -442.9765625 7.4375 Z M-66.23828125 14.5859375 C-74.50274159 23.14445167 -77.88145675 32.83263054 -78.13671875 44.62109375 C-75.32289811 46.49697418 -74.24869899 46.95102963 -71.07421875 47.4375 C-70.28345947 47.5614917 -69.4927002 47.6854834 -68.67797852 47.81323242 C-67.83936279 47.93545166 -67.00074707 48.0576709 -66.13671875 48.18359375 C-65.27167725 48.31290283 -64.40663574 48.44221191 -63.51538086 48.57543945 C-61.05734198 48.93601334 -58.59785733 49.28240005 -56.13671875 49.62109375 C-54.65365234 49.82605469 -54.65365234 49.82605469 -53.140625 50.03515625 C-36.53684977 51.89477908 -5.49805522 54.19531806 8.86328125 44.62109375 C7.59833843 31.09929118 3.14182357 19.82248865 -7.13671875 10.62109375 C-26.34358465 -3.52806756 -48.98312847 -1.54666816 -66.23828125 14.5859375 Z M-55.13671875 61.62109375 C-55.13671875 63.93109375 -55.13671875 66.24109375 -55.13671875 68.62109375 C-41.60671875 68.62109375 -28.07671875 68.62109375 -14.13671875 68.62109375 C-14.13671875 66.31109375 -14.13671875 64.00109375 -14.13671875 61.62109375 C-27.66671875 61.62109375 -41.19671875 61.62109375 -55.13671875 61.62109375 Z M-51.13671875 80.62109375 C-51.13671875 94.48109375 -51.13671875 108.34109375 -51.13671875 122.62109375 C-40.24671875 122.62109375 -29.35671875 122.62109375 -18.13671875 122.62109375 C-18.13671875 108.76109375 -18.13671875 94.90109375 -18.13671875 80.62109375 C-29.02671875 80.62109375 -39.91671875 80.62109375 -51.13671875 80.62109375 Z M-320.13671875 221.62109375 C-319.80671875 225.91109375 -319.47671875 230.20109375 -319.13671875 234.62109375 C-319.46671875 237.59109375 -319.79671875 240.56109375 -320.13671875 243.62109375 C-301.32671875 243.62109375 -282.51671875 243.62109375 -263.13671875 243.62109375 C-263.63171875 240.65109375 -263.63171875 240.65109375 -264.13671875 237.62109375 C-264.22301203 235.95614109 -264.26706227 234.28827261 -264.26171875 232.62109375 C-264.26429688 231.81671875 -264.266875 231.01234375 -264.26953125 230.18359375 C-264.1205129 227.30841623 -263.61002947 224.46095805 -263.13671875 221.62109375 C-281.94671875 221.62109375 -300.75671875 221.62109375 -320.13671875 221.62109375 Z M-367.13671875 260.62109375 C-369.37775026 265.10315677 -368.13671875 270.60999496 -368.13671875 275.62109375 C-317.64671875 275.62109375 -267.15671875 275.62109375 -215.13671875 275.62109375 C-213.78321281 263.2457888 -213.78321281 263.2457888 -219.13671875 257.62109375 C-221.7721345 256.30338587 -223.74396114 256.48615563 -226.69648743 256.47392273 C-227.87840668 256.46676743 -229.06032593 256.45961212 -230.27806091 256.45223999 C-232.23317345 256.44820663 -232.23317345 256.44820663 -234.2277832 256.4440918 C-235.60911226 256.43782792 -236.99043963 256.43118118 -238.37176514 256.42417908 C-242.13012115 256.40676264 -245.88846445 256.39621561 -249.64685082 256.38797355 C-251.994384 256.38282482 -254.34191321 256.37674903 -256.68944359 256.37046242 C-264.03266523 256.35140865 -271.3758768 256.33717784 -278.71911842 256.32885045 C-287.19877208 256.31907589 -295.67816486 256.29275164 -304.15772659 256.25234956 C-310.70981008 256.22220133 -317.26181874 256.20738282 -323.81397027 256.20406944 C-327.72828913 256.20171748 -331.64232934 256.19273862 -335.55657387 256.16760826 C-339.23957312 256.14434479 -342.92210992 256.14008702 -346.60516357 256.15036964 C-348.59974624 256.15110186 -350.59430532 256.13199849 -352.58879089 256.11230469 C-353.77916962 256.1192485 -354.96954834 256.12619232 -356.19599915 256.13334656 C-357.22857503 256.1309582 -358.26115091 256.12856985 -359.32501698 256.12610912 C-362.87756572 256.75151578 -364.55550059 258.15377455 -367.13671875 260.62109375 Z M-444.13671875 292.62109375 C-446.04712756 296.16796706 -446.39196524 299.14880455 -446.41137695 303.14233398 C-446.42090897 304.22373154 -446.43044098 305.30512909 -446.44026184 306.41929626 C-446.43935043 307.57772537 -446.43843903 308.73615448 -446.4375 309.9296875 C-446.44178513 311.12916519 -446.44607025 312.32864288 -446.45048523 313.56446838 C-446.456223 316.09871795 -446.45673288 318.63298398 -446.45239258 321.16723633 C-446.44923325 325.04081357 -446.47269782 328.91362655 -446.49804688 332.78710938 C-446.50031999 335.25130112 -446.50102331 337.71549492 -446.5 340.1796875 C-446.50920975 341.33609238 -446.51841949 342.49249725 -446.52790833 343.6839447 C-446.48311599 351.56857508 -446.48311599 351.56857508 -443.13671875 358.62109375 C-439.42658501 361.98340245 -436.18695067 362.74550643 -431.27091503 362.75252151 C-429.75745362 362.75828323 -429.75745362 362.75828323 -428.21341723 362.76416135 C-427.10176442 362.76329487 -425.9901116 362.76242838 -424.84477234 362.76153564 C-423.07705757 362.76599233 -423.07705757 362.76599233 -421.27363139 362.77053905 C-417.9969299 362.77772668 -414.72026032 362.78039893 -411.44355214 362.78113651 C-407.91175378 362.78298607 -404.37996682 362.7905329 -400.84817505 362.79727173 C-393.12299117 362.81085949 -385.39781247 362.81688042 -377.67261863 362.82128239 C-372.85011736 362.82404398 -368.02761809 362.82828118 -363.20511818 362.83278656 C-349.85622502 362.84497966 -336.50733347 362.85527899 -323.15843487 362.85866165 C-322.30390995 362.85888122 -321.44938503 362.85910078 -320.56896542 362.859327 C-319.71238251 362.85954528 -318.8557996 362.85976356 -317.97325963 362.85998845 C-316.2374628 362.86043192 -314.50166597 362.86087848 -312.76586914 362.86132812 C-311.47434319 362.86166027 -311.47434319 362.86166027 -310.1567258 362.86199912 C-296.20294844 362.86594773 -282.24922328 362.88340349 -268.29546609 362.90668765 C-253.97356289 362.93039347 -239.6516859 362.94286315 -225.32976276 362.94402957 C-217.28682126 362.94494675 -209.24394778 362.95070984 -201.20102501 362.96884918 C-194.35269758 362.98423978 -187.50445919 362.9893768 -180.65611776 362.98111108 C-177.16170169 362.97720089 -173.66746498 362.97815195 -170.17307091 362.99216843 C-166.38509697 363.00481221 -162.59758633 362.99905188 -158.80961609 362.98858643 C-157.70465544 362.99664283 -156.59969479 363.00469923 -155.46125048 363.01299977 C-148.99517769 362.97109329 -144.12687845 362.55363322 -139.28697205 357.80699158 C-137.78653773 354.95562299 -137.74907664 352.86536675 -137.73266602 349.64672852 C-137.71998184 348.44190323 -137.70729767 347.23707794 -137.69422913 345.9957428 C-137.69716476 344.69777267 -137.7001004 343.39980255 -137.703125 342.0625 C-137.69856182 340.71255735 -137.69325584 339.36261702 -137.6872406 338.01268005 C-137.67831393 335.18568475 -137.68072701 332.358972 -137.69067383 329.53198242 C-137.70215969 325.91586617 -137.68195737 322.30072701 -137.65275669 318.68473911 C-137.63437599 315.89737287 -137.6346908 313.11023995 -137.64039421 310.32282829 C-137.64062142 308.34365053 -137.62373861 306.36449465 -137.60658264 304.38539124 C-137.62065407 302.57342506 -137.62065407 302.57342506 -137.63500977 300.72485352 C-137.63517593 299.66436295 -137.6353421 298.60387238 -137.63551331 297.51124573 C-138.26046832 293.90750398 -139.62889113 292.23357793 -142.13671875 289.62109375 C-144.60203005 288.3884381 -146.21790954 288.49239878 -148.97597218 288.48687267 C-150.00447247 288.48241483 -151.03297277 288.47795699 -152.09263974 288.47336406 C-153.23123321 288.47354842 -154.36982668 288.47373278 -155.54292297 288.47392273 C-156.74575194 288.47024604 -157.94858091 288.46656935 -159.18785924 288.46278125 C-162.53716548 288.45364232 -165.88642267 288.44904208 -169.23573673 288.44639194 C-172.84388231 288.44249332 -176.45201364 288.43291472 -180.06015015 288.42417908 C-188.77872948 288.40440273 -197.49731001 288.39434724 -206.21590617 288.38545129 C-210.31909577 288.38107053 -214.42228407 288.3757032 -218.52547264 288.37046242 C-232.16084303 288.3534494 -245.79621261 288.33895427 -259.43159199 288.33171368 C-262.97124037 288.32980371 -266.51088875 288.32788338 -270.05053711 288.32592773 C-270.93032591 288.32544399 -271.81011471 288.32496025 -272.71656378 288.32446185 C-286.97502304 288.31615796 -301.2333985 288.29081532 -315.49182115 288.25834706 C-330.12218086 288.22530273 -344.75249794 288.20726732 -359.38289517 288.20406944 C-367.60078354 288.20190196 -375.81854969 288.19311863 -384.03640175 288.16760826 C-391.03375077 288.14593713 -398.0309479 288.13783309 -405.02832667 288.14757504 C-408.59962367 288.15213017 -412.17060704 288.15016381 -415.74186134 288.1308136 C-419.61122684 288.11002884 -423.48015664 288.12013374 -427.3495636 288.13334656 C-429.04741555 288.11689269 -429.04741555 288.11689269 -430.77956754 288.10010642 C-438.30839318 288.11548915 -438.30839318 288.11548915 -444.13671875 292.62109375 Z " fill="#000000" transform="translate(464.13671875,98.37890625)"/>
<path d="M0 0 C0.97730875 -0.00467997 1.95461749 -0.00935994 2.96154165 -0.01418173 C6.21559063 -0.02608707 9.46921497 -0.01669183 12.7232666 -0.00723267 C15.0646438 -0.01130034 17.40601909 -0.01664332 19.74739075 -0.02316284 C26.09234909 -0.03681884 32.43716081 -0.03154477 38.78212166 -0.02202559 C44.75417003 -0.01519161 50.72620509 -0.02041317 56.6982531 -0.02480717 C69.24707674 -0.03335058 81.79583451 -0.02354344 94.34464735 -0.00740607 C105.09930471 0.00599617 115.8538649 0.00366778 126.60852051 -0.01016235 C139.1141191 -0.02623674 151.61966003 -0.03252671 164.12526751 -0.02332556 C170.73906353 -0.01859105 177.35280547 -0.01801252 183.96659851 -0.02793503 C190.18501115 -0.03661301 196.40324064 -0.03056731 202.62163353 -0.01325226 C204.90123885 -0.0092919 207.18085963 -0.01041371 209.46045876 -0.01704025 C212.57711742 -0.02526345 215.69319274 -0.01492435 218.80981445 0 C219.70739645 -0.00669217 220.60497844 -0.01338433 221.52975988 -0.02027929 C231.09663023 0.06830383 238.00034156 2.59011983 244.95568848 9.19345093 C250.41928421 15.32494113 252.01670561 21.9494359 252.05207825 30.0333252 C252.0628112 31.72365623 252.0628112 31.72365623 252.07376099 33.44813538 C252.07644989 34.6752272 252.07913879 35.90231903 252.08190918 37.16659546 C252.08848038 38.4663884 252.09505157 39.76618134 252.1018219 41.10536194 C252.12279736 45.40815002 252.13321969 49.71093819 252.14318848 54.01376343 C252.14723878 55.49970391 252.15135578 56.98564421 252.15553856 58.47158432 C252.17457767 65.45600292 252.18881013 72.44041105 252.19715053 79.42485058 C252.20691179 87.46464693 252.23320743 95.50416715 252.27365142 103.54386628 C252.30390046 109.77253985 252.31862778 116.00113467 252.32193154 122.22988021 C252.32427242 125.94314407 252.33310606 129.65611253 252.35839272 133.36929703 C252.38619886 137.51935185 252.38181559 141.66879688 252.37487793 145.81893921 C252.39409302 147.64135887 252.39409302 147.64135887 252.41369629 149.50059509 C252.35603788 158.99825992 250.87076541 167.57055039 244.34240723 174.81845093 C233.42176459 184.48665654 219.4547015 182.95150614 205.78356934 182.89852905 C203.43366564 182.9039546 201.08376535 182.91107969 198.73387146 182.91976929 C192.37446471 182.93795282 186.0153185 182.93095574 179.65590739 182.91825294 C173.66662512 182.90913106 167.67736632 182.91610632 161.68808467 182.92196172 C149.1043889 182.9333456 136.52081003 182.92028791 123.93713344 182.89876026 C113.15606923 182.88088708 102.37517732 182.88399938 91.59411621 182.9024353 C79.05149124 182.92387374 66.50896847 182.93225153 53.96632773 182.91998625 C47.33518857 182.91367697 40.70414526 182.91289326 34.0730114 182.9261322 C27.83892219 182.93770999 21.60515754 182.92962923 15.37110329 182.90655518 C13.08708103 182.90127869 10.80303132 182.90276362 8.51902008 182.91160583 C5.39390144 182.92258637 2.26981364 182.90876673 -0.85523987 182.8888855 C-2.20103366 182.90226983 -2.20103366 182.90226983 -3.5740152 182.91592455 C-11.42325578 182.81950326 -19.83528259 180.59773534 -25.72800827 175.08789062 C-32.53936962 166.58323488 -33.97462339 157.95049806 -33.87145996 147.35751343 C-33.87961334 145.99590381 -33.89030932 144.63430746 -33.90332031 143.2727356 C-33.93042158 139.6112632 -33.92017515 135.95081737 -33.9010458 132.28932953 C-33.88572311 128.43524154 -33.89997935 124.58123423 -33.90936279 120.72714233 C-33.92024077 114.25807108 -33.90599361 107.78941247 -33.87731934 101.32040405 C-33.84467234 93.86967965 -33.85525208 86.41994075 -33.88827777 78.96924019 C-33.9156148 72.54160261 -33.91929503 66.11425957 -33.90364575 59.68658257 C-33.89435094 55.86101026 -33.89287824 52.03589927 -33.91286469 48.21035767 C-33.93035812 44.61141704 -33.91788885 41.0137314 -33.88349915 37.41492462 C-33.87194302 35.48505824 -33.88947005 33.55508412 -33.90826416 31.62527466 C-33.77667569 22.47000683 -31.69403675 14.07672246 -25.10007858 7.34393311 C-17.83347279 1.24480564 -9.20760445 -0.06864978 0 0 Z M-18.53783417 19.06811523 C-21.74329779 25.32539068 -21.65964678 31.35815843 -21.6126709 38.27938843 C-21.61968018 39.55517761 -21.62668945 40.8309668 -21.63391113 42.14541626 C-21.65205225 45.62486419 -21.64511567 49.10383447 -21.63239479 52.5832901 C-21.62221894 56.2363965 -21.63167313 59.88946389 -21.63793945 63.54257202 C-21.6452026 69.67562144 -21.63566337 75.80847775 -21.61657715 81.9414978 C-21.59481079 89.01713475 -21.60186312 96.09231055 -21.62388277 103.16793633 C-21.64207498 109.25908269 -21.64457652 115.35009079 -21.63412809 121.44125557 C-21.62791405 125.07217078 -21.62699948 128.70286971 -21.64027405 132.33377075 C-21.65404792 136.38362634 -21.63492089 140.43269555 -21.6126709 144.48251343 C-21.62076782 145.67548035 -21.62886475 146.86844727 -21.63720703 148.0975647 C-21.56722749 154.98492646 -20.85258709 159.54688499 -17.09509277 165.38095093 C-12.5283447 169.09143374 -8.77804288 170.50209698 -2.98360729 170.51237869 C-2.16832882 170.51621984 -1.35305035 170.52006098 -0.51306647 170.52401853 C0.82218065 170.5227188 0.82218065 170.5227188 2.18440247 170.52139282 C3.1343489 170.52436394 4.08429534 170.52733507 5.06302804 170.53039622 C8.25422645 170.53908542 11.44538736 170.54059166 14.63659668 170.54208374 C16.92136719 170.54671172 19.20613693 170.55173636 21.49090576 170.55712891 C27.70375039 170.57025603 33.91658421 170.57669837 40.12944055 170.58113956 C44.00971323 170.58406953 47.88998294 170.58817417 51.77025414 170.59264374 C62.51651203 170.60475203 73.26276605 170.61513449 84.00903034 170.61851883 C84.69658235 170.6187384 85.38413435 170.61895796 86.09252126 170.61918418 C87.12629466 170.6195116 87.12629466 170.6195116 88.18095237 170.61984563 C89.57746271 170.62028909 90.97397306 170.62073566 92.3704834 170.6211853 C93.06319846 170.62140673 93.75591352 170.62162816 94.46961995 170.6218563 C105.69378989 170.62580423 116.9178949 170.64325892 128.14203975 170.66654482 C139.66946207 170.69026664 151.19684256 170.70246313 162.72429055 170.70388675 C169.1950344 170.70493566 175.66568666 170.71086195 182.13640785 170.72870636 C188.22258425 170.74516378 194.30859996 170.74735379 200.39479065 170.73856735 C202.62847511 170.73779576 204.86216813 170.74215575 207.09583092 170.7520256 C210.14556634 170.76471108 213.19472972 170.75888652 216.24446106 170.7484436 C217.56966994 170.76052821 217.56966994 170.76052821 218.92165071 170.77285695 C224.90236148 170.72497471 229.98635337 169.95268112 234.64709473 165.84579468 C237.88686559 161.47768983 239.02884762 159.41716544 239.05207825 154.01773071 C239.05923355 152.87932739 239.06638885 151.74092407 239.07376099 150.56802368 C239.07644989 149.31294006 239.07913879 148.05785645 239.08190918 146.76473999 C239.08848038 145.4476001 239.09505157 144.13046021 239.1018219 142.77340698 C239.11923804 139.15340938 239.12978562 135.533425 239.13802743 131.91339588 C239.14317699 129.6516198 239.14925279 127.38984783 239.15553856 125.12807465 C239.17459359 118.05128512 239.18882325 110.97450604 239.19715053 103.89769578 C239.20692083 95.72934032 239.2332334 87.561256 239.27365142 79.39299607 C239.30381901 73.07953609 239.31862005 66.76615379 239.32193154 60.45262313 C239.32428159 56.68190854 239.33323538 52.91148351 239.35839272 49.14084625 C239.38168963 45.5916253 239.38590054 42.04288419 239.37563133 38.49360657 C239.37490063 36.57436005 239.39398127 34.65513782 239.41369629 32.73599243 C239.40851434 24.30164187 239.40851434 24.30164187 234.90490723 17.38095093 C229.66201471 12.9954657 225.64553065 12.8091154 219.11242676 12.87301636 C218.13148104 12.86677639 217.15053532 12.86053643 216.13986397 12.85410738 C212.8555708 12.83816306 209.5720183 12.85078768 206.28771973 12.8633728 C203.93206347 12.85795235 201.5764106 12.85083012 199.22076416 12.84213257 C192.82414194 12.8238874 186.42777759 12.83097188 180.03115082 12.84364891 C174.01768371 12.85435218 168.00422103 12.8458044 161.99075246 12.83994013 C149.35474205 12.82853813 136.71884778 12.84164202 124.08285642 12.8631416 C113.24418499 12.88101228 102.40568494 12.87790806 91.5670166 12.85946655 C78.97575751 12.83805307 66.38460018 12.82963673 53.79332542 12.84191561 C47.12981815 12.84823747 40.46641353 12.84897558 33.80291748 12.83576965 C27.53853851 12.8242221 21.27448342 12.83221737 15.01013947 12.85534668 C12.70992826 12.86063955 10.40968984 12.85911017 8.10948944 12.85029602 C4.97175315 12.83938028 1.83505751 12.85305711 -1.3026123 12.87301636 C-2.21487013 12.86409347 -3.12712795 12.85517058 -4.06702995 12.84597731 C-10.27519125 12.9226802 -14.32713147 14.14405377 -18.53783417 19.06811523 Z " fill="#000000" transform="translate(63.0950927734375,112.61904907226563)"/>
<path d="M0 0 C2.67578125 1.609375 2.67578125 1.609375 5.3125 3.75 C15.68685562 11.7248448 24.99665978 13.82030417 38 13 C46.5934681 11.54306144 54.1944292 7.28662933 60.75 1.625 C63.78825991 -0.56929883 65.29994207 -0.48444665 69 0 C71.23979681 1.65223614 72.97990849 3.16781614 74.89770508 5.13720703 C75.45292847 5.6835228 76.00815186 6.22983856 76.5802002 6.79270935 C78.4085495 8.5997769 80.21421686 10.42775357 82.01953125 12.2578125 C83.28556511 13.52234383 84.55256262 14.78591105 85.82048035 16.04855347 C88.47362013 18.69736135 91.11586883 21.35645221 93.75073242 24.0234375 C97.12612369 27.43858831 100.52545927 30.82865313 103.93311024 34.21158028 C106.55293021 36.81720557 109.16046582 39.43484937 111.7643795 42.05636215 C113.01315502 43.31098161 114.26551003 44.56204885 115.52149391 45.80945206 C117.27659457 47.55654695 119.01471283 49.31896174 120.74926758 51.08642578 C121.26923813 51.59784622 121.78920868 52.10926666 122.32493591 52.63618469 C125.52742552 55.94407191 126.81035922 58.38075527 127 63 C119.1318915 79.29122881 91.80987938 91.25702375 76 97 C72.99669006 97.98223173 69.97662846 98.88534836 66.9375 99.75 C65.89456787 100.04825684 65.89456787 100.04825684 64.83056641 100.35253906 C31.49627519 109.32271759 -5.23014499 104.08717483 -35.15771484 87.09765625 C-45.84461003 80.73027211 -55.22037929 72.77962071 -64 64 C-63.79529689 58.03503998 -61.88212464 55.00922287 -57.74926758 50.97290039 C-56.92957489 50.13743683 -56.92957489 50.13743683 -56.09332275 49.28509521 C-54.29180983 47.4572803 -52.46936155 45.65217005 -50.64453125 43.84765625 C-49.38150118 42.5805824 -48.11936276 41.31261918 -46.858078 40.04380798 C-44.21540342 37.39230059 -41.56221409 34.75191653 -38.90112305 32.11889648 C-35.49202337 28.74401612 -32.11061812 25.34286377 -28.73660755 21.93294621 C-26.13688651 19.31154167 -23.52304073 16.70459908 -20.90469933 14.10180473 C-19.65197998 12.85308549 -18.40369586 11.59990033 -17.15998268 10.34221077 C-15.42000198 8.58698281 -13.66192761 6.85215245 -11.89770508 5.12133789 C-11.38785568 4.59934311 -10.87800629 4.07734833 -10.35270691 3.53953552 C-6.92261709 0.22875565 -4.73814373 -0.71220311 0 0 Z M-3 15 C-17.85 29.85 -32.7 44.7 -48 60 C-45.87609947 64.24780106 -43.69674457 66.06560155 -39.9375 68.6875 C-39.32189209 69.11957764 -38.70628418 69.55165527 -38.07202148 69.99682617 C-10.82107957 88.66441907 21.37226319 95.98175175 54 90 C75.74591629 85.2883848 93.80367694 75.9398765 111 62 C109.50469676 58.51027997 107.50808338 56.26534605 104.82568359 53.59863281 C103.96494232 52.7380426 103.10420105 51.87745239 102.21737671 50.99078369 C101.28712677 50.07085632 100.35687683 49.15092896 99.3984375 48.203125 C98.43678914 47.24520903 97.47558306 46.28684886 96.51480103 45.32806396 C93.99076718 42.81164875 91.46078409 40.30129893 88.92950439 37.79217529 C86.3452081 35.22837559 83.76659801 32.65887082 81.1875 30.08984375 C76.13054303 25.05430543 71.06727744 20.0251544 66 15 C65.4016333 15.30035156 64.8032666 15.60070312 64.18676758 15.91015625 C61.37163673 17.31316441 58.53412101 18.66198777 55.6875 20 C54.59824219 20.515625 53.50898438 21.03125 52.38671875 21.5625 C39.70269284 26.94626186 24.1964009 26.87530117 11.1796875 22.4609375 C6.32651445 20.23110123 1.68877265 17.55751236 -3 15 Z " fill="#000000" transform="translate(141,152)"/>
<path d="M0 0 C0.85207031 0.48339844 1.70414062 0.96679688 2.58203125 1.46484375 C14.09975725 8.62451127 26.64021174 20.28733638 32 33 C32.3202194 36.13815009 32.51790359 38.13682735 30.875 40.875 C27.83770097 42.69737942 26.49355758 42.80620559 23 42 C20.28059307 39.28059307 18.18150232 36.15693177 16 33 C3.76086303 16.03342387 -12.7418626 5.38137694 -33.328125 1.41455078 C-54.29740058 -1.8389059 -74.58509574 3.08148789 -91.98046875 15.05078125 C-94.41650446 16.94875159 -96.72153816 18.91671367 -99 21 C-99.62003906 21.54011719 -100.24007813 22.08023438 -100.87890625 22.63671875 C-105.56662902 26.96788095 -108.87755923 32.06564775 -112.30078125 37.42578125 C-114 40 -114 40 -116 42 C-119.4375 42.4375 -119.4375 42.4375 -123 42 C-125.0625 39.875 -125.0625 39.875 -126 37 C-124.02564054 24.58974054 -110.58183066 12.22753206 -101 5 C-88.6829907 -3.48246867 -75.75936124 -9.39880709 -61 -12 C-60.21882813 -12.14308594 -59.43765625 -12.28617188 -58.6328125 -12.43359375 C-37.78156644 -15.35565418 -18.01780598 -10.22209149 0 0 Z " fill="#000000" transform="translate(476,53)"/>
<path d="M0 0 C7.8209115 6.15773032 15.89864894 14.25874405 19.7109375 23.6796875 C19.5234375 26.8046875 19.5234375 26.8046875 18.7109375 29.6796875 C15.70050044 31.68664554 14.24345517 32.28007181 10.6796875 31.68359375 C6.0402866 29.3178675 3.50736154 23.90026976 0.7109375 19.6796875 C-7.35846419 8.51447761 -22.21287392 1.16618658 -35.61328125 -1.03515625 C-52.71907613 -2.85810957 -68.63205266 0.97316794 -82.4140625 11.3671875 C-88.19262099 16.17203613 -93.15858357 21.81612468 -96.796875 28.4140625 C-98.2890625 30.6796875 -98.2890625 30.6796875 -101.7265625 31.7421875 C-105.2890625 31.6796875 -105.2890625 31.6796875 -107.7265625 30.0546875 C-109.60084534 27.20577759 -109.64576222 26.03365572 -109.2890625 22.6796875 C-100.07488662 5.05128026 -83.02887466 -6.85898526 -64.4140625 -12.6953125 C-41.73333604 -18.23173598 -18.80867935 -13.62634836 0 0 Z " fill="#000000" transform="translate(474.2890625,78.3203125)"/>
<path d="M0 0 C1.44215715 -0.01151391 2.88427187 -0.03195689 4.32617188 -0.06152344 C6.41671519 -0.10437323 8.50599492 -0.12039145 10.59692383 -0.13061523 C11.84513916 -0.14519775 13.09335449 -0.15978027 14.37939453 -0.17480469 C18.54339023 0.38766052 20.64661403 1.62155812 23.85864258 4.29516602 C25.5564289 7.07552875 26.11396578 9.178897 26.14916992 12.41772461 C26.16192963 13.21890717 26.17468933 14.02008972 26.18783569 14.84555054 C26.19006134 15.70290802 26.19228699 16.5602655 26.19458008 17.44360352 C26.20123688 18.33375153 26.20789368 19.22389954 26.2147522 20.14102173 C26.22486604 22.02213478 26.22956961 23.90328362 26.22924805 25.78442383 C26.23361673 28.65319361 26.26993648 31.52041877 26.30786133 34.38891602 C26.31373077 36.21963994 26.31769931 38.05037115 26.31958008 39.88110352 C26.33395111 40.73441254 26.34832214 41.58772156 26.36312866 42.46688843 C26.32182604 47.88699614 25.49906062 51.0174072 21.85864258 55.29516602 C15.86652735 59.2899095 8.95413481 58.51161371 1.98364258 58.54516602 C0.92016602 58.56579102 -0.14331055 58.58641602 -1.23901367 58.60766602 C-7.3341871 58.63795259 -11.79818847 58.32055492 -17.14135742 55.29516602 C-22.18043073 50.12348552 -22.29828786 45.66751803 -22.30932617 38.71313477 C-22.31265457 37.98073074 -22.31598297 37.24832672 -22.31941223 36.49372864 C-22.3244653 34.94634629 -22.32682106 33.39895309 -22.32666016 31.8515625 C-22.32884023 29.50119749 -22.34699503 27.15130705 -22.3659668 24.80102539 C-22.36890246 23.29256344 -22.3708861 21.78409928 -22.37182617 20.27563477 C-22.37901169 19.58060349 -22.3861972 18.8855722 -22.39360046 18.16947937 C-22.36770694 12.55363576 -21.82950325 7.36450606 -18.20385742 2.92016602 C-13.10160094 -1.09979364 -6.18859324 0.03441619 0 0 Z M-9.14135742 12.29516602 C-9.14135742 23.18516602 -9.14135742 34.07516602 -9.14135742 45.29516602 C-1.55135742 45.29516602 6.03864258 45.29516602 13.85864258 45.29516602 C13.85864258 34.40516602 13.85864258 23.51516602 13.85864258 12.29516602 C6.26864258 12.29516602 -1.32135742 12.29516602 -9.14135742 12.29516602 Z " fill="#000000" transform="translate(281.141357421875,394.704833984375)"/>
<path d="M0 0 C1.36656738 -0.01429802 1.36656738 -0.01429802 2.76074219 -0.02888489 C3.74204102 -0.02797348 4.72333984 -0.02706207 5.734375 -0.02612305 C6.7440332 -0.03040817 7.75369141 -0.0346933 8.79394531 -0.03910828 C10.92902883 -0.04485229 13.06413191 -0.04535132 15.19921875 -0.04101562 C18.4716922 -0.03785405 21.74326326 -0.06131995 25.015625 -0.08666992 C27.08854052 -0.08894268 29.16145848 -0.08964652 31.234375 -0.08862305 C32.21567383 -0.09783279 33.19697266 -0.10704254 34.20800781 -0.11653137 C35.11905273 -0.11030258 36.03009766 -0.10407379 36.96875 -0.09765625 C37.77022461 -0.09828568 38.57169922 -0.0989151 39.39746094 -0.0995636 C42.02141309 0.37095894 42.90441997 1.15623575 44.484375 3.2746582 C45.12639984 8.41085694 45.12639984 8.41085694 43.24890137 10.93690491 C40.98879605 12.6503751 39.69655851 12.6601153 36.87695312 12.67871094 C35.94588745 12.69139511 35.01482178 12.70407928 34.05554199 12.71714783 C32.55078308 12.71274437 32.55078308 12.71274437 31.015625 12.70825195 C29.98377075 12.7134938 28.9519165 12.71873566 27.88879395 12.72413635 C25.70663351 12.73056139 23.52443846 12.72921336 21.34228516 12.72070312 C17.99709666 12.71219058 14.65361355 12.74095323 11.30859375 12.77270508 C9.19010468 12.77431703 7.07161258 12.77373967 4.953125 12.77075195 C3.94995239 12.78198593 2.94677979 12.79321991 1.91320801 12.80479431 C0.98214233 12.79541336 0.05107666 12.78603241 -0.90820312 12.77636719 C-2.13706238 12.77611794 -2.13706238 12.77611794 -3.39074707 12.77586365 C-5.515625 12.2746582 -5.515625 12.2746582 -7.31140137 10.43861389 C-8.515625 8.2746582 -8.515625 8.2746582 -8.390625 5.1496582 C-6.97990861 0.51444722 -4.42385404 0.02543116 0 0 Z " fill="#000000" transform="translate(194.515625,430.725341796875)"/>
<path d="M0 0 C1.36172585 -0.01902626 1.36172585 -0.01902626 2.7509613 -0.03843689 C4.21820396 -0.03403343 4.21820396 -0.03403343 5.71508789 -0.02954102 C7.22601768 -0.03740379 7.22601768 -0.03740379 8.76747131 -0.04542542 C10.89835691 -0.05185061 13.02927796 -0.05050221 15.16015625 -0.04199219 C18.4219479 -0.03348845 21.68198526 -0.06222753 24.94360352 -0.09399414 C27.01326445 -0.09560636 29.08292849 -0.09502822 31.15258789 -0.09204102 C32.6167942 -0.10889198 32.6167942 -0.10889198 34.11058044 -0.12608337 C40.83374688 -0.05684977 40.83374688 -0.05684977 44.15478516 2.23974609 C45.50024414 4.40405273 45.50024414 4.40405273 45.37524414 7.52905273 C44.50024414 10.40405273 44.50024414 10.40405273 42.50024414 12.40405273 C40.49562073 12.66474915 40.49562073 12.66474915 38.00634766 12.67871094 C36.60963585 12.69300896 36.60963585 12.69300896 35.18470764 12.70759583 C33.6722068 12.70622871 33.6722068 12.70622871 32.12915039 12.70483398 C31.0958812 12.70911911 30.062612 12.71340424 28.99803162 12.71781921 C26.80989312 12.72356957 24.62173551 12.72405761 22.43359375 12.71972656 C19.07982855 12.71656882 15.7269469 12.74000983 12.37329102 12.76538086 C10.25024526 12.76765394 8.12719712 12.76835731 6.00415039 12.76733398 C4.99784073 12.77654373 3.99153107 12.78575348 2.95472717 12.79524231 C2.02043381 12.78901352 1.08614044 12.78278473 0.12353516 12.77636719 C-0.69872055 12.77699661 -1.52097626 12.77762604 -2.3681488 12.77827454 C-5.0238315 12.31204678 -5.9071412 11.55108935 -7.49975586 9.40405273 C-8.1422818 4.26384524 -8.1422818 4.26384524 -6.2575531 1.74180603 C-4.02774203 0.04483152 -2.78452511 0.01884224 0 0 Z " fill="#000000" transform="translate(119.499755859375,430.595947265625)"/>
<path d="M0 0 C0.88779648 -0.0127597 1.77559296 -0.02551941 2.69029236 -0.03866577 C3.64658035 -0.04089142 4.60286835 -0.04311707 5.58813477 -0.04541016 C6.57322525 -0.05206696 7.55831573 -0.05872375 8.57325745 -0.06558228 C10.65705497 -0.07570926 12.74088493 -0.08039928 14.82470703 -0.08007812 C18.01397061 -0.08445131 21.20185048 -0.12077087 24.39086914 -0.15869141 C26.41495295 -0.16455951 28.43904333 -0.16852894 30.46313477 -0.17041016 C31.41739853 -0.18478119 32.37166229 -0.19915222 33.35484314 -0.21395874 C39.91776297 -0.16863251 39.91776297 -0.16863251 43.23291016 2.08886719 C44.59204102 4.29052734 44.59204102 4.29052734 44.46704102 7.97802734 C44.17829102 9.07115234 43.88954102 10.16427734 43.59204102 11.29052734 C41.22274971 12.475173 39.74187337 12.4358474 37.09814453 12.4675293 C36.16700333 12.48036453 35.23586212 12.49319977 34.27650452 12.50642395 C32.76400368 12.51750435 32.76400368 12.51750435 31.22094727 12.52880859 C30.18767807 12.53688034 29.15440887 12.54495209 28.08982849 12.55326843 C25.90169964 12.56711258 23.71354916 12.57783325 21.52539062 12.58569336 C18.17154391 12.60293991 14.81867421 12.64682748 11.46508789 12.69091797 C9.34204828 12.70104165 7.21900028 12.70955877 5.09594727 12.71630859 C3.58648277 12.74257072 3.58648277 12.74257072 2.04652405 12.7693634 C1.11223068 12.76643784 0.17793732 12.76351227 -0.78466797 12.76049805 C-2.01805153 12.76929741 -2.01805153 12.76929741 -3.27635193 12.77827454 C-5.40795898 12.29052734 -5.40795898 12.29052734 -7.20472717 10.45646667 C-8.40795898 8.29052734 -8.40795898 8.29052734 -8.28295898 5.16552734 C-6.88994374 0.58847727 -4.38262329 0.04279701 0 0 Z " fill="#000000" transform="translate(194.407958984375,403.70947265625)"/>
<path d="M0 0 C1.33653625 -0.00945648 1.33653625 -0.00945648 2.70007324 -0.019104 C4.13921082 -0.01303131 4.13921082 -0.01303131 5.60742188 -0.00683594 C7.08861511 -0.00970612 7.08861511 -0.00970612 8.59973145 -0.01263428 C10.68774673 -0.01399543 12.7757705 -0.01030384 14.86376953 -0.00195312 C18.06366954 0.00874726 21.26300812 -0.00185088 24.46289062 -0.01464844 C26.49023562 -0.01332683 28.51758026 -0.01076441 30.54492188 -0.00683594 C31.50434692 -0.0108844 32.46377197 -0.01493286 33.45227051 -0.019104 C34.34329468 -0.01279968 35.23431885 -0.00649536 36.15234375 0 C37.32790833 0.00238678 37.32790833 0.00238678 38.52722168 0.00482178 C40.57617188 0.25878906 40.57617188 0.25878906 43.57617188 2.25878906 C44.45117188 5.13378906 44.45117188 5.13378906 44.57617188 8.25878906 C43.37194824 10.42274475 43.37194824 10.42274475 41.57617188 12.25878906 C39.45129395 12.75999451 39.45129395 12.75999451 36.96875 12.76049805 C36.03768433 12.769879 35.10661865 12.77925995 34.14733887 12.78892517 C33.14416626 12.77769119 32.14099365 12.76645721 31.10742188 12.75488281 C30.07556763 12.75633804 29.04371338 12.75779327 27.98059082 12.7592926 C25.79839251 12.75763217 23.61618267 12.74605489 21.43408203 12.7253418 C18.08901353 12.69640017 14.74553027 12.70472764 11.40039062 12.71777344 C9.28189332 12.71153585 7.16340103 12.70314475 5.04492188 12.69238281 C4.04174927 12.69531845 3.03857666 12.69825409 2.00500488 12.70127869 C1.07393921 12.68859451 0.14287354 12.67591034 -0.81640625 12.6628418 C-2.0452655 12.65473732 -2.0452655 12.65473732 -3.2989502 12.64646912 C-5.95411574 12.16203907 -6.87064083 11.44807071 -8.42382812 9.25878906 C-8.29882812 5.69628906 -8.29882812 5.69628906 -7.42382812 2.25878906 C-4.28875177 0.16873816 -3.56866072 0.00724555 0 0 Z " fill="#000000" transform="translate(120.423828125,403.7412109375)"/>
<path d="M0 0 C0.91104492 -0.00945648 1.82208984 -0.01891296 2.76074219 -0.02865601 C3.74204102 -0.02258331 4.72333984 -0.01651062 5.734375 -0.01025391 C6.7440332 -0.01312408 7.75369141 -0.01599426 8.79394531 -0.01895142 C10.92904216 -0.02099329 13.06415766 -0.01545487 15.19921875 -0.00292969 C18.47177871 0.01312181 21.74310356 -0.00277465 25.015625 -0.02197266 C27.0885444 -0.01999025 29.16146303 -0.01614662 31.234375 -0.01025391 C32.70632324 -0.01936295 32.70632324 -0.01936295 34.20800781 -0.02865601 C35.5745752 -0.01447128 35.5745752 -0.01447128 36.96875 0 C38.17096191 0.00358017 38.17096191 0.00358017 39.39746094 0.00723267 C42.03179014 0.48811023 42.9182833 1.23847707 44.484375 3.38818359 C44.796875 6.95068359 44.796875 6.95068359 44.484375 10.38818359 C42.00872465 12.86383395 41.29131767 12.64053321 37.8828125 12.64697266 C36.45122803 12.65642914 36.45122803 12.65642914 34.99072266 12.66607666 C33.95737793 12.6620282 32.9240332 12.65797974 31.859375 12.65380859 C30.80153809 12.65572205 29.74370117 12.6576355 28.65380859 12.65960693 C26.41438561 12.66096962 24.17495474 12.65726742 21.93554688 12.64892578 C18.49851823 12.63822762 15.0620123 12.64881847 11.625 12.66162109 C9.45312384 12.66029951 7.28124801 12.65773715 5.109375 12.65380859 C4.07603027 12.65785706 3.04268555 12.66190552 1.97802734 12.66607666 C1.0236377 12.65977234 0.06924805 12.65346802 -0.9140625 12.64697266 C-1.75630371 12.64538147 -2.59854492 12.64379028 -3.46630859 12.64215088 C-5.515625 12.38818359 -5.515625 12.38818359 -7.515625 10.38818359 C-8.08138869 4.16478301 -8.08138869 4.16478301 -6.27832031 1.68978882 C-4.03854295 0.03589782 -2.76881928 0.0082455 0 0 Z " fill="#000000" transform="translate(45.515625,403.61181640625)"/>
<path d="M0 0 C0.91104492 -0.00945648 1.82208984 -0.01891296 2.76074219 -0.02865601 C3.74204102 -0.02258331 4.72333984 -0.01651062 5.734375 -0.01025391 C6.7440332 -0.01312408 7.75369141 -0.01599426 8.79394531 -0.01895142 C10.92904216 -0.02099329 13.06415766 -0.01545487 15.19921875 -0.00292969 C18.47177871 0.01312181 21.74310356 -0.00277465 25.015625 -0.02197266 C27.0885444 -0.01999025 29.16146303 -0.01614662 31.234375 -0.01025391 C32.70632324 -0.01936295 32.70632324 -0.01936295 34.20800781 -0.02865601 C35.5745752 -0.01447128 35.5745752 -0.01447128 36.96875 0 C38.17096191 0.00358017 38.17096191 0.00358017 39.39746094 0.00723267 C42.01785568 0.4855666 42.90485843 1.27161119 44.484375 3.38818359 C45.12621524 8.52290555 45.12621524 8.52290555 43.24989319 11.05241394 C40.98023363 12.76961084 39.69015466 12.76266366 36.86108398 12.76049805 C35.45964394 12.76984123 35.45964394 12.76984123 34.02989197 12.77937317 C33.02358231 12.77016342 32.01727264 12.76095367 30.98046875 12.75146484 C29.94624283 12.75196335 28.91201691 12.75246185 27.84645081 12.75297546 C25.6600655 12.75063457 23.47367752 12.74090518 21.28735352 12.72436523 C17.93155973 12.70075174 14.57655897 12.70380688 11.22070312 12.71044922 C9.09895357 12.70487333 6.97720738 12.69776402 4.85546875 12.68896484 C3.84713486 12.68987625 2.83880096 12.69078766 1.7999115 12.69172668 C0.86877029 12.68219467 -0.06237091 12.67266266 -1.02172852 12.6628418 C-1.84318863 12.65823441 -2.66464874 12.65362701 -3.51100159 12.64888 C-5.515625 12.38818359 -5.515625 12.38818359 -7.515625 10.38818359 C-8.08138869 4.16478301 -8.08138869 4.16478301 -6.27832031 1.68978882 C-4.03854295 0.03589782 -2.76881928 0.0082455 0 0 Z " fill="#000000" transform="translate(45.515625,430.61181640625)"/>
</svg>
