<?xml version="1.0" encoding="UTF-8"?>
<svg version="1.1" xmlns="http://www.w3.org/2000/svg" width="512" height="512">
<path d="M0 0 C1.18307236 -0.00525696 2.36614471 -0.01051392 3.58506775 -0.01593018 C6.80809397 -0.02682178 10.03074661 -0.02434027 13.25376678 -0.01479292 C16.63600769 -0.00715937 20.01822495 -0.01425165 23.40046692 -0.01895142 C29.07529129 -0.02439603 34.74999818 -0.01724917 40.42480469 -0.00292969 C46.97898117 0.01341807 53.53287796 0.00808788 60.08704776 -0.0084089 C65.72633064 -0.02203264 71.36552948 -0.02393984 77.00482351 -0.0160929 C80.36789334 -0.01142425 83.73083174 -0.0107696 87.09389305 -0.02070236 C90.84013243 -0.02831137 94.58583213 -0.01672046 98.33203125 0 C99.44227661 -0.00607269 100.55252197 -0.01214539 101.69641113 -0.0184021 C111.15656341 0.05991544 111.15656341 0.05991544 114.97192383 3.38818359 C116.51779259 6.47992111 116.26551904 8.98247912 115.97192383 12.38818359 C113.99046731 14.94501603 112.78781707 16.218383 109.58558655 16.88481903 C108.24940529 16.88255688 108.24940529 16.88255688 106.88623047 16.88024902 C105.34686325 16.89244728 105.34686325 16.89244728 103.77639771 16.90489197 C102.09621048 16.88792015 102.09621048 16.88792015 100.38208008 16.87060547 C98.60593826 16.87647423 98.60593826 16.87647423 96.79391479 16.88246155 C93.54997678 16.89000425 90.30661295 16.88018699 87.06272507 16.86396217 C83.6666074 16.85219376 80.27061336 16.86609543 76.87451172 16.8782959 C67.50600381 16.90732239 58.13761974 16.89659689 48.76908875 16.88559723 C40.18184594 16.87592363 31.59482225 16.87462852 23.007617 16.905478 C19.62709153 16.91666312 16.24699633 16.91923665 12.8664856 16.90232849 C9.09800202 16.88589356 5.3302499 16.89330983 1.56176758 16.90576172 C-0.11841965 16.8887899 -0.11841965 16.8887899 -1.83255005 16.87147522 C-3.37191727 16.88367348 -3.37191727 16.88367348 -4.94238281 16.89611816 C-6.27856407 16.89385601 -6.27856407 16.89385601 -7.64173889 16.89154816 C-10.85900499 17.56111334 -12.04602668 18.80818591 -14.02807617 21.38818359 C-14.62252559 23.41550987 -14.62252559 23.41550987 -14.54705811 25.58966064 C-14.56792732 26.83478928 -14.56792732 26.83478928 -14.58921814 28.10507202 C-14.58167259 29.45805893 -14.58167259 29.45805893 -14.57397461 30.83837891 C-14.58948112 32.27302994 -14.58948112 32.27302994 -14.6053009 33.73666382 C-14.63478898 36.89671605 -14.63622937 40.05612944 -14.63745117 43.21630859 C-14.65242873 45.40778835 -14.66915497 47.5992568 -14.68756104 49.79071045 C-14.73129421 55.55778515 -14.75124698 61.32470756 -14.76629639 67.09191895 C-14.78584587 72.97722399 -14.82781832 78.86236405 -14.86791992 84.74755859 C-14.94328678 96.29438278 -14.99353912 107.84117016 -15.02807617 119.38818359 C-9.41807617 119.38818359 -3.80807617 119.38818359 1.97192383 119.38818359 C1.9197168 117.05433594 1.9197168 117.05433594 1.86645508 114.67333984 C1.83829841 112.59913197 1.81100028 110.52491232 1.78442383 108.45068359 C1.75928711 107.42910156 1.73415039 106.40751953 1.70825195 105.35498047 C1.61579443 95.70857908 3.16956894 88.21861026 9.97192383 81.11865234 C16.17519135 75.75137205 22.67600157 74.65426293 30.75317383 74.94677734 C37.82819329 75.91701666 43.05693485 78.77104099 47.47192383 84.38818359 C50.8910502 89.31808674 52.22647653 93.55108481 52.16723633 99.56396484 C52.16224121 100.60721924 52.15724609 101.65047363 52.15209961 102.7253418 C52.1338916 104.03720459 52.11568359 105.34906738 52.09692383 106.70068359 C52.05567383 110.88755859 52.01442383 115.07443359 51.97192383 119.38818359 C67.81192383 119.38818359 83.65192383 119.38818359 99.97192383 119.38818359 C99.97192383 111.79818359 99.97192383 104.20818359 99.97192383 96.38818359 C102.99154847 87.32930968 105.52927748 81.37674831 114.09692383 76.88818359 C121.69669125 74.00104878 129.98069497 74.08776942 137.40942383 77.38818359 C143.81045221 81.05186162 147.61672503 86.47980436 149.97192383 93.38818359 C150.19897461 96.3425293 150.19897461 96.3425293 150.16723633 99.56396484 C150.16224121 100.60721924 150.15724609 101.65047363 150.15209961 102.7253418 C150.1338916 104.03720459 150.11568359 105.34906738 150.09692383 106.70068359 C150.05567383 110.88755859 150.01442383 115.07443359 149.97192383 119.38818359 C165.81192383 119.38818359 181.65192383 119.38818359 197.97192383 119.38818359 C197.97192383 112.12818359 197.97192383 104.86818359 197.97192383 97.38818359 C200.76769691 88.06893997 202.23041969 83.35789544 209.97192383 78.00537109 C217.0358333 74.29162457 225.22315598 73.97268549 232.81567383 76.23583984 C239.70708646 79.29753672 243.836837 83.8706703 247.03198242 90.63110352 C248.10386837 93.77520949 248.19991437 96.24714376 248.16723633 99.56396484 C248.16079102 100.72089844 248.1543457 101.87783203 248.14770508 103.06982422 C248.13094727 104.26800781 248.11418945 105.46619141 248.09692383 106.70068359 C248.08790039 107.91820312 248.07887695 109.13572266 248.06958008 110.39013672 C248.04605511 113.38957006 248.01018539 116.38890204 247.97192383 119.38818359 C253.91192383 119.38818359 259.85192383 119.38818359 265.97192383 119.38818359 C265.86389832 106.80998521 265.75182283 94.23184093 265.63258457 81.65374374 C265.57738221 75.81345253 265.5239664 69.97315628 265.47460938 64.1328125 C265.42692633 58.49827951 265.37458194 52.86380747 265.31898308 47.22934723 C265.29857742 45.07794967 265.27986138 42.92653541 265.26284981 40.77510834 C265.23876634 37.76553808 265.20871695 34.75608283 265.17724609 31.74658203 C265.17149063 30.8539415 265.16573517 29.96130096 265.1598053 29.04161072 C265.14512207 27.80910332 265.14512207 27.80910332 265.13014221 26.55169678 C265.12368966 25.84007259 265.11723711 25.12844841 265.11058903 24.39525986 C264.9653869 22.29356637 264.54221303 20.41257659 263.97192383 18.38818359 C260.88900643 17.48889754 258.13080791 17.2594307 254.92419434 17.25015259 C253.39744835 17.24197258 253.39744835 17.24197258 251.83985901 17.23362732 C250.72908493 17.23258499 249.61831085 17.23154266 248.47387695 17.23046875 C247.29953598 17.22538803 246.12519501 17.22030731 244.91526794 17.21507263 C241.69839748 17.20157582 238.4815405 17.19218596 235.26465416 17.18365526 C231.8965827 17.1729236 228.52855871 17.15434696 225.16052246 17.13583374 C213.69063113 17.07396416 202.22074574 17.01986476 190.75073242 16.98681641 C184.41326832 16.96847648 178.07594481 16.93955288 171.73858404 16.8988117 C168.38611678 16.87773919 165.03382666 16.86228404 161.68128967 16.86000443 C157.9439723 16.85511536 154.20718168 16.83200946 150.4699707 16.8046875 C148.80380959 16.8091967 148.80380959 16.8091967 147.10398865 16.813797 C146.08615799 16.80270401 145.06832733 16.79161102 144.01965332 16.78018188 C142.69453358 16.77521667 142.69453358 16.77521667 141.34264374 16.77015114 C138.43659902 16.3019327 137.07944134 15.42262114 134.97192383 13.38818359 C133.97192383 10.01318359 133.97192383 10.01318359 133.97192383 6.38818359 C135.73833555 3.58628914 137.00242205 1.87293448 139.97192383 0.38818359 C141.57339673 0.28919452 143.17894226 0.25312789 144.78346252 0.2477417 C145.79973221 0.24203156 146.81600189 0.23632141 147.86306763 0.23043823 C149.54225784 0.22876144 149.54225784 0.22876144 151.25537109 0.22705078 C152.43114212 0.22208588 153.60691315 0.21712097 154.8183136 0.21200562 C158.05010721 0.19988172 161.28186462 0.1924339 164.51367688 0.18799496 C166.53493291 0.18506352 168.55618327 0.1809584 170.57743645 0.17649078 C176.9072589 0.16280842 183.23706839 0.15314748 189.5669046 0.14928889 C196.86187173 0.14481728 204.15665063 0.12731446 211.45156056 0.0982883 C217.09586006 0.07661418 222.74010687 0.06658144 228.38444752 0.06524777 C231.75223235 0.0642031 235.11984043 0.05836873 238.48758125 0.04042816 C242.2527694 0.0233252 246.01750334 0.02525911 249.78271484 0.03173828 C250.88800537 0.0225235 251.9932959 0.01330872 253.13208008 0.0038147 C261.11389755 0.04672165 267.55881731 1.13424533 274.28442383 5.57568359 C279.869781 11.42082482 282.08163198 17.98026967 282.11236572 26.01794434 C282.11807587 26.91790634 282.12378601 27.81786835 282.12966919 28.74510193 C282.13078705 29.71979935 282.13190491 30.69449677 282.13305664 31.69873047 C282.13802155 32.73506119 282.14298645 33.77139191 282.14810181 34.83912659 C282.16268811 38.2617357 282.16951825 41.68429853 282.17504883 45.10693359 C282.18080155 47.48677573 282.18655926 49.86661785 282.19232178 52.24645996 C282.20282056 57.23299373 282.20867112 62.21951142 282.2121582 67.20605469 C282.21765191 73.59859091 282.24170352 79.9909151 282.27013016 86.3833847 C282.2887394 91.29726792 282.29396115 96.21109978 282.29549408 101.12501526 C282.29852312 103.48215397 282.30656005 105.83929173 282.31967926 108.19639587 C282.33670956 111.49030822 282.3348671 114.78369837 282.32836914 118.07763672 C282.33758392 119.05233414 282.34679871 120.02703156 282.35629272 121.03126526 C282.32577318 125.96315176 282.2281556 129.40297469 278.97192383 133.38818359 C276.30603334 135.46165398 274.09108459 135.46752581 270.82739258 135.43115234 C269.55508789 135.41697266 268.2827832 135.40279297 266.97192383 135.38818359 C266.97468921 136.02133862 266.97745459 136.65449364 266.98030376 137.30683517 C267.04673974 152.75799295 267.0962897 168.2091006 267.12736034 183.66036606 C267.14278768 191.13267924 267.16379747 198.60489671 267.19824219 206.07714844 C267.22827186 212.59476708 267.24752882 219.11231635 267.25418931 225.63000226 C267.25807877 229.07673313 267.26713165 232.52326566 267.289114 235.96993256 C267.31353276 239.83041423 267.31388518 243.69070706 267.3125 247.55126953 C267.32867874 249.23981804 267.32867874 249.23981804 267.34518433 250.96247864 C267.29312424 264.447948 264.11042933 275.62721101 254.86645508 285.67724609 C244.97015552 295.03056285 233.8695786 298.95016213 220.41333008 298.70068359 C210.79934274 297.8276768 202.44938474 294.43786162 194.97192383 288.38818359 C194.35833008 287.90994141 193.74473633 287.43169922 193.11254883 286.93896484 C186.72253131 281.3264937 181.62673527 271.771822 179.97192383 263.38818359 C179.88408314 261.60976934 179.84992364 259.82837195 179.85166931 258.04779053 C179.84960732 256.42402496 179.84960732 256.42402496 179.84750366 254.76745605 C179.85109894 253.58494263 179.85469421 252.4024292 179.85839844 251.18408203 C179.85825241 249.93504089 179.85810638 248.68599976 179.85795593 247.39910889 C179.85853309 243.97794357 179.86354729 240.55683864 179.87052989 237.13568401 C179.87678251 233.55890264 179.87736874 229.98212046 179.8785553 226.40533447 C179.88166298 219.63392698 179.88986879 212.86253564 179.89990479 206.09113526 C179.9110834 198.38139699 179.91658078 190.67165795 179.92160022 182.96191359 C179.93205186 167.10399398 179.94984193 151.2460915 179.97192383 135.38818359 C176.34192383 135.38818359 172.71192383 135.38818359 168.97192383 135.38818359 C168.98191658 137.69722687 168.98191658 137.69722687 168.99211121 140.05291748 C169.05303348 154.58871762 169.0981304 169.12447057 169.12736034 183.66036606 C169.14278768 191.13267924 169.16379747 198.60489671 169.19824219 206.07714844 C169.22827186 212.59476708 169.24752882 219.11231635 169.25418931 225.63000226 C169.25807877 229.07673313 169.26713165 232.52326566 169.289114 235.96993256 C169.31353276 239.83041423 169.31388518 243.69070706 169.3125 247.55126953 C169.32867874 249.23981804 169.32867874 249.23981804 169.34518433 250.96247864 C169.29312424 264.447948 166.11042933 275.62721101 156.86645508 285.67724609 C146.97015552 295.03056285 135.8695786 298.95016213 122.41333008 298.70068359 C112.79934274 297.8276768 104.44938474 294.43786162 96.97192383 288.38818359 C96.35833008 287.90994141 95.74473633 287.43169922 95.11254883 286.93896484 C88.72253131 281.3264937 83.62673527 271.771822 81.97192383 263.38818359 C81.88408314 261.60976934 81.84992364 259.82837195 81.85166931 258.04779053 C81.84960732 256.42402496 81.84960732 256.42402496 81.84750366 254.76745605 C81.85109894 253.58494263 81.85469421 252.4024292 81.85839844 251.18408203 C81.85825241 249.93504089 81.85810638 248.68599976 81.85795593 247.39910889 C81.85853309 243.97794357 81.86354729 240.55683864 81.87052989 237.13568401 C81.87678251 233.55890264 81.87736874 229.98212046 81.8785553 226.40533447 C81.88166298 219.63392698 81.88986879 212.86253564 81.89990479 206.09113526 C81.9110834 198.38139699 81.91658078 190.67165795 81.92160022 182.96191359 C81.93205186 167.10399398 81.94984193 151.2460915 81.97192383 135.38818359 C78.34192383 135.38818359 74.71192383 135.38818359 70.97192383 135.38818359 C70.98191658 137.70055779 70.98191658 137.70055779 70.99211121 140.05964661 C71.05301138 154.61047446 71.09811978 169.16125524 71.12736034 183.71217823 C71.14279332 191.19236705 71.16381407 198.67246038 71.19824219 206.15258789 C71.22825441 212.67642287 71.24752474 219.20018865 71.25418931 225.72409075 C71.25808168 229.17470192 71.26715359 232.62511521 71.289114 236.07566261 C71.31349779 239.93874289 71.31388628 243.80163406 71.3125 247.66479492 C71.32328583 248.7940892 71.33407166 249.92338348 71.34518433 251.0868988 C71.29003881 265.35322535 67.22265239 276.66743312 57.45629883 287.05615234 C48.16371448 295.77890841 36.89654006 299.07971112 24.30786133 298.73583984 C11.53936721 297.4051654 1.54127284 291.74280418 -7.23901367 282.59521484 C-15.01166205 273.00668573 -16.32816626 262.74553721 -16.25512695 250.84350586 C-16.25541901 249.59402664 -16.25571106 248.34454742 -16.25601196 247.0572052 C-16.25486129 243.6485413 -16.2448638 240.24012272 -16.23086405 236.8315022 C-16.2183211 233.26275185 -16.21718339 229.69399787 -16.21481323 226.12522888 C-16.20860891 219.37514738 -16.19221233 212.62513102 -16.17211425 205.87507814 C-16.14972257 198.18704225 -16.13875362 190.49900317 -16.12872338 182.81094277 C-16.10784512 167.00331871 -16.07268962 151.19575957 -16.02807617 135.38818359 C-17.27717773 135.41654297 -18.5262793 135.44490234 -19.81323242 135.47412109 C-23.89500057 135.56679282 -26.53733477 134.60182448 -30.02807617 132.38818359 C-31.68304974 129.07823647 -31.12891952 125.39695359 -31.09057617 121.76318359 C-31.08606445 120.96138672 -31.08155273 120.15958984 -31.0769043 119.33349609 C-31.06510785 117.35169353 -31.04717222 115.36992926 -31.02807617 113.38818359 C-33.09235774 113.6450854 -35.15448711 113.91931405 -37.21557617 114.20068359 C-38.36413086 114.35150391 -39.51268555 114.50232422 -40.69604492 114.65771484 C-45.79053616 115.77456111 -48.144261 117.11437531 -51.1420145 121.43492031 C-53.52343929 125.77063592 -53.58572632 129.64000379 -53.52928162 134.50367737 C-53.53481601 135.39972291 -53.54035041 136.29576846 -53.54605252 137.2189669 C-53.55962419 140.20998403 -53.54470865 143.20016168 -53.52978516 146.19116211 C-53.53356956 148.34007114 -53.53907061 150.48897774 -53.54615784 152.63787842 C-53.56011287 158.46629714 -53.54894249 164.29442068 -53.53244662 170.122823 C-53.51859163 176.22323667 -53.52505665 182.32363328 -53.52857971 188.42405701 C-53.53128126 198.66727453 -53.51781015 208.91037483 -53.49462891 219.15356445 C-53.4680125 230.99665812 -53.46627458 242.83955589 -53.47801727 254.68266922 C-53.48879515 266.07634841 -53.48260833 277.46995673 -53.46846199 288.86363029 C-53.46270302 293.71238823 -53.46278418 298.56109429 -53.46752739 303.40985298 C-53.47229856 309.11854549 -53.46218944 314.82702337 -53.44057274 320.53567505 C-53.43500691 322.63109043 -53.43453769 324.72652645 -53.4395256 326.82194328 C-53.44547885 329.68142507 -53.4329723 332.54025078 -53.41575623 335.39967346 C-53.42176627 336.22953925 -53.42777632 337.05940504 -53.43396848 337.91441828 C-53.3803847 342.80615094 -52.7171126 346.1428167 -50.02807617 350.38818359 C-45.50423093 354.47067808 -43.07654651 355.51237032 -37.05070496 355.5262146 C-35.13899254 355.53439461 -35.13899254 355.53439461 -33.18865967 355.54273987 C-31.76818853 355.54385971 -30.34771733 355.54491023 -28.92724609 355.54589844 C-27.43754425 355.55056554 -25.94784383 355.55570893 -24.45814514 355.56129456 C-21.24531882 355.57258528 -18.03250182 355.58101476 -14.81966209 355.58741379 C-9.73954678 355.59808197 -4.65949834 355.61832378 0.420578 355.64053345 C14.86808204 355.70249702 29.31558245 355.75647301 43.76318359 355.78955078 C51.73879127 355.80789129 59.71428725 355.83682041 67.68981284 355.87755549 C71.91144496 355.89863589 76.13293626 355.9140842 80.35462379 355.91636276 C84.32652759 355.91850897 88.29813825 355.93437533 92.26995277 355.96075249 C93.72720219 355.96794813 95.18448711 355.97004515 96.64175034 355.96665001 C98.63238798 355.96275328 100.62303463 355.97897372 102.61360168 355.9961853 C103.72729535 355.99949545 104.84098902 356.0028056 105.98843098 356.00621605 C109.36105872 356.43800335 111.2529708 357.37826496 113.97192383 359.38818359 C115.51779259 362.47992111 115.26551904 364.98247912 114.97192383 368.38818359 C112.83617786 371.27546213 111.64108372 372.27205759 108.07135582 372.89154816 C106.93763353 372.89305626 105.80391125 372.89456436 104.63583374 372.89611816 C102.6803511 372.91303711 102.6803511 372.91303711 100.68536377 372.93029785 C99.24230735 372.92252053 97.79925312 372.91432784 96.35620117 372.90576172 C94.83490326 372.91118266 93.31361059 372.91830516 91.79232788 372.92700195 C87.65966301 372.94525111 83.52739725 372.93815892 79.39472532 372.92548561 C75.06454108 372.91535506 70.73439091 372.92475247 66.40420532 372.93103027 C59.12577186 372.9383112 51.84750063 372.92871224 44.5690918 372.90966797 C36.17121194 372.88794734 27.77372128 372.89491362 19.37585104 372.91697359 C12.15695646 372.93517362 4.93817857 372.93766202 -2.28073156 372.92721891 C-6.58804335 372.92100288 -10.89517282 372.920095 -15.20247269 372.93336487 C-19.25901434 372.94498815 -23.31505926 372.93678059 -27.3715477 372.91378784 C-28.85412016 372.90853298 -30.33673498 372.90995882 -31.81929016 372.9188385 C-43.92439372 372.98461045 -53.04448378 371.17436455 -62.04760742 362.68115234 C-68.24433452 355.50663794 -70.1772397 347.84220585 -70.17524719 338.59080505 C-70.17892388 337.68058171 -70.18260057 336.77035836 -70.18638867 335.83255249 C-70.19743878 332.76962896 -70.20127164 329.70673933 -70.20507812 326.64379883 C-70.21134186 324.45271191 -70.21798858 322.26162606 -70.22499084 320.07054138 C-70.24241092 314.10743154 -70.25295577 308.14432973 -70.26119637 302.18120074 C-70.26634534 298.4555216 -70.27242118 294.72984494 -70.2787075 291.00416756 C-70.29667056 280.0161477 -70.31104772 269.02813246 -70.31888391 258.04010052 C-70.32032237 256.02941922 -70.32177374 254.01873792 -70.32324219 252.00805664 C-70.32372593 251.34247854 -70.32420967 250.67690044 -70.32470807 249.99115331 C-70.33300162 239.2183468 -70.3583265 228.44565159 -70.39082287 217.67289364 C-70.42393518 206.60540553 -70.4415764 195.53797677 -70.44510049 184.47043949 C-70.44745043 178.25944378 -70.45640362 172.04862386 -70.48156166 165.83767509 C-70.50486025 159.9911323 -70.50906822 154.14488081 -70.49880028 148.2983036 C-70.49830522 146.15617783 -70.50461679 144.01403764 -70.51835632 141.87195587 C-70.53611028 138.93910657 -70.52895153 136.00729875 -70.51582336 133.07444763 C-70.52679261 132.23404999 -70.53776186 131.39365234 -70.5490635 130.5277881 C-70.44807952 121.13253528 -66.73457975 112.05178842 -60.02807617 105.38818359 C-50.64694993 98.41048639 -42.519937 97.12993953 -31.02807617 97.38818359 C-31.02807617 93.09818359 -31.02807617 88.80818359 -31.02807617 84.38818359 C-47.21602141 85.04224199 -60.31157304 88.03335171 -71.77807617 100.07568359 C-84.01204482 115.14399959 -83.32801566 132.68591466 -83.28686523 151.04858398 C-83.28958059 153.09849674 -83.29314456 155.14840852 -83.29748535 157.19831848 C-83.30654629 162.72713626 -83.30309139 168.2558788 -83.29672718 173.78469777 C-83.2916351 179.59217981 -83.29636744 185.39965575 -83.29949951 191.20713806 C-83.30312955 200.95540514 -83.29836505 210.70364184 -83.28881836 220.4519043 C-83.27793263 231.69682756 -83.28146416 242.94167828 -83.29247117 254.18659979 C-83.30156784 263.87023857 -83.30281779 273.5538556 -83.29759383 283.23749727 C-83.2944876 289.00849784 -83.29402765 294.77946439 -83.30066681 300.55046272 C-83.30647446 305.97687208 -83.30238116 311.40318854 -83.2908783 316.82958794 C-83.28825006 318.81242087 -83.28896511 320.79526172 -83.29340363 322.77809143 C-83.6274031 342.44645326 -83.6274031 342.44645326 -77.65307617 360.88818359 C-77.0678418 362.01224609 -76.48260742 363.13630859 -75.87963867 364.29443359 C-69.57920351 374.82174298 -59.80093743 381.264051 -48.02807617 384.38818359 C-44.00910282 385.15780854 -40.21217774 385.51452806 -36.12272453 385.51961136 C-34.9582079 385.5234525 -33.79369127 385.52729365 -32.59388626 385.53125119 C-30.68885131 385.52995147 -30.68885131 385.52995147 -28.74533081 385.52862549 C-27.37514542 385.53121101 -26.00496079 385.53422469 -24.63477719 385.53762889 C-20.87477276 385.54568025 -17.11478745 385.54748742 -13.35477543 385.54822636 C-9.29734856 385.55008017 -5.23993153 385.55762918 -1.18251038 385.56436157 C7.68749052 385.57793235 16.55748689 385.58396771 25.42749643 385.58837223 C30.96850969 385.59113687 36.50952121 385.59537464 42.05053329 385.5998764 C57.39915164 385.61206762 72.7477686 385.6223671 88.09639168 385.6257515 C89.07837675 385.62597106 90.06036183 385.62619063 91.07210403 385.62641685 C92.0564076 385.62663512 93.04071117 385.6268534 94.05484211 385.62707829 C96.0493381 385.62752176 98.04383409 385.62796832 100.03833008 385.62841797 C101.02766406 385.6286394 102.01699805 385.62886083 103.03631185 385.62908897 C119.06159699 385.63303571 135.08683662 385.6504866 151.11210419 385.67377749 C167.57437455 385.69750991 184.03662209 385.70995421 200.49890983 385.71111941 C209.73806924 385.71203513 218.97716936 385.71776137 228.21631241 385.73593903 C236.08473905 385.75136555 243.95308807 385.75644545 251.82152696 385.74820092 C255.83314165 385.7443034 259.84460014 385.74517993 263.85619545 385.75925827 C267.53531568 385.77205126 271.21416321 385.77075279 274.89328335 385.75866756 C276.84062438 385.7558037 278.78797036 385.76760531 280.73527348 385.78008962 C294.73062885 385.70194177 306.90548203 382.56242804 317.55004883 373.09521484 C328.85174402 361.32573425 331.19810817 348.1247846 331.59692383 332.38818359 C331.6355957 331.13650391 331.67426758 329.88482422 331.71411133 328.59521484 C331.80781463 325.52643172 331.8909325 322.45732852 331.97192383 319.38818359 C327.68192383 319.38818359 323.39192383 319.38818359 318.97192383 319.38818359 C319.00672852 320.90927734 319.0415332 322.43037109 319.07739258 323.99755859 C319.55014595 352.95012107 319.55014595 352.95012107 309.97192383 363.38818359 C302.97754501 369.32487586 296.61628642 372.62463579 287.31698608 372.66233826 C286.67356408 372.66757494 286.03014207 372.67281161 285.36722243 372.67820698 C283.22546377 372.69312993 281.08394562 372.69391039 278.94213867 372.69458008 C277.40096131 372.70220637 275.85978774 372.71063468 274.31861877 372.71980286 C270.14321141 372.74169886 265.96787724 372.75053927 261.79241896 372.7556293 C259.1835503 372.75927638 256.57470075 372.76551803 253.96583939 372.77263069 C244.86434335 372.79710083 235.7629042 372.81017339 226.66137695 372.8137207 C218.1758343 372.81736188 209.69065201 372.84730489 201.20521963 372.88912529 C193.91761036 372.92378417 186.63012091 372.93926832 179.34242976 372.93996674 C174.99053959 372.94076057 170.63901739 372.94954889 166.28721237 372.9779644 C162.19780518 373.00407245 158.10907313 373.00639158 154.0196209 372.99030876 C152.51837763 372.98848888 151.01709613 372.99523363 149.5159359 373.01112747 C147.46835475 373.03148724 145.42052046 373.01808481 143.37289429 373.00291443 C141.65345643 373.00593142 141.65345643 373.00593142 139.89928246 373.00900936 C136.97192383 372.38818359 136.97192383 372.38818359 134.56795692 370.07632542 C132.97192383 367.38818359 132.97192383 367.38818359 133.03442383 363.76318359 C134.28938415 359.24532645 134.28938415 359.24532645 136.97192383 357.38818359 C140.22854353 356.30264369 142.60413712 356.25808626 146.03158569 356.25015259 C147.29902115 356.24469925 148.5664566 356.23924591 149.87229919 356.23362732 C151.27969355 356.23250755 152.68708797 356.23145702 154.09448242 356.23046875 C155.57447968 356.22580027 157.05447551 356.22065665 158.5344696 356.21507263 C161.72326905 356.20379256 164.91205914 356.19535797 168.10087204 356.1889534 C173.14326206 356.17827527 178.18558495 356.15803129 183.22793579 356.13583374 C197.56704639 356.073902 211.90615297 356.01988464 226.24536133 355.98681641 C234.16347799 355.96847591 242.08148215 355.93954835 249.99951613 355.8988117 C254.18983441 355.8777343 258.38001089 355.86228338 262.57038498 355.86000443 C266.5119343 355.85785825 270.45318823 355.84199221 274.3946476 355.8156147 C275.84060983 355.80841942 277.28660785 355.80632186 278.732584 355.80971718 C280.70784158 355.81361421 282.68310823 355.79739275 284.65829468 355.78018188 C286.31582543 355.77521667 286.31582543 355.77521667 288.00684166 355.77015114 C291.34268148 355.34042189 293.19555415 354.22486629 295.97192383 352.38818359 C296.63192383 352.38818359 297.29192383 352.38818359 297.97192383 352.38818359 C302.00267172 345.19041951 302.3449259 338.01986714 302.59692383 329.95068359 C302.6355957 328.93296875 302.67426758 327.91525391 302.71411133 326.86669922 C302.80773255 324.37403423 302.89346375 321.88136409 302.97192383 319.38818359 C302.01930664 319.41138672 301.06668945 319.43458984 300.08520508 319.45849609 C298.83094727 319.47654297 297.57668945 319.49458984 296.28442383 319.51318359 C295.04305664 319.53638672 293.80168945 319.55958984 292.52270508 319.58349609 C289.05446224 319.39272366 286.95496902 319.13308218 283.97192383 317.38818359 C281.2094804 313.62194364 280.59422391 310.94775788 280.58374023 306.31616211 C280.57428375 305.11464005 280.56482727 303.91311798 280.55508423 302.67518616 C280.56419327 300.74067848 280.56419327 300.74067848 280.57348633 298.76708984 C280.57146336 297.42097313 280.56855006 296.07485749 280.56478882 294.72874451 C280.5603744 291.91191134 280.56676664 289.09536426 280.58081055 286.27856445 C280.5978859 282.67952676 280.58806686 279.08116113 280.57009315 275.48214817 C280.55921708 272.70333354 280.56271933 269.92467641 280.57047653 267.14585686 C280.57343348 265.17727596 280.56436819 263.20868879 280.55508423 261.24012756 C280.56454071 260.03545334 280.57399719 258.83077911 280.58374023 257.58959961 C280.58612701 256.53434586 280.58851379 255.4790921 280.5909729 254.39186096 C281.03951828 250.85522277 282.14825006 248.43563067 283.97192383 245.38818359 C287.28187096 243.73321003 290.96315383 244.28734024 294.59692383 244.32568359 C295.3987207 244.33019531 296.20051758 244.33470703 297.02661133 244.33935547 C299.00841389 244.35115191 300.99017816 244.36908754 302.97192383 244.38818359 C302.97192383 239.76818359 302.97192383 235.14818359 302.97192383 230.38818359 C301.67254883 230.38818359 300.37317383 230.38818359 299.03442383 230.38818359 C292.71186289 229.69899449 289.07892092 225.98086291 284.97192383 221.38818359 C281.58844458 216.52443218 280.83085424 211.23375448 280.97192383 205.38818359 C282.18799682 198.62377757 285.03491907 193.32680916 290.60473633 189.16943359 C294.66636146 186.61953441 298.28466267 185.95311602 302.97192383 185.38818359 C302.96823666 184.68379811 302.96454948 183.97941263 302.96075058 183.25368214 C302.87217967 166.06639249 302.80610772 148.87916127 302.76467514 131.69169331 C302.74410296 123.37974634 302.71608543 115.06795229 302.67016602 106.75610352 C302.63013365 99.50637283 302.60445223 92.25675295 302.59556985 85.00691479 C302.59038265 81.17277273 302.57830442 77.33894751 302.5490036 73.50490761 C302.52157419 69.88595007 302.51353339 66.26743572 302.5194931 62.64838409 C302.51789159 60.70778709 302.49651434 58.76723683 302.47424316 56.82676697 C302.54782531 40.93666112 307.86367839 28.17725381 318.65161133 16.67724609 C329.42293204 6.05099368 342.81093229 0.58670794 357.97192383 0.01318359 C374.40649395 0.65978963 387.53663794 6.76878756 398.97192383 18.38818359 C399.55844727 18.97599609 400.1449707 19.56380859 400.74926758 20.16943359 C404.89495086 24.64213006 407.69927502 29.74808837 409.97192383 35.38818359 C410.23376465 36.03464844 410.49560547 36.68111328 410.76538086 37.34716797 C413.40570449 44.78850889 413.49691707 52.22341529 413.47290039 60.02197266 C413.47191619 62.28071125 413.5139073 64.53617323 413.55786133 66.79443359 C413.56306135 68.23973909 413.56575664 69.68505625 413.56567383 71.13037109 C413.57276367 72.4282959 413.57985352 73.7262207 413.5871582 75.06347656 C412.97192383 78.38818359 412.97192383 78.38818359 410.93505859 80.81079102 C407.22310493 82.78680919 404.07216283 82.94767686 399.96801758 82.88427734 C399.20771744 82.88573257 398.4474173 82.88718781 397.66407776 82.88868713 C396.06295931 82.88703284 394.46182419 82.87552415 392.86083984 82.85473633 C390.41345621 82.82573138 387.96823433 82.83414552 385.52075195 82.84716797 C383.96149666 82.84093131 382.40224819 82.83254093 380.84301758 82.82177734 C379.74913979 82.8261808 379.74913979 82.8261808 378.63316345 82.83067322 C375.51578653 82.77288837 373.29570401 82.56671659 370.54248047 81.04858398 C367.75524757 78.10190732 367.83499404 75.09968953 367.76098633 71.23974609 C367.73262695 70.23427734 367.70426758 69.22880859 367.67504883 68.19287109 C367.62316171 66.08106532 367.57883257 63.96905968 367.54223633 61.85693359 C367.44892344 54.59037499 367.44892344 54.59037499 363.97192383 48.38818359 C360.77958897 46.79201617 357.43730886 46.87352245 353.97192383 47.38818359 C351.5407276 49.25833454 350.3312321 50.66956704 348.97192383 53.38818359 C348.87873363 54.93453132 348.84679062 56.48478256 348.84594727 58.03393555 C348.84023712 59.48102654 348.84023712 59.48102654 348.83441162 60.95735168 C348.83287079 62.5260627 348.83287079 62.5260627 348.83129883 64.12646484 C348.81297143 66.33025123 348.79340119 68.53402756 348.77270508 70.73779297 C348.74372032 74.22063117 348.72192353 77.70282431 348.72143555 81.18579102 C348.71810377 84.54160128 348.68356692 87.89591418 348.64379883 91.25146484 C348.65086853 92.29119949 348.65793823 93.33093414 348.66522217 94.4021759 C348.54357015 101.62170096 348.54357015 101.62170096 345.61743164 105.54516602 C342.97192383 107.38818359 342.97192383 107.38818359 339.97192383 108.01318359 C335.74819499 107.13324009 334.54510768 105.87038278 331.97192383 102.38818359 C331.23066153 98.54110999 331.29519713 94.74896395 331.34301758 90.84130859 C331.34060562 89.71553406 331.33819366 88.58975952 331.33570862 87.42987061 C331.33668724 85.04940265 331.35008425 82.66891198 331.375 80.28857422 C331.4091735 76.66472955 331.39569083 73.04334259 331.3762207 69.41943359 C331.38312333 67.10171497 331.39279946 64.78400261 331.40551758 62.46630859 C331.40055771 61.39100891 331.39559784 60.31570923 331.39048767 59.20782471 C331.51950582 50.86320149 333.5575517 45.08075273 338.09692383 38.13818359 C344.01568056 32.47676411 349.76065862 30.0848436 357.97192383 29.76318359 C366.29218457 30.09780278 372.67347122 32.58607397 378.40942383 38.70068359 C384.95910036 47.42121609 384.31234626 55.99899533 383.97192383 66.38818359 C388.59192383 66.38818359 393.21192383 66.38818359 397.97192383 66.38818359 C396.83372566 50.1476246 394.94821172 36.67715232 381.97192383 25.38818359 C372.72721942 18.96750993 362.59024537 15.843635 351.37817383 17.85302734 C340.21647288 20.50236366 331.6536147 26.00604029 324.97192383 35.38818359 C321.58777009 41.50908774 319.85855548 47.07364576 319.81370544 54.07025146 C319.80391663 55.22848923 319.79412781 56.38672699 319.78404236 57.58006287 C319.7782869 58.84673294 319.77253143 60.11340302 319.76660156 61.41845703 C319.75701905 62.76878659 319.74700874 64.11911318 319.73660278 65.46943665 C319.70958811 69.13228704 319.68855996 72.79515028 319.6686008 76.45804501 C319.64672003 80.28709688 319.61934157 84.11610934 319.59254456 87.94512939 C319.54264594 95.19462311 319.49769662 102.44413874 319.45452219 109.69367528 C319.40512561 117.94756686 319.35021646 126.20141889 319.2948426 134.4552722 C319.18106602 151.43287299 319.07441311 168.41051105 318.97192383 185.38818359 C323.26192383 185.38818359 327.55192383 185.38818359 331.97192383 185.38818359 C331.94573975 183.74825439 331.91955566 182.1083252 331.89257812 180.41870117 C331.8020742 174.3340418 331.74467241 168.24944191 331.69726562 162.16430664 C331.67212225 159.53074132 331.63800299 156.89724578 331.59472656 154.26391602 C331.53407172 150.47834051 331.50571112 146.69368762 331.48364258 142.90771484 C331.45783615 141.73046341 331.43202972 140.55321198 331.40544128 139.34028625 C331.40231661 130.23270242 331.40231661 130.23270242 334.31494141 127.14477539 C336.97192383 125.38818359 336.97192383 125.38818359 339.97192383 124.76318359 C343.06104477 125.40675046 344.76077278 126.22439155 346.93099976 128.52523804 C349.32576113 132.81115109 348.56460227 138.14526792 348.46020508 142.90771484 C348.45313034 144.12142258 348.4460556 145.33513031 348.43876648 146.58561707 C348.41080272 150.45793571 348.34805474 154.32880276 348.28442383 158.20068359 C348.25934379 160.82761582 348.23653011 163.45457074 348.21606445 166.08154297 C348.16096913 172.5175842 348.07732038 178.95278019 347.97192383 185.38818359 C348.59274338 185.51579071 349.21356293 185.64339783 349.85319519 185.77487183 C350.66605484 185.94745514 351.47891449 186.12003845 352.31640625 186.29785156 C353.1228508 186.46670868 353.92929535 186.6355658 354.76017761 186.80953979 C360.40634418 188.28670713 364.56735004 193.19396134 367.47192383 198.07568359 C370.02287697 203.94059819 370.03816911 210.61531567 368.31176758 216.72412109 C365.65688144 222.72347418 361.09272067 226.75348048 355.34692383 229.76318359 C352.97192383 230.38818359 352.97192383 230.38818359 347.97192383 230.38818359 C347.97192383 235.00818359 347.97192383 239.62818359 347.97192383 244.38818359 C349.15270508 244.34177734 350.33348633 244.29537109 351.55004883 244.24755859 C353.10731517 244.2100341 354.66460891 244.17363467 356.22192383 244.13818359 C357.38788086 244.08791016 357.38788086 244.08791016 358.57739258 244.03662109 C359.33149414 244.02373047 360.0855957 244.01083984 360.86254883 243.99755859 C361.55380859 243.97661133 362.24506836 243.95566406 362.95727539 243.93408203 C365.97730295 244.61479595 367.12688495 245.94376193 368.97192383 248.38818359 C369.42602539 251.13720703 369.42602539 251.13720703 369.36254883 254.24755859 C369.34321289 255.92011719 369.34321289 255.92011719 369.32348633 257.62646484 C369.27321289 259.36476563 369.27321289 259.36476563 369.22192383 261.13818359 C369.20387695 262.31251953 369.18583008 263.48685547 369.16723633 264.69677734 C369.12012277 267.59426116 369.04838049 270.49132555 368.97192383 273.38818359 C373.59192383 273.38818359 378.21192383 273.38818359 382.97192383 273.38818359 C382.88942383 271.82068359 382.80692383 270.25318359 382.72192383 268.63818359 C382.73572164 263.76065627 382.73572164 263.76065627 384.59692383 260.82568359 C387.5431998 259.04241129 389.52013977 258.45862817 392.97192383 258.38818359 C397.53714122 260.51861838 397.53714122 260.51861838 398.97192383 263.38818359 C399.25588926 268.47116488 399.28565264 273.55509951 399.32202148 278.64526367 C399.33857207 280.34364534 399.36585067 282.0419576 399.40405273 283.73999023 C399.45892041 286.19209823 399.48070896 288.64257506 399.49536133 291.09521484 C399.5180307 291.85059036 399.54070007 292.60596588 399.5640564 293.38423157 C399.5480676 297.3893128 399.13382215 299.18251576 396.62670898 302.36743164 C393.97192383 304.38818359 393.97192383 304.38818359 390.97192383 305.01318359 C386.75457903 304.13457009 385.39804033 302.95600199 382.97192383 299.38818359 C382.55603605 295.9400001 382.7389338 292.88303394 382.97192383 289.38818359 C378.35192383 289.38818359 373.73192383 289.38818359 368.97192383 289.38818359 C369.01833008 291.14646484 369.06473633 292.90474609 369.11254883 294.71630859 C369.15006549 297.02358329 369.18646576 299.33087634 369.22192383 301.63818359 C369.25543945 302.79705078 369.28895508 303.95591797 369.32348633 305.14990234 C369.33637695 306.26494141 369.34926758 307.37998047 369.36254883 308.52880859 C369.38349609 309.55522461 369.40444336 310.58164062 369.42602539 311.63916016 C368.85147676 315.11734164 367.71137889 316.23990664 364.97192383 318.38818359 C361.41147206 319.57500085 358.53384046 319.48508191 354.78442383 319.45068359 C353.51211914 319.44166016 352.23981445 319.43263672 350.92895508 319.42333984 C349.46522461 319.4059375 349.46522461 319.4059375 347.97192383 319.38818359 C348.00334473 320.58809937 348.00334473 320.58809937 348.03540039 321.81225586 C348.71513349 351.70115288 348.71513349 351.70115288 343.97192383 363.38818359 C343.57102539 364.42201172 343.17012695 365.45583984 342.75708008 366.52099609 C335.72703456 382.45576594 321.89065552 393.12386788 305.97192383 399.38818359 C296.55993763 402.57868739 287.25634114 402.53535103 277.42416382 402.52862549 C276.04955291 402.53121261 274.67494275 402.53422674 273.30033362 402.53762889 C269.53730754 402.54566127 265.77430058 402.54748635 262.01126695 402.54822636 C257.94702031 402.55008348 253.88278343 402.55763407 249.81854248 402.56436157 C240.93819548 402.57791838 232.05785301 402.58396539 223.17749739 402.58837223 C217.62808226 402.59113899 212.07866887 402.59537711 206.52925491 402.5998764 C191.1513931 402.61206531 175.77353266 402.62236556 160.39566612 402.6257515 C158.92059714 402.62608084 158.92059714 402.62608084 157.41572879 402.62641685 C155.93722169 402.62674426 155.93722169 402.62674426 154.42884576 402.62707829 C152.43164913 402.62752175 150.43445249 402.62796832 148.43725586 402.62841797 C147.44658688 402.6286394 146.45591791 402.62886083 145.43522866 402.62908897 C129.38878899 402.63303562 113.34239476 402.65048728 97.29597263 402.67377749 C80.80424898 402.69751998 64.31254811 402.70995465 47.8208071 402.71111941 C38.56819978 402.71203451 29.31565171 402.71774521 20.06306076 402.73593903 C12.1833945 402.75137912 4.30380579 402.75643746 -3.57587273 402.74820092 C-7.59179961 402.74430831 -11.6075705 402.74515568 -15.62347794 402.75925827 C-19.30879078 402.77208091 -22.99383175 402.7707273 -26.67914467 402.75866756 C-28.62491221 402.75581342 -30.57068484 402.76758257 -32.51641428 402.78008962 C-49.58647706 402.68527378 -64.96813542 398.59316155 -78.02807617 387.38818359 C-78.85436523 386.76298828 -79.6806543 386.13779297 -80.53198242 385.49365234 C-90.28105322 377.27025773 -96.91791555 363.85252606 -99.02807617 351.38818359 C-99.60185573 343.9317023 -99.44905103 336.42983244 -99.43212891 328.95703125 C-99.4378373 326.68096075 -99.44480337 324.40489312 -99.45292664 322.12882996 C-99.47082152 315.96967247 -99.46969648 309.81065775 -99.46398425 303.65148211 C-99.46088699 298.50005969 -99.46699086 293.34866449 -99.473023 288.19724596 C-99.48785581 275.34537914 -99.48426496 262.49361219 -99.47215969 249.64174931 C-99.46223072 238.50610867 -99.47516655 227.37063428 -99.49909388 216.23501928 C-99.52353537 204.77286731 -99.53268151 193.31082192 -99.52644116 181.84863889 C-99.52307762 175.42474254 -99.52544669 169.0009835 -99.54269218 162.57710648 C-99.55820775 156.53425898 -99.55415438 150.49172781 -99.53538704 144.44889259 C-99.5317139 142.23869065 -99.53477215 140.02846504 -99.54527283 137.81828499 C-99.63716323 116.86827559 -96.04404835 100.6052977 -80.88354492 85.11865234 C-69.09743429 73.84848636 -54.92471947 68.21625109 -38.73120117 68.34521484 C-37.98950684 68.34831665 -37.2478125 68.35141846 -36.48364258 68.35461426 C-34.66510385 68.36266737 -32.84658492 68.37499634 -31.02807617 68.38818359 C-31.03695862 67.78176529 -31.04584106 67.17534698 -31.05499268 66.55055237 C-31.14386885 60.20721922 -31.20397682 53.86406457 -31.24780273 47.52026367 C-31.26784899 45.15658375 -31.29509336 42.79295298 -31.32983398 40.42944336 C-31.37865888 37.02103502 -31.40111566 33.61328556 -31.41870117 30.20458984 C-31.43934631 29.15735245 -31.45999146 28.11011505 -31.48126221 27.03114319 C-31.48348541 19.6699309 -30.42997765 13.17833946 -25.36553955 7.53590393 C-18.01728701 0.48734223 -9.69741735 -0.05333354 0 0 Z M18.97192383 96.38818359 C17.74554812 98.840935 17.85777068 100.4387617 17.87426758 103.17724609 C17.87749023 104.11826172 17.88071289 105.05927734 17.8840332 106.02880859 C17.89241211 107.01365234 17.90079102 107.99849609 17.90942383 109.01318359 C17.91393555 110.00576172 17.91844727 110.99833984 17.9230957 112.02099609 C17.93490222 114.47675082 17.95283801 116.93247466 17.97192383 119.38818359 C23.91192383 119.38818359 29.85192383 119.38818359 35.97192383 119.38818359 C36.10697373 115.65780512 36.20607514 111.93231947 36.28442383 108.20068359 C36.32631836 107.14558594 36.36821289 106.09048828 36.41137695 105.00341797 C36.56305798 98.67280097 36.56305798 98.67280097 33.67114258 93.18896484 C27.51247963 89.08021865 23.33823316 90.99450737 18.97192383 96.38818359 Z M116.97192383 96.38818359 C115.74554812 98.840935 115.85777068 100.4387617 115.87426758 103.17724609 C115.87749023 104.11826172 115.88071289 105.05927734 115.8840332 106.02880859 C115.89241211 107.01365234 115.90079102 107.99849609 115.90942383 109.01318359 C115.91393555 110.00576172 115.91844727 110.99833984 115.9230957 112.02099609 C115.93490222 114.47675082 115.95283801 116.93247466 115.97192383 119.38818359 C121.91192383 119.38818359 127.85192383 119.38818359 133.97192383 119.38818359 C134.10697373 115.65780512 134.20607514 111.93231947 134.28442383 108.20068359 C134.32631836 107.14558594 134.36821289 106.09048828 134.41137695 105.00341797 C134.56305798 98.67280097 134.56305798 98.67280097 131.67114258 93.18896484 C125.51247963 89.08021865 121.33823316 90.99450737 116.97192383 96.38818359 Z M214.97192383 96.38818359 C213.74554812 98.840935 213.85777068 100.4387617 213.87426758 103.17724609 C213.87749023 104.11826172 213.88071289 105.05927734 213.8840332 106.02880859 C213.89241211 107.01365234 213.90079102 107.99849609 213.90942383 109.01318359 C213.91393555 110.00576172 213.91844727 110.99833984 213.9230957 112.02099609 C213.93490222 114.47675082 213.95283801 116.93247466 213.97192383 119.38818359 C219.91192383 119.38818359 225.85192383 119.38818359 231.97192383 119.38818359 C232.10697373 115.65780512 232.20607514 111.93231947 232.28442383 108.20068359 C232.32631836 107.14558594 232.36821289 106.09048828 232.41137695 105.00341797 C232.56305798 98.67280097 232.56305798 98.67280097 229.67114258 93.18896484 C223.51247963 89.08021865 219.33823316 90.99450737 214.97192383 96.38818359 Z M-0.02807617 135.38818359 C-0.02807617 145.61818359 -0.02807617 155.84818359 -0.02807617 166.38818359 C18.12192383 166.38818359 36.27192383 166.38818359 54.97192383 166.38818359 C54.97192383 156.15818359 54.97192383 145.92818359 54.97192383 135.38818359 C36.82192383 135.38818359 18.67192383 135.38818359 -0.02807617 135.38818359 Z M97.97192383 135.38818359 C97.97192383 145.61818359 97.97192383 155.84818359 97.97192383 166.38818359 C116.12192383 166.38818359 134.27192383 166.38818359 152.97192383 166.38818359 C152.97192383 156.15818359 152.97192383 145.92818359 152.97192383 135.38818359 C134.82192383 135.38818359 116.67192383 135.38818359 97.97192383 135.38818359 Z M195.97192383 135.38818359 C195.97192383 145.61818359 195.97192383 155.84818359 195.97192383 166.38818359 C214.12192383 166.38818359 232.27192383 166.38818359 250.97192383 166.38818359 C250.97192383 156.15818359 250.97192383 145.92818359 250.97192383 135.38818359 C232.82192383 135.38818359 214.67192383 135.38818359 195.97192383 135.38818359 Z M-0.02807617 182.38818359 C-0.02807617 190.63818359 -0.02807617 198.88818359 -0.02807617 207.38818359 C18.12192383 207.38818359 36.27192383 207.38818359 54.97192383 207.38818359 C54.97192383 199.13818359 54.97192383 190.88818359 54.97192383 182.38818359 C36.82192383 182.38818359 18.67192383 182.38818359 -0.02807617 182.38818359 Z M97.97192383 182.38818359 C97.97192383 190.63818359 97.97192383 198.88818359 97.97192383 207.38818359 C116.12192383 207.38818359 134.27192383 207.38818359 152.97192383 207.38818359 C152.97192383 199.13818359 152.97192383 190.88818359 152.97192383 182.38818359 C134.82192383 182.38818359 116.67192383 182.38818359 97.97192383 182.38818359 Z M195.97192383 182.38818359 C195.97192383 190.63818359 195.97192383 198.88818359 195.97192383 207.38818359 C214.12192383 207.38818359 232.27192383 207.38818359 250.97192383 207.38818359 C250.97192383 199.13818359 250.97192383 190.88818359 250.97192383 182.38818359 C232.82192383 182.38818359 214.67192383 182.38818359 195.97192383 182.38818359 Z M299.39208984 203.30029297 C297.42385133 206.10353302 297.42385133 206.10353302 296.97192383 209.38818359 C299.10573832 212.66511299 300.22210395 214.13824363 303.97192383 215.38818359 C305.37219202 215.48854076 306.77661945 215.53640098 308.18041992 215.54931641 C309.44721085 215.56372772 309.44721085 215.56372772 310.73959351 215.57843018 C311.64899689 215.58268005 312.55840027 215.58692993 313.49536133 215.59130859 C314.90285141 215.5998587 314.90285141 215.5998587 316.33877563 215.60858154 C318.32422764 215.61802753 320.30969529 215.62456393 322.29516602 215.62841797 C325.32832246 215.63812407 328.36080139 215.66915146 331.39379883 215.70068359 C333.32348231 215.70721383 335.25317063 215.71246422 337.18286133 215.71630859 C338.54089371 215.7348288 338.54089371 215.7348288 339.92636108 215.75372314 C344.70462541 215.736869 348.1867763 215.6627939 351.97192383 212.38818359 C353.30285543 208.98848548 353.30285543 208.98848548 352.97192383 205.38818359 C350.8334409 202.8670958 349.06617846 201.57237451 345.76730347 201.01708984 C343.02414026 200.8577715 340.30949382 200.83394617 337.56176758 200.85693359 C336.55731094 200.85310669 335.55285431 200.84927979 334.51795959 200.84533691 C332.39900711 200.84262 330.28002096 200.84996565 328.16113281 200.86669922 C324.91696554 200.88813376 321.67500725 200.86687785 318.4309082 200.84130859 C316.37035644 200.84395147 314.30980605 200.84907561 312.24926758 200.85693359 C310.79447243 200.84478821 310.79447243 200.84478821 309.31028748 200.83239746 C303.97589143 200.8379019 303.97589143 200.8379019 299.39208984 203.30029297 Z M-0.02807617 223.38818359 C-0.13120117 229.45193359 -0.23432617 235.51568359 -0.34057617 241.76318359 C-0.38609619 243.65601074 -0.43161621 245.54883789 -0.47851562 247.49902344 C-0.63718012 258.7866175 0.59216364 266.46312261 8.15942383 275.26318359 C13.47883488 280.13355346 19.79391295 282.53886124 26.97192383 282.88818359 C34.7386278 282.52240476 41.7568545 279.45213115 47.43676758 274.16162109 C53.76358944 266.85277345 55.13570227 259.68038227 55.06958008 250.24365234 C55.068573 249.56065063 55.06756592 248.87764893 55.06652832 248.1739502 C55.0613264 245.6411774 55.04736528 243.10842867 55.03442383 240.57568359 C55.01379883 234.90380859 54.99317383 229.23193359 54.97192383 223.38818359 C36.82192383 223.38818359 18.67192383 223.38818359 -0.02807617 223.38818359 Z M97.97192383 223.38818359 C97.86879883 229.45193359 97.76567383 235.51568359 97.65942383 241.76318359 C97.61390381 243.65601074 97.56838379 245.54883789 97.52148438 247.49902344 C97.37115096 258.10516974 98.15205278 265.58183983 105.14770508 274.00927734 C112.18411297 279.99086723 118.00637418 283.067362 127.38989258 282.73583984 C135.02081232 281.70837864 141.92562925 278.23058571 146.97192383 272.38818359 C151.7596935 265.23761851 153.12742847 259.68047641 153.06958008 251.12255859 C153.068573 250.4188916 153.06756592 249.71522461 153.06652832 248.99023438 C153.06131388 246.37286743 153.04735264 243.7555238 153.03442383 241.13818359 C153.01379883 235.28068359 152.99317383 229.42318359 152.97192383 223.38818359 C134.82192383 223.38818359 116.67192383 223.38818359 97.97192383 223.38818359 Z M195.97192383 223.38818359 C195.86879883 229.45193359 195.76567383 235.51568359 195.65942383 241.76318359 C195.61390381 243.65601074 195.56838379 245.54883789 195.52148438 247.49902344 C195.37115096 258.10516974 196.15205278 265.58183983 203.14770508 274.00927734 C210.18411297 279.99086723 216.00637418 283.067362 225.38989258 282.73583984 C233.02081232 281.70837864 239.92562925 278.23058571 244.97192383 272.38818359 C249.7596935 265.23761851 251.12742847 259.68047641 251.06958008 251.12255859 C251.068573 250.4188916 251.06756592 249.71522461 251.06652832 248.99023438 C251.06131388 246.37286743 251.04735264 243.7555238 251.03442383 241.13818359 C251.01379883 235.28068359 250.99317383 229.42318359 250.97192383 223.38818359 C232.82192383 223.38818359 214.67192383 223.38818359 195.97192383 223.38818359 Z M318.97192383 230.38818359 C318.97192383 235.00818359 318.97192383 239.62818359 318.97192383 244.38818359 C323.26192383 244.38818359 327.55192383 244.38818359 331.97192383 244.38818359 C331.97192383 239.76818359 331.97192383 235.14818359 331.97192383 230.38818359 C327.68192383 230.38818359 323.39192383 230.38818359 318.97192383 230.38818359 Z M296.97192383 260.38818359 C296.97192383 274.57818359 296.97192383 288.76818359 296.97192383 303.38818359 C315.45192383 303.38818359 333.93192383 303.38818359 352.97192383 303.38818359 C352.97192383 289.19818359 352.97192383 275.00818359 352.97192383 260.38818359 C334.49192383 260.38818359 316.01192383 260.38818359 296.97192383 260.38818359 Z " fill="#000000" transform="translate(99.028076171875,54.61181640625)"/>
<path d="M0 0 C1.34233704 -0.00929787 1.34233704 -0.00929787 2.71179199 -0.01878357 C4.6013073 -0.02587842 6.49088517 -0.02271354 8.38037109 -0.01000977 C11.2716769 0.00386033 14.15974861 -0.03022235 17.05078125 -0.06835938 C18.88802163 -0.06931056 20.72526605 -0.06745181 22.5625 -0.0625 C23.42613159 -0.07575821 24.28976318 -0.08901642 25.17956543 -0.10267639 C31.13797908 -0.01021236 31.13797908 -0.01021236 34.36132812 2.87915039 C36.29961515 6.5474319 35.87647392 8.62360012 34.78125 12.56640625 C32.80643353 15.38757264 31.08715436 15.94948568 27.78125 16.56640625 C25.23308529 16.68439339 22.71277048 16.75415058 20.1640625 16.76953125 C19.06189896 16.77808136 19.06189896 16.77808136 17.93746948 16.7868042 C16.38589914 16.79622998 14.83430901 16.80277854 13.28271484 16.80664062 C10.92119097 16.81634485 8.56053858 16.84738916 6.19921875 16.87890625 C4.68750514 16.88543737 3.17578534 16.89068741 1.6640625 16.89453125 C0.61377365 16.91305145 0.61377365 16.91305145 -0.45773315 16.9319458 C-5.10432248 16.91104965 -8.27821744 16.02671216 -12.21875 13.56640625 C-13.76461876 10.47466873 -13.51234521 7.97211073 -13.21875 4.56640625 C-9.85637697 -0.53800815 -5.56466133 -0.03195806 0 0 Z " fill="#000000" transform="translate(311.21875,100.43359375)"/>
<path d="M0 0 C1.34233704 -0.00929787 1.34233704 -0.00929787 2.71179199 -0.01878357 C4.6013073 -0.02587842 6.49088517 -0.02271354 8.38037109 -0.01000977 C11.2716769 0.00386033 14.15974861 -0.03022235 17.05078125 -0.06835938 C18.88802163 -0.06931056 20.72526605 -0.06745181 22.5625 -0.0625 C23.42613159 -0.07575821 24.28976318 -0.08901642 25.17956543 -0.10267639 C31.13797908 -0.01021236 31.13797908 -0.01021236 34.36132812 2.87915039 C36.29961515 6.5474319 35.87647392 8.62360012 34.78125 12.56640625 C32.80643353 15.38757264 31.08715436 15.94948568 27.78125 16.56640625 C25.23308529 16.68439339 22.71277048 16.75415058 20.1640625 16.76953125 C19.06189896 16.77808136 19.06189896 16.77808136 17.93746948 16.7868042 C16.38589914 16.79622998 14.83430901 16.80277854 13.28271484 16.80664062 C10.92119097 16.81634485 8.56053858 16.84738916 6.19921875 16.87890625 C4.68750514 16.88543737 3.17578534 16.89068741 1.6640625 16.89453125 C0.61377365 16.91305145 0.61377365 16.91305145 -0.45773315 16.9319458 C-5.10432248 16.91104965 -8.27821744 16.02671216 -12.21875 13.56640625 C-13.76461876 10.47466873 -13.51234521 7.97211073 -13.21875 4.56640625 C-9.85637697 -0.53800815 -5.56466133 -0.03195806 0 0 Z " fill="#000000" transform="translate(213.21875,100.43359375)"/>
<path d="M0 0 C1.34233704 -0.00929787 1.34233704 -0.00929787 2.71179199 -0.01878357 C4.6013073 -0.02587842 6.49088517 -0.02271354 8.38037109 -0.01000977 C11.2716769 0.00386033 14.15974861 -0.03022235 17.05078125 -0.06835938 C18.88802163 -0.06931056 20.72526605 -0.06745181 22.5625 -0.0625 C23.42613159 -0.07575821 24.28976318 -0.08901642 25.17956543 -0.10267639 C31.13797908 -0.01021236 31.13797908 -0.01021236 34.36132812 2.87915039 C36.29961515 6.5474319 35.87647392 8.62360012 34.78125 12.56640625 C32.80643353 15.38757264 31.08715436 15.94948568 27.78125 16.56640625 C25.23308529 16.68439339 22.71277048 16.75415058 20.1640625 16.76953125 C19.06189896 16.77808136 19.06189896 16.77808136 17.93746948 16.7868042 C16.38589914 16.79622998 14.83430901 16.80277854 13.28271484 16.80664062 C10.92119097 16.81634485 8.56053858 16.84738916 6.19921875 16.87890625 C4.68750514 16.88543737 3.17578534 16.89068741 1.6640625 16.89453125 C0.61377365 16.91305145 0.61377365 16.91305145 -0.45773315 16.9319458 C-5.10432248 16.91104965 -8.27821744 16.02671216 -12.21875 13.56640625 C-13.76461876 10.47466873 -13.51234521 7.97211073 -13.21875 4.56640625 C-9.85637697 -0.53800815 -5.56466133 -0.03195806 0 0 Z " fill="#000000" transform="translate(115.21875,100.43359375)"/>
</svg>
