<?xml version="1.0" encoding="UTF-8"?>
<svg version="1.1" xmlns="http://www.w3.org/2000/svg" width="512" height="512">
<path d="M0 0 C0.74082749 -0.00235223 1.48165498 -0.00470446 2.24493179 -0.00712797 C4.74106859 -0.01381418 7.23715329 -0.01335986 9.7332983 -0.01294994 C11.53557427 -0.01624881 13.3378495 -0.01997442 15.14012378 -0.02409142 C20.10374008 -0.03411704 25.06734428 -0.03782912 30.03096926 -0.04048073 C35.38017614 -0.04438213 40.72937342 -0.05396059 46.07857418 -0.0626936 C59.00254391 -0.08246286 71.92651442 -0.09252489 84.85049549 -0.10142139 C90.93534118 -0.1058036 97.02018601 -0.11117059 103.10503101 -0.11641026 C123.33036684 -0.13342314 143.55570212 -0.1479175 163.78104401 -0.155159 C169.03050455 -0.15706892 174.27996509 -0.15898925 179.52942562 -0.16094494 C180.83416747 -0.16142868 182.13890932 -0.16191242 183.4831888 -0.16241082 C204.62107189 -0.17071183 225.7588984 -0.19604972 246.89675678 -0.22852562 C268.59430577 -0.26158986 290.291826 -0.27960719 311.98940033 -0.28280324 C324.17348357 -0.28496894 336.35748431 -0.29372643 348.54154301 -0.31926441 C358.91773381 -0.34096271 369.29382207 -0.34902608 379.67003299 -0.33929763 C384.96352522 -0.33475042 390.25680586 -0.33666381 395.55026913 -0.35605907 C400.39953079 -0.37367321 405.24842619 -0.37270708 410.09769165 -0.35716178 C411.84877008 -0.35478307 413.59987376 -0.35912292 415.35091359 -0.37099043 C430.11096781 -0.4648013 442.75884281 2.16408277 454.11218929 12.28656483 C462.8095446 21.26025751 467.85920117 31.96440589 467.83234787 44.43609428 C467.8347001 45.17692177 467.83705233 45.91774926 467.83947584 46.68102607 C467.84616205 49.17716287 467.84570773 51.67324758 467.84529781 54.16939259 C467.84859668 55.97166855 467.85232229 57.77394378 467.85643929 59.57621807 C467.86646491 64.53983436 467.87017699 69.50343856 467.8728286 74.46706355 C467.87673 79.81627042 467.88630846 85.16546771 467.89504147 90.51466846 C467.91481073 103.43863819 467.92487276 116.3626087 467.93376926 129.28658977 C467.93815147 135.37143547 467.94351846 141.45628029 467.94875813 147.5411253 C467.965771 167.76646112 467.98026537 187.99179641 467.98750687 208.21713829 C467.98941679 213.46659884 467.99133712 218.71605938 467.99329281 223.96551991 C467.99377655 225.27026175 467.99426029 226.5750036 467.99475869 227.91928308 C468.0030597 249.05716617 468.02839759 270.19499268 468.06087349 291.33285106 C468.09393773 313.03040005 468.11195506 334.72792029 468.11515111 356.42549461 C468.11731681 368.60957785 468.1260743 380.79357859 468.15161228 392.97763729 C468.17331058 403.35382809 468.18137395 413.72991635 468.1716455 424.10612727 C468.16709829 429.39961951 468.16901168 434.69290014 468.18840694 439.98636341 C468.20602108 444.83562507 468.20505495 449.68452048 468.18950965 454.53378593 C468.18713094 456.28486436 468.19147079 458.03596804 468.2033383 459.78700788 C468.29714917 474.5470621 465.6682651 487.1949371 455.54578304 498.54828358 C446.57209036 507.24563888 435.86794198 512.29529546 423.39625359 512.26844215 C422.6554261 512.27079438 421.91459861 512.27314661 421.1513218 512.27557012 C418.65518499 512.28225634 416.15910029 512.28180202 413.66295528 512.2813921 C411.86067932 512.28469096 410.05840409 512.28841658 408.2561298 512.29253358 C403.29251351 512.3025592 398.32890931 512.30627128 393.36528432 512.30892289 C388.01607745 512.31282428 382.66688016 512.32240275 377.31767941 512.33113575 C364.39370968 512.35090501 351.46973917 512.36096704 338.5457581 512.36986354 C332.4609124 512.37424576 326.37606758 512.37961275 320.29122257 512.38485241 C300.06588675 512.40186529 279.84055146 512.41635966 259.61520958 512.42360115 C254.36574903 512.42551107 249.11628849 512.4274314 243.86682796 512.42938709 C242.56208612 512.42987083 241.25734427 512.43035457 239.91306479 512.43085297 C218.7751817 512.43915399 197.63735519 512.46449187 176.49949681 512.49696777 C154.80194782 512.53003201 133.10442758 512.54804935 111.40685326 512.55124539 C99.22277002 512.55341109 87.03876928 512.56216858 74.85471058 512.58770657 C64.47851978 512.60940486 54.10243152 512.61746823 43.7262206 512.60773978 C38.43272836 512.60319258 33.13944773 512.60510597 27.84598446 512.62450123 C22.9967228 512.64211536 18.14782739 512.64114923 13.29856194 512.62560394 C11.54748351 512.62322522 9.79637983 512.62756508 8.04533999 512.63943259 C-6.71471423 512.73324346 -19.36258923 510.10435938 -30.71593571 499.98187733 C-39.41329101 491.00818464 -44.46294759 480.30403627 -44.43609428 467.83234787 C-44.43844651 467.09152038 -44.44079874 466.35069289 -44.44322225 465.58741608 C-44.44990847 463.09127928 -44.44945415 460.59519458 -44.44904423 458.09904957 C-44.45234309 456.2967736 -44.45606871 454.49449837 -44.46018571 452.69222409 C-44.47021133 447.72860779 -44.47392341 442.76500359 -44.47657502 437.80137861 C-44.48047641 432.45217173 -44.49005488 427.10297445 -44.49878788 421.75377369 C-44.51855714 408.82980396 -44.52861917 395.90583345 -44.53751567 382.98185238 C-44.54189789 376.89700669 -44.54726488 370.81216186 -44.55250454 364.72731686 C-44.56951742 344.50198103 -44.58401179 324.27664575 -44.59125328 304.05130386 C-44.5931632 298.80184332 -44.59508353 293.55238278 -44.59703922 288.30292225 C-44.59752296 286.9981804 -44.5980067 285.69343855 -44.5985051 284.34915907 C-44.60680612 263.21127598 -44.632144 242.07344947 -44.6646199 220.93559109 C-44.69768414 199.2380421 -44.71570148 177.54052187 -44.71889752 155.84294754 C-44.72106322 143.6588643 -44.72982071 131.47486356 -44.7553587 119.29080486 C-44.77705699 108.91461406 -44.78512036 98.5385258 -44.77539191 88.16231488 C-44.77084471 82.86882265 -44.7727581 77.57554201 -44.79215336 72.28207874 C-44.80976749 67.43281708 -44.80880136 62.58392168 -44.79325607 57.73465622 C-44.79087735 55.98357779 -44.79521721 54.23247411 -44.80708472 52.48143428 C-44.90089559 37.72138006 -42.27201151 25.07350506 -32.14952946 13.72015858 C-23.17583677 5.02280327 -12.4716884 -0.0268533 0 0 Z M-24.30187321 25.13422108 C-29.42323038 31.83736452 -31.55002237 38.13746327 -31.55914211 46.62530708 C-31.56264819 47.36228796 -31.56615426 48.09926884 -31.56976658 48.85858247 C-31.57907504 51.32963184 -31.57415873 53.80044526 -31.56929874 56.2715044 C-31.57303528 58.06043381 -31.57763681 59.84936159 -31.58302939 61.63828677 C-31.59527432 66.55565688 -31.59499716 71.47295904 -31.59264064 76.39034092 C-31.59223285 81.69312632 -31.60326795 86.99588983 -31.61275578 92.29866505 C-31.62937478 102.68826328 -31.63486572 113.07783882 -31.63598053 123.46744923 C-31.63693055 131.91164571 -31.64103852 140.35583469 -31.64738178 148.8000288 C-31.6649964 172.73548007 -31.67422027 196.6709134 -31.67272083 220.6063712 C-31.67264092 221.89697035 -31.67256101 223.1875695 -31.67247868 224.51727772 C-31.67239691 225.80945073 -31.67231515 227.10162373 -31.67223091 228.4329535 C-31.67141788 249.37806857 -31.69055939 270.32311176 -31.71875541 291.26820604 C-31.74747162 312.76919053 -31.76129641 334.27013994 -31.75956786 355.77114409 C-31.75890353 367.84446414 -31.76441438 379.91770883 -31.78592396 391.99101162 C-31.80411908 402.26986697 -31.80849676 412.54861279 -31.79490511 422.82747725 C-31.78836716 428.07212572 -31.78828822 433.31656394 -31.80561161 438.56119251 C-31.82131057 443.36340047 -31.81851112 448.16523091 -31.80104335 452.96742948 C-31.79796646 454.70360502 -31.8016317 456.43980852 -31.8127635 458.1759511 C-31.96878662 470.69436524 -31.96878662 470.69436524 -27.30187321 482.13422108 C-26.63380589 483.20805545 -26.63380589 483.20805545 -25.95224226 484.30358344 C-21.3221532 491.40331385 -13.65034613 497.31933566 -5.30187321 499.13422108 C-0.09244232 499.87944389 4.90690518 500.25990944 10.1798439 500.26285553 C11.24735699 500.26548509 11.24735699 500.26548509 12.336436 500.26816776 C14.70932352 500.27280128 17.08214904 500.27036914 19.45503902 500.26793385 C21.17827091 500.26980315 22.90150236 500.27210433 24.62473315 500.27479917 C29.35128431 500.28090874 34.07781775 500.28078457 38.80437195 500.27960479 C43.90537833 500.27940058 49.00637904 500.28492154 54.10738277 500.28966236 C64.09765447 500.2979647 74.08792027 500.30071701 84.07819513 500.30127474 C92.19909756 500.30175007 100.31999804 500.30380566 108.44089985 500.30697536 C131.46900023 500.31578056 154.49709595 500.32039492 177.52519802 500.31964489 C179.38692447 500.31958496 179.38692447 500.31958496 181.28626156 500.31952381 C182.52892911 500.31948293 183.77159665 500.31944205 185.05192079 500.31939993 C205.19368545 500.31899343 225.33543141 500.32856436 245.47719065 500.34266218 C266.16237536 500.35702604 286.84755095 500.36393237 307.53274077 500.3630684 C319.14440938 500.36273645 330.75605839 500.36548276 342.36772251 500.37624645 C352.25338703 500.38535154 362.13902306 500.38752659 372.02468995 500.38073703 C377.06701671 500.37747197 382.10928881 500.37741469 387.15161037 500.38609028 C391.77117263 500.39395667 396.3906369 500.39252238 401.01019677 500.38380615 C402.67770669 500.38227148 404.34522392 500.38408605 406.01272521 500.38966622 C421.24365927 500.43724315 434.2002146 499.77044405 445.87390804 489.06000233 C452.29569724 482.28068311 454.9453903 474.95526799 454.9553957 465.64313507 C454.96065481 464.53766376 454.96065481 464.53766376 454.96602017 463.40985969 C454.97532862 460.93881031 454.97041231 458.4679969 454.96555233 455.99693775 C454.96928887 454.20800834 454.9738904 452.41908057 454.97928298 450.63015538 C454.99152791 445.71278527 454.99125075 440.79548312 454.98889422 435.87810123 C454.98848644 430.57531583 454.99952154 425.27255233 455.00900936 419.96977711 C455.02562836 409.58017888 455.03111931 399.19060334 455.03223412 388.80099293 C455.03318413 380.35679645 455.03729211 371.91260746 455.04363537 363.46841335 C455.06124998 339.53296208 455.07047386 315.59752875 455.06897442 291.66207095 C455.06889451 290.3714718 455.0688146 289.08087265 455.06873226 287.75116444 C455.06860962 285.81290492 455.06860962 285.81290492 455.0684845 283.83548865 C455.06767147 262.89037358 455.08681298 241.94533039 455.11500899 221.00023612 C455.14372521 199.49925163 455.15754999 177.99830222 455.15582144 156.49729806 C455.15515712 144.42397801 455.16066796 132.35073333 455.18217754 120.27743053 C455.20037267 109.99857518 455.20475035 99.71982937 455.1911587 89.4409649 C455.18462075 84.19631643 455.18454181 78.95187822 455.2018652 73.70724964 C455.21756415 68.90504168 455.2147647 64.10321125 455.19729693 59.30101267 C455.19422005 57.56483713 455.19788529 55.82863363 455.20901708 54.09249105 C455.3650402 41.57407691 455.3650402 41.57407691 450.69812679 30.13422108 C450.25274858 29.4183315 449.80737036 28.70244192 449.34849584 27.96485871 C444.71840678 20.86512831 437.04659971 14.94910649 428.69812679 13.13422108 C423.48869591 12.38899827 418.48934841 12.00853272 413.21640968 12.00558662 C412.14889659 12.00295707 412.14889659 12.00295707 411.05981758 12.00027439 C408.68693007 11.99564087 406.31410455 11.99807302 403.94121456 12.00050831 C402.21798268 11.998639 400.49475122 11.99633782 398.77152044 11.99364299 C394.04496928 11.98753342 389.31843583 11.98765759 384.59188163 11.98883736 C379.49087526 11.98904158 374.38987454 11.98352062 369.28887081 11.97877979 C359.29859911 11.97047746 349.30833331 11.96772515 339.31805845 11.96716741 C331.19715603 11.96669209 323.07625555 11.9646365 314.95535374 11.96146679 C291.92725336 11.95266159 268.89915764 11.94804724 245.87105557 11.94879726 C244.00932911 11.9488572 244.00932911 11.9488572 242.10999203 11.94891834 C240.86732448 11.94895922 239.62465693 11.9490001 238.34433279 11.94904222 C218.20256814 11.94944873 198.06082218 11.93987779 177.91906293 11.92577998 C157.23387823 11.91141611 136.54870264 11.90450979 115.86351281 11.90537375 C104.2518442 11.9057057 92.64019519 11.9029594 81.02853107 11.8921957 C71.14286656 11.88309061 61.25723053 11.88091556 51.37156364 11.88770512 C46.32923688 11.89097018 41.28696477 11.89102747 36.24464321 11.88235188 C31.62508096 11.87448548 27.00561669 11.87591977 22.38605682 11.88463601 C20.7185469 11.88617067 19.05102966 11.8843561 17.38352837 11.87877593 C1.13303131 11.82801419 -12.57417315 12.75358697 -24.30187321 25.13422108 Z " fill="#000000" transform="translate(44.301873207092285,-0.13422107696533203)"/>
<path d="M0 0 C3.61749919 2.35351015 6.95988292 4.97385833 10.3125 7.6875 C12.14067743 9.12174814 13.97141935 10.55273336 15.8046875 11.98046875 C16.68866211 12.67060059 17.57263672 13.36073242 18.48339844 14.07177734 C34.15908125 26.08250133 54.01926299 39.86159336 74 42 C74.75023437 42.0825 75.50046875 42.165 76.2734375 42.25 C99.3174609 43.47493148 120.47935239 28.157118 138 15 C140.48345537 13.1362794 142.96753959 11.27354398 145.45654297 9.41723633 C147.05452215 8.22260457 148.64651802 7.01990573 150.23095703 5.80737305 C161.39299353 -2.57940301 171.03533878 -6.00465189 185 -5 C195.86328266 -2.3978284 203.99775521 7.09569899 210 16 C216.56882037 27.09999082 222.53335759 40.09354682 224 53 C223.0625 55.875 223.0625 55.875 221 58 C218.20647577 58.72016009 215.74352255 58.94032023 213 58 C209.86980581 54.01752522 208.70905367 49.2701569 207.25 44.5 C203.02053043 31.3776294 197.17883319 18.47917637 185.54296875 10.265625 C181.02036698 8.01474485 176.91886659 8.14927275 172 9 C163.62092513 12.34927958 156.5546618 18.52885404 149.49194336 24.01928711 C126.1201493 42.15575771 99.36011 59.41613178 68.55859375 55.5703125 C45.7917712 51.37437933 25.84104463 37.35954198 7.88476562 23.44482422 C4.7584909 21.04828357 1.57352052 18.73630325 -1.625 16.4375 C-2.18106934 16.03192871 -2.73713867 15.62635742 -3.31005859 15.20849609 C-9.60095155 10.69858653 -14.48790944 8.2916167 -22.25390625 8.5234375 C-26.92199182 9.33354623 -29.69587105 11.73982842 -33 15 C-33.50917969 15.46019531 -34.01835937 15.92039062 -34.54296875 16.39453125 C-43.20613762 25.19705404 -47.56136196 38.68409924 -51.09765625 50.2355957 C-52.81661164 55.81661164 -52.81661164 55.81661164 -55 58 C-56.875 58.265625 -56.875 58.265625 -59 58.25 C-59.70125 58.25515625 -60.4025 58.2603125 -61.125 58.265625 C-63 58 -63 58 -65 56 C-66.05353837 49.54365691 -64.33738707 43.82714002 -62 37.875 C-61.68385742 37.05314209 -61.36771484 36.23128418 -61.04199219 35.38452148 C-54.78587725 19.53395747 -46.72943715 3.13415845 -30.234375 -4.06640625 C-19.08500734 -7.2846416 -10.06226103 -5.16799916 0 0 Z " fill="#000000" transform="translate(177,373)"/>
<path d="M0 0 C2.19746723 1.59141711 2.90889332 2.47669573 3.37752342 5.16844273 C3.3786545 6.01548739 3.37978558 6.86253206 3.38095093 7.73524475 C3.3894104 8.70937317 3.39786987 9.68350159 3.40658569 10.68714905 C3.39747665 12.28845924 3.39747665 12.28845924 3.38818359 13.92211914 C3.39606903 15.6104335 3.39606903 15.6104335 3.40411377 17.33285522 C3.41735446 21.06709536 3.40855684 24.80091149 3.3984375 28.53515625 C3.40045805 31.13008201 3.40336933 33.72500722 3.40713501 36.31993103 C3.41156471 41.76827907 3.40539606 47.21646755 3.39111328 52.66479492 C3.37484316 58.94327422 3.38003221 65.22146037 3.3965925 71.49993235 C3.41191695 77.55424506 3.41020353 83.6084158 3.4014473 89.66274834 C3.39945141 92.23065673 3.40188299 94.79857263 3.40888596 97.36647224 C3.41654832 100.96855223 3.4048259 104.57008 3.38818359 108.17211914 C3.39425629 109.22548965 3.40032898 110.27886017 3.40658569 111.364151 C3.30063205 123.81219074 -0.7167024 134.31649666 -9 143.6875 C-18.23115923 152.40121757 -29.62710929 155.1415931 -41.86743164 155.17700195 C-43.35118538 155.18685875 -43.35118538 155.18685875 -44.86491394 155.19691467 C-48.12999552 155.21658708 -51.39503138 155.22829291 -54.66015625 155.23828125 C-55.77589964 155.24235678 -56.89164303 155.2464323 -58.04119682 155.25063133 C-63.93965341 155.27145991 -69.8380869 155.28577907 -75.73657227 155.29516602 C-81.83557474 155.30626159 -87.9342155 155.34070698 -94.03308964 155.38033772 C-98.71960648 155.40643065 -103.40603584 155.41485102 -108.09261894 155.41844749 C-110.34174498 155.42332748 -112.59086674 155.43498135 -114.83992195 155.45348549 C-117.98089895 155.47773475 -121.1209217 155.47693851 -124.26196289 155.4699707 C-125.65927139 155.48918579 -125.65927139 155.48918579 -127.08480835 155.50878906 C-133.33613333 155.4581093 -133.33613333 155.4581093 -136.61253357 153.19718933 C-138 151 -138 151 -137.9375 147.375 C-137 144 -137 144 -134 142 C-132.0814352 141.74946022 -132.0814352 141.74946022 -129.87217712 141.7484436 C-129.03267517 141.74306076 -128.19317322 141.73767792 -127.32823181 141.73213196 C-125.95133934 141.73831795 -125.95133934 141.73831795 -124.54663086 141.74462891 C-123.57714508 141.74100845 -122.6076593 141.737388 -121.60879517 141.73365784 C-119.50043111 141.72675786 -117.39204916 141.72425952 -115.28367424 141.72560501 C-111.94107362 141.72656936 -108.59879539 141.71363654 -105.25624084 141.69662476 C-95.75133812 141.65033895 -86.24646656 141.62576602 -76.74145508 141.61914062 C-70.92826767 141.61411129 -65.1154138 141.58978294 -59.30233955 141.55381393 C-57.09171112 141.54404315 -54.88103662 141.54166905 -52.67039299 141.54698563 C-49.56627987 141.55409701 -46.46315113 141.53668767 -43.35913086 141.51416016 C-42.00349281 141.52641884 -42.00349281 141.52641884 -40.62046814 141.53892517 C-32.92973274 141.44026706 -26.06622092 139.59962208 -20.125 134.5625 C-19.42375 133.716875 -18.7225 132.87125 -18 132 C-17.29875 131.236875 -16.5975 130.47375 -15.875 129.6875 C-10.91382646 122.5764846 -10.56608684 115.89410889 -10.61523438 107.4909668 C-10.6098616 106.36320328 -10.60448883 105.23543976 -10.59895325 104.07350159 C-10.58920433 101.63672787 -10.58622232 99.19991955 -10.58930969 96.76312828 C-10.59379621 92.90952888 -10.57976554 89.05638654 -10.56091309 85.20283508 C-10.52106816 76.3353119 -10.50850072 67.46782536 -10.49738312 58.60022736 C-10.48604006 49.80878252 -10.46311225 41.01759327 -10.41999817 32.22623634 C-10.40638461 28.4243107 -10.41060538 24.62266512 -10.41540527 20.82072449 C-10.40607014 18.50116614 -10.39590271 16.18161094 -10.38476562 13.86206055 C-10.39091385 12.80072906 -10.39706207 11.73939758 -10.40339661 10.64590454 C-10.39519394 9.67729996 -10.38699127 8.70869537 -10.37854004 7.71073914 C-10.37782753 6.86847117 -10.37711502 6.02620321 -10.37638092 5.15841198 C-9.36536693 -0.63939706 -5.09008061 -0.54536578 0 0 Z " fill="#000000" transform="translate(473,321)"/>
<path d="M0 0 C2.77595798 2.83016486 3.37456513 4.8741562 3.37181091 8.77957153 C3.37856842 9.73824631 3.38532593 10.69692108 3.39228821 11.68464661 C3.38456894 12.72988998 3.37684967 13.77513336 3.36889648 14.85205078 C3.37266296 15.95823257 3.37642944 17.06441437 3.38031006 18.20411682 C3.38674827 20.60766884 3.38640715 23.01124631 3.38012505 25.41479874 C3.3710257 29.22379825 3.38122768 33.0323043 3.39674377 36.84127808 C3.43180865 46.30647364 3.43917667 55.77162446 3.43664551 65.23687744 C3.43477993 73.22674259 3.44875076 81.2162388 3.48512459 89.20605087 C3.49592569 92.94956478 3.48383025 96.6925683 3.47129822 100.43606567 C3.48020761 102.74790952 3.49028372 105.05974925 3.50170898 107.37158203 C3.49196548 108.40468002 3.48222198 109.43777802 3.47218323 110.50218201 C3.55112179 118.54324912 5.49815654 124.97918015 9.75 131.8125 C17.38862877 139.23894464 25.49818032 141.30212408 35.88916016 141.25537109 C37.35850258 141.26080177 37.35850258 141.26080177 38.85752869 141.26634216 C40.97731217 141.27321841 43.09711329 141.27574493 45.2169075 141.27439499 C48.57070119 141.27342838 51.92417563 141.28638646 55.27792358 141.30337524 C64.81058319 141.34961908 74.3432086 141.37427076 83.87597656 141.38085938 C89.71204743 141.38586532 95.54778228 141.4100631 101.38373947 141.44618607 C103.6077002 141.45600011 105.83170705 141.45830732 108.05568314 141.45301437 C111.16069934 141.44596809 114.264708 141.46317432 117.36962891 141.48583984 C118.75055473 141.47358116 118.75055473 141.47358116 120.15937805 141.46107483 C126.33831739 141.54151742 126.33831739 141.54151742 129.60580444 143.80557251 C131 146 131 146 130.9375 149.625 C130 153 130 153 127 155 C125.06581783 155.25447559 125.06581783 155.25447559 122.83421326 155.26069641 C121.98629715 155.26778122 121.13838104 155.27486603 120.26477051 155.28216553 C119.33749146 155.27968811 118.4102124 155.27721069 117.45483398 155.2746582 C116.47559464 155.27976913 115.49635529 155.28488007 114.48744202 155.29014587 C111.24026421 155.30407872 107.99329796 155.30308139 104.74609375 155.30078125 C102.48747173 155.30466802 100.22885044 155.30900265 97.9702301 155.31376648 C93.22809485 155.32123799 88.48603402 155.32093203 83.74389648 155.31567383 C77.68358591 155.30989795 71.62358282 155.3267602 65.56332302 155.3500185 C60.89370457 155.36479889 56.22415926 155.36562133 51.55452156 155.36250877 C49.32153785 155.36302048 47.08854988 155.36822982 44.85558891 155.37832069 C41.72050341 155.39074197 38.58600479 155.38385762 35.45092773 155.37231445 C34.08126358 155.38378006 34.08126358 155.38378006 32.68392944 155.39547729 C20.68804327 155.29849991 10.29628398 150.94102334 1.3125 143 C-5.66077266 135.61263752 -10.1052317 125.0891518 -10.14044189 114.97714233 C-10.14615204 113.99014847 -10.15186218 113.0031546 -10.15774536 111.98625183 C-10.15886322 110.91490494 -10.15998108 109.84355804 -10.16113281 108.73974609 C-10.16609772 107.60266708 -10.17106262 106.46558807 -10.17617798 105.29405212 C-10.19077013 101.53717442 -10.1975948 97.78033887 -10.203125 94.0234375 C-10.20887648 91.41460163 -10.21463422 88.80576577 -10.22039795 86.19692993 C-10.22995679 81.42934534 -10.23586211 76.66176984 -10.2388947 71.89417684 C-10.24338358 64.87650962 -10.26097796 57.85903638 -10.2898953 50.84142816 C-10.31408831 44.75935188 -10.3218374 38.67735597 -10.32357025 32.59523392 C-10.32660456 30.00757411 -10.33465906 27.41991528 -10.34775543 24.83228683 C-10.3647321 21.22186109 -10.36295667 17.61191384 -10.35644531 14.00146484 C-10.3656601 12.92606949 -10.37487488 11.85067413 -10.3843689 10.74269104 C-10.37879974 9.76133682 -10.37323059 8.7799826 -10.36749268 7.76889038 C-10.36895924 6.91535162 -10.3704258 6.06181286 -10.3719368 5.18240929 C-9.38613246 -0.60198353 -5.09666702 -0.63708338 0 0 Z " fill="#000000" transform="translate(46,321)"/>
<path d="M0 0 C0.98960724 -0.00671722 1.97921448 -0.01343445 2.99880981 -0.02035522 C6.24763088 -0.03924939 9.49624472 -0.043254 12.74511719 -0.04541016 C15.01096684 -0.0518402 17.27681566 -0.05856871 19.54266357 -0.06558228 C24.2800896 -0.07753073 29.01744279 -0.08126521 33.75488281 -0.08007812 C39.83028602 -0.07987419 45.90522538 -0.10726421 51.98051834 -0.14162254 C56.65417641 -0.16382687 61.32772127 -0.16791778 66.0014267 -0.16685867 C68.24217082 -0.169221 70.48291777 -0.1780799 72.72360992 -0.19352341 C75.84992952 -0.21306751 78.97522729 -0.20739245 82.1015625 -0.1953125 C83.02838837 -0.20655151 83.95521423 -0.21779053 84.91012573 -0.22937012 C91.12841502 -0.1681565 91.12841502 -0.1681565 94.40155029 2.09432983 C95.79199219 4.29052734 95.79199219 4.29052734 95.72949219 7.91552734 C94.79199219 11.29052734 94.79199219 11.29052734 91.79199219 13.29052734 C89.87342739 13.54106712 89.87342739 13.54106712 87.66416931 13.54208374 C86.82466736 13.54746658 85.98516541 13.55284943 85.120224 13.55839539 C84.20229568 13.55427139 83.28436737 13.5501474 82.33862305 13.54589844 C80.88439438 13.55132912 80.88439438 13.55132912 79.40078735 13.55686951 C77.29242329 13.56376948 75.18404135 13.56626782 73.07566643 13.56492233 C69.7330658 13.56395799 66.39078758 13.57689081 63.04823303 13.59390259 C53.54333031 13.6401884 44.03845875 13.66476133 34.53344727 13.67138672 C28.72025985 13.67641605 22.90740599 13.70074441 17.09433174 13.73671341 C14.88370331 13.74648419 12.67302881 13.7488583 10.46238518 13.74354172 C7.35827206 13.73643033 4.25514332 13.75383968 1.15112305 13.77636719 C0.24736435 13.76819473 -0.65639435 13.76002228 -1.58753967 13.75160217 C-9.21780089 13.84948451 -15.54855411 16.01353393 -22.02050781 20.04052734 C-28.95874755 27.1770025 -31.51170774 34.9322997 -31.47924805 44.80273438 C-31.48447479 45.63599243 -31.48970154 46.46925049 -31.49508667 47.32775879 C-31.50529111 49.12831881 -31.51110084 50.92890803 -31.51296806 52.729496 C-31.51664138 55.57923329 -31.5333923 58.42862562 -31.5537262 61.27828979 C-31.60906126 69.37719319 -31.639879 77.47614587 -31.66430664 85.57519531 C-31.68016836 90.5359214 -31.71036563 95.49639928 -31.74907112 100.45699692 C-31.76072597 102.34602096 -31.76665151 104.23508933 -31.76675224 106.12414932 C-31.766944 108.76206727 -31.78518639 111.39929802 -31.80737305 114.03710938 C-31.80050728 115.20764359 -31.80050728 115.20764359 -31.79350281 116.40182495 C-31.83620664 119.59070492 -32.01956441 121.93154079 -33.51429749 124.77902222 C-35.20800781 126.29052734 -35.20800781 126.29052734 -38.70800781 126.72802734 C-42.20800781 126.29052734 -42.20800781 126.29052734 -43.90249634 125.2794342 C-45.98788753 122.10240441 -45.6242317 118.7077024 -45.59619141 115.03051758 C-45.60144836 114.18782822 -45.60670532 113.34513885 -45.61212158 112.47691345 C-45.62534956 109.68412861 -45.61656814 106.89191202 -45.60644531 104.09912109 C-45.60846657 102.15438223 -45.61137844 100.20964411 -45.61514282 98.26490784 C-45.61957106 94.18182179 -45.61312396 90.09893235 -45.59912109 86.01586914 C-45.58210839 80.80299503 -45.59181678 75.59058701 -45.60983849 70.37773037 C-45.62073087 66.35661881 -45.6172037 62.33561582 -45.60945511 58.31450081 C-45.607464 56.39412442 -45.60987379 54.47373793 -45.61689377 52.55337334 C-45.66210616 36.69456959 -44.35057782 23.62993185 -33.02050781 11.54052734 C-23.57813672 2.5530213 -12.67990477 -0.01250936 0 0 Z " fill="#000000" transform="translate(81.2080078125,35.70947265625)"/>
<path d="M0 0 C0.84791611 -0.00708481 1.69583221 -0.01416962 2.56944275 -0.02146912 C3.4967218 -0.0189917 4.42400085 -0.01651428 5.37937927 -0.01396179 C6.8482383 -0.02162819 6.8482383 -0.02162819 8.34677124 -0.02944946 C11.59394905 -0.04338231 14.8409153 -0.04238498 18.08811951 -0.04008484 C20.34674153 -0.04397161 22.60536281 -0.04830624 24.86398315 -0.05307007 C29.6061184 -0.06054158 34.34817924 -0.06023561 39.09031677 -0.05497742 C45.15062735 -0.04920154 51.21063044 -0.06606379 57.27089024 -0.08932209 C61.94050869 -0.10410248 66.61005399 -0.10492492 71.2796917 -0.10181236 C73.51267541 -0.10232407 75.74566337 -0.1075334 77.97862434 -0.11762428 C81.11370985 -0.13004556 84.24820847 -0.12316121 87.38328552 -0.11161804 C88.29639496 -0.11926178 89.20950439 -0.12690552 90.15028381 -0.13478088 C102.22320849 -0.03718071 112.80173883 4.32171594 121.64671326 12.57319641 C133.15755672 24.92365434 133.2907805 39.4799935 133.23265076 55.38179016 C133.23467414 57.33329375 133.23758777 59.28479659 133.24134827 61.23629761 C133.24575184 65.30692309 133.23939928 69.37735 133.22532654 73.44795227 C133.20815588 78.66915978 133.21813786 83.88990727 133.23604393 89.11109829 C133.2468671 93.13191214 133.24344356 97.1526162 133.23566055 101.1734333 C133.2336586 103.09959531 133.23611763 105.02576726 133.24309921 106.95191765 C133.25069827 109.63511139 133.23913509 112.31754939 133.22239685 115.00068665 C133.22846954 115.79705536 133.23454224 116.59342407 133.24079895 117.41392517 C133.17914423 122.73520461 133.17914423 122.73520461 131.52870178 125.24960327 C128.59579613 126.99965394 126.13700717 126.67354565 122.83421326 126.26069641 C120.09364617 123.81140197 119.83505121 122.26898698 119.46240234 118.58207703 C119.44818404 117.07836992 119.45032145 115.57445456 119.46531677 114.070755 C119.45966705 112.83576263 119.45966705 112.83576263 119.4539032 111.57582092 C119.44747266 109.78941867 119.44779896 108.0029822 119.45408821 106.21657944 C119.46320659 103.38206466 119.45296387 100.54821037 119.43746948 97.71372986 C119.39740466 89.65533996 119.39615863 81.59700138 119.39842224 73.53852844 C119.39847356 68.60599114 119.37919125 63.67380754 119.34908867 58.74136734 C119.33832315 55.96171359 119.3503619 53.18275288 119.36291504 50.40312195 C119.34125363 40.16078804 118.61310441 32.33391433 113.08421326 23.44819641 C105.44558448 16.02175177 97.33603294 13.95857233 86.9450531 14.00532532 C85.96549149 14.00170486 84.98592987 13.99808441 83.97668457 13.99435425 C81.85690109 13.987478 79.73709996 13.98495148 77.61730576 13.98630142 C74.26351207 13.98726803 70.91003763 13.97430995 67.55628967 13.95732117 C58.02363007 13.91107734 48.49100466 13.88642566 38.95823669 13.87983704 C33.12216583 13.8748311 27.28643097 13.85063331 21.45047379 13.81451035 C19.22651305 13.8046963 17.00250621 13.8023891 14.77853012 13.80768204 C11.67351391 13.81472832 8.56950525 13.79752209 5.46458435 13.77485657 C4.08365852 13.78711525 4.08365852 13.78711525 2.67483521 13.79962158 C-3.50410413 13.71917899 -3.50410413 13.71917899 -6.77159119 11.4551239 C-8.16578674 9.26069641 -8.16578674 9.26069641 -8.10328674 5.63569641 C-6.77288641 0.84625521 -4.65216637 0.01296837 0 0 Z " fill="#000000" transform="translate(343.16578674316406,35.73930358886719)"/>
<path d="M0 0 C4.28585824 1.00269561 7.16035167 2.81609308 10.5859375 5.4453125 C11.1934082 5.89640381 11.80087891 6.34749512 12.42675781 6.81225586 C14.22147003 8.15355464 15.99956434 9.51411799 17.7734375 10.8828125 C18.68996094 11.5840625 19.60648437 12.2853125 20.55078125 13.0078125 C26.53502716 17.69688987 32.21102619 22.70309508 37.7734375 27.8828125 C38.54816406 28.59179688 39.32289063 29.30078125 40.12109375 30.03125 C48.07182354 37.58648894 55.92064349 46.80110184 57.109375 58.06640625 C57.20549056 66.07283267 56.71638518 70.34278988 51.40625 76.45703125 C42.18665143 85.5619582 28.83420092 87.18759598 16.55102539 87.19750977 C1.77776849 86.97268487 -9.67054203 80.733563 -20.1015625 70.4453125 C-29.70772411 60.39938384 -29.70772411 60.39938384 -30.7890625 53.0703125 C-30.2265625 49.8828125 -30.2265625 49.8828125 -28.5390625 47.9453125 C-25.61913979 46.60372639 -24.39397047 46.12866775 -21.2265625 46.8828125 C-18.93609022 48.98241209 -17.12302603 51.42992935 -15.2265625 53.8828125 C-6.90439292 63.89632371 1.10748876 71.67456891 14.6484375 73.3671875 C24.05106962 73.87313324 34.0005349 72.48871974 41.58984375 66.43359375 C43.31669095 64.17102498 43.43153902 62.0117414 43.28515625 59.23046875 C38.90374864 39.12950712 11.27047684 22.84362989 -4.5390625 12.0546875 C-6.2265625 10.8828125 -6.2265625 10.8828125 -7.2265625 9.8828125 C-7.62058706 6.33659147 -7.61191763 4.4839665 -5.6640625 1.4453125 C-3.2265625 -0.1171875 -3.2265625 -0.1171875 0 0 Z " fill="#000000" transform="translate(337.2265625,88.1171875)"/>
<path d="M0 0 C2 3 2 3 2.6875 5.75 C1.55685966 11.09484527 -2.6619461 13.02821271 -7 16 C-32.59744367 33.07470156 -32.59744367 33.07470156 -48.5234375 58.25390625 C-48.78631146 61.65249096 -48.32374453 63.59811024 -46.1875 66.25 C-35.54866954 72.09092653 -24.5143663 74.22713748 -12.625 71.1171875 C-1.55782566 66.85406677 5.36416117 60.13040063 12.0546875 50.57421875 C14 48 14 48 17 46 C22.44444444 46.44444444 22.44444444 46.44444444 25 49 C25.93927982 54.00949236 24.94727707 56.59568602 22.125 60.8125 C12.83164025 73.09768583 1.48107824 83.0112452 -14 86 C-29.54712763 87.54213739 -43.15337267 85.4159939 -56 76 C-61.44625681 70.28143035 -62.64935162 65.43380529 -62.4921875 57.63671875 C-60.81578075 45.24993554 -52.47687578 36.4520533 -44 28 C-43.37738281 27.31808594 -42.75476563 26.63617188 -42.11328125 25.93359375 C-35.32079118 18.62212691 -27.00364875 12.89643516 -19 7 C-18.09169434 6.31599121 -18.09169434 6.31599121 -17.16503906 5.61816406 C-15.58422541 4.43232525 -13.98032609 3.27743813 -12.375 2.125 C-11.49585938 1.48820312 -10.61671875 0.85140625 -9.7109375 0.1953125 C-6.0649931 -1.41226529 -3.80339117 -1.02086271 0 0 Z " fill="#000000" transform="translate(180,89)"/>
<path d="M0 0 C2.42580742 1.65884555 4.49954594 3.26372992 6.6875 5.1875 C27.15675665 22.3035641 57.46991219 47.07588046 85.375 48.375 C89.24664846 47.97448464 91.05768556 47.5219838 94 45 C96.7993455 40.42350438 97.27760082 37.25239903 97 31.9375 C96.73982478 26.94538805 96.83746923 23.99902383 100 20 C102.9375 19 102.9375 19 106 19 C109.16748634 20.71215478 109.84578536 21.53735609 111 25 C111.67475825 35.70529911 111.76209263 45.797732 104.6875 54.4375 C99.45468448 59.91318881 93.64690085 62.09479091 86.1875 62.3125 C52.72839448 61.86874528 11.58365242 31.58365242 -11 9 C-11.5794702 2.74172185 -11.5794702 2.74172185 -9.4375 0 C-5.89387989 -1.45379287 -3.71255501 -0.87422198 0 0 Z " fill="#000000" transform="translate(315,278)"/>
<path d="M0 0 C3.4375 0.75 3.4375 0.75 5.4375 2.75 C6.0625 5.9375 6.0625 5.9375 5.4375 9.75 C3.95166016 11.40307617 3.95166016 11.40307617 1.9765625 13.04296875 C1.24808105 13.65019775 0.51959961 14.25742676 -0.23095703 14.88305664 C-64.42525697 66.28555001 -64.42525697 66.28555001 -96.5625 62.75 C-103.2090358 61.21693043 -107.95203117 58.39409208 -112.15625 53 C-117.13195759 45.03886786 -117.42415717 35.91489898 -116.5625 26.75 C-115.417334 22.90589817 -114.98748074 22.03332049 -111.5625 19.75 C-108.25567832 19.88778424 -106.29635152 20.04162943 -103.875 22.37890625 C-102.09323499 25.59774959 -102.37261746 27.91121692 -102.5625 31.5625 C-102.6746702 37.2418545 -102.65551506 40.95049388 -99.5625 45.75 C-96.30722608 48.63324262 -93.29380387 49.29513247 -88.95703125 49.0859375 C-70.27347106 46.46475287 -52.76238569 35.27768053 -37.5625 24.75 C-36.96131348 24.33637207 -36.36012695 23.92274414 -35.74072266 23.49658203 C-26.33242948 16.9928274 -17.28126926 10.01430726 -8.24145508 3.01171875 C-3.87220182 -0.27173346 -3.87220182 -0.27173346 0 0 Z " fill="#000000" transform="translate(202.5625,277.25)"/>
<path d="M0 0 C1.875 1.0625 1.875 1.0625 3 3 C3.57533545 7.60268358 2.75763564 11.07115787 1.4375 15.5 C0.12842642 20.04435542 -0.42025199 23.36051015 1 28 C3.89397805 32.11835338 7.16200636 33.04826355 12 34 C39.21418904 36.19469266 69.27114821 21.54564719 93.41162109 10.92016602 C97.17081239 9.58377741 99.25199143 9.69634485 103 11 C105 14 105 14 104.953125 17.484375 C104 21 104 21 101.859375 22.828125 C100.32023437 23.53195312 100.32023437 23.53195312 98.75 24.25 C98.15646729 24.52320068 97.56293457 24.79640137 96.95141602 25.07788086 C94.65276813 26.10211868 92.33253873 27.0553326 90 28 C88.95505371 28.42361816 87.91010742 28.84723633 86.83349609 29.28369141 C26.11176617 53.58772791 26.11176617 53.58772791 1 46 C-6.28108137 42.42059817 -10.5259521 38.07117992 -13.3125 30.375 C-15.29937483 20.95971928 -13.05627513 10.58811356 -9 2 C-5.53076119 -0.31282587 -4.07794425 -0.42478586 0 0 Z " fill="#000000" transform="translate(105,233)"/>
<path d="M0 0 C4.81242445 3.95306294 6.37069318 13.08451586 7 19 C7.50944102 26.76897561 6.21137856 33.48339188 1.4375 39.8125 C-3.79560422 45.42311671 -11.54623999 47.45790836 -19 48 C-46.63155229 48.85191113 -74.06251359 37.7506093 -99 27 C-100.14146484 26.5167627 -101.28292969 26.03352539 -102.45898438 25.53564453 C-103.55017578 25.0404834 -104.64136719 24.54532227 -105.765625 24.03515625 C-106.74821289 23.59695557 -107.73080078 23.15875488 -108.74316406 22.70727539 C-111 21 -111 21 -111.85839844 17.95483398 C-112.07957352 13.33952021 -112.07957352 13.33952021 -110 11 C-102.81435588 8.68749298 -97.35101647 11.95173328 -90.75 14.875 C-88.33884529 15.90009577 -85.92468193 16.91813891 -83.5078125 17.9296875 C-82.89090546 18.18796326 -82.27399841 18.44623901 -81.63839722 18.71234131 C-75.06774069 21.43508158 -68.37424342 23.75943355 -61.625 26 C-60.55217773 26.36077637 -59.47935547 26.72155273 -58.37402344 27.09326172 C-34.29255505 35.01829954 -34.29255505 35.01829954 -10 31 C-7.29955946 28.29955946 -7.31111743 26.28150071 -6.953125 22.5703125 C-7.01998667 18.90406434 -8.12083714 15.81331437 -9.28515625 12.36328125 C-10.26664165 9.11847979 -10.41088584 6.35556769 -10 3 C-7.7810369 -1.04634448 -4.19567567 -0.52445946 0 0 Z " fill="#000000" transform="translate(414,233)"/>
<path d="M0 0 C3.5 0.4375 3.5 0.4375 5.375 1.5625 C9.87336194 9.0597699 8.09728999 21.94525715 6.18359375 30.1015625 C3.74503311 38.43447258 -0.12577267 45.86157182 -7.53125 50.7890625 C-18.5542607 56.3405063 -31.03443989 54.78885361 -42.5 51.4375 C-59.46733668 45.78294108 -74.84320154 36.43870917 -89.5625 26.4375 C-90.23563232 25.98076904 -90.90876465 25.52403809 -91.60229492 25.0534668 C-94.52767682 23.0147494 -96.50087434 21.43618849 -98.5 18.4375 C-98.35736712 15.01431083 -98.08460033 13.10870779 -95.8125 10.5 C-92.65276402 9.04822941 -90.84716147 9.63955687 -87.5 10.4375 C-85.4296875 11.64453125 -85.4296875 11.64453125 -83.375 13.25 C-66.71776429 25.43515734 -44.00187049 40.98444742 -22.5 40.4375 C-17.81331524 39.61346751 -14.49287182 38.40491357 -11.0625 35.0625 C-6.34957845 27.1447918 -6.36197745 19.46811401 -6.71484375 10.5390625 C-6.77861449 7.26936275 -6.72699714 4.87704902 -5.2109375 1.94140625 C-3.5 0.4375 -3.5 0.4375 0 0 Z " fill="#000000" transform="translate(402.5,178.5625)"/>
<path d="M0 0 C3.5625 0.3125 3.5625 0.3125 5.28515625 1.3359375 C7.29630291 4.44798707 6.73834609 7.68483729 6.5625 11.25 C6.35383137 19.85666578 7.08129883 27.6363901 11.1875 35.375 C15.70219517 39.0580408 19.89248127 40.35853481 25.734375 40.2578125 C47.46194936 37.84909951 67.1982745 24.69775893 84.72583008 12.49829102 C89.72367526 9.27158172 89.72367526 9.27158172 93.125 9.4375 C96.1856925 10.53621013 97.14015784 11.38879666 98.5625 14.3125 C98.4179664 18.11166904 98.06081123 19.80443535 95.3671875 22.55078125 C94.40039062 23.23527344 93.43359375 23.91976562 92.4375 24.625 C91.90616455 25.00325928 91.3748291 25.38151855 90.82739258 25.77124023 C84.30556766 30.33039611 77.471968 34.37581254 70.5625 38.3125 C69.95003418 38.66731445 69.33756836 39.02212891 68.70654297 39.38769531 C52.43829123 48.76173981 33.65773976 56.93727876 14.5625 53.3125 C6.6680596 50.69189375 1.48442871 46.42103762 -2.6171875 39.25 C-7.54774498 29.17294822 -9.42285143 16.12947928 -6.5625 5.1875 C-4.97943222 1.14188234 -4.39848294 0.39986209 0 0 Z " fill="#000000" transform="translate(109.4375,178.6875)"/>
<path d="M0 0 C2.49347324 2.49347324 2.25963763 3.31975173 2.30859375 6.76171875 C2.33373047 7.71626953 2.35886719 8.67082031 2.38476562 9.65429688 C2.41958129 11.65684223 2.45090183 13.65945177 2.47851562 15.66210938 C2.63831567 21.47337453 2.90848653 25.99187946 6 31 C10.74801292 34.46209276 15.34884319 34.45892807 21 34.375 C22.17175781 34.39240234 22.17175781 34.39240234 23.3671875 34.41015625 C28.2632681 34.38542857 31.87951259 33.90641522 36 31 C40.50219607 25.01293588 39.43504469 17.29256294 39.43945312 10.14648438 C39.45814453 9.14552734 39.47683594 8.14457031 39.49609375 7.11328125 C39.49794678 6.20360596 39.4997998 5.29393066 39.50170898 4.35668945 C40 2 40 2 41.84008789 0.17651367 C44 -1 44 -1 47.0625 -0.9375 C50.50511088 0.1612056 51.18894139 0.94783551 53 4 C53.38818359 6.42260742 53.38818359 6.42260742 53.3984375 9.10546875 C53.40230469 10.08966797 53.40617187 11.07386719 53.41015625 12.08789062 C53.39855469 13.11076172 53.38695312 14.13363281 53.375 15.1875 C53.38660156 16.19103516 53.39820313 17.19457031 53.41015625 18.22851562 C53.37531335 27.15410532 51.97549899 34.80064822 45.74609375 41.49609375 C38.46462764 47.76760259 30.49683964 48.20143773 21.3125 48.25 C20.35666016 48.270625 19.40082031 48.29125 18.41601562 48.3125 C9.60905148 48.36052707 2.09212449 46.8984946 -4.49609375 40.73828125 C-10.9993756 33.22150093 -11.19444038 24.43125053 -11.25 14.9375 C-11.270625 14.05255859 -11.29125 13.16761719 -11.3125 12.25585938 C-11.34185196 7.36508948 -11.26177811 3.93471776 -8 0 C-5.09288879 -1.4535556 -3.10402897 -0.71133997 0 0 Z " fill="#000000" transform="translate(235,115)"/>
<path d="M0 0 C2.49347324 2.49347324 2.25963763 3.31975173 2.30859375 6.76171875 C2.33373047 7.71626953 2.35886719 8.67082031 2.38476562 9.65429688 C2.41958129 11.65684223 2.45090183 13.65945177 2.47851562 15.66210938 C2.63874487 21.48898249 2.98285716 25.94048354 6 31 C10.28604035 34.96195412 15.41411895 34.48175141 20.9375 34.4375 C21.81857422 34.45748047 22.69964844 34.47746094 23.60742188 34.49804688 C29.18625182 34.49386798 32.71388979 33.92390371 37 30 C38.70092562 26.52457742 39.26167388 23.65306714 39.34375 19.8046875 C39.37339844 18.84175781 39.40304687 17.87882812 39.43359375 16.88671875 C39.47803676 14.87109754 39.52230626 12.8554725 39.56640625 10.83984375 C39.61087891 9.39931641 39.61087891 9.39931641 39.65625 7.9296875 C39.67494141 7.05554199 39.69363281 6.18139648 39.71289062 5.28076172 C40 3 40 3 42 0 C44.8125 -1 44.8125 -1 48 -1 C50.66796875 0.796875 50.66796875 0.796875 53 4 C53.69647294 7.76406279 53.60667702 11.43387195 53.5 15.25 C53.50386719 16.74853516 53.50386719 16.74853516 53.5078125 18.27734375 C53.39186932 27.1469967 51.93261872 34.84673649 45.74609375 41.49609375 C38.46462764 47.76760259 30.49683964 48.20143773 21.3125 48.25 C20.35666016 48.270625 19.40082031 48.29125 18.41601562 48.3125 C9.60905148 48.36052707 2.09212449 46.8984946 -4.49609375 40.73828125 C-10.9993756 33.22150093 -11.19444038 24.43125053 -11.25 14.9375 C-11.270625 14.05255859 -11.29125 13.16761719 -11.3125 12.25585938 C-11.34185196 7.36508948 -11.26177811 3.93471776 -8 0 C-5.09288879 -1.4535556 -3.10402897 -0.71133997 0 0 Z " fill="#000000" transform="translate(235,226)"/>
<path d="M0 0 C2.23439065 1.6224217 2.91861459 2.5209312 3.38476562 5.26489258 C3.39185547 6.13267334 3.39894531 7.0004541 3.40625 7.89453125 C3.42816406 8.85037109 3.45007813 9.80621094 3.47265625 10.79101562 C3.48619141 12.28665039 3.48619141 12.28665039 3.5 13.8125 C3.41224185 22.86756678 3.41224185 22.86756678 7 31 C11.54095373 35.11303954 16.02394688 34.51525698 21.875 34.5 C22.85597656 34.52835937 23.83695312 34.55671875 24.84765625 34.5859375 C29.40846285 34.59824737 32.93756681 34.59552634 36.6328125 31.71875 C39.99119438 27.86159853 40.11132792 24.90247064 40.2109375 19.90234375 C40.25347656 18.45311523 40.25347656 18.45311523 40.296875 16.97460938 C40.34905398 14.94615154 40.39329642 12.91747436 40.4296875 10.88867188 C40.460625 9.92380859 40.4915625 8.95894531 40.5234375 7.96484375 C40.54325684 7.0843335 40.56307617 6.20382324 40.58349609 5.29663086 C41.08206067 2.54751189 41.76877475 1.64196307 44 0 C47.38188361 -0.50368479 49.22844268 -0.47351893 52.1640625 1.328125 C55.12793677 5.64150799 54.53717357 10.08485611 54.4375 15.1875 C54.44458984 16.19103516 54.45167969 17.19457031 54.45898438 18.22851562 C54.37622321 28.0134322 52.55390417 35.15554989 45.76953125 42.33984375 C38.81591554 48.8636554 31.34214766 48.2376273 22.3125 48.3125 C21.16587891 48.34150391 20.01925781 48.37050781 18.83789062 48.40039062 C10.54033806 48.46213544 4.32827201 47.35991285 -2.3046875 42.2109375 C-3.08199219 41.30214844 -3.08199219 41.30214844 -3.875 40.375 C-4.40867188 39.78460938 -4.94234375 39.19421875 -5.4921875 38.5859375 C-9.78983549 31.21535985 -10.46236779 23.49361738 -10.3125 15.125 C-10.31572266 14.20203125 -10.31894531 13.2790625 -10.32226562 12.328125 C-10.26085235 4.62355105 -10.26085235 4.62355105 -8 1 C-5.20129973 -0.39935013 -3.09501208 -0.25265405 0 0 Z " fill="#000000" transform="translate(234,281)"/>
<path d="M0 0 C3.262646 0.555344 3.98858587 0.92556102 5.9375 3.5 C6.32226562 5.74902344 6.32226562 5.74902344 6.34375 8.359375 C6.36566406 9.31070313 6.38757813 10.26203125 6.41015625 11.2421875 C6.41917969 12.23476562 6.42820313 13.22734375 6.4375 14.25 C6.52369154 23.76850502 6.52369154 23.76850502 9.9375 32.5 C14.58620491 35.59913661 19.34295772 34.90857763 24.8125 34.9375 C25.90175781 34.97037109 26.99101562 35.00324219 28.11328125 35.03710938 C34.56775251 35.13601435 34.56775251 35.13601435 40.1328125 32.16015625 C42.66579274 28.42647759 43.06510763 25.68779459 43.1484375 21.28125 C43.19097656 19.75951172 43.19097656 19.75951172 43.234375 18.20703125 C43.28645405 16.06918636 43.33072665 13.93113703 43.3671875 11.79296875 C43.41359375 10.27123047 43.41359375 10.27123047 43.4609375 8.71875 C43.48075684 7.78998047 43.50057617 6.86121094 43.52099609 5.90429688 C44.01002138 3.08136545 44.63131065 2.16018462 46.9375 0.5 C51.01544425 0.07521414 52.46826119 0.18717413 55.9375 2.5 C57.48792674 7.15128023 57.16324571 11.81542036 57.1875 16.6875 C57.208125 17.70392578 57.22875 18.72035156 57.25 19.76757812 C57.29321128 28.13436304 55.76932895 35.14769601 50.54614258 41.90722656 C44.38073806 48.01180982 36.84111001 49.12126236 28.49609375 49.13476562 C27.28050781 49.11091797 26.06492187 49.08707031 24.8125 49.0625 C23.58917969 49.07345703 22.36585938 49.08441406 21.10546875 49.09570312 C12.43184153 49.02537642 6.9417107 47.86717718 0.1875 42.1875 C-6.64774062 34.02318482 -7.26766522 26.24879423 -7.375 15.9375 C-7.41850586 14.53854492 -7.41850586 14.53854492 -7.46289062 13.11132812 C-7.50323189 8.75757482 -7.47223405 6.19952458 -5.234375 2.37890625 C-3.0625 0.5 -3.0625 0.5 0 0 Z " fill="#000000" transform="translate(231.0625,170.5)"/>
<path d="M0 0 C2.49347324 2.49347324 2.25963763 3.31975173 2.30859375 6.76171875 C2.33373047 7.71626953 2.35886719 8.67082031 2.38476562 9.65429688 C2.41958129 11.65684223 2.45090183 13.65945177 2.47851562 15.66210938 C2.63793481 21.45952398 2.83614108 26.04307114 6 31 C10.87559123 33.92774473 15.41830305 34.47123615 21 34.375 C21.67289062 34.38660156 22.34578125 34.39820313 23.0390625 34.41015625 C27.98737479 34.38149807 31.72215294 33.48492586 36 31 C40.562561 25.13118432 39.43508573 17.22603828 39.43945312 10.14648438 C39.45814453 9.14552734 39.47683594 8.14457031 39.49609375 7.11328125 C39.49794678 6.20360596 39.4997998 5.29393066 39.50170898 4.35668945 C40 2 40 2 41.84008789 0.17651367 C44 -1 44 -1 47.0625 -0.9375 C50.50511088 0.1612056 51.18894139 0.94783551 53 4 C53.38818359 6.42260742 53.38818359 6.42260742 53.3984375 9.10546875 C53.40230469 10.08966797 53.40617187 11.07386719 53.41015625 12.08789062 C53.39855469 13.11076172 53.38695312 14.13363281 53.375 15.1875 C53.38660156 16.19103516 53.39820313 17.19457031 53.41015625 18.22851562 C53.37535404 27.14368069 51.9872234 34.82535696 45.734375 41.49609375 C36.6035972 49.41354748 24.36694028 48.42354158 13 48 C5.95279341 47.38324304 0.2480268 44.79035004 -5 40 C-10.84466191 32.22103332 -11.19491691 24.3498237 -11.25 14.9375 C-11.270625 14.05255859 -11.29125 13.16761719 -11.3125 12.25585938 C-11.34185196 7.36508948 -11.26177811 3.93471776 -8 0 C-5.09288879 -1.4535556 -3.10402897 -0.71133997 0 0 Z " fill="#000000" transform="translate(235,337)"/>
</svg>
